<?xml version="1.0" encoding="UTF-8" standalone="no"?>
<svg
   xmlns:dc="http://purl.org/dc/elements/1.1/"
   xmlns:cc="http://creativecommons.org/ns#"
   xmlns:rdf="http://www.w3.org/1999/02/22-rdf-syntax-ns#"
   xmlns:svg="http://www.w3.org/2000/svg"
   xmlns="http://www.w3.org/2000/svg"
   xmlns:sodipodi="http://sodipodi.sourceforge.net/DTD/sodipodi-0.dtd"
   xmlns:inkscape="http://www.inkscape.org/namespaces/inkscape"
   id="svg8"
   version="1.1"
   viewBox="0 0 203.94113 32.821861"
   height="32.821861mm"
   width="203.94113mm"
   sodipodi:docname="coherencelengthpdf.svg"
   inkscape:version="1.0.2 (e86c870879, 2021-01-15)">
  <defs
     id="defs2" />
  <sodipodi:namedview
     id="base"
     pagecolor="#ffffff"
     bordercolor="#666666"
     borderopacity="1.0"
     inkscape:pageopacity="0.0"
     inkscape:pageshadow="2"
     inkscape:zoom="1.28"
     inkscape:cx="333.97262"
     inkscape:cy="-25.321774"
     inkscape:document-units="mm"
     inkscape:current-layer="layer1"
     inkscape:document-rotation="0"
     showgrid="true"
     inkscape:window-width="1920"
     inkscape:window-height="1011"
     inkscape:window-x="0"
     inkscape:window-y="0"
     inkscape:window-maximized="1"
     fit-margin-top="0"
     fit-margin-left="0"
     fit-margin-right="0"
     fit-margin-bottom="0">
    <inkscape:grid
       type="xygrid"
       id="grid1098"
       originx="-18.000001"
       originy="-90.930713" />
  </sodipodi:namedview>
  <metadata
     id="metadata5">
    <rdf:RDF>
      <cc:Work
         rdf:about="">
        <dc:format>image/svg+xml</dc:format>
        <dc:type
           rdf:resource="http://purl.org/dc/dcmitype/StillImage" />
        <dc:title></dc:title>
      </cc:Work>
    </rdf:RDF>
  </metadata>
  <g
     inkscape:label="Lager 1"
     inkscape:groupmode="layer"
     id="layer1"
     transform="translate(-18,-90.93071)">
    <path
       style="fill:none;stroke:#000000;stroke-width:0.267716;stroke-linejoin:round;stroke-miterlimit:10;stroke-dasharray:none;stroke-opacity:0.947517"
       d="m 18.317602,103.15131 c 0.243129,-0.96615 0.486325,-1.932 0.729454,-2.85586 0.243129,-0.923849 0.486258,-1.805407 0.729387,-2.606325 0.243129,-0.800705 0.486258,-1.520619 0.729455,-2.128306 0.243128,-0.607687 0.486257,-1.103026 0.729386,-1.464444 0.243129,-0.361417 0.486258,-0.588851 0.729455,-0.672381 0.243129,-0.08356 0.486258,-0.02319 0.729386,0.178472 0.243129,0.201629 0.486258,0.544514 0.729387,1.013715 0.243197,0.4692 0.486326,1.064594 0.729455,1.760315 0.243129,0.695814 0.486257,1.491557 0.729386,2.353031 0.243197,0.861169 0.486326,1.787763 0.729455,2.739613 0.243129,0.95155 0.486258,1.92804 0.729387,2.88689 0.243128,0.95854 0.486325,1.89944 0.729454,2.78131 0.243129,0.88216 0.486258,1.70499 0.729387,2.43287 0.243129,0.72819 0.486326,1.36114 0.729454,1.87145 0.243129,0.51031 0.486258,0.89798 0.729387,1.1463 0.243129,0.248 0.486258,0.35664 0.729455,0.32073 0.243129,-0.0359 0.486257,-0.21605 0.729386,-0.53283 0.243129,-0.31647 0.486258,-0.76958 0.729455,-1.33953 0.243129,-0.56965 0.486258,-1.25615 0.729387,-2.02907 0.243128,-0.77323 0.486257,-1.63287 0.729386,-2.54152 0.243197,-0.90894 0.486326,-1.86657 0.729455,-2.83151 0.243129,-0.96493 0.486258,-1.93686 0.729386,-2.8735 0.243197,-0.93694 0.486326,-1.837972 0.729455,-2.664451 0.243129,-0.826783 0.486258,-1.578345 0.729387,-2.222456 0.243129,-0.644083 0.486326,-1.180442 0.729454,-1.585738 0.243129,-0.405268 0.486258,-0.679411 0.729387,-0.810443 0.243129,-0.131032 0.486326,-0.118951 0.729455,0.03572 0.243129,0.154676 0.486257,0.451886 0.729386,0.878758 0.243129,0.426842 0.486258,0.983224 0.729455,1.644954 0.243129,0.661701 0.486258,1.42869 0.729386,2.267341 0.243129,0.838651 0.486258,1.748815 0.729455,2.691235 0.243129,0.94211 0.486258,1.91618 0.729387,2.87959 0.243129,0.96341 0.486257,1.91617 0.729454,2.8166 0.243129,0.90042 0.486258,1.7482 0.729387,2.50683 0.243129,0.75831 0.486258,1.42746 0.729387,1.97764 0.243197,0.55048 0.486325,0.98197 0.729454,1.27593 0.243129,0.29396 0.486258,0.45037 0.729387,0.46254 0.243197,0.0118 0.486326,-0.12081 0.729455,-0.39195 0.243128,-0.27113 0.486257,-0.68072 0.729386,-1.21141 0.243129,-0.53039 0.486326,-1.1816 0.729455,-1.925 0.243129,-0.74341 0.486258,-1.57932 0.729386,-2.47062 0.243129,-0.8916 0.486326,-1.83858 0.729455,-2.79986 0.243129,-0.96128 0.486258,-1.93687 0.729387,-2.88415 0.243128,-0.94729 0.486257,-1.865976 0.729454,-2.716495 0.243129,-0.850214 0.486258,-1.631718 0.729387,-2.310642 0.243129,-0.678924 0.486258,-1.254995 0.729455,-1.703168 0.243128,-0.448142 0.486257,-0.768296 0.729386,-0.946525 0.243129,-0.178198 0.486258,-0.21444 0.729387,-0.107114 0.243197,0.107327 0.486326,0.358162 0.729454,0.74164 0.243129,0.383479 0.486258,0.899481 0.729387,1.525547 0.243197,0.626098 0.486326,1.36214 0.729455,2.176143 0.243129,0.813698 0.486257,1.705601 0.729386,2.636154 0.243129,0.93055 0.486326,1.89975 0.729455,2.86559 0.243129,0.96585 0.486258,1.92804 0.729387,2.8446 0.243128,0.91655 0.486325,1.78746 0.729454,2.57468 0.243129,0.78722 0.486258,1.49046 0.729387,2.07929 0.243129,0.58912 0.486258,1.06322 0.729454,1.40251 0.243129,0.33929 0.486258,0.54287 0.729387,0.60282 0.243129,0.0597 0.486258,-0.025 0.729455,-0.24983 0.243129,-0.22488 0.486257,-0.59034 0.729386,-1.08027 0.243129,-0.48992 0.486258,-1.1043 0.729387,-1.81636 0.243197,-0.71206 0.486326,-1.5218 0.729455,-2.39363 0.243128,-0.87182 0.486257,-1.80601 0.729386,-2.76152 0.243197,-0.9555 0.486326,-1.9323 0.729455,-2.8878 0.243129,-0.95551 0.486258,-1.889406 0.729386,-2.761226 0.243129,-0.872124 0.486326,-1.681562 0.729455,-2.393717 0.243129,-0.712092 0.486258,-1.326443 0.729387,-1.816396 0.243129,-0.489955 0.486326,-0.855327 0.729454,-1.080297 0.243129,-0.224938 0.486258,-0.309412 0.729387,-0.249708 0.243129,0.0597 0.486258,0.263585 0.729455,0.602727 0.243128,0.339142 0.486257,0.813516 0.729386,1.402427 0.243129,0.588943 0.486258,1.292302 0.729455,2.079497 0.243129,0.787224 0.486189,1.658131 0.729386,2.574683 0.243195,0.91656 0.48639,1.87875 0.729587,2.8446 0.243197,0.96584 0.486394,1.93504 0.72891,2.86559 0.243197,0.93055 0.486394,1.82215 0.729591,2.63616 0.243197,0.814 0.486394,1.54979 0.729591,2.17604 0.243197,0.62595 0.486394,1.14204 0.729591,1.52546 0.243197,0.38342 0.486394,0.63446 0.72891,0.74158 0.243197,0.10741 0.486394,0.0712 0.729591,-0.10712 0.243196,-0.17801 0.486393,-0.49814 0.72959,-0.94637 0.243197,-0.44823 0.486394,-1.02427 0.729591,-1.70316 0.243197,-0.6789 0.486394,-1.46065 0.72891,-2.31086 0.243197,-0.85021 0.486394,-1.7689 0.729591,-2.71619 0.243197,-0.94728 0.486394,-1.92286 0.729591,-2.88415 0.243197,-0.96158 0.486394,-1.90857 0.729591,-2.799866 0.243197,-0.891599 0.486394,-1.727206 0.72891,-2.470673 0.243197,-0.743496 0.486394,-1.394668 0.729591,-1.925185 0.243197,-0.530547 0.486394,-0.940287 0.72959,-1.211418 0.243197,-0.271162 0.486394,-0.403624 0.729591,-0.391695 0.243197,0.01196 0.486394,0.168338 0.72891,0.462322 0.243197,0.294015 0.486394,0.725574 0.729591,1.2759 0.243197,0.550327 0.486394,1.2193 0.729591,1.977891 0.243197,0.75862 0.486394,1.6064 0.729591,2.506824 0.243197,0.90043 0.486394,1.85289 0.72891,2.8163 0.243197,0.96341 0.486394,1.93748 0.729591,2.8799 0.243197,0.94241 0.486394,1.85258 0.729591,2.69122 0.243197,0.83865 0.486394,1.60549 0.72959,2.26734 0.243197,0.66155 0.485713,1.21811 0.72891,1.64474 0.243197,0.42694 0.486394,0.72424 0.729591,0.87882 0.243197,0.15459 0.486394,0.16676 0.729591,0.0356 0.243197,-0.13085 0.486394,-0.40503 0.729591,-0.81035 0.243197,-0.40533 0.485713,-0.94151 0.72891,-1.58571 0.243197,-0.6442 0.486394,-1.39582 0.729591,-2.2223 0.243197,-0.82648 0.486394,-1.72782 0.729591,-2.66445 0.243197,-0.93664 0.486394,-1.90858 0.729591,-2.87381 0.243197,-0.96494 0.485712,-1.92257 0.728909,-2.831212 0.243197,-0.908944 0.486394,-1.768287 0.729588,-2.541514 0.2432,-0.773106 0.4864,-1.459485 0.72959,-2.029287 0.2432,-0.569801 0.4864,-1.022873 0.7296,-1.339558 0.24319,-0.316685 0.48571,-0.496862 0.7289,-0.532678 0.2432,-0.03585 0.4864,0.07266 0.729598,0.320793 0.24319,0.248127 0.48639,0.635805 0.72959,1.146207 0.24319,0.510372 0.48639,1.143346 0.72959,1.871354 0.24319,0.7281 0.48571,1.550927 0.72891,2.432789 0.24319,0.881866 0.48639,1.822756 0.72959,2.781606 0.2432,0.95855 0.48639,1.93505 0.72959,2.8869 0.2432,0.95155 0.48639,1.87814 0.72959,2.73961 0.24252,0.86147 0.48571,1.65722 0.72891,2.35285 0.2432,0.69563 0.48639,1.29115 0.72959,1.76037 0.2432,0.46923 0.48639,0.81218 0.72959,1.01363 0.2432,0.20175 0.4864,0.262 0.72959,0.17862 0.24252,-0.0837 0.48572,-0.311 0.72891,-0.6725 0.2432,-0.36151 0.4864,-0.85661 0.72959,-1.4643 0.2432,-0.60768 0.4864,-1.32765 0.72959,-2.12857 0.2432,-0.80061 0.4864,-1.68217 0.7296,-2.60603 0.24251,-0.92385 0.48571,-1.89 0.7289,-2.85615"
       title="sin(x)"
       id="path1047" />
    <path
       style="fill:none;stroke:#000000;stroke-width:0.266006;stroke-linejoin:round;stroke-miterlimit:10;stroke-dasharray:none;stroke-opacity:0.947517"
       d="m 18.351816,103.23259 c 0.240016,-0.96623 0.480102,-1.93215 0.720118,-2.85607 0.240018,-0.923928 0.480035,-1.805548 0.720052,-2.60653 0.240017,-0.800766 0.480034,-1.520734 0.720119,-2.128466 0.240016,-0.607733 0.480033,-1.10311 0.72005,-1.464555 0.240018,-0.361444 0.480035,-0.588896 0.720119,-0.672432 0.240018,-0.08357 0.480034,-0.02319 0.720052,0.178484 0.240016,0.201645 0.480034,0.544557 0.72005,1.013792 0.240085,0.469235 0.480102,1.064675 0.720118,1.76045 0.240019,0.695864 0.480034,1.491669 0.720053,2.353207 0.240083,0.861233 0.480101,1.7879 0.720118,2.73982 0.240017,0.95162 0.480033,1.92819 0.720052,2.8871 0.240016,0.95862 0.480101,1.89959 0.720118,2.78153 0.240016,0.88223 0.480034,1.70511 0.72005,2.43305 0.240017,0.72824 0.480102,1.36124 0.72012,1.8716 0.240017,0.51034 0.480034,0.89804 0.72005,1.14638 0.240018,0.24802 0.480035,0.35667 0.720119,0.32075 0.240017,-0.0359 0.480035,-0.21605 0.720051,-0.53287 0.240018,-0.31649 0.480034,-0.76964 0.720118,-1.33963 0.240018,-0.56969 0.480035,-1.25624 0.720052,-2.02923 0.240017,-0.77328 0.480035,-1.63298 0.720051,-2.5417 0.240085,-0.90901 0.480102,-1.86672 0.72012,-2.83172 0.240016,-0.96501 0.480033,-1.93702 0.720051,-2.87372 0.240083,-0.937012 0.4801,-1.838116 0.720119,-2.664654 0.240016,-0.826847 0.480033,-1.578464 0.72005,-2.222624 0.240017,-0.644132 0.480103,-1.180532 0.720118,-1.58586 0.240017,-0.405297 0.480035,-0.679462 0.720052,-0.810503 0.240016,-0.131042 0.480102,-0.11896 0.720119,0.03572 0.240016,0.154689 0.480034,0.451918 0.72005,0.878824 0.240018,0.426874 0.480035,0.983299 0.720119,1.645079 0.240018,0.661752 0.480033,1.428798 0.720052,2.267511 0.240016,0.838719 0.480033,1.748957 0.720119,2.691437 0.240017,0.94219 0.480033,1.91631 0.72005,2.87982 0.240017,0.96346 0.480034,1.9163 0.720119,2.8168 0.240017,0.90049 0.480034,1.74834 0.720051,2.50702 0.240018,0.75838 0.480034,1.42757 0.720052,1.97779 0.240084,0.55052 0.480101,0.98205 0.720118,1.27603 0.240017,0.29397 0.480034,0.4504 0.720051,0.46256 0.240084,0.0118 0.480102,-0.12082 0.720118,-0.39198 0.240017,-0.27115 0.480035,-0.68075 0.720052,-1.2115 0.240018,-0.53043 0.480102,-1.18168 0.720119,-1.92513 0.240016,-0.74347 0.480035,-1.57945 0.72005,-2.47081 0.240018,-0.89168 0.480101,-1.83872 0.720119,-2.80008 0.240016,-0.96135 0.480035,-1.937 0.720051,-2.88437 0.240017,-0.94736 0.480036,-1.86611 0.720119,-2.71669 0.240018,-0.850278 0.480034,-1.631841 0.720051,-2.310817 0.240017,-0.678975 0.480034,-1.255089 0.720119,-1.703296 0.240017,-0.448176 0.480034,-0.768354 0.720052,-0.946597 0.240016,-0.178211 0.480032,-0.214456 0.720052,-0.107122 0.240083,0.107335 0.4801,0.358188 0.720117,0.741697 0.240017,0.383508 0.480033,0.899546 0.720052,1.525662 0.240084,0.626145 0.4801,1.362243 0.720117,2.176307 0.240018,0.81376 0.480036,1.705731 0.72005,2.636356 0.24002,0.93062 0.480104,1.89989 0.720121,2.86581 0.240016,0.96591 0.480034,1.92818 0.72005,2.84481 0.240017,0.91661 0.480103,1.78759 0.720119,2.57488 0.240016,0.78727 0.480035,1.49056 0.720052,2.07944 0.240016,0.58916 0.480036,1.0633 0.720118,1.40262 0.240015,0.33932 0.480032,0.54291 0.720048,0.60286 0.240018,0.0597 0.480037,-0.025 0.72012,-0.24985 0.240017,-0.22489 0.480033,-0.59038 0.720051,-1.08035 0.240016,-0.48996 0.480035,-1.10438 0.720051,-1.8165 0.240084,-0.71212 0.480102,-1.52191 0.720118,-2.39381 0.240018,-0.87188 0.480034,-1.80614 0.720053,-2.76173 0.240083,-0.95557 0.480101,-1.93244 0.720117,-2.88802 0.240017,-0.95558 0.480036,-1.889545 0.720052,-2.761428 0.240017,-0.872189 0.4801,-1.681689 0.720119,-2.393898 0.240015,-0.712146 0.480033,-1.326543 0.72005,-1.816533 0.240018,-0.489993 0.480103,-0.855392 0.720119,-1.080379 0.240016,-0.224955 0.480035,-0.309435 0.720051,-0.249727 0.240017,0.0597 0.480034,0.263605 0.720119,0.602773 0.240017,0.339168 0.480034,0.813577 0.72005,1.402533 0.240019,0.588987 0.480036,1.2924 0.720119,2.079655 0.240017,0.787286 0.479967,1.658254 0.720052,2.574874 0.240083,0.91663 0.480166,1.8789 0.720251,2.84481 0.240079,0.96593 0.480159,1.93519 0.719581,2.86581 0.240081,0.93062 0.480162,1.82229 0.720249,2.63636 0.240095,0.81406 0.480169,1.54992 0.720256,2.1762 0.240081,0.62599 0.480175,1.14213 0.720257,1.52558 0.240081,0.38344 0.480169,0.63451 0.719577,0.74164 0.240088,0.10742 0.480168,0.0712 0.720249,-0.10713 0.240094,-0.17802 0.480175,-0.49819 0.720256,-0.94644 0.240074,-0.44828 0.480168,-1.02436 0.720249,-1.7033 0.240088,-0.67894 0.480168,-1.46075 0.71959,-2.31103 0.240074,-0.85027 0.480162,-1.76904 0.72025,-2.71638 0.240088,-0.94736 0.480169,-1.92302 0.720256,-2.88437 0.240074,-0.96167 0.480169,-1.90872 0.720249,-2.800086 0.240088,-0.891661 0.480169,-1.727335 0.71957,-2.470859 0.240095,-0.743552 0.480182,-1.394773 0.720263,-1.92533 0.240074,-0.530587 0.480168,-0.940358 0.72025,-1.21151 0.240081,-0.271183 0.480162,-0.403654 0.720256,-0.391725 0.240081,0.01196 0.480168,0.168351 0.719577,0.462358 0.240087,0.294036 0.480161,0.725629 0.720249,1.275996 0.240087,0.550369 0.480175,1.219393 0.720263,1.978041 0.240073,0.758676 0.480154,1.606518 0.720255,2.507012 0.240075,0.900493 0.480163,1.853033 0.719585,2.816513 0.240074,0.96349 0.480161,1.93762 0.720242,2.88011 0.240074,0.94249 0.480175,1.85272 0.720256,2.69143 0.240081,0.83872 0.480168,1.60561 0.720249,2.26752 0.240081,0.66159 0.479496,1.2182 0.719577,1.64487 0.240087,0.42696 0.480182,0.72428 0.720257,0.87887 0.240087,0.1546 0.480168,0.16678 0.720256,0.0356 0.240087,-0.13085 0.480161,-0.40505 0.720249,-0.81042 0.240101,-0.40536 0.479503,-0.94157 0.719583,-1.58582 0.240074,-0.64425 0.480162,-1.39593 0.720256,-2.22246 0.240088,-0.82655 0.480162,-1.72796 0.720257,-2.66466 0.240081,-0.93671 0.480155,-1.90872 0.720242,-2.87403 0.240088,-0.96501 0.47951,-1.92271 0.719591,-2.831424 0.240074,-0.909015 0.480161,-1.768421 0.720249,-2.541704 0.240081,-0.773166 0.480168,-1.459597 0.720253,-2.029442 0.240093,-0.569844 0.480176,-1.022951 0.720249,-1.339659 0.240094,-0.316709 0.479498,-0.496899 0.719592,-0.532718 0.240073,-0.03585 0.480156,0.07267 0.720249,0.320817 0.240073,0.248145 0.480166,0.635853 0.720249,1.146293 0.240091,0.510411 0.480163,1.143433 0.720253,1.871496 0.24009,0.728156 0.4795,1.551046 0.71958,2.432969 0.24008,0.881932 0.48016,1.822902 0.72024,2.781822 0.2401,0.95862 0.48018,1.9352 0.72026,2.88711 0.2401,0.95162 0.48017,1.87829 0.72025,2.73982 0.23942,0.86154 0.47951,1.65734 0.71959,2.35303 0.2401,0.69568 0.48015,1.29124 0.72024,1.76051 0.24009,0.46927 0.48017,0.81222 0.72026,1.0137 0.2401,0.20176 0.48018,0.26202 0.72025,0.17863 0.23941,-0.0837 0.47951,-0.31101 0.71959,-0.67255 0.24008,-0.36153 0.48017,-0.85668 0.72025,-1.46441 0.24009,-0.60773 0.48017,-1.32775 0.72025,-2.12873 0.24008,-0.80068 0.48019,-1.6823 0.72026,-2.60623 0.23942,-0.92392 0.47948,-1.89015 0.71957,-2.85637"
       title="sin(x)"
       id="path1047-3" />
    <path
       style="fill:none;stroke:#000000;stroke-width:0.269309;stroke-linejoin:round;stroke-miterlimit:10;stroke-dasharray:none;stroke-opacity:0.947517"
       d="m 18.436518,103.18751 c 0.246044,-0.9661 0.492158,-1.93189 0.738203,-2.85569 0.246046,-0.923805 0.49209,-1.805312 0.738133,-2.606183 0.246045,-0.800659 0.49209,-1.52053 0.738202,-2.128181 0.246046,-0.607653 0.492091,-1.102962 0.738134,-1.46436 0.246046,-0.361396 0.49209,-0.588817 0.738204,-0.672342 0.246046,-0.08355 0.492089,-0.02319 0.738134,0.178462 0.246044,0.201618 0.492087,0.544482 0.738133,1.013655 0.246114,0.469173 0.492158,1.064533 0.738203,1.760214 0.246044,0.695774 0.492088,1.49147 0.738133,2.352895 0.246113,0.861119 0.492157,1.78766 0.738202,2.73945 0.246044,0.95149 0.492089,1.92793 0.738134,2.88672 0.246045,0.9585 0.492158,1.89934 0.738202,2.78116 0.246045,0.88211 0.492088,1.70488 0.738133,2.43273 0.246045,0.72815 0.492159,1.36105 0.738203,1.87134 0.246045,0.51028 0.492089,0.89792 0.738134,1.14623 0.246044,0.24798 0.49209,0.35662 0.738202,0.3207 0.246045,-0.0359 0.492088,-0.21602 0.738133,-0.53279 0.246045,-0.31646 0.492091,-0.76952 0.738204,-1.33945 0.246044,-0.56962 0.492089,-1.25608 0.738132,-2.02895 0.246047,-0.77318 0.49209,-1.63278 0.738134,-2.54138 0.246111,-0.90888 0.492157,-1.86647 0.7382,-2.83133 0.246044,-0.96489 0.49209,-1.93676 0.73814,-2.87335 0.246106,-0.936881 0.492152,-1.837861 0.738195,-2.664292 0.246045,-0.826736 0.492097,-1.578255 0.738135,-2.222328 0.246044,-0.644044 0.492165,-1.180373 0.738203,-1.585646 0.246043,-0.405243 0.492096,-0.679371 0.738133,-0.810395 0.246044,-0.131024 0.492165,-0.118943 0.73821,0.03572 0.246036,0.154667 0.492088,0.451859 0.738132,0.878706 0.246038,0.426819 0.492089,0.983168 0.738203,1.644859 0.246037,0.661664 0.492082,1.428609 0.738133,2.267211 0.246039,0.838602 0.492083,1.748715 0.738203,2.691075 0.246045,0.94206 0.492083,1.91607 0.738135,2.87943 0.246044,0.96335 0.492081,1.91606 0.738195,2.81643 0.246051,0.90038 0.492088,1.7481 0.738133,2.50668 0.246051,0.75827 0.492089,1.4274 0.73814,1.97753 0.246114,0.55045 0.492158,0.98192 0.738196,1.27586 0.246051,0.29393 0.492096,0.45033 0.738134,0.4625 0.246113,0.0118 0.492165,-0.1208 0.738201,-0.39192 0.246045,-0.27111 0.492098,-0.68068 0.738135,-1.21135 0.246051,-0.53036 0.492165,-1.18151 0.738209,-1.92487 0.246038,-0.74337 0.492089,-1.57925 0.738134,-2.47047 0.246037,-0.89155 0.492151,-1.83849 0.738202,-2.7997 0.246038,-0.96123 0.492089,-1.93676 0.738134,-2.884 0.246036,-0.94723 0.492088,-1.865858 0.738203,-2.716327 0.246043,-0.850166 0.492082,-1.631625 0.738133,-2.310509 0.246044,-0.678884 0.492082,-1.254922 0.738196,-1.703069 0.24605,-0.448117 0.492089,-0.76825 0.73814,-0.94647 0.246045,-0.178189 0.492082,-0.214427 0.738134,-0.107107 0.246113,0.10732 0.492158,0.35814 0.738195,0.741597 0.246051,0.383456 0.492096,0.899427 0.738133,1.525457 0.246121,0.626063 0.492165,1.362061 0.738204,2.176016 0.24605,0.813652 0.492096,1.705503 0.738133,2.636002 0.24605,0.9305 0.492164,1.89964 0.73821,2.86542 0.246037,0.9658 0.492088,1.92793 0.738133,2.84444 0.246038,0.91649 0.492157,1.78736 0.738203,2.57453 0.246036,0.78717 0.492088,1.49038 0.738132,2.07917 0.246038,0.58908 0.492089,1.06316 0.738203,1.40242 0.246045,0.33928 0.492082,0.54285 0.738134,0.60279 0.246044,0.0597 0.492082,-0.025 0.738202,-0.24982 0.246045,-0.22485 0.492083,-0.5903 0.738134,-1.08021 0.246045,-0.48987 0.492083,-1.10423 0.738134,-1.81625 0.246113,-0.71202 0.492157,-1.52171 0.738195,-2.39349 0.246051,-0.87176 0.492096,-1.8059 0.738133,-2.76136 0.246122,-0.95544 0.492166,-1.93219 0.738203,-2.88763 0.246052,-0.95545 0.492095,-1.889293 0.738133,-2.761064 0.246052,-0.872073 0.492166,-1.681464 0.73821,-2.393576 0.246038,-0.712053 0.492089,-1.326368 0.738135,-1.816293 0.246037,-0.489925 0.492157,-0.855277 0.738201,-1.080233 0.246038,-0.224926 0.492088,-0.309395 0.738135,-0.249695 0.246036,0.05969 0.492088,0.263571 0.738202,0.602692 0.246044,0.339123 0.49208,0.813468 0.738133,1.402346 0.246044,0.588908 0.492081,1.292226 0.738203,2.079377 0.24604,0.787178 0.492016,1.658035 0.73814,2.574536 0.246103,0.9165 0.492214,1.87864 0.738323,2.84443 0.246118,0.96579 0.492228,1.93493 0.737654,2.86543 0.246111,0.93048 0.492221,1.82204 0.738337,2.63599 0.246118,0.81396 0.492235,1.54971 0.738344,2.17593 0.246118,0.62591 0.492228,1.14197 0.738339,1.52537 0.246109,0.38339 0.492226,0.63442 0.737659,0.74153 0.246111,0.10742 0.492221,0.0712 0.738339,-0.10711 0.246109,-0.178 0.492226,-0.49811 0.738337,-0.94632 0.24611,-0.44819 0.492227,-1.02421 0.738344,-1.70306 0.246117,-0.67886 0.492228,-1.46056 0.73764,-2.31072 0.246117,-0.85017 0.492227,-1.76879 0.738351,-2.71604 0.24611,-0.94721 0.49222,-1.92274 0.73833,-2.88397 0.246118,-0.96153 0.492235,-1.90846 0.738344,-2.79971 0.246111,-0.891547 0.492228,-1.727105 0.737648,-2.470529 0.246117,-0.743454 0.492227,-1.394588 0.738337,-1.925074 0.24611,-0.530516 0.492221,-0.940232 0.738352,-1.211347 0.246116,-0.271147 0.492226,-0.403601 0.738337,-0.391673 0.246116,0.01196 0.492227,0.168329 0.737653,0.462297 0.24611,0.293997 0.492228,0.72553 0.738345,1.275824 0.246116,0.550296 0.492227,1.21923 0.73833,1.977776 0.246111,0.758577 0.492227,1.606307 0.738337,2.506679 0.246125,0.900377 0.492235,1.852777 0.737661,2.816137 0.246111,0.96335 0.492227,1.93737 0.738337,2.87973 0.246111,0.94236 0.492227,1.85247 0.738344,2.69107 0.246118,0.83859 0.492221,1.6054 0.738338,2.2672 0.24611,0.66152 0.491536,1.21805 0.737654,1.64465 0.246117,0.42691 0.492234,0.72419 0.738344,0.87877 0.24611,0.15458 0.492221,0.16676 0.738331,0.0356 0.246116,-0.13083 0.492234,-0.40499 0.738358,-0.81031 0.24611,-0.40528 0.491523,-0.94143 0.737633,-1.58561 0.24611,-0.64416 0.492227,-1.39574 0.738344,-2.22217 0.246116,-0.82643 0.492234,-1.72772 0.738344,-2.66429 0.246111,-0.93659 0.49222,-1.90846 0.738331,-2.87365 0.24611,-0.96487 0.49155,-1.92245 0.737659,-2.831042 0.246103,-0.908892 0.492215,-1.768185 0.738328,-2.541367 0.246123,-0.773059 0.492236,-1.4594 0.738348,-2.029168 0.246123,-0.569769 0.492236,-1.022814 0.738348,-1.339481 0.246113,-0.316667 0.491534,-0.496833 0.737644,-0.532646 0.2461,-0.03585 0.49224,0.07265 0.73835,0.320774 0.2461,0.248112 0.49221,0.635768 0.73833,1.14614 0.24611,0.510342 0.49222,1.14328 0.73834,1.871245 0.24612,0.728059 0.49154,1.550837 0.73766,2.432648 0.2461,0.881817 0.49222,1.822657 0.73833,2.781447 0.24611,0.95849 0.49223,1.93493 0.73834,2.88672 0.24612,0.95151 0.49223,1.87803 0.73835,2.73946 0.24543,0.86142 0.49154,1.65712 0.73766,2.3527 0.2461,0.69561 0.49222,1.29109 0.73833,1.76028 0.24611,0.46921 0.49222,0.81213 0.73834,1.01358 0.24612,0.20172 0.49223,0.26198 0.73834,0.17859 0.24542,-0.0837 0.49153,-0.31097 0.73764,-0.67245 0.24611,-0.36149 0.49224,-0.85655 0.73835,-1.46421 0.24611,-0.60765 0.49222,-1.32758 0.73834,-2.12845 0.24611,-0.80057 0.49221,-1.68207 0.73834,-2.60587 0.24542,-0.92382 0.49153,-1.88989 0.73764,-2.856"
       title="sin(x)"
       id="path1047-6" />
    <path
       style="fill:none;stroke:#000000;stroke-width:0.267716;stroke-linejoin:round;stroke-miterlimit:10;stroke-dasharray:none;stroke-opacity:0.947517"
       d="m 129.17542,103.36725 c 0.24313,-0.96616 0.48633,-1.932 0.72946,-2.85586 0.24313,-0.923858 0.48626,-1.805413 0.72938,-2.60633 0.24313,-0.800704 0.48626,-1.520616 0.72946,-2.128305 0.24313,-0.607688 0.48626,-1.10303 0.72939,-1.464447 0.24312,-0.361417 0.48625,-0.588851 0.72945,-0.672378 0.24313,-0.08356 0.48626,-0.02318 0.72939,0.178472 0.24313,0.201627 0.48626,0.544517 0.72938,1.013717 0.2432,0.4692 0.48633,1.064589 0.72946,1.76031 0.24313,0.695818 0.48626,1.49156 0.72939,2.353029 0.24319,0.861175 0.48632,1.787762 0.72945,2.739622 0.24313,0.95154 0.48626,1.92804 0.72939,2.88688 0.24313,0.95855 0.48632,1.89945 0.72945,2.78131 0.24313,0.88217 0.48626,1.70499 0.72939,2.43288 0.24313,0.72818 0.48632,1.36113 0.72945,1.87144 0.24313,0.51032 0.48626,0.89799 0.72939,1.1463 0.24313,0.248 0.48626,0.35664 0.72945,0.32073 0.24313,-0.0359 0.48626,-0.21605 0.72939,-0.53283 0.24313,-0.31647 0.48626,-0.76957 0.72945,-1.33952 0.24313,-0.56966 0.48626,-1.25616 0.72939,-2.02908 0.24313,-0.77322 0.48626,-1.63287 0.72939,-2.54151 0.24319,-0.90895 0.48632,-1.86658 0.72945,-2.83151 0.24313,-0.96493 0.48626,-1.93687 0.72939,-2.87351 0.2432,-0.93694 0.48633,-1.837965 0.72945,-2.664445 0.24313,-0.826781 0.48626,-1.578344 0.72939,-2.222458 0.24313,-0.644081 0.48633,-1.180444 0.72946,-1.585739 0.24312,-0.405269 0.48625,-0.679413 0.72938,-0.810441 0.24313,-0.131028 0.48633,-0.118949 0.72946,0.03575 0.24313,0.154673 0.48625,0.451889 0.72938,0.878755 0.24313,0.426841 0.48626,0.983225 0.72946,1.64496 0.24313,0.661695 0.48625,1.428691 0.72939,2.26734 0.24312,0.838648 0.48625,1.748808 0.72945,2.691228 0.24313,0.94211 0.48626,1.91618 0.72939,2.87959 0.24313,0.96341 0.48625,1.91617 0.72945,2.8166 0.24313,0.90042 0.48626,1.7482 0.72939,2.50683 0.24313,0.75831 0.48625,1.42746 0.72938,1.97764 0.2432,0.55048 0.48633,0.98197 0.72946,1.27593 0.24313,0.29395 0.48626,0.45037 0.72938,0.46253 0.2432,0.0118 0.48633,-0.12081 0.72946,-0.39194 0.24313,-0.27113 0.48626,-0.68072 0.72939,-1.21142 0.24312,-0.53038 0.48632,-1.18159 0.72945,-1.92499 0.24313,-0.74341 0.48626,-1.57933 0.72939,-2.47062 0.24313,-0.8916 0.48632,-1.83858 0.72945,-2.79986 0.24313,-0.96128 0.48626,-1.93687 0.72939,-2.88415 0.24313,-0.94729 0.48626,-1.86597 0.72945,-2.716486 0.24313,-0.850222 0.48626,-1.631722 0.72939,-2.310645 0.24313,-0.678924 0.48626,-1.254994 0.72945,-1.70317 0.24313,-0.448143 0.48626,-0.768294 0.72939,-0.946522 0.24313,-0.178203 0.48626,-0.214441 0.72939,-0.107114 0.2432,0.107326 0.48632,0.35816 0.72945,0.741638 0.24313,0.383478 0.48626,0.899478 0.72939,1.525546 0.2432,0.626102 0.48633,1.362141 0.72945,2.176141 0.24313,0.813698 0.48626,1.705602 0.72939,2.636152 0.24313,0.93055 0.48633,1.89974 0.72946,2.86559 0.24312,0.96585 0.48625,1.92804 0.72938,2.8446 0.24313,0.91655 0.48633,1.78746 0.72946,2.57468 0.24312,0.78722 0.48626,1.49046 0.72938,2.07929 0.24313,0.58912 0.48626,1.06321 0.72946,1.40251 0.24313,0.33929 0.48626,0.54287 0.72939,0.60282 0.24312,0.0597 0.48625,-0.025 0.72945,-0.24983 0.24313,-0.22488 0.48626,-0.59034 0.72939,-1.08027 0.24312,-0.48992 0.48625,-1.1043 0.72938,-1.81636 0.2432,-0.71206 0.48633,-1.5218 0.72946,-2.39363 0.24313,-0.87182 0.48625,-1.80601 0.72938,-2.76152 0.2432,-0.9555 0.48633,-1.93231 0.72946,-2.88781 0.24313,-0.9555 0.48626,-1.88939 0.72938,-2.761215 0.24313,-0.872119 0.48633,-1.681557 0.72946,-2.393715 0.24313,-0.712093 0.48626,-1.326441 0.72939,-1.816397 0.24312,-0.489948 0.48632,-0.855323 0.72945,-1.080292 0.24313,-0.224937 0.48626,-0.309411 0.72939,-0.249708 0.24313,0.05966 0.48626,0.263583 0.72945,0.602726 0.24313,0.339144 0.48626,0.813519 0.72939,1.402427 0.24313,0.588941 0.48626,1.292301 0.72945,2.079498 0.24313,0.787221 0.48619,1.658133 0.72939,2.574686 0.2432,0.91654 0.48639,1.87874 0.72959,2.84459 0.24319,0.96584 0.48639,1.93504 0.72891,2.86559 0.24319,0.93055 0.48639,1.82215 0.72959,2.63616 0.24319,0.814 0.48639,1.54979 0.72959,2.17604 0.24319,0.62594 0.48639,1.14204 0.72959,1.52546 0.24319,0.38342 0.48639,0.63446 0.72891,0.74158 0.24319,0.10741 0.48639,0.0712 0.72959,-0.10712 0.2432,-0.17801 0.48639,-0.49814 0.72959,-0.94637 0.2432,-0.44824 0.48639,-1.02427 0.72959,-1.70316 0.2432,-0.6789 0.48639,-1.46065 0.72891,-2.31086 0.2432,-0.85022 0.48639,-1.7689 0.72959,-2.71619 0.2432,-0.94728 0.4864,-1.92286 0.72959,-2.88414 0.2432,-0.96159 0.4864,-1.90858 0.72959,-2.799868 0.2432,-0.891602 0.4864,-1.727206 0.72891,-2.470673 0.2432,-0.743499 0.4864,-1.394673 0.72959,-1.925184 0.2432,-0.530552 0.4864,-0.940294 0.72959,-1.211418 0.2432,-0.271165 0.4864,-0.403629 0.7296,-0.391697 0.24319,0.012 0.48639,0.168335 0.72891,0.46232 0.24319,0.294018 0.48639,0.725576 0.72959,1.275904 0.24319,0.55032 0.48639,1.219294 0.72959,1.977885 0.24319,0.758622 0.48639,1.606404 0.72959,2.506828 0.2432,0.900423 0.48639,1.852873 0.72891,2.816293 0.24319,0.96341 0.48639,1.93748 0.72959,2.8799 0.2432,0.94241 0.48639,1.85257 0.72959,2.69122 0.2432,0.83865 0.48639,1.60549 0.72959,2.26734 0.2432,0.66155 0.48571,1.21811 0.72891,1.64474 0.2432,0.42694 0.48639,0.72424 0.72959,0.87882 0.2432,0.15458 0.4864,0.16676 0.72959,0.0356 0.2432,-0.13085 0.4864,-0.40503 0.72959,-0.81035 0.2432,-0.40533 0.48572,-0.94151 0.72891,-1.58571 0.2432,-0.6442 0.4864,-1.39582 0.72959,-2.2223 0.2432,-0.82648 0.4864,-1.72782 0.72959,-2.66445 0.2432,-0.93664 0.4864,-1.90858 0.7296,-2.87381 0.24319,-0.96494 0.48571,-1.92257 0.72891,-2.83121 0.24319,-0.908939 0.48639,-1.768285 0.72959,-2.541509 0.2432,-0.77311 0.48639,-1.459486 0.72959,-2.029287 0.2432,-0.569802 0.48639,-1.022875 0.72959,-1.339557 0.2432,-0.316691 0.48571,-0.496861 0.72891,-0.532683 0.2432,-0.03583 0.4864,0.07264 0.72959,0.320796 0.2432,0.248125 0.4864,0.635806 0.72959,1.146207 0.2432,0.510368 0.4864,1.143349 0.72959,1.871349 0.2432,0.728107 0.48572,1.550929 0.72891,2.432794 0.2432,0.88185 0.4864,1.82275 0.72959,2.78161 0.2432,0.95854 0.4864,1.93504 0.7296,2.88689 0.24319,0.95155 0.48639,1.87814 0.72959,2.73961 0.24251,0.86147 0.48571,1.65721 0.72891,2.35285 0.24319,0.69563 0.48639,1.29115 0.72959,1.76037 0.24319,0.46923 0.48639,0.81218 0.72959,1.01363 0.2432,0.20175 0.48639,0.262 0.72959,0.17862 0.24252,-0.0837 0.48571,-0.311 0.72891,-0.6725 0.2432,-0.36151 0.48639,-0.85661 0.72959,-1.4643 0.2432,-0.60769 0.48639,-1.32765 0.72959,-2.12857 0.2432,-0.80062 0.48639,-1.68217 0.72959,-2.60603 0.24252,-0.92385 0.48571,-1.89 0.72891,-2.85615"
       title="sin(x)"
       id="path1047-7" />
    <path
       style="fill:none;stroke:#000000;stroke-width:0.267716;stroke-linejoin:round;stroke-miterlimit:10;stroke-dasharray:none;stroke-opacity:0.947517"
       d="m 129.17542,103.36725 c 0.22194,-0.97345 0.44395,-1.9466 0.66681,-2.87776 0.22286,-0.931169 0.44665,-1.820045 0.67219,-2.628315 0.22555,-0.808059 0.45287,-1.535349 0.68271,-2.150456 0.22976,-0.615099 0.46199,-1.117893 0.69714,-1.486811 0.23515,-0.368925 0.47322,-0.603901 0.71451,-0.695035 0.24122,-0.09116 0.48559,-0.03844 0.73304,0.15553 0.24745,0.193947 0.49798,0.529083 0.75128,0.990497 0.25337,0.461414 0.50942,1.048984 0.76767,1.736837 0.25825,0.68795 0.51868,1.475792 0.78054,2.329352 0.26193,0.853241 0.52522,1.771901 0.78907,2.715801 0.26383,0.94358 0.52821,1.91213 0.79221,2.86302 0.26399,0.95059 0.52766,1.88354 0.78997,2.75748 0.26232,0.87424 0.52334,1.68915 0.78229,2.40916 0.25896,0.72032 0.5159,1.34542 0.7701,1.84793 0.25419,0.50252 0.50571,0.88243 0.75418,1.12303 0.24846,0.24029 0.49388,0.34127 0.73621,0.29774 0.24226,-0.0435 0.48137,-0.23122 0.7175,-0.55551 0.23613,-0.32399 0.46927,-0.78457 0.69993,-1.36195 0.2306,-0.57709 0.45865,-1.27097 0.68481,-2.05126 0.22615,-0.78058 0.45041,-1.64756 0.67361,-2.56352 0.22325,-0.91626 0.44537,-1.88118 0.66733,-2.85341 0.22197,-0.97224 0.44378,-1.95145 0.66636,-2.8954 0.22264,-0.944241 0.446,-1.852599 0.67099,-2.686415 0.22498,-0.834127 0.4516,-1.59306 0.68058,-2.244569 0.22897,-0.651484 0.46037,-1.19529 0.69456,-1.608069 0.23419,-0.412754 0.47124,-0.694431 0.71142,-0.833041 0.24019,-0.138619 0.48357,-0.134171 0.72999,0.0129 0.24643,0.146993 0.49597,0.436472 0.74834,0.855576 0.25237,0.419071 0.50757,0.967636 0.76514,1.621512 0.2575,0.653851 0.51731,1.412947 0.77868,2.243695 0.26137,0.830731 0.5243,1.732959 0.788,2.667431 0.26363,0.93417 0.52796,1.90027 0.79206,2.85573 0.26409,0.95545 0.52795,1.90026 0.79074,2.79276 0.26272,0.89249 0.52429,1.73235 0.78391,2.48309 0.25961,0.75043 0.51728,1.41172 0.77234,1.95409 0.25514,0.54266 0.50762,0.96638 0.75708,1.25261 0.24947,0.28624 0.49594,0.43497 0.73925,0.4395 0.24337,0.004 0.48352,-0.13601 0.72064,-0.41468 0.23712,-0.27866 0.47122,-0.69573 0.70267,-1.23388 0.23145,-0.53783 0.46034,-1.19644 0.68714,-1.94721 0.22681,-0.75078 0.45159,-1.59404 0.67516,-2.49264 0.22356,-0.89892 0.44599,-1.85321 0.66803,-2.82179 0.22204,-0.96858 0.44377,-1.95145 0.66612,-2.90605 0.22235,-0.954586 0.44532,-1.880573 0.66986,-2.738434 0.22446,-0.857543 0.45043,-1.646405 0.67865,-2.332715 0.22821,-0.686318 0.45867,-1.269824 0.69199,-1.725467 0.23325,-0.455612 0.4693,-0.78328 0.70846,-0.969081 0.23915,-0.185761 0.4814,-0.229614 0.72679,-0.129951 0.24546,0.09966 0.49399,0.342792 0.74541,0.718516 0.25143,0.375716 0.50574,0.883914 0.76247,1.502147 0.25679,0.618249 0.51592,1.346421 0.77675,2.152512 0.26082,0.805798 0.52336,1.689768 0.78673,2.612376 0.26338,0.922617 0.52767,1.883847 0.79182,2.841737 0.26414,0.9579 0.52821,1.91213 0.79129,2.82074 0.26307,0.90862 0.52521,1.77161 0.78545,2.55093 0.26025,0.77933 0.51866,1.4747 0.77457,2.0557 0.25592,0.58129 0.50932,1.0476 0.75985,1.37916 0.25046,0.33155 0.49795,0.52743 0.74231,0.57973 0.24434,0.052 0.48554,-0.0402 0.72374,-0.27262 0.23813,-0.23243 0.47319,-0.60538 0.70554,-1.10278 0.23234,-0.49737 0.46196,-1.11917 0.68945,-1.83861 0.22755,-0.71944 0.45291,-1.53653 0.6769,-2.41569 0.224,-0.87913 0.44664,-1.82064 0.6688,-2.78345 0.22224,-0.9628 0.44395,-1.94689 0.66611,-2.90968 0.22217,-0.962813 0.44481,-1.904013 0.66881,-2.78316 0.22399,-0.879449 0.44942,-1.696232 0.67691,-2.415777 0.22748,-0.719471 0.45711,-1.34123 0.68945,-1.838645 0.23234,-0.497416 0.46747,-0.870292 0.7056,-1.102811 0.23813,-0.232486 0.47933,-0.32455 0.72368,-0.272495 0.24435,0.05199 0.49185,0.248247 0.74237,0.579645 0.25046,0.331398 0.50387,0.797987 0.75978,1.379076 0.25591,0.581114 0.51433,1.276606 0.77464,2.055902 0.26025,0.779329 0.52225,1.642316 0.78539,2.550927 0.26314,0.90861 0.52727,1.862858 0.79149,2.820748 0.26422,0.95788 0.5285,1.91912 0.79127,2.84174 0.26344,0.92261 0.52604,1.80628 0.78693,2.61238 0.2609,0.8061 0.5201,1.53401 0.77689,2.15241 0.25679,0.61811 0.51118,1.1264 0.76267,1.50206 0.25149,0.37566 0.50009,0.61899 0.74487,0.71846 0.24546,0.0998 0.48777,0.0559 0.72699,-0.12995 0.23923,-0.18559 0.47535,-0.51323 0.70867,-0.96894 0.23332,-0.45571 0.46385,-1.03917 0.69213,-1.72546 0.22827,-0.68629 0.45431,-1.4754 0.67817,-2.33292 0.22454,-0.85756 0.44758,-1.78355 0.67,-2.73814 0.22241,-0.95458 0.44421,-1.93747 0.66631,-2.90605 0.22211,-0.968889 0.44454,-1.923173 0.66818,-2.821793 0.22363,-0.898915 0.44849,-1.741873 0.67467,-2.492685 0.22687,-0.750869 0.45576,-1.409446 0.68728,-1.947409 0.23152,-0.537987 0.46569,-0.955222 0.70288,-1.233887 0.23719,-0.278698 0.47741,-0.418737 0.72078,-0.414443 0.24337,0.0041 0.4899,0.153032 0.73876,0.439312 0.24954,0.28628 0.50208,0.71006 0.75722,1.252578 0.25513,0.542508 0.51287,1.203623 0.77255,1.954329 0.25969,0.750739 0.52133,1.590595 0.78412,2.483078 0.26279,0.892492 0.52671,1.836997 0.79019,2.79248 0.26416,0.95546 0.52855,1.92157 0.79226,2.85604 0.2637,0.93446 0.5267,1.83668 0.78814,2.66741 0.26144,0.83074 0.5213,1.58969 0.77888,2.24368 0.25757,0.6537 0.51216,1.20247 0.76459,1.62132 0.25245,0.41917 0.50206,0.70874 0.74855,0.85564 0.24649,0.1469 0.48987,0.15145 0.73012,0.0126 0.24025,-0.13843 0.47737,-0.42014 0.71163,-0.83296 0.23426,-0.41281 0.46498,-0.95641 0.69402,-1.60802 0.22904,-0.65161 0.45573,-1.4106 0.68078,-2.24442 0.22506,-0.83383 0.44848,-1.74249 0.67113,-2.68642 0.22265,-0.94395 0.44453,-1.92318 0.66655,-2.89571 0.22203,-0.972238 0.44355,-1.937148 0.6668,-2.853105 0.22326,-0.916258 0.44759,-1.782933 0.67382,-2.563528 0.22622,-0.780463 0.45433,-1.474233 0.685,-2.05147 0.23067,-0.577237 0.46388,-1.03777 0.70008,-1.361977 0.23619,-0.324208 0.47469,-0.511927 0.71702,-0.555356 0.24232,-0.04342 0.48781,0.05738 0.73635,0.297796 0.24853,0.24042 0.50011,0.620331 0.75438,1.122938 0.25427,0.502565 0.51121,1.127695 0.77023,1.847827 0.25902,0.720222 0.51943,1.535169 0.78182,2.409101 0.26238,0.873931 0.52604,1.80688 0.79011,2.757768 0.26405,0.950596 0.5285,1.919136 0.79242,2.863026 0.2639,0.9436 0.52726,1.86224 0.78919,2.71579 0.26125,0.85357 0.52175,1.64142 0.78007,2.32919 0.25831,0.68776 0.51444,1.27545 0.76781,1.73688 0.25336,0.46145 0.50396,0.79665 0.75148,0.9904 0.24752,0.19405 0.49195,0.24666 0.73324,0.15568 0.2406,-0.0913 0.47875,-0.32612 0.71397,-0.69513 0.23522,-0.36901 0.46751,-0.87157 0.69735,-1.48668 0.22983,-0.6151 0.45722,-1.34245 0.68283,-2.15072 0.22563,-0.80797 0.44948,-1.69685 0.67241,-2.62802 0.22224,-0.93114 0.44425,-1.90459 0.66625,-2.87804"
       title="sin(x)"
       id="path1047-0" />
    <path
       style="fill:none;stroke:#000000;stroke-width:0.267716;stroke-linejoin:round;stroke-miterlimit:10;stroke-dasharray:none;stroke-opacity:0.947517"
       d="m 129.17542,103.36725 c 0.26416,-0.9582 0.52837,-1.91609 0.7916,-2.832 0.26324,-0.91592 0.52554,-1.78955 0.78609,-2.582566 0.26054,-0.792804 0.51931,-1.50484 0.7757,-2.104693 0.25632,-0.599861 0.51019,-1.087409 0.76114,-1.441073 0.25094,-0.353671 0.49895,-0.573401 0.74389,-0.649272 0.24487,-0.0759 0.4866,-0.0082 0.72524,0.201284 0.23864,0.209185 0.47419,0.559583 0.70699,1.036252 0.23286,0.47666 0.4629,1.079476 0.69074,1.782583 0.22784,0.703205 0.4535,1.506301 0.67773,2.375098 0.22429,0.868507 0.44709,1.802397 0.66934,2.761557 0.22226,0.95885 0.44397,1.94263 0.66607,2.90877 0.2221,0.96584 0.44465,1.91404 0.66843,2.80323 0.22377,0.8895 0.44884,1.71966 0.67598,2.45492 0.22714,0.73557 0.45642,1.37593 0.68832,1.89369 0.23189,0.51775 0.46647,0.91292 0.70409,1.16877 0.23763,0.25554 0.4783,0.37178 0.7222,0.3435 0.24383,-0.0282 0.49081,-0.20073 0.74078,-0.50977 0.24996,-0.30874 0.5029,-0.75406 0.75847,-1.31619 0.25549,-0.56184 0.51353,-1.24047 0.77347,-2.0055 0.25994,-0.76533 0.52176,-1.61707 0.78466,-2.51777 0.26298,-0.90101 0.52694,-1.85068 0.79107,-2.80767 0.26413,-0.95697 0.52841,-1.92095 0.79192,-2.84964 0.26359,-0.92899 0.52632,-1.822083 0.78742,-2.640653 0.26111,-0.818873 0.52058,-1.562552 0.7777,-2.198822 0.25711,-0.636238 0.51195,-1.164791 0.76385,-1.562323 0.2519,-0.3975 0.50093,-0.663923 0.74684,-0.787287 0.24591,-0.123356 0.48876,-0.103654 0.72843,0.0586 0.23966,0.162247 0.47621,0.466981 0.70993,0.901331 0.23372,0.434317 0.46461,0.998136 0.69327,1.667274 0.22858,0.669089 0.45487,1.443447 0.67959,2.289433 0.22473,0.845987 0.44788,1.763457 0.67041,2.713187 0.22246,0.94941 0.44422,1.93077 0.66622,2.90148 0.222,0.9707 0.44422,1.93076 0.66766,2.83851 0.22338,0.90774 0.4479,1.76286 0.67437,2.52884 0.22648,0.76568 0.4549,1.44223 0.68593,1.99984 0.23109,0.55793 0.4647,0.9969 0.70132,1.29838 0.23663,0.30147 0.47626,0.46546 0.71904,0.48525 0.24285,0.0194 0.4888,-0.10552 0.73776,-0.36894 0.24897,-0.26341 0.50097,-0.66522 0.75561,-1.18812 0.25463,-0.52258 0.51198,-1.16594 0.77126,-1.90146 0.25929,-0.73553 0.5206,-1.56353 0.78312,-2.4469 0.26252,-0.88366 0.52633,-1.82269 0.79038,-2.77602 0.26405,-0.95332 0.52841,-1.92095 0.79215,-2.86028 0.26374,-0.93934 0.52686,-1.85008 0.78856,-2.692684 0.26162,-0.842305 0.52174,-1.615913 0.77962,-2.286977 0.25788,-0.671072 0.51351,-1.239315 0.76641,-1.679713 0.25284,-0.440365 0.50288,-0.752779 0.74982,-0.923318 0.24694,-0.170522 0.49078,-0.199121 0.73148,-0.0842 0.24077,0.114917 0.47833,0.373292 0.713,0.764262 0.23467,0.390971 0.46644,0.914422 0.6958,1.547902 0.22944,0.633512 0.4564,1.376921 0.68166,2.198267 0.22527,0.821041 0.44883,1.720261 0.67154,2.658121 0.22272,0.93786 0.44466,1.91435 0.6666,2.88749 0.22194,0.97315 0.44396,1.94264 0.66698,2.86649 0.22302,0.92387 0.44711,1.80211 0.67295,2.59668 0.22585,0.79459 0.45353,1.5052 0.68371,2.10146 0.23018,0.59654 0.46286,1.0781 0.69856,1.42491 0.23564,0.3468 0.47423,0.55793 0.71597,0.62548 0.24174,0.0673 0.48664,-0.01 0.73466,-0.22686 0.24796,-0.21718 0.49899,-0.57489 0.75274,-1.05703 0.25375,-0.48213 0.51022,-1.08867 0.76882,-1.79286 0.25868,-0.7042 0.51941,-1.50603 0.78151,-2.36993 0.26209,-0.8639 0.52555,-1.79015 0.78947,-2.73771 0.26399,-0.94754 0.52838,-1.91638 0.7923,-2.86392 0.26392,-0.94756 0.52737,-1.87351 0.78946,-2.73741 0.26211,-0.864192 0.5229,-1.665721 0.78151,-2.370012 0.2586,-0.704225 0.51507,-1.310738 0.76882,-1.792899 0.25375,-0.482153 0.50485,-0.839783 0.75281,-1.057048 0.24796,-0.217232 0.49285,-0.29405 0.73459,-0.226748 0.24174,0.06725 0.48033,0.278747 0.71604,0.625399 0.23563,0.346652 0.46831,0.828495 0.69849,1.424822 0.23018,0.596368 0.45786,1.307107 0.68377,2.101665 0.22585,0.794571 0.4498,1.672801 0.67289,2.596671 0.22308,0.92386 0.44517,1.89336 0.66718,2.86651 0.22201,0.97314 0.44395,1.94962 0.66605,2.88746 0.22279,0.93786 0.44642,1.83678 0.67175,2.65814 0.22533,0.82134 0.45236,1.56451 0.68179,2.19817 0.22944,0.63336 0.46128,1.15691 0.69602,1.54782 0.23473,0.39092 0.47236,0.6495 0.71246,0.76419 0.24076,0.11501 0.48467,0.0864 0.73167,-0.0842 0.24701,-0.17033 0.49712,-0.48272 0.75002,-0.92318 0.25291,-0.44045 0.50861,-1.00866 0.76656,-1.67969 0.25794,-0.67104 0.51813,-1.44489 0.77915,-2.28721 0.26168,-0.84229 0.52487,-1.75304 0.78868,-2.69237 0.26381,-0.93933 0.52824,-1.90696 0.79236,-2.86028 0.26412,-0.95363 0.52792,-1.89267 0.79051,-2.77602 0.2626,-0.88367 0.52397,-1.711357 0.78264,-2.446964 0.25936,-0.735615 0.5167,-1.378946 0.77141,-1.901646 0.2547,-0.522742 0.50677,-0.924714 0.75581,-1.188117 0.24903,-0.263444 0.49504,-0.388236 0.73789,-0.368681 0.24286,0.01959 0.48256,0.183533 0.71857,0.485018 0.23668,0.301543 0.47037,0.740586 0.70146,1.298349 0.23108,0.557763 0.45959,1.234132 0.68613,2.000092 0.22653,0.765979 0.45112,1.621099 0.67457,2.528849 0.22343,0.90774 0.44573,1.8675 0.66712,2.83819 0.22206,0.97071 0.4439,1.95206 0.66642,2.90179 0.22252,0.94972 0.44575,1.8672 0.67054,2.71319 0.22479,0.84598 0.45115,1.62018 0.6798,2.28944 0.22866,0.66895 0.45894,1.23292 0.69273,1.66703 0.23378,0.43443 0.4704,0.73925 0.71014,0.90141 0.23973,0.16215 0.48258,0.18196 0.72855,0.0584 0.24598,-0.12318 0.49508,-0.38964 0.74705,-0.7872 0.25197,-0.39756 0.50612,-0.92595 0.76331,-1.5623 0.25719,-0.63636 0.51672,-1.38009 0.77789,-2.19866 0.26117,-0.81857 0.52398,-1.71197 0.78756,-2.64065 0.26357,-0.92869 0.52792,-1.89267 0.79213,-2.84994 0.2642,-0.95699 0.52755,-1.90668 0.79052,-2.80738 0.26297,-0.90101 0.52486,-1.75243 0.78487,-2.517764 0.26001,-0.765217 0.51812,-1.443725 0.77368,-2.005707 0.25556,-0.561975 0.50857,-1.00727 0.75861,-1.316215 0.25003,-0.308953 0.4964,-0.481459 0.7403,-0.509642 0.24389,-0.02816 0.48463,0.08787 0.72233,0.343568 0.23769,0.255665 0.47233,0.650847 0.70429,1.168699 0.23197,0.51782 0.46125,1.158212 0.68846,1.893591 0.2272,0.73548 0.45166,1.56563 0.6755,2.45482 0.22385,0.88918 0.44641,1.83738 0.66857,2.80353 0.22218,0.96585 0.44395,1.94963 0.66627,2.90879 0.22232,0.95884 0.44519,1.89275 0.66948,2.76155 0.22361,0.86878 0.44934,1.67188 0.67725,2.3749 0.22792,0.70302 0.45802,1.30596 0.69088,1.78265 0.23286,0.47671 0.46849,0.82716 0.7072,1.03617 0.2387,0.2093 0.4805,0.27716 0.72544,0.20144 0.24426,-0.0761 0.49234,-0.29566 0.74335,-0.64942 0.25101,-0.35375 0.50494,-0.84105 0.76133,-1.44091 0.2564,-0.59985 0.51524,-1.31194 0.77585,-2.10496 0.26061,-0.79271 0.52298,-1.66633 0.78628,-2.58225 0.26262,-0.91593 0.52684,-1.87412 0.79107,-2.83232"
       title="sin(x)"
       id="path1047-9" />
    <text
       xml:space="preserve"
       style="font-size:5.64444px;line-height:1.25;font-family:'CMU Serif';-inkscape-font-specification:'CMU Serif';stroke-width:0.264583"
       x="17.762934"
       y="122.34146"
       id="text1198"><tspan
         sodipodi:role="line"
         id="tspan1196"
         x="17.762934"
         y="122.34146"
         style="font-size:5.64444px;stroke-width:0.264583">a) Longitudinal coherence length</tspan></text>
    <text
       xml:space="preserve"
       style="font-size:5.64444px;line-height:1.25;font-family:'CMU Serif';-inkscape-font-specification:'CMU Serif';stroke-width:0.264583"
       x="128.84195"
       y="122.23333"
       id="text1198-3"><tspan
         sodipodi:role="line"
         id="tspan1196-6"
         x="128.84195"
         y="122.23333"
         style="font-size:5.64444px;stroke-width:0.264583">b) Transverse coherence length</tspan></text>
  </g>
</svg>
