<?xml version="1.0" encoding="UTF-8" standalone="no"?>
<svg
   width="239.37732mm"
   height="43.934948mm"
   viewBox="0 0 239.37735 43.934948"
   version="1.1"
   id="svg8"
   inkscape:export-filename="/home/sjoerd/Dokument/LiU/Thesis/figures/correlated_vs_diffuse.png"
   inkscape:export-xdpi="96"
   inkscape:export-ydpi="96"
   inkscape:version="1.2.2 (732a01da63, 2022-12-09)"
   sodipodi:docname="same_roughness_.svg"
   xmlns:inkscape="http://www.inkscape.org/namespaces/inkscape"
   xmlns:sodipodi="http://sodipodi.sourceforge.net/DTD/sodipodi-0.dtd"
   xmlns="http://www.w3.org/2000/svg"
   xmlns:svg="http://www.w3.org/2000/svg"
   xmlns:rdf="http://www.w3.org/1999/02/22-rdf-syntax-ns#"
   xmlns:cc="http://creativecommons.org/ns#"
   xmlns:dc="http://purl.org/dc/elements/1.1/">
  <defs
     id="defs2">
    <rect
       x="-43.793728"
       y="82.292816"
       width="347.17371"
       height="280.58768"
       id="rect28724" />
    <marker
       style="overflow:visible"
       id="marker4560"
       refX="0"
       refY="0"
       orient="auto"
       inkscape:stockid="Arrow2Mend"
       inkscape:isstock="true">
      <path
         transform="scale(-0.6)"
         d="M 8.7185878,4.0337352 -2.2072895,0.01601326 8.7185884,-4.0017078 c -1.7454984,2.3720609 -1.7354408,5.6174519 -6e-7,8.035443 z"
         style="fill:#000000;fill-opacity:1;fill-rule:evenodd;stroke:#000000;stroke-width:0.625;stroke-linejoin:round;stroke-opacity:1"
         id="path4558" />
    </marker>
    <marker
       style="overflow:visible"
       id="marker3476"
       refX="0"
       refY="0"
       orient="auto"
       inkscape:stockid="Arrow2Mend"
       inkscape:isstock="true">
      <path
         transform="scale(-0.6)"
         d="M 8.7185878,4.0337352 -2.2072895,0.01601326 8.7185884,-4.0017078 c -1.7454984,2.3720609 -1.7354408,5.6174519 -6e-7,8.035443 z"
         style="fill:#000000;fill-opacity:1;fill-rule:evenodd;stroke:#000000;stroke-width:0.625;stroke-linejoin:round;stroke-opacity:1"
         id="path3474" />
    </marker>
    <marker
       style="overflow:visible"
       id="marker3178"
       refX="0"
       refY="0"
       orient="auto"
       inkscape:stockid="Arrow2Mend"
       inkscape:isstock="true">
      <path
         transform="scale(-0.6)"
         d="M 8.7185878,4.0337352 -2.2072895,0.01601326 8.7185884,-4.0017078 c -1.7454984,2.3720609 -1.7354408,5.6174519 -6e-7,8.035443 z"
         style="fill:#000000;fill-opacity:1;fill-rule:evenodd;stroke:#000000;stroke-width:0.625;stroke-linejoin:round;stroke-opacity:1"
         id="path3176" />
    </marker>
    <marker
       style="overflow:visible"
       id="Arrow2Mstart"
       refX="0"
       refY="0"
       orient="auto"
       inkscape:stockid="Arrow2Mstart"
       inkscape:isstock="true">
      <path
         transform="scale(0.6)"
         d="M 8.7185878,4.0337352 -2.2072895,0.01601326 8.7185884,-4.0017078 c -1.7454984,2.3720609 -1.7354408,5.6174519 -6e-7,8.035443 z"
         style="fill:#000000;fill-opacity:1;fill-rule:evenodd;stroke:#000000;stroke-width:0.625;stroke-linejoin:round;stroke-opacity:1"
         id="path2466" />
    </marker>
    <marker
       style="overflow:visible"
       id="Arrow1Lstart"
       refX="0"
       refY="0"
       orient="auto"
       inkscape:stockid="Arrow1Lstart"
       inkscape:isstock="true">
      <path
         transform="matrix(0.8,0,0,0.8,10,0)"
         style="fill:#000000;fill-opacity:1;fill-rule:evenodd;stroke:#000000;stroke-width:1pt;stroke-opacity:1"
         d="M 0,0 5,-5 -12.5,0 5,5 Z"
         id="path2442" />
    </marker>
    <marker
       style="overflow:visible"
       id="marker2212"
       refX="0"
       refY="0"
       orient="auto"
       inkscape:stockid="Arrow2Mend"
       inkscape:isstock="true">
      <path
         transform="scale(-0.6)"
         d="M 8.7185878,4.0337352 -2.2072895,0.01601326 8.7185884,-4.0017078 c -1.7454984,2.3720609 -1.7354408,5.6174519 -6e-7,8.035443 z"
         style="fill:#000000;fill-opacity:1;fill-rule:evenodd;stroke:#000000;stroke-width:0.625;stroke-linejoin:round;stroke-opacity:1"
         id="path2210" />
    </marker>
    <marker
       style="overflow:visible"
       id="marker14890"
       refX="0"
       refY="0"
       orient="auto"
       inkscape:stockid="Arrow2Mend"
       inkscape:isstock="true">
      <path
         transform="scale(-0.6)"
         d="M 8.7185878,4.0337352 -2.2072895,0.01601326 8.7185884,-4.0017078 c -1.7454984,2.3720609 -1.7354408,5.6174519 -6e-7,8.035443 z"
         style="fill:#f21414;fill-opacity:1;fill-rule:evenodd;stroke:#f21414;stroke-width:0.625;stroke-linejoin:round;stroke-opacity:1"
         id="path14888" />
    </marker>
    <marker
       style="overflow:visible"
       id="marker14880"
       refX="0"
       refY="0"
       orient="auto"
       inkscape:stockid="Arrow2Mend"
       inkscape:isstock="true">
      <path
         transform="scale(-0.6)"
         d="M 8.7185878,4.0337352 -2.2072895,0.01601326 8.7185884,-4.0017078 c -1.7454984,2.3720609 -1.7354408,5.6174519 -6e-7,8.035443 z"
         style="fill:#f21414;fill-opacity:1;fill-rule:evenodd;stroke:#f21414;stroke-width:0.625;stroke-linejoin:round;stroke-opacity:1"
         id="path14878" />
    </marker>
    <marker
       style="overflow:visible"
       id="marker14456"
       refX="0"
       refY="0"
       orient="auto"
       inkscape:stockid="Arrow1Send"
       inkscape:isstock="true">
      <path
         transform="matrix(-0.2,0,0,-0.2,-1.2,0)"
         style="fill:#000000;fill-opacity:1;fill-rule:evenodd;stroke:#000000;stroke-width:1pt;stroke-opacity:1"
         d="M 0,0 5,-5 -12.5,0 5,5 Z"
         id="path14454" />
    </marker>
    <marker
       style="overflow:visible"
       id="marker14446"
       refX="0"
       refY="0"
       orient="auto"
       inkscape:stockid="Arrow1Send"
       inkscape:isstock="true">
      <path
         transform="matrix(-0.2,0,0,-0.2,-1.2,0)"
         style="fill:#a80909;fill-opacity:1;fill-rule:evenodd;stroke:#a80909;stroke-width:1pt;stroke-opacity:1"
         d="M 0,0 5,-5 -12.5,0 5,5 Z"
         id="path14444" />
    </marker>
    <marker
       style="overflow:visible"
       id="marker14436"
       refX="0"
       refY="0"
       orient="auto"
       inkscape:stockid="Arrow1Send"
       inkscape:isstock="true">
      <path
         transform="matrix(-0.2,0,0,-0.2,-1.2,0)"
         style="fill:#000000;fill-opacity:1;fill-rule:evenodd;stroke:#000000;stroke-width:1pt;stroke-opacity:1"
         d="M 0,0 5,-5 -12.5,0 5,5 Z"
         id="path14434" />
    </marker>
    <marker
       style="overflow:visible"
       id="marker14426"
       refX="0"
       refY="0"
       orient="auto"
       inkscape:stockid="Arrow1Send"
       inkscape:isstock="true">
      <path
         transform="matrix(-0.2,0,0,-0.2,-1.2,0)"
         style="fill:#000000;fill-opacity:1;fill-rule:evenodd;stroke:#000000;stroke-width:1pt;stroke-opacity:1"
         d="M 0,0 5,-5 -12.5,0 5,5 Z"
         id="path14424" />
    </marker>
    <marker
       style="overflow:visible"
       id="marker14038"
       refX="0"
       refY="0"
       orient="auto"
       inkscape:stockid="Arrow2Mend"
       inkscape:isstock="true">
      <path
         transform="scale(-0.6)"
         d="M 8.7185878,4.0337352 -2.2072895,0.01601326 8.7185884,-4.0017078 c -1.7454984,2.3720609 -1.7354408,5.6174519 -6e-7,8.035443 z"
         style="fill:#f21414;fill-opacity:1;fill-rule:evenodd;stroke:#f21414;stroke-width:0.625;stroke-linejoin:round;stroke-opacity:1"
         id="path14036" />
    </marker>
    <marker
       style="overflow:visible"
       id="marker14028"
       refX="0"
       refY="0"
       orient="auto"
       inkscape:stockid="Arrow2Mend"
       inkscape:isstock="true">
      <path
         transform="scale(-0.6)"
         d="M 8.7185878,4.0337352 -2.2072895,0.01601326 8.7185884,-4.0017078 c -1.7454984,2.3720609 -1.7354408,5.6174519 -6e-7,8.035443 z"
         style="fill:#f21414;fill-opacity:1;fill-rule:evenodd;stroke:#f21414;stroke-width:0.625;stroke-linejoin:round;stroke-opacity:1"
         id="path14026" />
    </marker>
    <marker
       style="overflow:visible"
       id="marker14018"
       refX="0"
       refY="0"
       orient="auto"
       inkscape:stockid="Arrow2Mend"
       inkscape:isstock="true">
      <path
         transform="scale(-0.6)"
         d="M 8.7185878,4.0337352 -2.2072895,0.01601326 8.7185884,-4.0017078 c -1.7454984,2.3720609 -1.7354408,5.6174519 -6e-7,8.035443 z"
         style="fill:#f21414;fill-opacity:1;fill-rule:evenodd;stroke:#f21414;stroke-width:0.625;stroke-linejoin:round;stroke-opacity:1"
         id="path14016" />
    </marker>
    <marker
       style="overflow:visible"
       id="marker13656"
       refX="0"
       refY="0"
       orient="auto"
       inkscape:stockid="Arrow1Send"
       inkscape:isstock="true">
      <path
         transform="matrix(-0.2,0,0,-0.2,-1.2,0)"
         style="fill:#a80909;fill-opacity:1;fill-rule:evenodd;stroke:#a80909;stroke-width:1pt;stroke-opacity:1"
         d="M 0,0 5,-5 -12.5,0 5,5 Z"
         id="path13654" />
    </marker>
    <marker
       style="overflow:visible"
       id="marker13646"
       refX="0"
       refY="0"
       orient="auto"
       inkscape:stockid="Arrow1Send"
       inkscape:isstock="true">
      <path
         transform="matrix(-0.2,0,0,-0.2,-1.2,0)"
         style="fill:#a80909;fill-opacity:1;fill-rule:evenodd;stroke:#a80909;stroke-width:1pt;stroke-opacity:1"
         d="M 0,0 5,-5 -12.5,0 5,5 Z"
         id="path13644" />
    </marker>
    <marker
       style="overflow:visible"
       id="marker13636"
       refX="0"
       refY="0"
       orient="auto"
       inkscape:stockid="Arrow1Send"
       inkscape:isstock="true">
      <path
         transform="matrix(-0.2,0,0,-0.2,-1.2,0)"
         style="fill:#a80909;fill-opacity:1;fill-rule:evenodd;stroke:#a80909;stroke-width:1pt;stroke-opacity:1"
         d="M 0,0 5,-5 -12.5,0 5,5 Z"
         id="path13634" />
    </marker>
    <marker
       style="overflow:visible"
       id="marker13626"
       refX="0"
       refY="0"
       orient="auto"
       inkscape:stockid="Arrow1Send"
       inkscape:isstock="true">
      <path
         transform="matrix(-0.2,0,0,-0.2,-1.2,0)"
         style="fill:#a80909;fill-opacity:1;fill-rule:evenodd;stroke:#a80909;stroke-width:1pt;stroke-opacity:1"
         d="M 0,0 5,-5 -12.5,0 5,5 Z"
         id="path13624" />
    </marker>
    <marker
       style="overflow:visible"
       id="marker13310"
       refX="0"
       refY="0"
       orient="auto"
       inkscape:stockid="Arrow1Send"
       inkscape:isstock="true">
      <path
         transform="matrix(-0.2,0,0,-0.2,-1.2,0)"
         style="fill:#a80909;fill-opacity:1;fill-rule:evenodd;stroke:#a80909;stroke-width:1pt;stroke-opacity:1"
         d="M 0,0 5,-5 -12.5,0 5,5 Z"
         id="path13308" />
    </marker>
    <marker
       style="overflow:visible"
       id="marker13300"
       refX="0"
       refY="0"
       orient="auto"
       inkscape:stockid="Arrow1Send"
       inkscape:isstock="true">
      <path
         transform="matrix(-0.2,0,0,-0.2,-1.2,0)"
         style="fill:#a80909;fill-opacity:1;fill-rule:evenodd;stroke:#a80909;stroke-width:1pt;stroke-opacity:1"
         d="M 0,0 5,-5 -12.5,0 5,5 Z"
         id="path13298" />
    </marker>
    <marker
       style="overflow:visible"
       id="marker13290"
       refX="0"
       refY="0"
       orient="auto"
       inkscape:stockid="Arrow1Send"
       inkscape:isstock="true">
      <path
         transform="matrix(-0.2,0,0,-0.2,-1.2,0)"
         style="fill:#a80909;fill-opacity:1;fill-rule:evenodd;stroke:#a80909;stroke-width:1pt;stroke-opacity:1"
         d="M 0,0 5,-5 -12.5,0 5,5 Z"
         id="path13288" />
    </marker>
    <marker
       style="overflow:visible"
       id="marker13104"
       refX="0"
       refY="0"
       orient="auto"
       inkscape:stockid="Arrow2Mend"
       inkscape:isstock="true">
      <path
         transform="scale(-0.6)"
         d="M 8.7185878,4.0337352 -2.2072895,0.01601326 8.7185884,-4.0017078 c -1.7454984,2.3720609 -1.7354408,5.6174519 -6e-7,8.035443 z"
         style="fill:#a80909;fill-opacity:1;fill-rule:evenodd;stroke:#a80909;stroke-width:0.625;stroke-linejoin:round;stroke-opacity:1"
         id="path13102" />
    </marker>
    <marker
       style="overflow:visible"
       id="marker13094"
       refX="0"
       refY="0"
       orient="auto"
       inkscape:stockid="Arrow2Mend"
       inkscape:isstock="true">
      <path
         transform="scale(-0.6)"
         d="M 8.7185878,4.0337352 -2.2072895,0.01601326 8.7185884,-4.0017078 c -1.7454984,2.3720609 -1.7354408,5.6174519 -6e-7,8.035443 z"
         style="fill:#a80909;fill-opacity:1;fill-rule:evenodd;stroke:#a80909;stroke-width:0.625;stroke-linejoin:round;stroke-opacity:1"
         id="path13092" />
    </marker>
    <marker
       style="overflow:visible"
       id="marker12862"
       refX="0"
       refY="0"
       orient="auto"
       inkscape:stockid="Arrow1Mend"
       inkscape:isstock="true">
      <path
         transform="matrix(-0.4,0,0,-0.4,-4,0)"
         style="fill:#a80909;fill-opacity:1;fill-rule:evenodd;stroke:#a80909;stroke-width:1pt;stroke-opacity:1"
         d="M 0,0 5,-5 -12.5,0 5,5 Z"
         id="path12860" />
    </marker>
    <marker
       style="overflow:visible"
       id="marker12852"
       refX="0"
       refY="0"
       orient="auto"
       inkscape:stockid="Arrow1Mend"
       inkscape:isstock="true">
      <path
         transform="matrix(-0.4,0,0,-0.4,-4,0)"
         style="fill:#a80909;fill-opacity:1;fill-rule:evenodd;stroke:#a80909;stroke-width:1pt;stroke-opacity:1"
         d="M 0,0 5,-5 -12.5,0 5,5 Z"
         id="path12850" />
    </marker>
    <marker
       style="overflow:visible"
       id="marker12842"
       refX="0"
       refY="0"
       orient="auto"
       inkscape:stockid="Arrow1Mend"
       inkscape:isstock="true">
      <path
         transform="matrix(-0.4,0,0,-0.4,-4,0)"
         style="fill:#a80909;fill-opacity:1;fill-rule:evenodd;stroke:#a80909;stroke-width:1pt;stroke-opacity:1"
         d="M 0,0 5,-5 -12.5,0 5,5 Z"
         id="path12840" />
    </marker>
    <marker
       style="overflow:visible"
       id="marker12832"
       refX="0"
       refY="0"
       orient="auto"
       inkscape:stockid="Arrow1Mend"
       inkscape:isstock="true">
      <path
         transform="matrix(-0.4,0,0,-0.4,-4,0)"
         style="fill:#a80909;fill-opacity:1;fill-rule:evenodd;stroke:#a80909;stroke-width:1pt;stroke-opacity:1"
         d="M 0,0 5,-5 -12.5,0 5,5 Z"
         id="path12830" />
    </marker>
    <marker
       style="overflow:visible"
       id="marker12708"
       refX="0"
       refY="0"
       orient="auto"
       inkscape:stockid="Arrow1Send"
       inkscape:isstock="true">
      <path
         transform="matrix(-0.2,0,0,-0.2,-1.2,0)"
         style="fill:#a80909;fill-opacity:1;fill-rule:evenodd;stroke:#a80909;stroke-width:1pt;stroke-opacity:1"
         d="M 0,0 5,-5 -12.5,0 5,5 Z"
         id="path12706" />
    </marker>
    <marker
       style="overflow:visible"
       id="marker12698"
       refX="0"
       refY="0"
       orient="auto"
       inkscape:stockid="Arrow1Send"
       inkscape:isstock="true">
      <path
         transform="matrix(-0.2,0,0,-0.2,-1.2,0)"
         style="fill:#a80909;fill-opacity:1;fill-rule:evenodd;stroke:#a80909;stroke-width:1pt;stroke-opacity:1"
         d="M 0,0 5,-5 -12.5,0 5,5 Z"
         id="path12696" />
    </marker>
    <marker
       style="overflow:visible"
       id="marker12688"
       refX="0"
       refY="0"
       orient="auto"
       inkscape:stockid="Arrow1Send"
       inkscape:isstock="true">
      <path
         transform="matrix(-0.2,0,0,-0.2,-1.2,0)"
         style="fill:#000000;fill-opacity:1;fill-rule:evenodd;stroke:#000000;stroke-width:1pt;stroke-opacity:1"
         d="M 0,0 5,-5 -12.5,0 5,5 Z"
         id="path12686" />
    </marker>
    <marker
       style="overflow:visible"
       id="marker12598"
       refX="0"
       refY="0"
       orient="auto"
       inkscape:stockid="Arrow2Mend"
       inkscape:isstock="true">
      <path
         transform="scale(-0.6)"
         d="M 8.7185878,4.0337352 -2.2072895,0.01601326 8.7185884,-4.0017078 c -1.7454984,2.3720609 -1.7354408,5.6174519 -6e-7,8.035443 z"
         style="fill:#a80909;fill-opacity:1;fill-rule:evenodd;stroke:#a80909;stroke-width:0.625;stroke-linejoin:round;stroke-opacity:1"
         id="path12596" />
    </marker>
    <marker
       style="overflow:visible"
       id="marker12588"
       refX="0"
       refY="0"
       orient="auto"
       inkscape:stockid="Arrow2Mend"
       inkscape:isstock="true">
      <path
         transform="scale(-0.6)"
         d="M 8.7185878,4.0337352 -2.2072895,0.01601326 8.7185884,-4.0017078 c -1.7454984,2.3720609 -1.7354408,5.6174519 -6e-7,8.035443 z"
         style="fill:#a80909;fill-opacity:1;fill-rule:evenodd;stroke:#a80909;stroke-width:0.625;stroke-linejoin:round;stroke-opacity:1"
         id="path12586" />
    </marker>
    <marker
       style="overflow:visible"
       id="marker12578"
       refX="0"
       refY="0"
       orient="auto"
       inkscape:stockid="Arrow2Mend"
       inkscape:isstock="true">
      <path
         transform="scale(-0.6)"
         d="M 8.7185878,4.0337352 -2.2072895,0.01601326 8.7185884,-4.0017078 c -1.7454984,2.3720609 -1.7354408,5.6174519 -6e-7,8.035443 z"
         style="fill:#a80909;fill-opacity:1;fill-rule:evenodd;stroke:#a80909;stroke-width:0.625;stroke-linejoin:round;stroke-opacity:1"
         id="path12576" />
    </marker>
    <marker
       style="overflow:visible"
       id="marker12502"
       refX="0"
       refY="0"
       orient="auto"
       inkscape:stockid="Arrow2Lend"
       inkscape:isstock="true">
      <path
         transform="matrix(-1.1,0,0,-1.1,-1.1,0)"
         d="M 8.7185878,4.0337352 -2.2072895,0.01601326 8.7185884,-4.0017078 c -1.7454984,2.3720609 -1.7354408,5.6174519 -6e-7,8.035443 z"
         style="fill:#a80909;fill-opacity:1;fill-rule:evenodd;stroke:#a80909;stroke-width:0.625;stroke-linejoin:round;stroke-opacity:1"
         id="path12500" />
    </marker>
    <marker
       style="overflow:visible"
       id="marker12492"
       refX="0"
       refY="0"
       orient="auto"
       inkscape:stockid="Arrow2Lend"
       inkscape:isstock="true">
      <path
         transform="matrix(-1.1,0,0,-1.1,-1.1,0)"
         d="M 8.7185878,4.0337352 -2.2072895,0.01601326 8.7185884,-4.0017078 c -1.7454984,2.3720609 -1.7354408,5.6174519 -6e-7,8.035443 z"
         style="fill:#a80909;fill-opacity:1;fill-rule:evenodd;stroke:#a80909;stroke-width:0.625;stroke-linejoin:round;stroke-opacity:1"
         id="path12490" />
    </marker>
    <marker
       style="overflow:visible"
       id="marker12482"
       refX="0"
       refY="0"
       orient="auto"
       inkscape:stockid="Arrow2Lend"
       inkscape:isstock="true">
      <path
         transform="matrix(-1.1,0,0,-1.1,-1.1,0)"
         d="M 8.7185878,4.0337352 -2.2072895,0.01601326 8.7185884,-4.0017078 c -1.7454984,2.3720609 -1.7354408,5.6174519 -6e-7,8.035443 z"
         style="fill:#a80909;fill-opacity:1;fill-rule:evenodd;stroke:#a80909;stroke-width:0.625;stroke-linejoin:round;stroke-opacity:1"
         id="path12480" />
    </marker>
    <marker
       style="overflow:visible"
       id="marker12472"
       refX="0"
       refY="0"
       orient="auto"
       inkscape:stockid="Arrow2Lend"
       inkscape:isstock="true">
      <path
         transform="matrix(-1.1,0,0,-1.1,-1.1,0)"
         d="M 8.7185878,4.0337352 -2.2072895,0.01601326 8.7185884,-4.0017078 c -1.7454984,2.3720609 -1.7354408,5.6174519 -6e-7,8.035443 z"
         style="fill:#a80909;fill-opacity:1;fill-rule:evenodd;stroke:#a80909;stroke-width:0.625;stroke-linejoin:round;stroke-opacity:1"
         id="path12470" />
    </marker>
    <marker
       style="overflow:visible"
       id="Arrow2Mstart-3"
       refX="0"
       refY="0"
       orient="auto"
       inkscape:stockid="Arrow2Mstart"
       inkscape:isstock="true">
      <path
         transform="scale(0.6)"
         d="M 8.7185878,4.0337352 -2.2072895,0.01601326 8.7185884,-4.0017078 c -1.7454984,2.3720609 -1.7354408,5.6174519 -6e-7,8.035443 z"
         style="fill:#000000;fill-opacity:1;fill-rule:evenodd;stroke:#000000;stroke-width:0.625;stroke-linejoin:round;stroke-opacity:1"
         id="path2466-6" />
    </marker>
    <marker
       style="overflow:visible"
       id="Arrow2Mstart-3-7"
       refX="0"
       refY="0"
       orient="auto"
       inkscape:stockid="Arrow2Mstart"
       inkscape:isstock="true">
      <path
         transform="scale(0.6)"
         d="M 8.7185878,4.0337352 -2.2072895,0.01601326 8.7185884,-4.0017078 c -1.7454984,2.3720609 -1.7354408,5.6174519 -6e-7,8.035443 z"
         style="fill:#000000;fill-opacity:1;fill-rule:evenodd;stroke:#000000;stroke-width:0.625;stroke-linejoin:round;stroke-opacity:1"
         id="path2466-6-3" />
    </marker>
    <marker
       style="overflow:visible"
       id="Arrow2Mstart-3-7-8"
       refX="0"
       refY="0"
       orient="auto"
       inkscape:stockid="Arrow2Mstart"
       inkscape:isstock="true">
      <path
         transform="scale(0.6)"
         d="M 8.7185878,4.0337352 -2.2072895,0.01601326 8.7185884,-4.0017078 c -1.7454984,2.3720609 -1.7354408,5.6174519 -6e-7,8.035443 z"
         style="fill:#000000;fill-opacity:1;fill-rule:evenodd;stroke:#000000;stroke-width:0.625;stroke-linejoin:round;stroke-opacity:1"
         id="path2466-6-3-4" />
    </marker>
    <marker
       style="overflow:visible"
       id="marker14038-5"
       refX="0"
       refY="0"
       orient="auto"
       inkscape:stockid="Arrow2Mend"
       inkscape:isstock="true">
      <path
         transform="scale(-0.6)"
         d="M 8.7185878,4.0337352 -2.2072895,0.01601326 8.7185884,-4.0017078 c -1.7454984,2.3720609 -1.7354408,5.6174519 -6e-7,8.035443 z"
         style="fill:#f21414;fill-opacity:1;fill-rule:evenodd;stroke:#f21414;stroke-width:0.625;stroke-linejoin:round;stroke-opacity:1"
         id="path14036-9" />
    </marker>
    <marker
       style="overflow:visible"
       id="marker14890-5"
       refX="0"
       refY="0"
       orient="auto"
       inkscape:stockid="Arrow2Mend"
       inkscape:isstock="true">
      <path
         transform="scale(-0.6)"
         d="M 8.7185878,4.0337352 -2.2072895,0.01601326 8.7185884,-4.0017078 c -1.7454984,2.3720609 -1.7354408,5.6174519 -6e-7,8.035443 z"
         style="fill:#f21414;fill-opacity:1;fill-rule:evenodd;stroke:#f21414;stroke-width:0.625;stroke-linejoin:round;stroke-opacity:1"
         id="path14888-9" />
    </marker>
    <marker
       style="overflow:visible"
       id="marker14880-7"
       refX="0"
       refY="0"
       orient="auto"
       inkscape:stockid="Arrow2Mend"
       inkscape:isstock="true">
      <path
         transform="scale(-0.6)"
         d="M 8.7185878,4.0337352 -2.2072895,0.01601326 8.7185884,-4.0017078 c -1.7454984,2.3720609 -1.7354408,5.6174519 -6e-7,8.035443 z"
         style="fill:#f21414;fill-opacity:1;fill-rule:evenodd;stroke:#f21414;stroke-width:0.625;stroke-linejoin:round;stroke-opacity:1"
         id="path14878-7" />
    </marker>
    <marker
       style="overflow:visible"
       id="marker14890-5-6"
       refX="0"
       refY="0"
       orient="auto"
       inkscape:stockid="Arrow2Mend"
       inkscape:isstock="true">
      <path
         transform="scale(-0.6)"
         d="M 8.7185878,4.0337352 -2.2072895,0.01601326 8.7185884,-4.0017078 c -1.7454984,2.3720609 -1.7354408,5.6174519 -6e-7,8.035443 z"
         style="fill:#f21414;fill-opacity:1;fill-rule:evenodd;stroke:#f21414;stroke-width:0.625;stroke-linejoin:round;stroke-opacity:1"
         id="path14888-9-7" />
    </marker>
    <marker
       style="overflow:visible"
       id="marker14880-7-6"
       refX="0"
       refY="0"
       orient="auto"
       inkscape:stockid="Arrow2Mend"
       inkscape:isstock="true">
      <path
         transform="scale(-0.6)"
         d="M 8.7185878,4.0337352 -2.2072895,0.01601326 8.7185884,-4.0017078 c -1.7454984,2.3720609 -1.7354408,5.6174519 -6e-7,8.035443 z"
         style="fill:#0fff00;fill-opacity:1;fill-rule:evenodd;stroke:#0fff00;stroke-width:0.625;stroke-linejoin:round;stroke-opacity:1"
         id="path14878-7-5" />
    </marker>
    <marker
       style="overflow:visible"
       id="Arrow2Mstart-3-7-3"
       refX="0"
       refY="0"
       orient="auto"
       inkscape:stockid="Arrow2Mstart"
       inkscape:isstock="true">
      <path
         transform="scale(0.6)"
         d="M 8.7185878,4.0337352 -2.2072895,0.01601326 8.7185884,-4.0017078 c -1.7454984,2.3720609 -1.7354408,5.6174519 -6e-7,8.035443 z"
         style="fill:#000000;fill-opacity:1;fill-rule:evenodd;stroke:#000000;stroke-width:0.625;stroke-linejoin:round;stroke-opacity:1"
         id="path2466-6-3-9" />
    </marker>
    <marker
       style="overflow:visible"
       id="Arrow2Mstart-3-7-9"
       refX="0"
       refY="0"
       orient="auto"
       inkscape:stockid="Arrow2Mstart"
       inkscape:isstock="true">
      <path
         transform="scale(0.6)"
         d="M 8.7185878,4.0337352 -2.2072895,0.01601326 8.7185884,-4.0017078 c -1.7454984,2.3720609 -1.7354408,5.6174519 -6e-7,8.035443 z"
         style="fill:#000000;fill-opacity:1;fill-rule:evenodd;stroke:#000000;stroke-width:0.625;stroke-linejoin:round;stroke-opacity:1"
         id="path2466-6-3-7" />
    </marker>
    <marker
       style="overflow:visible"
       id="Arrow2Mstart-3-7-30"
       refX="0"
       refY="0"
       orient="auto"
       inkscape:stockid="Arrow2Mstart"
       inkscape:isstock="true">
      <path
         transform="scale(0.6)"
         d="M 8.7185878,4.0337352 -2.2072895,0.01601326 8.7185884,-4.0017078 c -1.7454984,2.3720609 -1.7354408,5.6174519 -6e-7,8.035443 z"
         style="fill:#000000;fill-opacity:1;fill-rule:evenodd;stroke:#000000;stroke-width:0.625;stroke-linejoin:round;stroke-opacity:1"
         id="path2466-6-3-92" />
    </marker>
    <marker
       style="overflow:visible"
       id="Arrow2Mstart-3-7-9-9"
       refX="0"
       refY="0"
       orient="auto"
       inkscape:stockid="Arrow2Mstart"
       inkscape:isstock="true">
      <path
         transform="scale(0.6)"
         d="M 8.7185878,4.0337352 -2.2072895,0.01601326 8.7185884,-4.0017078 c -1.7454984,2.3720609 -1.7354408,5.6174519 -6e-7,8.035443 z"
         style="fill:#000000;fill-opacity:1;fill-rule:evenodd;stroke:#000000;stroke-width:0.625;stroke-linejoin:round;stroke-opacity:1"
         id="path2466-6-3-7-2" />
    </marker>
  </defs>
  <sodipodi:namedview
     id="base"
     pagecolor="#ffffff"
     bordercolor="#666666"
     borderopacity="1.0"
     inkscape:pageopacity="0.0"
     inkscape:pageshadow="2"
     inkscape:zoom="0.70710678"
     inkscape:cx="427.09249"
     inkscape:cy="318.90516"
     inkscape:document-units="mm"
     inkscape:current-layer="layer1"
     inkscape:document-rotation="0"
     showgrid="false"
     fit-margin-top="0"
     fit-margin-left="0"
     fit-margin-right="0"
     fit-margin-bottom="0"
     inkscape:window-width="1350"
     inkscape:window-height="1230"
     inkscape:window-x="178"
     inkscape:window-y="105"
     inkscape:window-maximized="0"
     inkscape:showpageshadow="2"
     inkscape:pagecheckerboard="0"
     inkscape:deskcolor="#d1d1d1">
    <inkscape:grid
       type="xygrid"
       id="grid29"
       originx="-139.5117"
       originy="-124.05493" />
  </sodipodi:namedview>
  <metadata
     id="metadata5">
    <rdf:RDF>
      <cc:Work
         rdf:about="">
        <dc:format>image/svg+xml</dc:format>
        <dc:type
           rdf:resource="http://purl.org/dc/dcmitype/StillImage" />
      </cc:Work>
    </rdf:RDF>
  </metadata>
  <g
     inkscape:groupmode="layer"
     id="layer2"
     inkscape:label="low"
     transform="translate(-82.848322,0.70843511)" />
  <g
     inkscape:label="Layer 1"
     inkscape:groupmode="layer"
     id="layer1"
     transform="translate(-139.51161,-124.05491)">
    <text
       id="text1188-1"
       y="231.97343"
       x="199.41719"
       style="font-style:normal;font-variant:normal;font-weight:normal;font-stretch:normal;font-size:3.6576px;line-height:1.25;font-family:'CMU Serif';-inkscape-font-specification:'CMU Serif';fill:#000000;fill-opacity:1;stroke:none;stroke-width:0.4572"
       xml:space="preserve"><tspan
         style="font-style:normal;font-variant:normal;font-weight:normal;font-stretch:normal;font-size:3.6576px;font-family:'CMU Serif';-inkscape-font-specification:'CMU Serif';stroke-width:0.4572"
         y="231.97343"
         x="199.41719"
         id="tspan1186-0"
         sodipodi:role="line" /></text>
    <path
       style="fill:#ff0000;fill-opacity:0;stroke:#ff0000;stroke-width:0.212598;stroke-linecap:round;stroke-miterlimit:4;stroke-dasharray:none"
       d=""
       id="path6668"
       transform="matrix(0.26458333,0,0,0.26458333,-10.354553,95.919598)" />
    <text
       xml:space="preserve"
       id="text28722"
       style="font-size:7.2159px;line-height:1.25;font-family:'CMU Serif';-inkscape-font-specification:'CMU Serif, Normal';white-space:pre;shape-inside:url(#rect28724);display:inline" />
    <path
       style="fill:none;stroke:#000000;stroke-width:0.519955px;stroke-linecap:butt;stroke-linejoin:miter;stroke-opacity:1"
       d="m 150.98101,144.91163 c 10.54377,-2.2106 8.36964,0.0144 24.65709,1.08864 3.666,0.24192 9.95537,-1.50977 14.5439,-1.33064 4.73075,0.18465 10.54694,1.72825 15.70374,1.95038 4.28561,0.1846 9.3512,-1.50223 13.6548,-1.45524 7.31142,0.0798 16.41344,1.76069 22.96318,1.85569 7.21237,0.10452 8.30102,-1.24153 13.96379,-2.13458"
       id="path10"
       sodipodi:nodetypes="csssssc" />
    <path
       sodipodi:nodetypes="csssssc"
       id="path10-3"
       d="m 150.9093,151.89934 c 10.54376,-2.21058 8.36964,0.0144 24.65708,1.08864 3.66601,0.24192 9.95538,-1.50977 14.54391,-1.33065 4.73074,0.18468 10.54694,1.72827 15.70374,1.9504 4.28561,0.18461 9.35119,-1.50223 13.6548,-1.45525 7.31142,0.0798 16.41344,1.76069 22.96317,1.8557 7.21238,0.10452 8.30103,-1.24154 13.96379,-2.13458"
       style="fill:none;stroke:#000000;stroke-width:0.519955px;stroke-linecap:butt;stroke-linejoin:miter;stroke-opacity:1" />
    <path
       sodipodi:nodetypes="csssssc"
       id="path10-6"
       d="m 150.85558,158.78315 c 10.54757,-2.21038 8.37265,0.0144 24.66597,1.08853 3.66733,0.2419 9.95897,-1.50962 14.54915,-1.33051 4.73245,0.18466 10.55074,1.72808 15.7094,1.9502 4.28716,0.1846 9.35456,-1.50209 13.65972,-1.45511 7.31405,0.0798 16.41935,1.76052 22.97146,1.85552 7.21495,0.10451 8.30402,-1.24142 13.96881,-2.13438"
       style="fill:none;stroke:#000000;stroke-width:0.520024px;stroke-linecap:butt;stroke-linejoin:miter;stroke-opacity:1" />
    <path
       sodipodi:nodetypes="csssssc"
       id="path10-7"
       d="m 150.9093,165.61534 c 10.54376,-2.21058 8.36964,0.0144 24.65708,1.08864 3.66601,0.24192 9.95538,-1.50977 14.54391,-1.33065 4.73074,0.18468 10.54694,1.72827 15.70374,1.9504 4.28561,0.18461 9.35119,-1.50223 13.6548,-1.45525 7.31142,0.0798 16.41344,1.76069 22.96317,1.8557 7.21238,0.10452 8.30103,-1.24154 13.96379,-2.13458"
       style="fill:none;stroke:#000000;stroke-width:0.519955px;stroke-linecap:butt;stroke-linejoin:miter;stroke-opacity:1" />
    <text
       xml:space="preserve"
       style="font-style:normal;font-variant:normal;font-weight:normal;font-stretch:normal;font-size:7.40833px;line-height:1.25;font-family:'CMU Serif';-inkscape-font-specification:'CMU Serif';stroke-width:0.264583"
       x="139.20052"
       y="164.7464"
       id="text5602"><tspan
         sodipodi:role="line"
         id="tspan5600"
         x="139.20052"
         y="164.7464"
         style="font-style:normal;font-variant:normal;font-weight:normal;font-stretch:normal;font-size:7.40833px;font-family:'CMU Serif';-inkscape-font-specification:'CMU Serif';stroke-width:0.264583">a)</tspan></text>
    <path
       style="fill:none;stroke:#000000;stroke-width:0.53478;stroke-linecap:round;stroke-linejoin:bevel;stroke-miterlimit:4;stroke-dasharray:none;stroke-opacity:1"
       d="m 256.46034,125.31378 -0.0576,40.26893"
       id="path10102"
       sodipodi:nodetypes="cc" />
    <path
       style="fill:none;stroke:#000000;stroke-width:0.534876;stroke-linecap:round;stroke-linejoin:round;stroke-miterlimit:4;stroke-dasharray:none;stroke-opacity:1"
       d="m 274.13315,125.38261 -0.0511,40.22078"
       id="path10100" />
    <path
       style="fill:none;stroke:#000000;stroke-width:0.519954px;stroke-linecap:butt;stroke-linejoin:miter;stroke-opacity:1"
       d="m 150.86602,138.51465 c 10.54377,-2.2106 8.36964,0.0144 24.65709,1.08864 3.666,0.24192 9.95538,-1.50977 14.5439,-1.33064 4.73075,0.18465 10.54695,1.72825 15.70374,1.95038 4.28562,0.1846 9.3512,-1.50223 13.6548,-1.45524 7.31143,0.0798 16.41344,1.76069 22.96318,1.85569 7.21238,0.10452 8.30102,-1.24153 13.96379,-2.13458"
       id="path10-1"
       sodipodi:nodetypes="csssssc" />
    <path
       style="fill:none;stroke:#000000;stroke-width:0.519955px;stroke-linecap:butt;stroke-linejoin:miter;stroke-opacity:1"
       d="m 150.93774,131.52694 c 10.54377,-2.2106 8.36964,0.0144 24.65709,1.08864 3.666,0.24192 9.95537,-1.50977 14.5439,-1.33064 4.73075,0.18465 10.54694,1.72825 15.70374,1.95038 4.28561,0.1846 9.3512,-1.50223 13.6548,-1.45524 7.31142,0.0798 16.41344,1.76069 22.96318,1.85569 7.21237,0.10452 8.30102,-1.24153 13.96379,-2.13458"
       id="path10-71"
       sodipodi:nodetypes="csssssc" />
    <path
       sodipodi:nodetypes="csssssc"
       id="path10-3-1"
       d="m 150.86603,138.51465 c 10.54376,-2.21058 8.36964,0.0144 24.65708,1.08864 3.66601,0.24192 9.95538,-1.50977 14.54391,-1.33065 4.73074,0.18468 10.54694,1.72827 15.70374,1.9504 4.28561,0.18461 9.35119,-1.50223 13.6548,-1.45525 7.31142,0.0798 16.41344,1.76069 22.96317,1.8557 7.21238,0.10452 8.30103,-1.24154 13.96379,-2.13458"
       style="fill:none;stroke:#000000;stroke-width:0.519955px;stroke-linecap:butt;stroke-linejoin:miter;stroke-opacity:1" />
    <path
       style="fill:none;stroke:#000000;stroke-width:0.519954px;stroke-linecap:butt;stroke-linejoin:round;stroke-opacity:1"
       d="m 150.97407,125.38762 c 10.58162,-2.2106 8.24816,-0.24326 24.59409,0.83098 3.67916,0.24192 9.99112,-1.50977 14.59611,-1.33064 4.74773,0.18465 10.58481,1.72825 15.76012,1.95038 4.301,0.1846 9.38477,-1.50223 13.70382,-1.45524 7.33767,0.0798 16.47236,1.76069 23.04561,1.85569 7.23828,0.10452 8.10342,-1.03196 13.78652,-1.92501"
       id="path10-1-5"
       sodipodi:nodetypes="csssssc" />
    <path
       style="fill:#488dcb;fill-opacity:1;stroke:none;stroke-width:0.264999;stroke-linecap:round;stroke-linejoin:round;paint-order:stroke markers fill"
       d="m 157.83206,124.68022 c -2.19332,-0.045 -4.3532,0.43444 -6.48781,0.8673 -0.29661,0.43086 -0.0954,1.05043 -0.16871,1.54585 0.014,1.38095 -0.045,2.78208 0.0291,4.14994 2.85018,-0.55605 5.78637,-1.10709 8.70479,-0.74192 3.58107,0.41459 7.11855,1.15741 10.71356,1.47034 2.93184,0.27194 5.89691,0.65643 8.83113,0.19058 4.41904,-0.52412 8.86337,-1.52398 13.32404,-0.87826 4.58899,0.52298 9.12213,1.65578 13.75996,1.71358 4.63054,-0.0127 9.11677,-1.60826 13.75723,-1.39458 5.74073,0.12683 11.42806,1.01813 17.14464,1.50455 2.89692,0.3517 5.82046,0.25327 8.73011,0.1727 3.40151,-0.16067 6.61664,-1.43315 9.95803,-1.95807 0.15689,-0.78757 0.0195,-1.68247 0.0658,-2.51035 -0.0218,-1.06863 0.0436,-2.15811 -0.0325,-3.21376 -3.57031,0.53941 -7.05314,1.8325 -10.70419,1.78464 -5.32554,0.24524 -10.61315,-0.53028 -15.89942,-1.04963 -4.12994,-0.38062 -8.28753,-0.94451 -12.43964,-0.58939 -4.39817,0.50687 -8.78689,1.72536 -13.24064,1.16441 -4.26356,-0.42872 -8.46126,-1.39134 -12.73618,-1.7275 -2.5865,-0.15229 -5.17161,0.0843 -7.72397,0.49758 -3.10903,0.42642 -6.23555,1.00579 -9.38126,0.64551 -4.41583,-0.28445 -8.79046,-0.93687 -13.16779,-1.56216 -1.00854,-0.0993 -2.02428,-0.0776 -3.03625,-0.0814 z"
       id="path61054" />
    <path
       style="fill:#488dcb;fill-opacity:1;stroke:none;stroke-width:0.264999;stroke-linecap:round;stroke-linejoin:round;paint-order:stroke markers fill"
       d="m 157.69247,137.81626 c -2.17596,0.0457 -4.33337,0.40259 -6.45748,0.85761 -0.14978,0.85336 -0.0187,1.80615 -0.0629,2.69689 0.0221,1.08045 -0.0442,2.18202 0.0325,3.24939 2.58132,-0.45699 5.19278,-0.99188 7.8375,-0.82275 2.81335,0.19329 5.57277,0.83864 8.3714,1.17329 3.08065,0.385 6.1757,0.75571 9.28228,0.81095 4.06676,-0.14908 8.04662,-1.21866 12.11766,-1.29597 4.33869,-0.1085 8.57884,0.95733 12.86204,1.4947 2.91313,0.45415 5.89067,0.56466 8.80863,0.085 2.99354,-0.38727 5.95364,-1.16711 8.99123,-1.02576 5.26097,-0.10275 10.46702,0.75538 15.69346,1.23637 3.94329,0.4471 7.93166,0.64581 11.89241,0.33233 3.08008,-0.34165 6.02378,-1.37716 9.06999,-1.90505 0.14936,-0.8536 0.0186,-1.80612 0.0627,-2.69689 -0.0217,-1.07615 0.0434,-2.17306 -0.0325,-3.23624 -3.67569,0.54238 -7.2196,1.9896 -10.97593,2.00426 -4.20132,0.13267 -8.39026,-0.21186 -12.55837,-0.70386 -5.1433,-0.52458 -10.30997,-1.25325 -15.49086,-0.95034 -4.35917,0.42745 -8.68208,1.72145 -13.09054,1.19671 -4.35751,-0.39876 -8.6425,-1.39802 -13.00637,-1.75034 -2.86324,-0.20497 -5.71225,0.198 -8.53718,0.61588 -2.88043,0.39035 -5.78521,0.90242 -8.69445,0.51614 -4.38941,-0.30227 -8.73138,-0.98756 -13.07415,-1.67444 -1.00713,-0.14823 -2.02278,-0.22418 -3.04108,-0.2079 z"
       id="path61056" />
    <path
       style="fill:#488dcb;fill-opacity:1;stroke:none;stroke-width:0.264999;stroke-linecap:round;stroke-linejoin:round;paint-order:stroke markers fill"
       d="m 157.88157,151.20625 c -2.24385,-0.008 -4.45284,0.41786 -6.64494,0.84976 -0.15375,0.82031 -0.0191,1.7444 -0.0645,2.60371 0.0287,1.25226 -0.0552,2.52449 0.0956,3.76552 0.75606,-0.001 1.54823,-0.30182 2.31705,-0.38422 2.62677,-0.44244 5.33417,-0.59342 7.96255,-0.0723 4.96286,0.78592 9.95344,1.55819 14.98578,1.68631 4.80802,-0.18014 9.52372,-1.60081 14.35767,-1.2682 4.97523,0.34907 9.85522,1.64459 14.85042,1.84853 4.88003,0.17563 9.60008,-1.58726 14.4789,-1.3938 7.04393,0.19835 14.01024,1.4567 21.04642,1.79916 3.18095,0.0702 6.40289,-0.0147 9.48945,-0.86638 1.7691,-0.42711 3.52792,-0.89659 5.32581,-1.18648 0.16086,-0.81881 0.0329,-1.74435 0.0852,-2.60327 -0.0118,-1.27952 0.0639,-2.57934 -0.003,-3.84617 -3.80086,0.61139 -7.48638,2.07866 -11.38679,2.02782 -3.86807,0.0828 -7.72401,-0.19722 -11.56151,-0.65503 -5.29184,-0.53192 -10.60315,-1.31478 -15.93417,-1.01846 -4.06176,0.36623 -8.05241,1.58042 -12.1583,1.26285 -5.09241,-0.27039 -10.06917,-1.65903 -15.17192,-1.86915 -4.61366,-0.0972 -9.11575,1.24095 -13.71232,1.33394 -5.11167,-0.21261 -10.18365,-0.9634 -15.23162,-1.78202 -1.03482,-0.15163 -2.07887,-0.25793 -3.12609,-0.23211 z"
       id="path61058" />
    <path
       style="fill:#cae7fb;fill-opacity:1;stroke:none;stroke-width:0.264999;stroke-linecap:round;stroke-linejoin:round;paint-order:stroke markers fill"
       d="m 157.73212,158.0951 c -2.16266,7.9e-4 -4.30765,0.38241 -6.414,0.83002 -0.23957,0.61073 -0.078,1.33871 -0.14224,1.98818 0.0135,1.45866 -0.0454,2.93769 0.0288,4.38325 3.03785,-0.50371 6.14976,-1.17702 9.23708,-0.6608 4.5559,0.68577 9.11459,1.45521 13.72197,1.74301 3.61726,0.39373 7.20264,-0.44881 10.77509,-0.8718 3.05255,-0.48588 6.17199,-0.42891 9.21842,0.0576 4.16843,0.53295 8.30719,1.49892 12.5269,1.52365 4.4859,-0.0785 8.83885,-1.5217 13.33574,-1.4175 5.38155,0.10669 10.71802,0.91077 16.07334,1.40736 4.73823,0.48188 9.60275,0.8057 14.26809,-0.38495 1.89911,-0.46899 3.80303,-0.91353 5.72265,-1.2919 0.156,-0.85243 0.033,-1.80587 0.0841,-2.69626 -0.0292,-1.19746 0.0959,-2.41661 -0.0726,-3.60246 -0.44431,-0.12646 -0.97741,0.16413 -1.44574,0.20061 -3.40058,0.73755 -6.76208,1.81783 -10.27434,1.78666 -6.50185,0.10049 -12.93157,-1.0107 -19.39662,-1.53477 -3.14862,-0.25601 -6.33609,-0.50808 -9.4713,0.0309 -3.26796,0.42652 -6.5045,1.25603 -9.82141,1.0841 -3.57076,-0.0843 -7.07672,-0.88999 -10.61052,-1.3633 -3.01386,-0.49091 -6.09151,-0.72828 -9.12968,-0.30736 -3.29275,0.32359 -6.53626,1.15369 -9.85838,1.0201 -5.47804,-0.0336 -10.87139,-1.07449 -16.27539,-1.85607 -0.69132,-0.0618 -1.38622,-0.0733 -2.07995,-0.0683 z"
       id="path61283" />
    <path
       style="fill:#cae7fb;fill-opacity:1;stroke:none;stroke-width:0.264999;stroke-linecap:round;stroke-linejoin:round;paint-order:stroke markers fill"
       d="m 157.91957,144.19938 c -2.23698,0.0409 -4.44721,0.43719 -6.63635,0.8693 -0.15828,0.82008 -0.0323,1.744 -0.0839,2.60309 0.0116,1.30209 -0.0641,2.62445 0.003,3.91377 3.01369,-0.55225 6.10924,-1.11621 9.18345,-0.67631 3.92243,0.57322 7.83395,1.28593 11.79318,1.59015 2.72899,0.23041 5.49508,0.41419 8.20747,-0.0817 3.2266,-0.41183 6.44469,-1.06855 9.71444,-0.91997 3.55979,0.0323 7.04668,0.87721 10.56588,1.33938 3.05117,0.48597 6.17164,0.77354 9.24269,0.28267 3.40699,-0.437 6.78101,-1.30914 10.2378,-1.14289 5.32327,0.0825 10.59892,0.89344 15.8954,1.37854 2.94921,0.35445 5.92006,0.45677 8.88797,0.35759 3.83307,0.008 7.46035,-1.38766 11.19904,-2.02619 0.15418,-0.82008 0.0192,-1.74444 0.0647,-2.60371 -0.0443,-1.2649 0.09,-2.55429 -0.10104,-3.80554 -0.31406,-0.196 -0.76865,0.0975 -1.12438,0.10303 -3.42267,0.71628 -6.79141,1.86609 -10.31834,1.81595 -5.35493,0.16584 -10.66226,-0.65409 -15.97877,-1.16251 -3.93195,-0.41493 -7.90038,-0.78946 -11.85377,-0.48762 -4.03422,0.49488 -8.04427,1.56157 -12.13517,1.21372 -4.76422,-0.37947 -9.4422,-1.56612 -14.22274,-1.83205 -4.69692,-0.19444 -9.28179,1.17315 -13.95187,1.28785 -5.35197,-0.13269 -10.63936,-1.02521 -15.9236,-1.82783 -0.8821,-0.13583 -1.77172,-0.20985 -2.66468,-0.18867 z"
       id="path61285" />
    <path
       style="fill:#cae7fb;fill-opacity:1;stroke:none;stroke-width:0.264999;stroke-linecap:round;stroke-linejoin:round;paint-order:stroke markers fill"
       d="m 157.95776,130.81377 c -2.26537,0.0267 -4.50121,0.44483 -6.72076,0.86126 -0.1546,0.81985 -0.0192,1.74449 -0.0649,2.60372 0,1.27563 0,2.55127 0,3.82691 0.5051,0.12826 1.12226,-0.16249 1.67283,-0.19862 2.60508,-0.48611 5.28506,-0.76333 7.91985,-0.32264 5.43049,0.81619 10.87774,1.77358 16.38633,1.77077 2.7086,-0.14685 5.37994,-0.68872 8.0726,-0.99379 3.17473,-0.47444 6.41114,-0.34236 9.56945,0.19531 4.89293,0.64599 9.81681,1.89791 14.77944,1.22492 3.75478,-0.49457 7.47246,-1.43751 11.28321,-1.19832 6.76028,0.27066 13.45156,1.4322 20.2076,1.77324 3.12589,0.11885 6.28468,0.005 9.32835,-0.77828 1.9093,-0.44175 3.80449,-0.95576 5.7369,-1.27509 0.15544,-0.81952 0.0194,-1.74466 0.0652,-2.60389 -0.049,-1.25485 0.0968,-2.53589 -0.0937,-3.77685 -0.26151,-0.25186 -0.70561,0.0559 -1.02311,0.0461 -3.30744,0.66285 -6.54448,1.77145 -9.94131,1.83757 -4.63336,0.24541 -9.24388,-0.4449 -13.84624,-0.87635 -4.60462,-0.46309 -9.23089,-1.09008 -13.86757,-0.82868 -4.20308,0.41014 -8.34437,1.62108 -12.59741,1.27336 -4.83192,-0.34 -9.57124,-1.56025 -14.41453,-1.8357 -4.73711,-0.19317 -9.35933,1.20069 -14.073,1.29767 -5.21899,-0.17017 -10.38516,-0.99491 -15.53797,-1.79832 -0.94113,-0.14158 -1.88827,-0.24111 -2.8413,-0.2243 z"
       id="path61287" />
    <path
       style="fill:none;stroke:#000000;stroke-width:0.519955px;stroke-linecap:butt;stroke-linejoin:miter;stroke-opacity:1"
       d="m 274.14177,144.84153 c 2.63834,-2.2106 2.09431,0.0144 6.1699,1.08864 0.91733,0.24192 2.49111,-1.50977 3.63929,-1.33064 1.18377,0.18465 2.63914,1.72825 3.92951,1.95038 1.07239,0.1846 2.33994,-1.50223 3.41682,-1.45524 1.82952,0.0798 4.10711,1.76069 5.74603,1.85569 1.80473,0.10452 2.07715,-1.24153 3.49414,-2.13458"
       id="path10-73"
       sodipodi:nodetypes="csssssc" />
    <path
       sodipodi:nodetypes="csssssc"
       id="path10-3-6"
       d="m 274.12383,151.82924 c 2.63834,-2.21058 2.09431,0.0144 6.16989,1.08864 0.91734,0.24192 2.49112,-1.50977 3.63929,-1.33065 1.18377,0.18468 2.63915,1.72827 3.92952,1.9504 1.07238,0.18461 2.33993,-1.50223 3.41681,-1.45525 1.82953,0.0798 4.10712,1.76069 5.74603,1.8557 1.80474,0.10452 2.07716,-1.24154 3.49414,-2.13458"
       style="fill:none;stroke:#000000;stroke-width:0.519955px;stroke-linecap:butt;stroke-linejoin:miter;stroke-opacity:1" />
    <path
       sodipodi:nodetypes="csssssc"
       id="path10-6-5"
       d="m 274.11038,158.71305 c 2.6393,-2.21038 2.09508,0.0144 6.17212,1.08853 0.91768,0.2419 2.49201,-1.50962 3.64061,-1.33051 1.18419,0.18466 2.64009,1.72808 3.93093,1.9502 1.07277,0.1846 2.34077,-1.50209 3.41805,-1.45511 1.83018,0.0798 4.10858,1.76052 5.7481,1.85552 1.80538,0.10451 2.0779,-1.24142 3.49539,-2.13438"
       style="fill:none;stroke:#000000;stroke-width:0.520024px;stroke-linecap:butt;stroke-linejoin:miter;stroke-opacity:1" />
    <path
       sodipodi:nodetypes="csssssc"
       id="path10-7-6"
       d="m 274.12383,165.54524 c 2.63834,-2.21058 2.09431,0.0144 6.16989,1.08864 0.91734,0.24192 2.49112,-1.50977 3.63929,-1.33065 1.18377,0.18468 2.63915,1.72827 3.92952,1.9504 1.07238,0.18461 2.33993,-1.50223 3.41681,-1.45525 1.82953,0.0798 4.10712,1.76069 5.74603,1.8557 1.80474,0.10452 2.07716,-1.24154 3.49414,-2.13458"
       style="fill:none;stroke:#000000;stroke-width:0.519955px;stroke-linecap:butt;stroke-linejoin:miter;stroke-opacity:1" />
    <text
       xml:space="preserve"
       style="font-style:normal;font-variant:normal;font-weight:normal;font-stretch:normal;font-size:7.40833px;line-height:1.25;font-family:'CMU Serif';-inkscape-font-specification:'CMU Serif';stroke-width:0.264583"
       x="261.7085"
       y="164.7464"
       id="text5602-9"><tspan
         sodipodi:role="line"
         id="tspan5600-4"
         x="261.7085"
         y="164.7464"
         style="font-style:normal;font-variant:normal;font-weight:normal;font-stretch:normal;font-size:7.40833px;font-family:'CMU Serif';-inkscape-font-specification:'CMU Serif';stroke-width:0.264583">b)</tspan></text>
    <path
       style="fill:none;stroke:#000000;stroke-width:0.534876;stroke-linecap:round;stroke-linejoin:round;stroke-miterlimit:4;stroke-dasharray:none;stroke-opacity:1"
       d="m 274.14003,125.31752 -0.0144,40.22078"
       id="path10100-0" />
    <path
       style="fill:none;stroke:#000000;stroke-width:0.534876;stroke-linecap:round;stroke-linejoin:round;stroke-miterlimit:4;stroke-dasharray:none;stroke-opacity:1"
       d="m 378.57607,125.31752 -0.0144,40.22078"
       id="path10100-0-2" />
    <path
       style="fill:none;stroke:#000000;stroke-width:0.519954px;stroke-linecap:butt;stroke-linejoin:miter;stroke-opacity:1"
       d="m 274.11299,138.44455 c 2.63835,-2.2106 2.09433,0.0144 6.16991,1.08864 0.91733,0.24192 2.49111,-1.50977 3.63929,-1.33064 1.18376,0.18465 2.63913,1.72825 3.92951,1.95038 1.07238,0.1846 2.33993,-1.50223 3.41682,-1.45524 1.82952,0.0798 4.1071,1.76069 5.74603,1.85569 1.80473,0.10452 2.07715,-1.24153 3.49413,-2.13458"
       id="path10-1-8"
       sodipodi:nodetypes="csssssc" />
    <path
       style="fill:none;stroke:#000000;stroke-width:0.519955px;stroke-linecap:butt;stroke-linejoin:miter;stroke-opacity:1"
       d="m 274.13094,131.45684 c 2.63835,-2.2106 2.09433,0.0144 6.1699,1.08864 0.91734,0.24192 2.49111,-1.50977 3.63929,-1.33064 1.18377,0.18465 2.63914,1.72825 3.92952,1.95038 1.07237,0.1846 2.33993,-1.50223 3.41681,-1.45524 1.82953,0.0798 4.1071,1.76069 5.74604,1.85569 1.80473,0.10452 2.07714,-1.24153 3.49413,-2.13458"
       id="path10-71-8"
       sodipodi:nodetypes="csssssc" />
    <path
       sodipodi:nodetypes="csssssc"
       id="path10-3-1-5"
       d="m 274.113,138.44455 c 2.63834,-2.21058 2.09432,0.0144 6.1699,1.08864 0.91733,0.24192 2.49111,-1.50977 3.63929,-1.33065 1.18376,0.18468 2.63913,1.72827 3.92951,1.9504 1.07238,0.18461 2.33993,-1.50223 3.41682,-1.45525 1.82952,0.0798 4.1071,1.76069 5.74603,1.8557 1.80473,0.10452 2.07715,-1.24154 3.49413,-2.13458"
       style="fill:none;stroke:#000000;stroke-width:0.519955px;stroke-linecap:butt;stroke-linejoin:miter;stroke-opacity:1" />
    <path
       style="fill:#488dcb;fill-opacity:1;stroke:none;stroke-width:0.264999;stroke-linecap:round;stroke-linejoin:round;paint-order:stroke markers fill"
       d="m 275.82117,137.74615 c -0.54449,0.0457 -1.08434,0.40259 -1.61584,0.85761 -0.0375,0.85336 -0.004,1.80615 -0.0157,2.69689 0.005,1.08045 -0.0111,2.18202 0.008,3.24939 0.64593,-0.45699 1.29939,-0.99188 1.96116,-0.82275 0.70399,0.19329 1.39446,0.83864 2.09476,1.17329 0.77087,0.385 1.54534,0.75571 2.32269,0.81095 1.01762,-0.14908 2.01349,-1.21866 3.03218,-1.29597 1.08566,-0.1085 2.14666,0.95733 3.21844,1.4947 0.72895,0.45415 1.47401,0.56466 2.20417,0.085 0.74906,-0.38727 1.48977,-1.16711 2.24985,-1.02576 1.31645,-0.10275 2.61915,0.75538 3.92695,1.23637 0.98672,0.4471 1.98472,0.64581 2.97581,0.33233 0.77073,-0.34165 1.50732,-1.37716 2.26957,-1.90505 0.0374,-0.8536 0.004,-1.80612 0.0157,-2.69689 -0.005,-1.07615 0.0109,-2.17306 -0.008,-3.23624 -0.91976,0.54238 -1.80655,1.9896 -2.74649,2.00426 -1.05128,0.13267 -2.09948,-0.21186 -3.14245,-0.70386 -1.287,-0.52458 -2.57984,-1.25325 -3.87625,-0.95034 -1.09079,0.42745 -2.1725,1.72145 -3.27563,1.19671 -1.09036,-0.39876 -2.16259,-1.39802 -3.25455,-1.75034 -0.71646,-0.20497 -1.42936,0.198 -2.13625,0.61588 -0.72076,0.39035 -1.44761,0.90242 -2.17559,0.51614 -1.09835,-0.30227 -2.18483,-0.98756 -3.27152,-1.67444 -0.25201,-0.14823 -0.50615,-0.22418 -0.76096,-0.2079 z"
       id="path61056-6" />
    <path
       style="fill:#488dcb;fill-opacity:1;stroke:none;stroke-width:0.264999;stroke-linecap:round;stroke-linejoin:round;paint-order:stroke markers fill"
       d="m 275.86849,151.13614 c -0.56148,-0.008 -1.11423,0.41786 -1.66276,0.84976 -0.0385,0.82031 -0.004,1.7444 -0.0162,2.60371 0.007,1.25226 -0.0139,2.52449 0.024,3.76552 0.18919,-0.001 0.38741,-0.30182 0.57979,-0.38422 0.6573,-0.44244 1.33476,-0.59342 1.99245,-0.0723 1.24185,0.78592 2.49064,1.55819 3.74987,1.68631 1.2031,-0.18014 2.3831,-1.60081 3.59269,-1.2682 1.24494,0.34907 2.46605,1.64459 3.716,1.84853 1.22111,0.17563 2.4022,-1.58726 3.62301,-1.3938 1.7626,0.19835 3.50577,1.4567 5.26642,1.79916 0.79596,0.0702 1.60217,-0.0147 2.37452,-0.86638 0.44268,-0.42711 0.88279,-0.89659 1.33266,-1.18648 0.0402,-0.81881 0.008,-1.74435 0.0213,-2.60327 -0.003,-1.27952 0.016,-2.57934 -6e-4,-3.84617 -0.95108,0.61139 -1.8733,2.07866 -2.8493,2.02782 -0.9679,0.0828 -1.93276,-0.19722 -2.893,-0.65503 -1.32417,-0.53192 -2.65322,-1.31478 -3.98719,-1.01846 -1.01636,0.36623 -2.01493,1.58042 -3.04235,1.26285 -1.27426,-0.27039 -2.51959,-1.65903 -3.79643,-1.86915 -1.15447,-0.0972 -2.28102,1.24095 -3.43121,1.33394 -1.27908,-0.21261 -2.54824,-0.9634 -3.81138,-1.78202 -0.25894,-0.15163 -0.52019,-0.25793 -0.78223,-0.23211 z"
       id="path61058-3" />
    <path
       style="fill:#cae7fb;fill-opacity:1;stroke:none;stroke-width:0.264999;stroke-linecap:round;stroke-linejoin:round;paint-order:stroke markers fill"
       d="m 275.83109,158.02499 c -0.54116,7.9e-4 -1.0779,0.38241 -1.60496,0.83002 -0.0599,0.61073 -0.0195,1.33871 -0.0356,1.98818 0.004,1.45866 -0.0114,2.93769 0.007,4.38325 0.76015,-0.50371 1.53885,-1.17702 2.31138,-0.6608 1.14002,0.68577 2.28072,1.45521 3.43362,1.74301 0.90514,0.39373 1.80231,-0.44881 2.69623,-0.8718 0.76383,-0.48588 1.5444,-0.42891 2.30671,0.0576 1.04305,0.53295 2.07869,1.49892 3.13458,1.52365 1.12249,-0.0784 2.21173,-1.5217 3.33698,-1.4175 1.34661,0.10669 2.68195,0.91077 4.02199,1.40736 1.18564,0.48188 2.40289,0.8057 3.57028,-0.38495 0.47521,-0.46899 0.95162,-0.91353 1.43197,-1.2919 0.0391,-0.85243 0.008,-1.80587 0.021,-2.69626 -0.007,-1.19746 0.024,-2.41661 -0.0182,-3.60246 -0.11118,-0.12646 -0.24457,0.16413 -0.36176,0.20061 -0.85092,0.73755 -1.69207,1.81783 -2.57093,1.78666 -1.62695,0.10049 -3.23584,-1.0107 -4.85358,-1.53477 -0.78787,-0.25601 -1.58547,-0.50808 -2.36998,0.0309 -0.81774,0.42652 -1.62761,1.25603 -2.45759,1.0841 -0.89352,-0.0843 -1.7708,-0.88999 -2.65505,-1.3633 -0.75416,-0.49091 -1.52427,-0.72828 -2.28451,-0.30736 -0.82394,0.32359 -1.63555,1.15369 -2.46684,1.0201 -1.37076,-0.0336 -2.72033,-1.07449 -4.07256,-1.85607 -0.17299,-0.0617 -0.34688,-0.0733 -0.52046,-0.0683 z"
       id="path61283-8" />
    <path
       style="fill:#cae7fb;fill-opacity:1;stroke:none;stroke-width:0.264999;stroke-linecap:round;stroke-linejoin:round;paint-order:stroke markers fill"
       d="m 275.87799,144.12927 c -0.55975,0.0409 -1.11281,0.43719 -1.6606,0.8693 -0.0396,0.82008 -0.008,1.744 -0.0209,2.60309 0.003,1.30209 -0.016,2.62445 6.1e-4,3.91377 0.75411,-0.55225 1.5287,-1.11621 2.29796,-0.67631 0.9815,0.57322 1.96027,1.28593 2.95098,1.59015 0.68287,0.23041 1.37502,0.41419 2.05373,-0.0817 0.80739,-0.41183 1.61264,-1.06855 2.43083,-0.91997 0.89076,0.0323 1.76327,0.87721 2.64388,1.33938 0.76349,0.48597 1.54432,0.77354 2.31279,0.28267 0.85252,-0.437 1.69679,-1.30914 2.56178,-1.14289 1.33203,0.0825 2.65214,0.89344 3.97748,1.37854 0.73797,0.35445 1.48136,0.45677 2.22401,0.35759 0.95914,0.008 1.86679,-1.38766 2.80232,-2.02619 0.0385,-0.82008 0.004,-1.74444 0.0162,-2.60371 -0.0111,-1.2649 0.0225,-2.55429 -0.0253,-3.80554 -0.0786,-0.196 -0.19235,0.0975 -0.28135,0.10303 -0.85645,0.71628 -1.6994,1.86609 -2.58194,1.81595 -1.33996,0.16584 -2.668,-0.65409 -3.99834,-1.16251 -0.98388,-0.41493 -1.9769,-0.78946 -2.96615,-0.48762 -1.00947,0.49488 -2.0129,1.56157 -3.03655,1.21372 -1.19215,-0.37947 -2.36271,-1.56612 -3.55894,-1.83205 -1.17529,-0.19444 -2.32256,1.17315 -3.49114,1.28785 -1.33921,-0.13269 -2.66227,-1.02521 -3.98453,-1.82783 -0.22073,-0.13583 -0.44334,-0.20985 -0.66678,-0.18867 z"
       id="path61285-5" />
    <path
       style="fill:#cae7fb;fill-opacity:1;stroke:none;stroke-width:0.264999;stroke-linecap:round;stroke-linejoin:round;paint-order:stroke markers fill"
       d="m 275.88755,130.74366 c -0.56686,0.0267 -1.12633,0.44483 -1.68173,0.86126 -0.0387,0.81985 -0.004,1.74449 -0.0163,2.60372 0,1.27563 0,2.55127 0,3.82691 0.12639,0.12826 0.28082,-0.16249 0.41859,-0.19862 0.65186,-0.48611 1.32248,-0.76333 1.98177,-0.32264 1.35886,0.81619 2.72192,1.77358 4.10032,1.77077 0.67776,-0.14685 1.34621,-0.68872 2.01999,-0.99379 0.79441,-0.47444 1.60425,-0.34236 2.39454,0.19531 1.22436,0.64599 2.45645,1.89791 3.69823,1.22492 0.93956,-0.49457 1.86983,-1.43751 2.82338,-1.19832 1.69161,0.27066 3.36596,1.4322 5.05651,1.77324 0.78218,0.11885 1.5726,0.005 2.33422,-0.77828 0.47775,-0.44175 0.95199,-0.95576 1.43552,-1.27509 0.0389,-0.81952 0.004,-1.74466 0.0164,-2.60389 -0.0123,-1.25485 0.0242,-2.53589 -0.0234,-3.77685 -0.0654,-0.25186 -0.17656,0.0559 -0.256,0.0461 -0.82762,0.66285 -1.63761,1.77145 -2.4876,1.83757 -1.1594,0.24541 -2.31307,-0.4449 -3.46472,-0.87635 -1.1522,-0.46309 -2.30982,-1.09008 -3.47005,-0.82868 -1.05173,0.41014 -2.088,1.62108 -3.15223,1.27336 -1.20908,-0.34 -2.39499,-1.56025 -3.60692,-1.8357 -1.18536,-0.19317 -2.34197,1.20069 -3.52146,1.29767 -1.30593,-0.17017 -2.59866,-0.99491 -3.88803,-1.79832 -0.2355,-0.14158 -0.4725,-0.24111 -0.71097,-0.2243 z"
       id="path61287-6" />
    <path
       style="fill:none;stroke:#000000;stroke-width:0.519955px;stroke-linecap:butt;stroke-linejoin:miter;stroke-opacity:1"
       d="m 326.49918,144.84153 c -2.63835,-2.2106 -2.09432,0.0144 -6.1699,1.08864 -0.91733,0.24192 -2.49111,-1.50977 -3.63929,-1.33064 -1.18377,0.18465 -2.63915,1.72825 -3.92952,1.95038 -1.07238,0.1846 -2.33993,-1.50223 -3.41681,-1.45524 -1.82952,0.0798 -4.10711,1.76069 -5.74604,1.85569 -1.80473,0.10452 -2.07715,-1.24153 -3.49413,-2.13458"
       id="path10-73-1"
       sodipodi:nodetypes="csssssc" />
    <path
       sodipodi:nodetypes="csssssc"
       id="path10-3-6-5"
       d="m 326.51712,151.82924 c -2.63834,-2.21058 -2.09431,0.0144 -6.1699,1.08864 -0.91734,0.24192 -2.49111,-1.50977 -3.63929,-1.33065 -1.18377,0.18468 -2.63914,1.72827 -3.92951,1.9504 -1.07238,0.18461 -2.33993,-1.50223 -3.41683,-1.45525 -1.82952,0.0798 -4.1071,1.76069 -5.74602,1.8557 -1.80473,0.10452 -2.07715,-1.24154 -3.49414,-2.13458"
       style="fill:none;stroke:#000000;stroke-width:0.519955px;stroke-linecap:butt;stroke-linejoin:miter;stroke-opacity:1" />
    <path
       sodipodi:nodetypes="csssssc"
       id="path10-6-5-9"
       d="m 326.53056,158.71305 c -2.6393,-2.21038 -2.09507,0.0144 -6.17212,1.08853 -0.91768,0.2419 -2.49201,-1.50962 -3.64061,-1.33051 -1.18419,0.18466 -2.64009,1.72808 -3.93093,1.9502 -1.07277,0.1846 -2.34078,-1.50209 -3.41805,-1.45511 -1.83018,0.0798 -4.10858,1.76052 -5.74811,1.85552 -1.80537,0.10451 -2.07789,-1.24142 -3.49538,-2.13438"
       style="fill:none;stroke:#000000;stroke-width:0.520024px;stroke-linecap:butt;stroke-linejoin:miter;stroke-opacity:1" />
    <path
       sodipodi:nodetypes="csssssc"
       id="path10-7-6-8"
       d="m 326.51712,165.54524 c -2.63834,-2.21058 -2.09431,0.0144 -6.1699,1.08864 -0.91734,0.24192 -2.49111,-1.50977 -3.63929,-1.33065 -1.18377,0.18468 -2.63914,1.72827 -3.92951,1.9504 -1.07238,0.18461 -2.33993,-1.50223 -3.41683,-1.45525 -1.82952,0.0798 -4.1071,1.76069 -5.74602,1.8557 -1.80473,0.10452 -2.07715,-1.24154 -3.49414,-2.13458"
       style="fill:none;stroke:#000000;stroke-width:0.519955px;stroke-linecap:butt;stroke-linejoin:miter;stroke-opacity:1" />
    <path
       style="fill:none;stroke:#000000;stroke-width:0.519954px;stroke-linecap:butt;stroke-linejoin:miter;stroke-opacity:1"
       d="m 326.52796,138.44455 c -2.63836,-2.2106 -2.09433,0.0144 -6.16992,1.08864 -0.91733,0.24192 -2.49111,-1.50977 -3.63928,-1.33064 -1.18376,0.18465 -2.63915,1.72825 -3.92952,1.95038 -1.07237,0.1846 -2.33993,-1.50223 -3.41682,-1.45524 -1.82952,0.0798 -4.10709,1.76069 -5.74602,1.85569 -1.80474,0.10452 -2.07715,-1.24153 -3.49414,-2.13458"
       id="path10-1-8-8"
       sodipodi:nodetypes="csssssc" />
    <path
       style="fill:none;stroke:#000000;stroke-width:0.519955px;stroke-linecap:butt;stroke-linejoin:miter;stroke-opacity:1"
       d="m 326.51,131.45684 c -2.63835,-2.2106 -2.09432,0.0144 -6.1699,1.08864 -0.91734,0.24192 -2.4911,-1.50977 -3.63928,-1.33064 -1.18377,0.18465 -2.63914,1.72825 -3.92952,1.95038 -1.07238,0.1846 -2.33994,-1.50223 -3.41681,-1.45524 -1.82954,0.0798 -4.1071,1.76069 -5.74604,1.85569 -1.80473,0.10452 -2.07714,-1.24153 -3.49414,-2.13458"
       id="path10-71-8-1"
       sodipodi:nodetypes="csssssc" />
    <path
       sodipodi:nodetypes="csssssc"
       id="path10-3-1-5-0"
       d="m 326.52794,138.44455 c -2.63834,-2.21058 -2.09431,0.0144 -6.1699,1.08864 -0.91733,0.24192 -2.49111,-1.50977 -3.63928,-1.33065 -1.18376,0.18468 -2.63915,1.72827 -3.92952,1.9504 -1.07237,0.18461 -2.33993,-1.50223 -3.41682,-1.45525 -1.82952,0.0798 -4.10709,1.76069 -5.74602,1.8557 -1.80474,0.10452 -2.07715,-1.24154 -3.49414,-2.13458"
       style="fill:none;stroke:#000000;stroke-width:0.519955px;stroke-linecap:butt;stroke-linejoin:miter;stroke-opacity:1" />
    <path
       style="fill:none;stroke:#000000;stroke-width:0.52;stroke-linecap:butt;stroke-linejoin:bevel;stroke-dasharray:none;stroke-opacity:1"
       d="m 326.50092,125.31752 c -2.64783,-2.2106 -2.06393,-0.24326 -6.15414,0.83098 -0.92063,0.24192 -2.50006,-1.50977 -3.65236,-1.33064 -1.188,0.18465 -2.64861,1.72825 -3.94362,1.95038 -1.07623,0.1846 -2.34834,-1.50223 -3.42909,-1.45524 -1.83608,0.0798 -4.12185,1.76077 -5.76666,1.85569 -1.29639,0.0748 -1.77579,-0.48615 -2.46503,-1.13857 -0.27372,-0.25909 -0.50553,-0.24827 -0.90974,-0.50211"
       id="path10-1-5-0-3"
       sodipodi:nodetypes="cssssssc" />
    <path
       style="fill:#488dcb;fill-opacity:1;stroke:none;stroke-width:0.264999;stroke-linecap:round;stroke-linejoin:round;paint-order:stroke markers fill"
       d="m 324.81978,137.74615 c 0.54449,0.0457 1.08434,0.40259 1.61584,0.85761 0.0375,0.85336 0.004,1.80615 0.0157,2.69689 -0.005,1.08045 0.011,2.18202 -0.008,3.24939 -0.64593,-0.45699 -1.29939,-0.99188 -1.96116,-0.82275 -0.704,0.19329 -1.39447,0.83864 -2.09476,1.17329 -0.77087,0.385 -1.54535,0.75571 -2.32269,0.81095 -1.01762,-0.14908 -2.01349,-1.21866 -3.03218,-1.29597 -1.08566,-0.1085 -2.14667,0.95733 -3.21844,1.4947 -0.72895,0.45415 -1.47401,0.56466 -2.20417,0.085 -0.74907,-0.38727 -1.48977,-1.16711 -2.24986,-1.02576 -1.31644,-0.10275 -2.61914,0.75538 -3.92694,1.23637 -0.98673,0.4471 -1.98473,0.64581 -2.97582,0.33233 -0.77072,-0.34165 -1.50731,-1.37716 -2.26957,-1.90505 -0.0374,-0.8536 -0.004,-1.80612 -0.0157,-2.69689 0.005,-1.07615 -0.0109,-2.17306 0.008,-3.23624 0.91976,0.54238 1.80655,1.9896 2.74648,2.00426 1.05129,0.13267 2.0995,-0.21186 3.14246,-0.70386 1.287,-0.52458 2.57984,-1.25325 3.87625,-0.95034 1.09079,0.42745 2.1725,1.72145 3.27563,1.19671 1.09036,-0.39876 2.16259,-1.39802 3.25455,-1.75034 0.71646,-0.20497 1.42936,0.198 2.13625,0.61588 0.72076,0.39035 1.44761,0.90242 2.17559,0.51614 1.09834,-0.30227 2.18483,-0.98756 3.27152,-1.67444 0.25201,-0.14823 0.50615,-0.22418 0.76096,-0.2079 z"
       id="path61056-6-4" />
    <path
       style="fill:#488dcb;fill-opacity:1;stroke:none;stroke-width:0.264999;stroke-linecap:round;stroke-linejoin:round;paint-order:stroke markers fill"
       d="m 324.77246,151.13614 c 0.56146,-0.008 1.11423,0.41786 1.66275,0.84976 0.0385,0.82031 0.004,1.7444 0.0162,2.60371 -0.007,1.25226 0.0139,2.52449 -0.0239,3.76552 -0.18919,-0.001 -0.38741,-0.30182 -0.57979,-0.38422 -0.6573,-0.44244 -1.33476,-0.59342 -1.99245,-0.0723 -1.24185,0.78592 -2.49064,1.55819 -3.74987,1.68631 -1.2031,-0.18014 -2.3831,-1.60081 -3.59269,-1.2682 -1.24494,0.34907 -2.46606,1.64459 -3.716,1.84853 -1.22111,0.17563 -2.4022,-1.58726 -3.62301,-1.3938 -1.7626,0.19835 -3.50577,1.4567 -5.26642,1.79916 -0.79596,0.0702 -1.60218,-0.0147 -2.37452,-0.86638 -0.44268,-0.42711 -0.88279,-0.89659 -1.33267,-1.18648 -0.0402,-0.81881 -0.008,-1.74435 -0.0213,-2.60327 0.003,-1.27952 -0.016,-2.57934 6e-4,-3.84617 0.95109,0.61139 1.87331,2.07866 2.84931,2.02782 0.96789,0.0828 1.93276,-0.19722 2.893,-0.65503 1.32417,-0.53192 2.65322,-1.31478 3.98718,-1.01846 1.01637,0.36623 2.01494,1.58042 3.04235,1.26285 1.27426,-0.27039 2.51959,-1.65903 3.79644,-1.86915 1.15447,-0.0972 2.28102,1.24095 3.4312,1.33394 1.27909,-0.21261 2.54825,-0.9634 3.81139,-1.78202 0.25894,-0.15163 0.52019,-0.25793 0.78223,-0.23211 z"
       id="path61058-3-4" />
    <path
       style="fill:#cae7fb;fill-opacity:1;stroke:none;stroke-width:0.264999;stroke-linecap:round;stroke-linejoin:round;paint-order:stroke markers fill"
       d="m 324.80985,158.02499 c 0.54116,7.9e-4 1.0779,0.38241 1.60496,0.83002 0.0599,0.61073 0.0195,1.33871 0.0356,1.98818 -0.004,1.45866 0.0114,2.93769 -0.007,4.38325 -0.76015,-0.50371 -1.53885,-1.17702 -2.31138,-0.6608 -1.14002,0.68577 -2.28072,1.45521 -3.43362,1.74301 -0.90514,0.39373 -1.80231,-0.44881 -2.69623,-0.8718 -0.76383,-0.48588 -1.54441,-0.42891 -2.30671,0.0576 -1.04304,0.53295 -2.07869,1.49892 -3.13458,1.52365 -1.12249,-0.0784 -2.21173,-1.5217 -3.33698,-1.4175 -1.34662,0.10669 -2.68195,0.91077 -4.02199,1.40736 -1.18564,0.48188 -2.40289,0.8057 -3.57028,-0.38495 -0.4752,-0.46899 -0.95162,-0.91353 -1.43197,-1.2919 -0.0391,-0.85243 -0.008,-1.80587 -0.021,-2.69626 0.007,-1.19746 -0.024,-2.41661 0.0182,-3.60246 0.11117,-0.12646 0.24457,0.16413 0.36176,0.20061 0.85092,0.73755 1.69206,1.81783 2.57093,1.78666 1.62694,0.10049 3.23584,-1.0107 4.85358,-1.53477 0.78787,-0.25601 1.58547,-0.50808 2.36998,0.0309 0.81774,0.42652 1.62761,1.25603 2.45759,1.0841 0.89352,-0.0843 1.7708,-0.88999 2.65505,-1.3633 0.75416,-0.49091 1.52427,-0.72828 2.28451,-0.30736 0.82394,0.32359 1.63555,1.15369 2.46684,1.0201 1.37076,-0.0336 2.72033,-1.07449 4.07256,-1.85607 0.17299,-0.0617 0.34688,-0.0733 0.52046,-0.0683 z"
       id="path61283-8-4" />
    <path
       style="fill:#cae7fb;fill-opacity:1;stroke:none;stroke-width:0.264999;stroke-linecap:round;stroke-linejoin:round;paint-order:stroke markers fill"
       d="m 324.76296,144.12927 c 0.55975,0.0409 1.11281,0.43719 1.66059,0.8693 0.0396,0.82008 0.008,1.744 0.0209,2.60309 -0.003,1.30209 0.016,2.62445 -6.1e-4,3.91377 -0.7541,-0.55225 -1.5287,-1.11621 -2.29796,-0.67631 -0.9815,0.57322 -1.96027,1.28593 -2.95098,1.59015 -0.68287,0.23041 -1.37502,0.41419 -2.05373,-0.0817 -0.80739,-0.41183 -1.61265,-1.06855 -2.43083,-0.91997 -0.89076,0.0323 -1.76327,0.87721 -2.64388,1.33938 -0.76349,0.48597 -1.54432,0.77354 -2.31279,0.28267 -0.85252,-0.437 -1.69679,-1.30914 -2.56178,-1.14289 -1.33203,0.0825 -2.65214,0.89344 -3.97748,1.37854 -0.73797,0.35445 -1.48136,0.45677 -2.22402,0.35759 -0.95913,0.008 -1.86678,-1.38766 -2.80231,-2.02619 -0.0385,-0.82008 -0.004,-1.74444 -0.0162,-2.60371 0.0111,-1.2649 -0.0225,-2.55429 0.0253,-3.80554 0.0786,-0.196 0.19236,0.0975 0.28135,0.10303 0.85645,0.71628 1.6994,1.86609 2.58194,1.81595 1.33997,0.16584 2.668,-0.65409 3.99835,-1.16251 0.98388,-0.41493 1.97689,-0.78946 2.96614,-0.48762 1.00948,0.49488 2.01291,1.56157 3.03656,1.21372 1.19214,-0.37947 2.3627,-1.56612 3.55893,-1.83205 1.17529,-0.19444 2.32256,1.17315 3.49115,1.28785 1.3392,-0.13269 2.66227,-1.02521 3.98453,-1.82783 0.22071,-0.13583 0.44333,-0.20985 0.66678,-0.18867 z"
       id="path61285-5-4" />
    <path
       style="fill:#cae7fb;fill-opacity:1;stroke:none;stroke-width:0.264999;stroke-linecap:round;stroke-linejoin:round;paint-order:stroke markers fill"
       d="m 324.7534,130.74366 c 0.56686,0.0267 1.12633,0.44483 1.68172,0.86126 0.0387,0.81985 0.004,1.74449 0.0163,2.60372 0,1.27563 0,2.55127 0,3.82691 -0.12639,0.12826 -0.28082,-0.16249 -0.41859,-0.19862 -0.65186,-0.48611 -1.32248,-0.76333 -1.98177,-0.32264 -1.35886,0.81619 -2.72192,1.77358 -4.10032,1.77077 -0.67777,-0.14685 -1.34621,-0.68872 -2.01999,-0.99379 -0.79441,-0.47444 -1.60425,-0.34236 -2.39454,0.19531 -1.22437,0.64599 -2.45645,1.89791 -3.69824,1.22492 -0.93955,-0.49457 -1.86983,-1.43751 -2.82338,-1.19832 -1.69161,0.27066 -3.36595,1.4322 -5.05651,1.77324 -0.78218,0.11885 -1.57259,0.005 -2.33422,-0.77828 -0.47774,-0.44175 -0.95199,-0.95576 -1.43553,-1.27509 -0.0389,-0.81952 -0.004,-1.74466 -0.0163,-2.60389 0.0123,-1.25485 -0.0242,-2.53589 0.0234,-3.77685 0.0654,-0.25186 0.17655,0.0559 0.256,0.0461 0.82762,0.66285 1.63761,1.77145 2.4876,1.83757 1.1594,0.24541 2.31307,-0.4449 3.46471,-0.87635 1.1522,-0.46309 2.30983,-1.09008 3.47006,-0.82868 1.05173,0.41014 2.088,1.62108 3.15222,1.27336 1.20909,-0.34 2.395,-1.56025 3.60693,-1.8357 1.18535,-0.19317 2.34196,1.20069 3.52145,1.29767 1.30594,-0.17017 2.59866,-0.99491 3.88803,-1.79832 0.2355,-0.14158 0.4725,-0.24111 0.71097,-0.2243 z"
       id="path61287-6-7" />
    <path
       style="fill:none;stroke:#000000;stroke-width:0.53478;stroke-linecap:round;stroke-linejoin:bevel;stroke-miterlimit:4;stroke-dasharray:none;stroke-opacity:1"
       d="m 151.00981,125.38016 -0.0576,40.2262"
       id="path10102-3"
       sodipodi:nodetypes="cc" />
    <path
       style="fill:none;stroke:#000000;stroke-width:0.52;stroke-linecap:butt;stroke-linejoin:bevel;stroke-dasharray:none;stroke-opacity:1"
       d="m 274.14003,125.31752 c 2.64783,-2.2106 2.06393,-0.24326 6.15414,0.83098 0.92063,0.24192 2.50006,-1.50977 3.65236,-1.33064 1.188,0.18465 2.64861,1.72825 3.94362,1.95038 1.07622,0.1846 2.34833,-1.50223 3.42908,-1.45524 1.83608,0.0798 4.12185,1.76077 5.76666,1.85569 1.50941,0.0871 2.92149,-1.31123 3.37468,-1.64068"
       id="path10-1-5-0"
       sodipodi:nodetypes="csssssc"
       transform="translate(1.2708334e-6)" />
    <path
       style="fill:none;stroke:#000000;stroke-width:0.519955px;stroke-linecap:butt;stroke-linejoin:miter;stroke-opacity:1"
       d="m 378.57434,144.84153 c -2.63834,-2.2106 -2.09431,0.0144 -6.1699,1.08864 -0.91733,0.24192 -2.49111,-1.50977 -3.63929,-1.33064 -1.18377,0.18465 -2.63914,1.72825 -3.92951,1.95038 -1.07239,0.1846 -2.33994,-1.50223 -3.41682,-1.45524 -1.82952,0.0798 -4.10711,1.76069 -5.74603,1.85569 -1.80473,0.10452 -2.07715,-1.24153 -3.49414,-2.13458"
       id="path10-73-4"
       sodipodi:nodetypes="csssssc" />
    <path
       sodipodi:nodetypes="csssssc"
       id="path10-3-6-7"
       d="m 378.59228,151.82924 c -2.63834,-2.21058 -2.09431,0.0144 -6.16989,1.08864 -0.91734,0.24192 -2.49112,-1.50977 -3.63929,-1.33065 -1.18377,0.18468 -2.63915,1.72827 -3.92952,1.9504 -1.07238,0.18461 -2.33993,-1.50223 -3.41681,-1.45525 -1.82953,0.0798 -4.10712,1.76069 -5.74603,1.8557 -1.80474,0.10452 -2.07716,-1.24154 -3.49414,-2.13458"
       style="fill:none;stroke:#000000;stroke-width:0.519955px;stroke-linecap:butt;stroke-linejoin:miter;stroke-opacity:1" />
    <path
       sodipodi:nodetypes="csssssc"
       id="path10-6-5-7"
       d="m 378.60573,158.71305 c -2.6393,-2.21038 -2.09508,0.0144 -6.17212,1.08853 -0.91768,0.2419 -2.49201,-1.50962 -3.64061,-1.33051 -1.18419,0.18466 -2.64009,1.72808 -3.93093,1.9502 -1.07277,0.1846 -2.34077,-1.50209 -3.41805,-1.45511 -1.83018,0.0798 -4.10858,1.76052 -5.7481,1.85552 -1.80538,0.10451 -2.0779,-1.24142 -3.49539,-2.13438"
       style="fill:none;stroke:#000000;stroke-width:0.520024px;stroke-linecap:butt;stroke-linejoin:miter;stroke-opacity:1" />
    <path
       sodipodi:nodetypes="csssssc"
       id="path10-7-6-5"
       d="m 378.59228,165.54524 c -2.63834,-2.21058 -2.09431,0.0144 -6.16989,1.08864 -0.91734,0.24192 -2.49112,-1.50977 -3.63929,-1.33065 -1.18377,0.18468 -2.63915,1.72827 -3.92952,1.9504 -1.07238,0.18461 -2.33993,-1.50223 -3.41681,-1.45525 -1.82953,0.0798 -4.10712,1.76069 -5.74603,1.8557 -1.80474,0.10452 -2.07716,-1.24154 -3.49414,-2.13458"
       style="fill:none;stroke:#000000;stroke-width:0.519955px;stroke-linecap:butt;stroke-linejoin:miter;stroke-opacity:1" />
    <path
       style="fill:none;stroke:#000000;stroke-width:0.519954px;stroke-linecap:butt;stroke-linejoin:miter;stroke-opacity:1"
       d="m 378.60312,138.44455 c -2.63835,-2.2106 -2.09433,0.0144 -6.16991,1.08864 -0.91733,0.24192 -2.49111,-1.50977 -3.63929,-1.33064 -1.18376,0.18465 -2.63913,1.72825 -3.92951,1.95038 -1.07238,0.1846 -2.33993,-1.50223 -3.41682,-1.45524 -1.82952,0.0798 -4.1071,1.76069 -5.74603,1.85569 -1.80473,0.10452 -2.07715,-1.24153 -3.49413,-2.13458"
       id="path10-1-8-4"
       sodipodi:nodetypes="csssssc" />
    <path
       style="fill:none;stroke:#000000;stroke-width:0.519955px;stroke-linecap:butt;stroke-linejoin:miter;stroke-opacity:1"
       d="m 378.58517,131.45684 c -2.63835,-2.2106 -2.09433,0.0144 -6.1699,1.08864 -0.91734,0.24192 -2.49111,-1.50977 -3.63929,-1.33064 -1.18377,0.18465 -2.63914,1.72825 -3.92952,1.95038 -1.07237,0.1846 -2.33993,-1.50223 -3.41681,-1.45524 -1.82953,0.0798 -4.1071,1.76069 -5.74604,1.85569 -1.80473,0.10452 -2.07714,-1.24153 -3.49413,-2.13458"
       id="path10-71-8-8"
       sodipodi:nodetypes="csssssc" />
    <path
       sodipodi:nodetypes="csssssc"
       id="path10-3-1-5-1"
       d="m 378.60311,138.44455 c -2.63834,-2.21058 -2.09432,0.0144 -6.1699,1.08864 -0.91733,0.24192 -2.49111,-1.50977 -3.63929,-1.33065 -1.18376,0.18468 -2.63913,1.72827 -3.92951,1.9504 -1.07238,0.18461 -2.33993,-1.50223 -3.41682,-1.45525 -1.82952,0.0798 -4.1071,1.76069 -5.74603,1.8557 -1.80473,0.10452 -2.07715,-1.24154 -3.49413,-2.13458"
       style="fill:none;stroke:#000000;stroke-width:0.519955px;stroke-linecap:butt;stroke-linejoin:miter;stroke-opacity:1" />
    <path
       style="fill:#488dcb;fill-opacity:1;stroke:none;stroke-width:0.264999;stroke-linecap:round;stroke-linejoin:round;paint-order:stroke markers fill"
       d="m 376.89494,137.74615 c 0.54449,0.0457 1.08434,0.40259 1.61584,0.85761 0.0375,0.85336 0.004,1.80615 0.0157,2.69689 -0.005,1.08045 0.0111,2.18202 -0.008,3.24939 -0.64593,-0.45699 -1.29939,-0.99188 -1.96116,-0.82275 -0.70399,0.19329 -1.39446,0.83864 -2.09476,1.17329 -0.77087,0.385 -1.54534,0.75571 -2.32269,0.81095 -1.01762,-0.14908 -2.01349,-1.21866 -3.03218,-1.29597 -1.08566,-0.1085 -2.14666,0.95733 -3.21844,1.4947 -0.72895,0.45415 -1.47401,0.56466 -2.20417,0.085 -0.74906,-0.38727 -1.48977,-1.16711 -2.24985,-1.02576 -1.31645,-0.10275 -2.61915,0.75538 -3.92695,1.23637 -0.98672,0.4471 -1.98472,0.64581 -2.97581,0.33233 -0.77073,-0.34165 -1.50732,-1.37716 -2.26957,-1.90505 -0.0374,-0.8536 -0.004,-1.80612 -0.0157,-2.69689 0.005,-1.07615 -0.0109,-2.17306 0.008,-3.23624 0.91976,0.54238 1.80655,1.9896 2.74649,2.00426 1.05128,0.13267 2.09948,-0.21186 3.14245,-0.70386 1.287,-0.52458 2.57984,-1.25325 3.87625,-0.95034 1.09079,0.42745 2.1725,1.72145 3.27563,1.19671 1.09036,-0.39876 2.16259,-1.39802 3.25455,-1.75034 0.71646,-0.20497 1.42936,0.198 2.13625,0.61588 0.72076,0.39035 1.44761,0.90242 2.17559,0.51614 1.09835,-0.30227 2.18483,-0.98756 3.27152,-1.67444 0.25201,-0.14823 0.50615,-0.22418 0.76096,-0.2079 z"
       id="path61056-6-8" />
    <path
       style="fill:#488dcb;fill-opacity:1;stroke:none;stroke-width:0.264999;stroke-linecap:round;stroke-linejoin:round;paint-order:stroke markers fill"
       d="m 376.84762,151.13614 c 0.56148,-0.008 1.11423,0.41786 1.66276,0.84976 0.0385,0.82031 0.004,1.7444 0.0162,2.60371 -0.007,1.25226 0.0139,2.52449 -0.024,3.76552 -0.18919,-0.001 -0.38741,-0.30182 -0.57979,-0.38422 -0.6573,-0.44244 -1.33476,-0.59342 -1.99245,-0.0723 -1.24185,0.78592 -2.49064,1.55819 -3.74987,1.68631 -1.2031,-0.18014 -2.3831,-1.60081 -3.59269,-1.2682 -1.24494,0.34907 -2.46605,1.64459 -3.716,1.84853 -1.22111,0.17563 -2.4022,-1.58726 -3.62301,-1.3938 -1.7626,0.19835 -3.50577,1.4567 -5.26642,1.79916 -0.79596,0.0702 -1.60217,-0.0147 -2.37452,-0.86638 -0.44268,-0.42711 -0.88279,-0.89659 -1.33266,-1.18648 -0.0402,-0.81881 -0.008,-1.74435 -0.0213,-2.60327 0.003,-1.27952 -0.016,-2.57934 6e-4,-3.84617 0.95108,0.61139 1.8733,2.07866 2.8493,2.02782 0.9679,0.0828 1.93276,-0.19722 2.893,-0.65503 1.32417,-0.53192 2.65322,-1.31478 3.98719,-1.01846 1.01636,0.36623 2.01493,1.58042 3.04235,1.26285 1.27426,-0.27039 2.51959,-1.65903 3.79643,-1.86915 1.15447,-0.0972 2.28102,1.24095 3.43121,1.33394 1.27908,-0.21261 2.54824,-0.9634 3.81138,-1.78202 0.25894,-0.15163 0.52019,-0.25793 0.78223,-0.23211 z"
       id="path61058-3-9" />
    <path
       style="fill:#cae7fb;fill-opacity:1;stroke:none;stroke-width:0.264999;stroke-linecap:round;stroke-linejoin:round;paint-order:stroke markers fill"
       d="m 376.88502,158.02499 c 0.54116,7.9e-4 1.0779,0.38241 1.60496,0.83002 0.0599,0.61073 0.0195,1.33871 0.0356,1.98818 -0.004,1.45866 0.0114,2.93769 -0.007,4.38325 -0.76015,-0.50371 -1.53885,-1.17702 -2.31138,-0.6608 -1.14002,0.68577 -2.28072,1.45521 -3.43362,1.74301 -0.90514,0.39373 -1.80231,-0.44881 -2.69623,-0.8718 -0.76383,-0.48588 -1.5444,-0.42891 -2.30671,0.0576 -1.04305,0.53295 -2.07869,1.49892 -3.13458,1.52365 -1.12249,-0.0784 -2.21173,-1.5217 -3.33698,-1.4175 -1.34661,0.10669 -2.68195,0.91077 -4.02199,1.40736 -1.18564,0.48188 -2.40289,0.8057 -3.57028,-0.38495 -0.47521,-0.46899 -0.95162,-0.91353 -1.43197,-1.2919 -0.0391,-0.85243 -0.008,-1.80587 -0.021,-2.69626 0.007,-1.19746 -0.024,-2.41661 0.0182,-3.60246 0.11118,-0.12646 0.24457,0.16413 0.36176,0.20061 0.85092,0.73755 1.69207,1.81783 2.57093,1.78666 1.62695,0.10049 3.23584,-1.0107 4.85358,-1.53477 0.78787,-0.25601 1.58547,-0.50808 2.36998,0.0309 0.81774,0.42652 1.62761,1.25603 2.45759,1.0841 0.89352,-0.0843 1.7708,-0.88999 2.65505,-1.3633 0.75416,-0.49091 1.52427,-0.72828 2.28451,-0.30736 0.82394,0.32359 1.63555,1.15369 2.46684,1.0201 1.37076,-0.0336 2.72033,-1.07449 4.07256,-1.85607 0.17299,-0.0617 0.34688,-0.0733 0.52046,-0.0683 z"
       id="path61283-8-3" />
    <path
       style="fill:#cae7fb;fill-opacity:1;stroke:none;stroke-width:0.264999;stroke-linecap:round;stroke-linejoin:round;paint-order:stroke markers fill"
       d="m 376.83812,144.12927 c 0.55975,0.0409 1.11281,0.43719 1.6606,0.8693 0.0396,0.82008 0.008,1.744 0.0209,2.60309 -0.003,1.30209 0.016,2.62445 -6.1e-4,3.91377 -0.75411,-0.55225 -1.5287,-1.11621 -2.29796,-0.67631 -0.9815,0.57322 -1.96027,1.28593 -2.95098,1.59015 -0.68287,0.23041 -1.37502,0.41419 -2.05373,-0.0817 -0.80739,-0.41183 -1.61264,-1.06855 -2.43083,-0.91997 -0.89076,0.0323 -1.76327,0.87721 -2.64388,1.33938 -0.76349,0.48597 -1.54432,0.77354 -2.31279,0.28267 -0.85252,-0.437 -1.69679,-1.30914 -2.56178,-1.14289 -1.33203,0.0825 -2.65214,0.89344 -3.97748,1.37854 -0.73797,0.35445 -1.48136,0.45677 -2.22401,0.35759 -0.95914,0.008 -1.86679,-1.38766 -2.80232,-2.02619 -0.0385,-0.82008 -0.004,-1.74444 -0.0162,-2.60371 0.0111,-1.2649 -0.0225,-2.55429 0.0253,-3.80554 0.0786,-0.196 0.19235,0.0975 0.28135,0.10303 0.85645,0.71628 1.6994,1.86609 2.58194,1.81595 1.33996,0.16584 2.668,-0.65409 3.99834,-1.16251 0.98388,-0.41493 1.9769,-0.78946 2.96615,-0.48762 1.00947,0.49488 2.0129,1.56157 3.03655,1.21372 1.19215,-0.37947 2.36271,-1.56612 3.55894,-1.83205 1.17529,-0.19444 2.32256,1.17315 3.49114,1.28785 1.33921,-0.13269 2.66227,-1.02521 3.98453,-1.82783 0.22073,-0.13583 0.44334,-0.20985 0.66678,-0.18867 z"
       id="path61285-5-6" />
    <path
       style="fill:#cae7fb;fill-opacity:1;stroke:none;stroke-width:0.264999;stroke-linecap:round;stroke-linejoin:round;paint-order:stroke markers fill"
       d="m 376.82856,130.74366 c 0.56686,0.0267 1.12633,0.44483 1.68173,0.86126 0.0387,0.81985 0.004,1.74449 0.0163,2.60372 0,1.27563 0,2.55127 0,3.82691 -0.12639,0.12826 -0.28082,-0.16249 -0.41859,-0.19862 -0.65186,-0.48611 -1.32248,-0.76333 -1.98177,-0.32264 -1.35886,0.81619 -2.72192,1.77358 -4.10032,1.77077 -0.67776,-0.14685 -1.34621,-0.68872 -2.01999,-0.99379 -0.79441,-0.47444 -1.60425,-0.34236 -2.39454,0.19531 -1.22436,0.64599 -2.45645,1.89791 -3.69823,1.22492 -0.93956,-0.49457 -1.86983,-1.43751 -2.82338,-1.19832 -1.69161,0.27066 -3.36596,1.4322 -5.05651,1.77324 -0.78218,0.11885 -1.5726,0.005 -2.33422,-0.77828 -0.47775,-0.44175 -0.95199,-0.95576 -1.43552,-1.27509 -0.0389,-0.81952 -0.004,-1.74466 -0.0164,-2.60389 0.0123,-1.25485 -0.0242,-2.53589 0.0234,-3.77685 0.0654,-0.25186 0.17656,0.0559 0.256,0.0461 0.82762,0.66285 1.63761,1.77145 2.4876,1.83757 1.1594,0.24541 2.31307,-0.4449 3.46472,-0.87635 1.1522,-0.46309 2.30982,-1.09008 3.47005,-0.82868 1.05173,0.41014 2.088,1.62108 3.15223,1.27336 1.20908,-0.34 2.39499,-1.56025 3.60692,-1.8357 1.18536,-0.19317 2.34197,1.20069 3.52146,1.29767 1.30593,-0.17017 2.59866,-0.99491 3.88803,-1.79832 0.2355,-0.14158 0.4725,-0.24111 0.71097,-0.2243 z"
       id="path61287-6-8" />
    <path
       style="fill:none;stroke:#000000;stroke-width:0.519955px;stroke-linecap:butt;stroke-linejoin:miter;stroke-opacity:1"
       d="m 326.21693,144.84153 c 2.63835,-2.2106 2.09432,0.0144 6.1699,1.08864 0.91733,0.24192 2.49111,-1.50977 3.63929,-1.33064 1.18377,0.18465 2.63915,1.72825 3.92952,1.95038 1.07238,0.1846 2.33993,-1.50223 3.41681,-1.45524 1.82952,0.0798 4.10711,1.76069 5.74604,1.85569 1.80473,0.10452 2.07715,-1.24153 3.49413,-2.13458"
       id="path10-73-1-0"
       sodipodi:nodetypes="csssssc" />
    <path
       sodipodi:nodetypes="csssssc"
       id="path10-3-6-5-2"
       d="m 326.19899,151.82924 c 2.63834,-2.21058 2.09431,0.0144 6.1699,1.08864 0.91734,0.24192 2.49111,-1.50977 3.63929,-1.33065 1.18377,0.18468 2.63914,1.72827 3.92951,1.9504 1.07238,0.18461 2.33993,-1.50223 3.41683,-1.45525 1.82952,0.0798 4.1071,1.76069 5.74602,1.8557 1.80473,0.10452 2.07715,-1.24154 3.49414,-2.13458"
       style="fill:none;stroke:#000000;stroke-width:0.519955px;stroke-linecap:butt;stroke-linejoin:miter;stroke-opacity:1" />
    <path
       sodipodi:nodetypes="csssssc"
       id="path10-6-5-9-1"
       d="m 326.18555,158.71305 c 2.6393,-2.21038 2.09507,0.0144 6.17212,1.08853 0.91768,0.2419 2.49201,-1.50962 3.64061,-1.33051 1.18419,0.18466 2.64009,1.72808 3.93093,1.9502 1.07277,0.1846 2.34078,-1.50209 3.41805,-1.45511 1.83018,0.0798 4.10858,1.76052 5.74811,1.85552 1.80537,0.10451 2.07789,-1.24142 3.49538,-2.13438"
       style="fill:none;stroke:#000000;stroke-width:0.520024px;stroke-linecap:butt;stroke-linejoin:miter;stroke-opacity:1" />
    <path
       sodipodi:nodetypes="csssssc"
       id="path10-7-6-8-0"
       d="m 326.19899,165.54524 c 2.63834,-2.21058 2.09431,0.0144 6.1699,1.08864 0.91734,0.24192 2.49111,-1.50977 3.63929,-1.33065 1.18377,0.18468 2.63914,1.72827 3.92951,1.9504 1.07238,0.18461 2.33993,-1.50223 3.41683,-1.45525 1.82952,0.0798 4.1071,1.76069 5.74602,1.8557 1.80473,0.10452 2.07715,-1.24154 3.49414,-2.13458"
       style="fill:none;stroke:#000000;stroke-width:0.519955px;stroke-linecap:butt;stroke-linejoin:miter;stroke-opacity:1" />
    <path
       style="fill:none;stroke:#000000;stroke-width:0.519954px;stroke-linecap:butt;stroke-linejoin:miter;stroke-opacity:1"
       d="m 326.18815,138.44455 c 2.63836,-2.2106 2.09433,0.0144 6.16992,1.08864 0.91733,0.24192 2.49111,-1.50977 3.63928,-1.33064 1.18376,0.18465 2.63915,1.72825 3.92952,1.95038 1.07237,0.1846 2.33993,-1.50223 3.41682,-1.45524 1.82952,0.0798 4.10709,1.76069 5.74602,1.85569 1.80474,0.10452 2.07715,-1.24153 3.49414,-2.13458"
       id="path10-1-8-8-5"
       sodipodi:nodetypes="csssssc" />
    <path
       style="fill:none;stroke:#000000;stroke-width:0.519955px;stroke-linecap:butt;stroke-linejoin:miter;stroke-opacity:1"
       d="m 326.20611,131.45684 c 2.63835,-2.2106 2.09432,0.0144 6.1699,1.08864 0.91734,0.24192 2.4911,-1.50977 3.63928,-1.33064 1.18377,0.18465 2.63914,1.72825 3.92952,1.95038 1.07238,0.1846 2.33994,-1.50223 3.41681,-1.45524 1.82954,0.0798 4.1071,1.76069 5.74604,1.85569 1.80473,0.10452 2.07714,-1.24153 3.49414,-2.13458"
       id="path10-71-8-1-1"
       sodipodi:nodetypes="csssssc" />
    <path
       sodipodi:nodetypes="csssssc"
       id="path10-3-1-5-0-1"
       d="m 326.18817,138.44455 c 2.63834,-2.21058 2.09431,0.0144 6.1699,1.08864 0.91733,0.24192 2.49111,-1.50977 3.63928,-1.33065 1.18376,0.18468 2.63915,1.72827 3.92952,1.9504 1.07237,0.18461 2.33993,-1.50223 3.41682,-1.45525 1.82952,0.0798 4.10709,1.76069 5.74602,1.8557 1.80474,0.10452 2.07715,-1.24154 3.49414,-2.13458"
       style="fill:none;stroke:#000000;stroke-width:0.519955px;stroke-linecap:butt;stroke-linejoin:miter;stroke-opacity:1" />
    <path
       style="fill:none;stroke:#000000;stroke-width:0.52;stroke-linecap:butt;stroke-linejoin:bevel;stroke-dasharray:none;stroke-opacity:1"
       d="m 326.21519,125.31752 c 2.64783,-2.2106 2.06393,-0.24326 6.15414,0.83098 0.92063,0.24192 2.50006,-1.50977 3.65236,-1.33064 1.188,0.18465 2.64861,1.72825 3.94362,1.95038 1.07623,0.1846 2.34834,-1.50223 3.42909,-1.45524 1.83608,0.0798 4.12185,1.76077 5.76666,1.85569 1.29639,0.0748 1.77579,-0.48615 2.46503,-1.13857 0.27372,-0.25909 0.50553,-0.24827 0.90974,-0.50211"
       id="path10-1-5-0-3-0"
       sodipodi:nodetypes="cssssssc" />
    <path
       style="fill:#488dcb;fill-opacity:1;stroke:none;stroke-width:0.264999;stroke-linecap:round;stroke-linejoin:round;paint-order:stroke markers fill"
       d="m 327.89633,137.74615 c -0.54449,0.0457 -1.08434,0.40259 -1.61584,0.85761 -0.0375,0.85336 -0.004,1.80615 -0.0157,2.69689 0.005,1.08045 -0.011,2.18202 0.008,3.24939 0.64593,-0.45699 1.29939,-0.99188 1.96116,-0.82275 0.704,0.19329 1.39447,0.83864 2.09476,1.17329 0.77087,0.385 1.54535,0.75571 2.32269,0.81095 1.01762,-0.14908 2.01349,-1.21866 3.03218,-1.29597 1.08566,-0.1085 2.14667,0.95733 3.21844,1.4947 0.72895,0.45415 1.47401,0.56466 2.20417,0.085 0.74907,-0.38727 1.48977,-1.16711 2.24986,-1.02576 1.31644,-0.10275 2.61914,0.75538 3.92694,1.23637 0.98673,0.4471 1.98473,0.64581 2.97582,0.33233 0.77072,-0.34165 1.50731,-1.37716 2.26957,-1.90505 0.0374,-0.8536 0.004,-1.80612 0.0157,-2.69689 -0.005,-1.07615 0.0109,-2.17306 -0.008,-3.23624 -0.91976,0.54238 -1.80655,1.9896 -2.74648,2.00426 -1.05129,0.13267 -2.0995,-0.21186 -3.14246,-0.70386 -1.287,-0.52458 -2.57984,-1.25325 -3.87625,-0.95034 -1.09079,0.42745 -2.1725,1.72145 -3.27563,1.19671 -1.09036,-0.39876 -2.16259,-1.39802 -3.25455,-1.75034 -0.71646,-0.20497 -1.42936,0.198 -2.13625,0.61588 -0.72076,0.39035 -1.44761,0.90242 -2.17559,0.51614 -1.09834,-0.30227 -2.18483,-0.98756 -3.27152,-1.67444 -0.25201,-0.14823 -0.50615,-0.22418 -0.76096,-0.2079 z"
       id="path61056-6-4-8" />
    <path
       style="fill:#488dcb;fill-opacity:1;stroke:none;stroke-width:0.264999;stroke-linecap:round;stroke-linejoin:round;paint-order:stroke markers fill"
       d="m 327.94365,151.13614 c -0.56146,-0.008 -1.11423,0.41786 -1.66275,0.84976 -0.0385,0.82031 -0.004,1.7444 -0.0162,2.60371 0.007,1.25226 -0.0139,2.52449 0.0239,3.76552 0.18919,-0.001 0.38741,-0.30182 0.57979,-0.38422 0.6573,-0.44244 1.33476,-0.59342 1.99245,-0.0723 1.24185,0.78592 2.49064,1.55819 3.74987,1.68631 1.2031,-0.18014 2.3831,-1.60081 3.59269,-1.2682 1.24494,0.34907 2.46606,1.64459 3.716,1.84853 1.22111,0.17563 2.4022,-1.58726 3.62301,-1.3938 1.7626,0.19835 3.50577,1.4567 5.26642,1.79916 0.79596,0.0702 1.60218,-0.0147 2.37452,-0.86638 0.44268,-0.42711 0.88279,-0.89659 1.33267,-1.18648 0.0402,-0.81881 0.008,-1.74435 0.0213,-2.60327 -0.003,-1.27952 0.016,-2.57934 -6e-4,-3.84617 -0.95109,0.61139 -1.87331,2.07866 -2.84931,2.02782 -0.96789,0.0828 -1.93276,-0.19722 -2.893,-0.65503 -1.32417,-0.53192 -2.65322,-1.31478 -3.98718,-1.01846 -1.01637,0.36623 -2.01494,1.58042 -3.04235,1.26285 -1.27426,-0.27039 -2.51959,-1.65903 -3.79644,-1.86915 -1.15447,-0.0972 -2.28102,1.24095 -3.4312,1.33394 -1.27909,-0.21261 -2.54825,-0.9634 -3.81139,-1.78202 -0.25894,-0.15163 -0.52019,-0.25793 -0.78223,-0.23211 z"
       id="path61058-3-4-5" />
    <path
       style="fill:#cae7fb;fill-opacity:1;stroke:none;stroke-width:0.264999;stroke-linecap:round;stroke-linejoin:round;paint-order:stroke markers fill"
       d="m 327.90626,158.02499 c -0.54116,7.9e-4 -1.0779,0.38241 -1.60496,0.83002 -0.0599,0.61073 -0.0195,1.33871 -0.0356,1.98818 0.004,1.45866 -0.0114,2.93769 0.007,4.38325 0.76015,-0.50371 1.53885,-1.17702 2.31138,-0.6608 1.14002,0.68577 2.28072,1.45521 3.43362,1.74301 0.90514,0.39373 1.80231,-0.44881 2.69623,-0.8718 0.76383,-0.48588 1.54441,-0.42891 2.30671,0.0576 1.04304,0.53295 2.07869,1.49892 3.13458,1.52365 1.12249,-0.0784 2.21173,-1.5217 3.33698,-1.4175 1.34662,0.10669 2.68195,0.91077 4.02199,1.40736 1.18564,0.48188 2.40289,0.8057 3.57028,-0.38495 0.4752,-0.46899 0.95162,-0.91353 1.43197,-1.2919 0.0391,-0.85243 0.008,-1.80587 0.021,-2.69626 -0.007,-1.19746 0.024,-2.41661 -0.0182,-3.60246 -0.11117,-0.12646 -0.24457,0.16413 -0.36176,0.20061 -0.85092,0.73755 -1.69206,1.81783 -2.57093,1.78666 -1.62694,0.10049 -3.23584,-1.0107 -4.85358,-1.53477 -0.78787,-0.25601 -1.58547,-0.50808 -2.36998,0.0309 -0.81774,0.42652 -1.62761,1.25603 -2.45759,1.0841 -0.89352,-0.0843 -1.7708,-0.88999 -2.65505,-1.3633 -0.75416,-0.49091 -1.52427,-0.72828 -2.28451,-0.30736 -0.82394,0.32359 -1.63555,1.15369 -2.46684,1.0201 -1.37076,-0.0336 -2.72033,-1.07449 -4.07256,-1.85607 -0.17299,-0.0617 -0.34688,-0.0733 -0.52046,-0.0683 z"
       id="path61283-8-4-0" />
    <path
       style="fill:#cae7fb;fill-opacity:1;stroke:none;stroke-width:0.264999;stroke-linecap:round;stroke-linejoin:round;paint-order:stroke markers fill"
       d="m 327.95315,144.12927 c -0.55975,0.0409 -1.11281,0.43719 -1.66059,0.8693 -0.0396,0.82008 -0.008,1.744 -0.0209,2.60309 0.003,1.30209 -0.016,2.62445 6.1e-4,3.91377 0.7541,-0.55225 1.5287,-1.11621 2.29796,-0.67631 0.9815,0.57322 1.96027,1.28593 2.95098,1.59015 0.68287,0.23041 1.37502,0.41419 2.05373,-0.0817 0.80739,-0.41183 1.61265,-1.06855 2.43083,-0.91997 0.89076,0.0323 1.76327,0.87721 2.64388,1.33938 0.76349,0.48597 1.54432,0.77354 2.31279,0.28267 0.85252,-0.437 1.69679,-1.30914 2.56178,-1.14289 1.33203,0.0825 2.65214,0.89344 3.97748,1.37854 0.73797,0.35445 1.48136,0.45677 2.22402,0.35759 0.95913,0.008 1.86678,-1.38766 2.80231,-2.02619 0.0385,-0.82008 0.004,-1.74444 0.0162,-2.60371 -0.0111,-1.2649 0.0225,-2.55429 -0.0253,-3.80554 -0.0786,-0.196 -0.19236,0.0975 -0.28135,0.10303 -0.85645,0.71628 -1.6994,1.86609 -2.58194,1.81595 -1.33997,0.16584 -2.668,-0.65409 -3.99835,-1.16251 -0.98388,-0.41493 -1.97689,-0.78946 -2.96614,-0.48762 -1.00948,0.49488 -2.01291,1.56157 -3.03656,1.21372 -1.19214,-0.37947 -2.3627,-1.56612 -3.55893,-1.83205 -1.17529,-0.19444 -2.32256,1.17315 -3.49115,1.28785 -1.3392,-0.13269 -2.66227,-1.02521 -3.98453,-1.82783 -0.22071,-0.13583 -0.44333,-0.20985 -0.66678,-0.18867 z"
       id="path61285-5-4-6" />
    <path
       style="fill:#cae7fb;fill-opacity:1;stroke:none;stroke-width:0.264999;stroke-linecap:round;stroke-linejoin:round;paint-order:stroke markers fill"
       d="m 327.96271,130.74366 c -0.56686,0.0267 -1.12633,0.44483 -1.68172,0.86126 -0.0387,0.81985 -0.004,1.74449 -0.0163,2.60372 0,1.27563 0,2.55127 0,3.82691 0.12639,0.12826 0.28082,-0.16249 0.41859,-0.19862 0.65186,-0.48611 1.32248,-0.76333 1.98177,-0.32264 1.35886,0.81619 2.72192,1.77358 4.10032,1.77077 0.67777,-0.14685 1.34621,-0.68872 2.01999,-0.99379 0.79441,-0.47444 1.60425,-0.34236 2.39454,0.19531 1.22437,0.64599 2.45645,1.89791 3.69824,1.22492 0.93955,-0.49457 1.86983,-1.43751 2.82338,-1.19832 1.69161,0.27066 3.36595,1.4322 5.05651,1.77324 0.78218,0.11885 1.57259,0.005 2.33422,-0.77828 0.47774,-0.44175 0.95199,-0.95576 1.43553,-1.27509 0.0389,-0.81952 0.004,-1.74466 0.0163,-2.60389 -0.0123,-1.25485 0.0242,-2.53589 -0.0234,-3.77685 -0.0654,-0.25186 -0.17655,0.0559 -0.256,0.0461 -0.82762,0.66285 -1.63761,1.77145 -2.4876,1.83757 -1.1594,0.24541 -2.31307,-0.4449 -3.46471,-0.87635 -1.1522,-0.46309 -2.30983,-1.09008 -3.47006,-0.82868 -1.05173,0.41014 -2.088,1.62108 -3.15222,1.27336 -1.20909,-0.34 -2.395,-1.56025 -3.60693,-1.8357 -1.18535,-0.19317 -2.34196,1.20069 -3.52145,1.29767 -1.30594,-0.17017 -2.59866,-0.99491 -3.88803,-1.79832 -0.2355,-0.14158 -0.4725,-0.24111 -0.71097,-0.2243 z"
       id="path61287-6-7-4" />
    <path
       style="fill:none;stroke:#000000;stroke-width:0.52;stroke-linecap:butt;stroke-linejoin:bevel;stroke-dasharray:none;stroke-opacity:1"
       d="m 378.57607,125.31752 c -2.64783,-2.2106 -2.06393,-0.24326 -6.15414,0.83098 -0.92063,0.24192 -2.50006,-1.50977 -3.65235,-1.33064 -1.188,0.18465 -2.64862,1.72825 -3.94362,1.95038 -1.07622,0.1846 -2.34833,-1.50223 -3.42908,-1.45524 -1.83608,0.0798 -4.12185,1.76077 -5.76667,1.85569 -1.50941,0.0871 -2.92149,-1.31123 -3.37468,-1.64068"
       id="path10-1-5-0-6"
       sodipodi:nodetypes="csssssc" />
    <path
       style="fill:#488dcb;fill-opacity:1;stroke:none;stroke-width:0.264999;stroke-linecap:round;stroke-linejoin:round;paint-order:stroke markers fill"
       d="m 324.78486,124.61011 c 0.54881,-0.045 1.08927,0.43444 1.62341,0.8673 0.0743,0.43086 0.0239,1.05043 0.0422,1.54585 -0.004,1.38095 0.0112,2.78208 -0.007,4.14994 -0.7132,-0.55605 -1.44792,-1.10709 -2.17818,-0.74192 -0.89608,0.41459 -1.78126,1.15741 -2.68084,1.47034 -0.73362,0.27194 -1.47557,0.65643 -2.20979,0.19058 -1.10577,-0.52412 -2.21787,-1.52398 -3.33406,-0.87826 -1.14829,0.52298 -2.28261,1.65578 -3.44311,1.71358 -1.15869,-0.0127 -2.28128,-1.60826 -3.44245,-1.39458 -1.4365,0.12683 -2.85962,1.01813 -4.29007,1.50455 -0.7249,0.3517 -1.45644,0.25327 -2.18452,0.1727 -0.85115,-0.16067 -1.65567,-1.43315 -2.49177,-1.95807 -0.0392,-0.78757 -0.004,-1.68247 -0.0164,-2.51035 0.005,-1.06863 -0.011,-2.15811 0.008,-3.21376 0.89339,0.53941 1.7649,1.8325 2.67849,1.78464 1.3326,0.24524 2.65571,-0.53028 3.97848,-1.04963 1.03342,-0.38062 2.07378,-0.94451 3.11275,-0.58939 1.10055,0.50687 2.19873,1.72536 3.31318,1.16441 1.06686,-0.42872 2.11725,-1.39134 3.18696,-1.7275 0.64721,-0.15229 1.29407,0.0843 1.93274,0.49758 0.77796,0.42642 1.56031,1.00579 2.34746,0.64551 1.10497,-0.28445 2.19962,-0.93687 3.29494,-1.56216 0.25237,-0.0993 0.50654,-0.0776 0.75977,-0.0814 z"
       id="path61054-9-0"
       transform="translate(1.2708334e-6)" />
    <path
       style="fill:#488dcb;fill-opacity:1;stroke:none;stroke-width:0.264999;stroke-linecap:round;stroke-linejoin:round;paint-order:stroke markers fill"
       d="m 275.85609,124.61011 c -0.54882,-0.045 -1.08929,0.43444 -1.62342,0.8673 -0.0743,0.43086 -0.0239,1.05043 -0.0423,1.54585 0.004,1.38095 -0.0112,2.78208 0.007,4.14994 0.7132,-0.55605 1.44792,-1.10709 2.17818,-0.74192 0.89609,0.41459 1.78126,1.15741 2.68084,1.47034 0.73362,0.27194 1.47557,0.65643 2.20979,0.19058 1.10577,-0.52412 2.21787,-1.52398 3.33406,-0.87826 1.14829,0.52298 2.28261,1.65578 3.44312,1.71358 1.15869,-0.0127 2.28127,-1.60826 3.44244,-1.39458 1.4365,0.12683 2.85962,1.01813 4.29008,1.50455 0.72489,0.3517 1.45643,0.25327 2.18452,0.1727 0.85115,-0.16067 1.65566,-1.43315 2.49177,-1.95807 0.0392,-0.78757 0.004,-1.68247 0.0164,-2.51035 -0.005,-1.06863 0.011,-2.15811 -0.008,-3.21376 -0.89338,0.53941 -1.76489,1.8325 -2.67848,1.78464 -1.3326,0.24524 -2.65571,-0.53028 -3.97849,-1.04963 -1.03342,-0.38062 -2.07377,-0.94451 -3.11275,-0.58939 -1.10054,0.50687 -2.19872,1.72536 -3.31317,1.16441 -1.06686,-0.42872 -2.11725,-1.39134 -3.18696,-1.7275 -0.64721,-0.15229 -1.29408,0.0843 -1.93275,0.49758 -0.77796,0.42642 -1.5603,1.00579 -2.34745,0.64551 -1.10497,-0.28445 -2.19962,-0.93687 -3.29495,-1.56216 -0.25237,-0.0993 -0.50654,-0.0776 -0.75976,-0.0814 z"
       id="path61054-9"
       transform="translate(1.2708334e-6)" />
    <path
       style="fill:#488dcb;fill-opacity:1;stroke:none;stroke-width:0.264999;stroke-linecap:round;stroke-linejoin:round;paint-order:stroke markers fill"
       d="m 327.93126,124.61011 c -0.54881,-0.045 -1.08927,0.43444 -1.62341,0.8673 -0.0743,0.43086 -0.0239,1.05043 -0.0422,1.54585 0.004,1.38095 -0.0112,2.78208 0.007,4.14994 0.7132,-0.55605 1.44792,-1.10709 2.17818,-0.74192 0.89608,0.41459 1.78126,1.15741 2.68084,1.47034 0.73362,0.27194 1.47557,0.65643 2.20979,0.19058 1.10577,-0.52412 2.21787,-1.52398 3.33406,-0.87826 1.14829,0.52298 2.28261,1.65578 3.44311,1.71358 1.15869,-0.0127 2.28128,-1.60826 3.44245,-1.39458 1.4365,0.12683 2.85962,1.01813 4.29007,1.50455 0.7249,0.3517 1.45644,0.25327 2.18452,0.1727 0.85115,-0.16067 1.65567,-1.43315 2.49177,-1.95807 0.0392,-0.78757 0.004,-1.68247 0.0164,-2.51035 -0.005,-1.06863 -0.19339,-1.9411 -0.21239,-2.99675 -0.89339,0.53941 -1.56051,1.61549 -2.4741,1.56763 -1.3326,0.24524 -2.65571,-0.53028 -3.97848,-1.04963 -1.03342,-0.38062 -2.07378,-0.94451 -3.11275,-0.58939 -1.10055,0.50687 -2.19873,1.72536 -3.31318,1.16441 -1.06686,-0.42872 -2.11725,-1.39134 -3.18696,-1.7275 -0.64721,-0.15229 -1.29407,0.0843 -1.93274,0.49758 -0.77796,0.42642 -1.56031,1.00579 -2.34746,0.64551 -1.10497,-0.28445 -2.19962,-0.93687 -3.29494,-1.56216 -0.25237,-0.0993 -0.50654,-0.0776 -0.75977,-0.0814 z"
       id="path61054-9-0-2"
       sodipodi:nodetypes="ccccccccccccccccccccccccc" />
    <path
       style="fill:#488dcb;fill-opacity:1;stroke:none;stroke-width:0.264999;stroke-linecap:round;stroke-linejoin:round;paint-order:stroke markers fill"
       d="m 376.86003,124.61011 c 0.54882,-0.045 1.08929,0.43444 1.62342,0.8673 0.0743,0.43086 0.0239,1.05043 0.0423,1.54585 -0.004,1.38095 0.0112,2.78208 -0.007,4.14994 -0.7132,-0.55605 -1.44792,-1.10709 -2.17818,-0.74192 -0.89609,0.41459 -1.78126,1.15741 -2.68084,1.47034 -0.73362,0.27194 -1.47557,0.65643 -2.20979,0.19058 -1.10577,-0.52412 -2.21787,-1.52398 -3.33406,-0.87826 -1.14829,0.52298 -2.28261,1.65578 -3.44312,1.71358 -1.15869,-0.0127 -2.28127,-1.60826 -3.44244,-1.39458 -1.4365,0.12683 -2.85962,1.01813 -4.29008,1.50455 -0.72489,0.3517 -1.45643,0.25327 -2.18452,0.1727 -0.85115,-0.16067 -1.65566,-1.43315 -2.49177,-1.95807 -0.0392,-0.78757 -0.004,-1.68247 -0.0164,-2.51035 0.005,-1.06863 0.0649,-1.9411 0.0839,-2.99675 0.89338,0.53941 1.68895,1.61549 2.60254,1.56763 1.3326,0.24524 2.65571,-0.53028 3.97849,-1.04963 1.03342,-0.38062 2.07377,-0.94451 3.11275,-0.58939 1.10054,0.50687 2.19872,1.72536 3.31317,1.16441 1.06686,-0.42872 2.11725,-1.39134 3.18696,-1.7275 0.64721,-0.15229 1.29408,0.0843 1.93275,0.49758 0.77796,0.42642 1.5603,1.00579 2.34745,0.64551 1.10497,-0.28445 2.19962,-0.93687 3.29495,-1.56216 0.25237,-0.0993 0.50654,-0.0776 0.75976,-0.0814 z"
       id="path61054-9-2"
       sodipodi:nodetypes="ccccccccccccccccccccccccc" />
  </g>
</svg>
