<?xml version="1.0" encoding="UTF-8" standalone="no"?>
<svg
   width="336.61087mm"
   height="158.9348mm"
   viewBox="0 0 336.61088 158.93479"
   version="1.1"
   id="svg8"
   inkscape:version="1.2.2 (b0a8486541, 2022-12-01)"
   sodipodi:docname="multilayersketchpdf.svg"
   inkscape:export-filename="/home/sjoerd/multilayersketch.png"
   inkscape:export-xdpi="96"
   inkscape:export-ydpi="96"
   xmlns:inkscape="http://www.inkscape.org/namespaces/inkscape"
   xmlns:sodipodi="http://sodipodi.sourceforge.net/DTD/sodipodi-0.dtd"
   xmlns="http://www.w3.org/2000/svg"
   xmlns:svg="http://www.w3.org/2000/svg"
   xmlns:rdf="http://www.w3.org/1999/02/22-rdf-syntax-ns#"
   xmlns:cc="http://creativecommons.org/ns#"
   xmlns:dc="http://purl.org/dc/elements/1.1/">
  <defs
     id="defs2">
    <marker
       style="overflow:visible"
       id="TriangleStart"
       refX="0"
       refY="0"
       orient="auto-start-reverse"
       inkscape:stockid="TriangleStart"
       markerWidth="5.3244081"
       markerHeight="6.155385"
       viewBox="0 0 5.3244081 6.1553851"
       inkscape:isstock="true"
       inkscape:collect="always"
       preserveAspectRatio="xMidYMid">
      <path
         transform="scale(0.5)"
         style="fill:context-stroke;fill-rule:evenodd;stroke:context-stroke;stroke-width:1pt"
         d="M 5.77,0 -2.88,5 V -5 Z"
         id="path135" />
    </marker>
    <marker
       style="overflow:visible"
       id="Arrow1Lend"
       refX="0"
       refY="0"
       orient="auto"
       inkscape:stockid="Arrow1Lend"
       inkscape:isstock="true">
      <path
         transform="matrix(-0.8,0,0,-0.8,-10,0)"
         style="fill:#000000;fill-opacity:1;fill-rule:evenodd;stroke:#000000;stroke-width:1pt;stroke-opacity:1"
         d="M 0,0 5,-5 -12.5,0 5,5 Z"
         id="path916" />
    </marker>
    <marker
       style="overflow:visible"
       id="Arrow1Lstart"
       refX="0"
       refY="0"
       orient="auto"
       inkscape:stockid="Arrow1Lstart"
       inkscape:isstock="true">
      <path
         transform="matrix(0.8,0,0,0.8,10,0)"
         style="fill:#000000;fill-opacity:1;fill-rule:evenodd;stroke:#000000;stroke-width:1pt;stroke-opacity:1"
         d="M 0,0 5,-5 -12.5,0 5,5 Z"
         id="path913" />
    </marker>
    <rect
       x="-58.477146"
       y="12.199606"
       width="57.480732"
       height="21.192549"
       id="rect4076" />
    <rect
       x="120.12516"
       y="-67.935661"
       width="104.38138"
       height="21.967129"
       id="rect4064" />
    <rect
       x="179.0437"
       y="-64.735344"
       width="58.358913"
       height="30.190735"
       id="rect4052" />
    <rect
       x="38.689583"
       y="-8.1111078"
       width="10.875293"
       height="13.76895"
       id="rect4036" />
    <marker
       style="overflow:visible"
       id="TriangleStart-8"
       refX="0"
       refY="0"
       orient="auto-start-reverse"
       inkscape:stockid="TriangleStart"
       markerWidth="5.3244081"
       markerHeight="6.155385"
       viewBox="0 0 5.3244081 6.1553851"
       inkscape:isstock="true"
       inkscape:collect="always"
       preserveAspectRatio="xMidYMid">
      <path
         transform="scale(0.5)"
         style="fill:context-stroke;fill-rule:evenodd;stroke:context-stroke;stroke-width:1pt"
         d="M 5.77,0 -2.88,5 V -5 Z"
         id="path135-0" />
    </marker>
    <marker
       style="overflow:visible"
       id="TriangleStart-8-7"
       refX="0"
       refY="0"
       orient="auto-start-reverse"
       inkscape:stockid="TriangleStart"
       markerWidth="5.3244081"
       markerHeight="6.155385"
       viewBox="0 0 5.3244081 6.1553851"
       inkscape:isstock="true"
       inkscape:collect="always"
       preserveAspectRatio="xMidYMid">
      <path
         transform="scale(0.5)"
         style="fill:context-stroke;fill-rule:evenodd;stroke:context-stroke;stroke-width:1pt"
         d="M 5.77,0 -2.88,5 V -5 Z"
         id="path135-0-9" />
    </marker>
    <marker
       style="overflow:visible"
       id="TriangleStart-8-7-3"
       refX="0"
       refY="0"
       orient="auto-start-reverse"
       inkscape:stockid="TriangleStart"
       markerWidth="5.3244081"
       markerHeight="6.155385"
       viewBox="0 0 5.3244081 6.1553851"
       inkscape:isstock="true"
       inkscape:collect="always"
       preserveAspectRatio="xMidYMid">
      <path
         transform="scale(0.5)"
         style="fill:context-stroke;fill-rule:evenodd;stroke:context-stroke;stroke-width:1pt"
         d="M 5.77,0 -2.88,5 V -5 Z"
         id="path135-0-9-2" />
    </marker>
    <marker
       style="overflow:visible"
       id="TriangleStart-8-7-3-3"
       refX="0"
       refY="0"
       orient="auto-start-reverse"
       inkscape:stockid="TriangleStart"
       markerWidth="5.3244081"
       markerHeight="6.155385"
       viewBox="0 0 5.3244081 6.1553851"
       inkscape:isstock="true"
       inkscape:collect="always"
       preserveAspectRatio="xMidYMid">
      <path
         transform="scale(0.5)"
         style="fill:context-stroke;fill-rule:evenodd;stroke:context-stroke;stroke-width:1pt"
         d="M 5.77,0 -2.88,5 V -5 Z"
         id="path135-0-9-2-7" />
    </marker>
    <marker
       style="overflow:visible"
       id="TriangleStart-2"
       refX="0"
       refY="0"
       orient="auto-start-reverse"
       inkscape:stockid="TriangleStart"
       markerWidth="5.3244081"
       markerHeight="6.155385"
       viewBox="0 0 5.3244081 6.1553851"
       inkscape:isstock="true"
       inkscape:collect="always"
       preserveAspectRatio="xMidYMid">
      <path
         transform="scale(0.5)"
         style="fill:context-stroke;fill-rule:evenodd;stroke:context-stroke;stroke-width:1pt"
         d="M 5.77,0 -2.88,5 V -5 Z"
         id="path135-2" />
    </marker>
    <marker
       style="overflow:visible"
       id="TriangleStart-2-2"
       refX="0"
       refY="0"
       orient="auto-start-reverse"
       inkscape:stockid="TriangleStart"
       markerWidth="5.3244081"
       markerHeight="6.155385"
       viewBox="0 0 5.3244081 6.1553851"
       inkscape:isstock="true"
       inkscape:collect="always"
       preserveAspectRatio="xMidYMid">
      <path
         transform="scale(0.5)"
         style="fill:context-stroke;fill-rule:evenodd;stroke:context-stroke;stroke-width:1pt"
         d="M 5.77,0 -2.88,5 V -5 Z"
         id="path135-2-1" />
    </marker>
    <marker
       style="overflow:visible"
       id="TriangleStart-2-2-5"
       refX="0"
       refY="0"
       orient="auto-start-reverse"
       inkscape:stockid="TriangleStart"
       markerWidth="5.3244081"
       markerHeight="6.155385"
       viewBox="0 0 5.3244081 6.1553851"
       inkscape:isstock="true"
       inkscape:collect="always"
       preserveAspectRatio="xMidYMid">
      <path
         transform="scale(0.5)"
         style="fill:context-stroke;fill-rule:evenodd;stroke:context-stroke;stroke-width:1pt"
         d="M 5.77,0 -2.88,5 V -5 Z"
         id="path135-2-1-1" />
    </marker>
    <marker
       style="overflow:visible"
       id="TriangleStart-2-2-5-4"
       refX="0"
       refY="0"
       orient="auto-start-reverse"
       inkscape:stockid="TriangleStart"
       markerWidth="5.3244081"
       markerHeight="6.155385"
       viewBox="0 0 5.3244081 6.1553851"
       inkscape:isstock="true"
       inkscape:collect="always"
       preserveAspectRatio="xMidYMid">
      <path
         transform="scale(0.5)"
         style="fill:context-stroke;fill-rule:evenodd;stroke:context-stroke;stroke-width:1pt"
         d="M 5.77,0 -2.88,5 V -5 Z"
         id="path135-2-1-1-1" />
    </marker>
    <marker
       style="overflow:visible"
       id="TriangleStart-2-2-5-4-1"
       refX="0"
       refY="0"
       orient="auto-start-reverse"
       inkscape:stockid="TriangleStart"
       markerWidth="5.3244081"
       markerHeight="6.155385"
       viewBox="0 0 5.3244081 6.1553851"
       inkscape:isstock="true"
       inkscape:collect="always"
       preserveAspectRatio="xMidYMid">
      <path
         transform="scale(0.5)"
         style="fill:context-stroke;fill-rule:evenodd;stroke:context-stroke;stroke-width:1pt"
         d="M 5.77,0 -2.88,5 V -5 Z"
         id="path135-2-1-1-1-1" />
    </marker>
  </defs>
  <sodipodi:namedview
     id="base"
     pagecolor="#ffffff"
     bordercolor="#666666"
     borderopacity="1.0"
     inkscape:pageopacity="0.0"
     inkscape:pageshadow="2"
     inkscape:zoom="1"
     inkscape:cx="669"
     inkscape:cy="501"
     inkscape:document-units="mm"
     inkscape:current-layer="layer1"
     inkscape:document-rotation="0"
     showgrid="false"
     fit-margin-top="0"
     fit-margin-left="0"
     fit-margin-right="0"
     fit-margin-bottom="0"
     inkscape:window-width="2560"
     inkscape:window-height="1371"
     inkscape:window-x="0"
     inkscape:window-y="0"
     inkscape:window-maximized="1"
     inkscape:showpageshadow="2"
     inkscape:pagecheckerboard="0"
     inkscape:deskcolor="#d1d1d1">
    <inkscape:grid
       type="xygrid"
       id="grid835"
       originx="69.405365"
       originy="60.971" />
  </sodipodi:namedview>
  <metadata
     id="metadata5">
    <rdf:RDF>
      <cc:Work
         rdf:about="">
        <dc:format>image/svg+xml</dc:format>
        <dc:type
           rdf:resource="http://purl.org/dc/dcmitype/StillImage" />
        <dc:title />
      </cc:Work>
    </rdf:RDF>
  </metadata>
  <g
     inkscape:label="Layer 1"
     inkscape:groupmode="layer"
     id="layer1"
     transform="translate(69.405353,60.971019)">
    <text
       xml:space="preserve"
       style="font-style:normal;font-variant:normal;font-weight:normal;font-stretch:normal;font-size:6.35px;line-height:1.25;font-family:'CMU Serif';-inkscape-font-specification:'CMU Serif';fill:#000000;fill-opacity:1;stroke:none;stroke-width:0.264583"
       x="131.7294"
       y="25.320648"
       id="text3985-3-1-9"><tspan
         sodipodi:role="line"
         id="tspan3983-1-7-5"
         x="131.7294"
         y="25.320648"
         style="font-style:normal;font-variant:normal;font-weight:normal;font-stretch:normal;font-size:6.35px;font-family:'CMU Serif';-inkscape-font-specification:'CMU Serif';stroke-width:0.264583">$\theta$</tspan></text>
    <path
       style="fill:#0096ff;fill-opacity:1;stroke:#000000;stroke-width:0.404464px;stroke-linecap:square;stroke-linejoin:miter;stroke-opacity:1"
       d="M 10.598989,26.468641 V 31.75919 H 233.23359 V 26.468641 H 10.598989"
       id="path3618" />
    <path
       style="fill:#cae7fb;fill-opacity:1;stroke:#000000;stroke-width:0.404464px;stroke-linecap:butt;stroke-linejoin:miter;stroke-opacity:1"
       d="m 10.598982,31.759191 v 7.935825 H 233.23359 v -7.935825 z"
       id="path3620" />
    <path
       style="fill:none;fill-opacity:1;stroke:none;stroke-width:0.677002;stroke-linecap:round;stroke-linejoin:round"
       d="m 11.115256,29.070913 v -2.456845 h 86.792785 86.792779 v 2.456845 2.456846 H 97.908041 11.115256 Z"
       id="path3646" />
    <path
       id="path3618-7"
       d="m 10.598982,39.695016 v 5.290549 H 233.23359 V 39.695016 H 10.598982"
       style="fill:#0096ff;fill-opacity:1;stroke:#000000;stroke-width:0.404464px;stroke-linecap:butt;stroke-linejoin:miter;stroke-opacity:1" />
    <path
       id="path3620-2"
       d="m 10.46669,44.919419 v 7.935825 H 233.1013 v -7.935825 z"
       style="fill:#cae7fb;fill-opacity:1;stroke:#000000;stroke-width:0.404464px;stroke-linecap:butt;stroke-linejoin:miter;stroke-opacity:1" />
    <path
       id="path3646-2"
       d="m 11.115249,42.30008 v -2.456845 h 86.792782 86.792789 v 2.456845 2.456845 H 97.908031 11.115249 Z"
       style="fill:none;fill-opacity:1;stroke:none;stroke-width:0.677002;stroke-linecap:round;stroke-linejoin:round" />
    <path
       id="path3618-1"
       d="m 10.598996,52.92139 v 5.290549 H 233.23359 V 52.92139 H 10.598996"
       style="fill:#0096ff;fill-opacity:1;stroke:#000000;stroke-width:0.404464px;stroke-linecap:butt;stroke-linejoin:miter;stroke-opacity:1" />
    <path
       id="path3620-1"
       d="m 10.598996,58.211939 v 7.935824 H 233.23359 v -7.935824 z"
       style="fill:#cae7fb;fill-opacity:1;stroke:#000000;stroke-width:0.404464px;stroke-linecap:butt;stroke-linejoin:miter;stroke-opacity:1" />
    <path
       id="path3646-5"
       d="m 11.11526,55.529246 v -2.456845 h 86.792781 86.792779 v 2.456845 2.456845 H 97.908041 11.11526 Z"
       style="fill:none;fill-opacity:1;stroke:none;stroke-width:0.677002;stroke-linecap:round;stroke-linejoin:round" />
    <path
       style="fill:#0096ff;fill-opacity:1;stroke:#000000;stroke-width:0.404464px;stroke-linecap:butt;stroke-linejoin:miter;stroke-opacity:1"
       d="m 10.598989,66.147764 v 5.29055 H 233.23359 v -5.29055 H 10.598989"
       id="path3618-7-9" />
    <path
       style="fill:#cae7fb;fill-opacity:1;stroke:#000000;stroke-width:0.404464px;stroke-linecap:butt;stroke-linejoin:miter;stroke-opacity:1"
       d="m 10.598989,71.438314 v 7.935825 H 233.23359 v -7.935825 z"
       id="path3620-2-7" />
    <path
       style="fill:none;fill-opacity:1;stroke:none;stroke-width:0.677002;stroke-linecap:round;stroke-linejoin:round"
       d="m 11.115255,68.758413 v -2.456845 h 86.792786 86.792779 v 2.456845 2.456845 H 97.908041 11.115255 Z"
       id="path3646-2-7" />
    <path
       id="path3646-3"
       d="m 11.115255,81.987581 v -2.456845 h 86.792786 86.792779 v 2.456845 2.456845 H 97.908041 11.115255 Z"
       style="fill:none;fill-opacity:1;stroke:none;stroke-width:0.677002;stroke-linecap:round;stroke-linejoin:round" />
    <path
       style="fill:none;fill-opacity:1;stroke:none;stroke-width:0.677002;stroke-linecap:round;stroke-linejoin:round"
       d="m 11.115255,81.987581 v -2.456845 h 86.792785 86.79279 v 2.456845 2.456845 H 97.90804 11.115255 Z"
       id="path3646-2-6" />
    <path
       style="fill:#c3c3c3;fill-opacity:1;stroke:#000000;stroke-width:0.404;stroke-linecap:butt;stroke-linejoin:miter;stroke-miterlimit:4;stroke-dasharray:none;stroke-opacity:1"
       d="M 10.598995,79.371348 V 97.761775 H 233.28796 V 79.371348 Z"
       id="path3788" />
    <text
       xml:space="preserve"
       style="font-style:normal;font-variant:normal;font-weight:normal;font-stretch:normal;font-size:6.35px;line-height:1.25;font-family:'CMU Serif';-inkscape-font-specification:'CMU Serif';fill:#000000;fill-opacity:1;stroke:none;stroke-width:0.264583"
       x="107.85365"
       y="90.820961"
       id="text3792"><tspan
         sodipodi:role="line"
         id="tspan3790"
         x="107.85365"
         y="90.820961"
         style="font-style:normal;font-variant:normal;font-weight:normal;font-stretch:normal;font-size:6.35px;font-family:'CMU Serif';-inkscape-font-specification:'CMU Serif';stroke-width:0.264583">Substrate</tspan></text>
    <text
       id="text3985-3"
       y="25.320648"
       x="88.162338"
       style="font-style:normal;font-variant:normal;font-weight:normal;font-stretch:normal;font-size:6.35px;line-height:1.25;font-family:'CMU Serif';-inkscape-font-specification:'CMU Serif';fill:#000000;fill-opacity:1;stroke:none;stroke-width:0.264583"
       xml:space="preserve"><tspan
         style="font-style:normal;font-variant:normal;font-weight:normal;font-stretch:normal;font-size:6.35px;font-family:'CMU Serif';-inkscape-font-specification:'CMU Serif';stroke-width:0.264583"
         y="25.320648"
         x="88.162338"
         id="tspan3983-1"
         sodipodi:role="line">$\theta$</tspan></text>
    <path
       style="fill:none;stroke:#000000;stroke-width:0.264583px;stroke-linecap:butt;stroke-linejoin:miter;stroke-opacity:1"
       d="M 93.192389,39.395402 V 26.448556"
       id="path4040" />
    <path
       style="fill:none;stroke:#000000;stroke-width:0.264583px;stroke-linecap:butt;stroke-linejoin:miter;stroke-opacity:1"
       d="m 92.133371,26.598652 v 0.901199 h 2.122138 v -0.888097"
       id="path4044" />
    <text
       xml:space="preserve"
       id="text4050"
       style="font-style:normal;font-variant:normal;font-weight:normal;font-stretch:normal;font-size:6.35px;line-height:1.25;font-family:'CMU Serif';-inkscape-font-specification:'CMU Serif';white-space:pre;shape-inside:url(#rect4052);fill:#000000;fill-opacity:1;stroke:none" />
    <text
       xml:space="preserve"
       id="text4074"
       style="font-style:normal;font-variant:normal;font-weight:normal;font-stretch:normal;font-size:6.35px;line-height:1.25;font-family:'CMU Serif';-inkscape-font-specification:'CMU Serif';white-space:pre;shape-inside:url(#rect4076);fill:#000000;fill-opacity:1;stroke:none" />
    <text
       xml:space="preserve"
       style="font-style:normal;font-variant:normal;font-weight:normal;font-stretch:normal;font-size:6.35px;line-height:1.25;font-family:'CMU Serif';-inkscape-font-specification:'CMU Serif';text-align:end;text-anchor:end;fill:#000000;fill-opacity:1;stroke:none;stroke-width:0.264583"
       x="3.8676929"
       y="35.164955"
       id="text4082"><tspan
         sodipodi:role="line"
         id="tspan4080"
         x="3.867691"
         y="35.164955"
         style="font-style:normal;font-variant:normal;font-weight:normal;font-stretch:normal;font-size:6.35px;font-family:'CMU Serif';-inkscape-font-specification:'CMU Serif';text-align:end;text-anchor:end;stroke-width:0.264583">Bilayer period $\Lambda$</tspan></text>
    <path
       style="fill:none;stroke:#000000;stroke-width:0.265;stroke-linecap:round;stroke-linejoin:bevel;stroke-miterlimit:4;stroke-dasharray:none;stroke-dashoffset:0.6095;stroke-opacity:1;marker-start:url(#Arrow1Lstart);marker-end:url(#Arrow1Lend)"
       d="M 6.59793,26.417344 V 39.843696"
       id="path4084" />
    <text
       xml:space="preserve"
       style="font-style:normal;font-variant:normal;font-weight:normal;font-stretch:normal;font-size:6.35px;line-height:1.25;font-family:'CMU Serif';-inkscape-font-specification:'CMU Serif';fill:#000000;fill-opacity:1;stroke:none;stroke-width:0.264583"
       x="109.68536"
       y="25.320648"
       id="text3985-3-1"><tspan
         sodipodi:role="line"
         id="tspan3983-1-7"
         x="109.68536"
         y="25.320648"
         style="font-style:normal;font-variant:normal;font-weight:normal;font-stretch:normal;font-size:6.35px;font-family:'CMU Serif';-inkscape-font-specification:'CMU Serif';stroke-width:0.264583">$\theta$</tspan></text>
    <text
       xml:space="preserve"
       style="font-style:normal;font-variant:normal;font-weight:normal;font-stretch:normal;font-size:6.35px;line-height:1.25;font-family:'CMU Serif';-inkscape-font-specification:'CMU Serif';fill:#000000;fill-opacity:1;stroke:none;stroke-width:0.264583"
       x="171.91107"
       y="25.320648"
       id="text3985-3-8"><tspan
         sodipodi:role="line"
         id="tspan3983-1-5"
         x="171.91107"
         y="25.320648"
         style="font-style:normal;font-variant:normal;font-weight:normal;font-stretch:normal;font-size:6.35px;font-family:'CMU Serif';-inkscape-font-specification:'CMU Serif';stroke-width:0.264583">$\theta$</tspan></text>
    <path
       style="fill:none;stroke:#000000;stroke-width:0.264583px;stroke-linecap:butt;stroke-linejoin:miter;stroke-opacity:1"
       d="M 103.0136,26.389577 92.338044,14.304039"
       id="path4020" />
    <path
       style="fill:none;stroke:#000000;stroke-width:0.264583px;stroke-linecap:round;stroke-linejoin:round;stroke-opacity:1"
       d="m 85.350883,23.329763 c 1.003661,0.470495 1.954867,1.094634 2.473187,2.986739"
       id="path1518"
       sodipodi:nodetypes="cc" />
    <path
       style="fill:none;stroke:#000000;stroke-width:0.264583px;stroke-linecap:round;stroke-linejoin:round;stroke-opacity:1"
       d="m 106.13652,23.487748 c 1.00366,0.470496 1.95487,1.094635 2.47319,2.98674"
       id="path1518-1"
       sodipodi:nodetypes="cc" />
    <path
       style="fill:none;stroke:#000000;stroke-width:0.264583px;stroke-linecap:round;stroke-linejoin:round;stroke-opacity:1"
       d="m 79.41431,23.392368 c -1.003662,0.470496 -1.954868,1.094635 -2.473188,2.98674"
       id="path1518-9"
       sodipodi:nodetypes="cc" />
    <path
       style="fill:none;stroke:#000000;stroke-width:0.264583px;stroke-linecap:round;stroke-linejoin:round;stroke-opacity:1"
       d="m 127.19276,23.319355 c 1.00366,0.470497 1.95487,1.094636 2.47319,2.986741"
       id="path1518-1-4"
       sodipodi:nodetypes="cc" />
    <path
       style="fill:none;stroke:#000000;stroke-width:0.264583px;stroke-linecap:round;stroke-linejoin:round;stroke-opacity:1"
       d="m 148.10287,23.350879 c 1.00366,0.470497 1.95487,1.094636 2.47319,2.986741"
       id="path1518-1-9"
       sodipodi:nodetypes="cc" />
    <path
       style="fill:none;stroke:#000000;stroke-width:0.264583px;stroke-linecap:round;stroke-linejoin:round;stroke-opacity:1"
       d="m 168.71495,23.380101 c 1.00366,0.470497 1.95487,1.094636 2.47319,2.986741"
       id="path1518-1-0"
       sodipodi:nodetypes="cc" />
    <text
       xml:space="preserve"
       style="font-style:normal;font-weight:normal;font-size:4.23333px;line-height:1.25;font-family:sans-serif;fill:#000000;fill-opacity:1;stroke:none;stroke-width:0.264583"
       x="70.532242"
       y="24.832821"
       id="text3985-37-6"><tspan
         sodipodi:role="line"
         id="tspan3983-4-4"
         x="70.532242"
         y="24.832821"
         style="font-size:4.23333px;stroke-width:0.264583">$\theta$</tspan></text>
    <text
       xml:space="preserve"
       style="font-style:normal;font-weight:normal;font-size:10.5833px;line-height:1.25;font-family:sans-serif;fill:#000000;fill-opacity:1;stroke:none;stroke-width:0.264583"
       x="-69.220299"
       y="-42.930191"
       id="text2233"><tspan
         sodipodi:role="line"
         id="tspan2231"
         x="-69.220299"
         y="-42.930191"
         style="stroke-width:0.264583">Incident neutrons</tspan></text>
    <text
       xml:space="preserve"
       style="font-style:normal;font-weight:normal;font-size:10.5833px;line-height:1.25;font-family:sans-serif;fill:#000000;fill-opacity:1;stroke:none;stroke-width:0.264583"
       x="167.70287"
       y="-42.930191"
       id="text2237"><tspan
         sodipodi:role="line"
         id="tspan2235"
         x="167.70287"
         y="-42.930191"
         style="stroke-width:0.264583">Reflected neutrons</tspan></text>
    <text
       xml:space="preserve"
       style="font-style:normal;font-variant:normal;font-weight:normal;font-stretch:normal;font-size:6.35px;line-height:1.25;font-family:'CMU Serif';-inkscape-font-specification:'CMU Serif';fill:#000000;fill-opacity:1;stroke:none;stroke-width:0.264583"
       x="151.78955"
       y="25.320648"
       id="text3985-3-8-04"><tspan
         sodipodi:role="line"
         id="tspan3983-1-5-8"
         x="151.78955"
         y="25.320648"
         style="font-style:normal;font-variant:normal;font-weight:normal;font-stretch:normal;font-size:6.35px;font-family:'CMU Serif';-inkscape-font-specification:'CMU Serif';stroke-width:0.264583">$\theta$</tspan></text>
    <text
       xml:space="preserve"
       style="font-style:normal;font-weight:normal;font-size:10.5833px;line-height:1.25;font-family:sans-serif;fill:#000000;fill-opacity:1;stroke:none;stroke-width:0.264583"
       x="84.906273"
       y="13.828807"
       id="text2337"><tspan
         sodipodi:role="line"
         id="tspan2335"
         x="84.906273"
         y="13.828807"
         style="stroke-width:0.264583">C'</tspan></text>
    <rect
       style="fill:#0096ff;fill-opacity:1;stroke:none;stroke-width:0.298833;stroke-opacity:1"
       id="rect11589"
       width="10.528737"
       height="1.3776937"
       x="74.079361"
       y="30.59201" />
    <text
       xml:space="preserve"
       style="font-style:normal;font-weight:normal;font-size:10.5833px;line-height:1.25;font-family:sans-serif;fill:#000000;fill-opacity:1;stroke:none;stroke-width:0.264583"
       x="75.637619"
       y="35.868122"
       id="text2325"><tspan
         sodipodi:role="line"
         id="tspan2323"
         x="75.637619"
         y="35.868122"
         style="stroke-width:0.264583">A</tspan></text>
    <rect
       style="fill:#0096ff;fill-opacity:1;stroke:none;stroke-width:0.292887;stroke-opacity:1"
       id="rect11589-0"
       width="10.113974"
       height="1.3776937"
       x="100.73227"
       y="30.591997" />
    <text
       xml:space="preserve"
       style="font-style:normal;font-weight:normal;font-size:10.5833px;line-height:1.25;font-family:sans-serif;fill:#000000;fill-opacity:1;stroke:none;stroke-width:0.264583"
       x="102.93459"
       y="35.198875"
       id="text2333"><tspan
         sodipodi:role="line"
         id="tspan2331"
         x="102.93459"
         y="35.198875"
         style="stroke-width:0.264583">C</tspan></text>
    <rect
       style="fill:#cae7fb;fill-opacity:1;stroke:none;stroke-width:0.294158;stroke-opacity:1"
       id="rect11589-05"
       width="10.202035"
       height="1.3776937"
       x="82.859833"
       y="38.524624" />
    <text
       xml:space="preserve"
       style="font-style:normal;font-weight:normal;font-size:9.85742px;line-height:1.25;font-family:sans-serif;fill:#000000;fill-opacity:1;stroke:none;stroke-width:0.246436"
       x="83.844559"
       y="44.121906"
       id="text2329"><tspan
         sodipodi:role="line"
         id="tspan2327"
         x="83.844559"
         y="44.121906"
         style="stroke-width:0.246436">B</tspan></text>
    <path
       style="fill:none;stroke:#bf1926;stroke-width:1.05833;stroke-linecap:square;stroke-linejoin:round;stroke-miterlimit:10;stroke-opacity:1"
       d="m -98.902133,75.135193 4.663281,0.02226 0.518143,0.05319 0.518142,0.11503 0.518142,0.25356 0.518143,0.581335 0.518142,1.286358 0.518142,2.585083 0.518143,4.575228 0.518142,6.634636 0.518142,4.235085 0.518143,-1.557235 0.518142,-1.197302 0.518143,0.559071 0.518142,2.154649 0.518142,3.762595 0.518143,5.406414 0.518142,4.96237 0.518142,-1.22699 0.518143,-3.41379 0.518142,-2.03715 0.518142,-0.55907 0.518141,0.73718 0.518143,2.00499 0.518142,3.41627 1.034909,9.90866 0.518142,-1.26533 0.518143,-4.13366 0.518142,-2.82751 0.518142,-1.3482 0.518143,-0.0866 0.518142,1.08598 0.518142,2.33771 0.518143,3.82443 0.518142,5.37302 0.518142,3.44719 0.518143,-3.60922 0.518142,-4.27838 0.518142,-2.66671 0.518143,-1.24802 0.518142,-0.047 0.518142,1.09959 0.518143,2.35626 0.518142,3.88752 0.518142,5.48928 0.518143,2.99697 1.036285,-8.78434 0.518142,-2.77432 0.518142,-1.36058 0.518143,-0.17069 0.518142,0.9623 0.518142,2.20289 0.518143,3.73167 0.518142,5.44475 0.518142,3.45833 0.518143,-4.3563 0.518142,-4.7855 0.518142,-3.03036 0.518143,-1.58445 0.518142,-0.38838 0.518142,0.73471 0.518143,1.94809 0.518142,3.43111 0.518142,5.22088 0.518143,4.3427 0.518142,-3.80589 0.518143,-5.17388 0.518142,-3.39648 0.518142,-1.88996 0.518143,-0.67162 0.518142,0.44651 0.518142,1.62279 0.518143,3.04149 1.036284,9.96557 0.518143,-2.5554 0.518142,-5.57092 0.518142,-3.8566 0.518143,-2.27092 0.518142,-1.01671 0.518142,0.10142 0.518143,1.24431 0.518142,2.58879 0.518142,4.3093 0.518143,5.48928 0.518142,-0.68894 0.518142,-5.8554 0.518143,-4.41938 0.518142,-2.74465 0.518143,-1.44096 0.518142,-0.31541 0.518142,0.79655 0.518143,2.0656 0.518142,3.68714 0.518142,5.31612 0.518143,1.2876 0.518142,-5.89498 0.518142,-5.12317 0.518143,-3.37916 0.518142,-2.02478 0.518142,-0.90045 0.518143,0.1744 0.518142,1.36552 0.518142,2.87081 0.518143,4.61233 0.518142,2.20165 1.036285,-12.46901 0.518142,-4.6581 0.518143,-3.43606 0.518142,-2.56282 0.518142,-1.896137 0.518143,-1.356861 0.518142,-0.895503 0.518142,-0.486094 0.518143,-0.103898 0.518142,0.265929 0.518142,0.639468 0.518143,1.029086 0.518142,1.45705 0.518142,1.94067 0.518143,2.51334 0.518142,3.22703 0.518142,4.17818 0.518143,5.52021 0.518142,7.19123 0.518142,5.06009 0.518143,-3.42122 0.518142,-3.76259 0.518143,-1.99015 0.518142,-0.58504 0.518142,0.55907 0.518143,1.62774 0.518142,2.78669 0.518142,4.22395 1.036285,11.59825 0.518142,-2.77186 0.518143,-4.60614 0.518142,-2.80773 0.518142,-1.28388 0.518143,-0.0705 0.518142,1.02661 0.518142,2.16825 0.518143,3.52883 0.518142,5.27901 0.518142,6.22028 0.518143,-0.64318 0.518142,-5.06008 0.518143,-3.4744 0.518142,-1.82688 0.518142,-0.5368 0.518143,0.5838 0.518142,1.70566 0.518142,2.99078 0.518143,4.63336 0.518142,6.2475 0.518142,2.01364 0.518143,-4.97226 0.518142,-4.09037 0.518142,-2.32411 0.518143,-0.94745 0.5181421,0.21151 0.5181423,1.3247 0.5181424,2.55169 0.5181423,4.08542 0.5181424,5.9024 0.5181423,4.24251 0.5181424,-4.07182 0.5181423,-4.62594 0.5181424,-2.79288 0.5181423,-1.31109 0.5181424,-0.1039 0.5181423,1.01424 0.5181424,2.2066 0.5181423,3.65499 1.0349054,11.00701 0.5181423,-2.47871 0.51814236,-4.9834 0.51814235,-3.1961 0.51814234,-1.61042 0.51814235,-0.34386 0.5181424,0.79532 0.5181423,1.97654 0.5181424,3.3705 0.5181423,5.14296 0.5181424,5.99145 0.5181423,-0.919 0.5181424,-5.06132 0.5181423,-3.44967 0.5181424,-1.791 0.5181423,-0.47744 0.5181424,0.68029 0.5181423,1.84666 0.5181424,3.17384 0.5181423,4.76447 0.5181423,5.49052 0.5181424,-0.0359 0.5181423,-4.48369 0.5181424,-3.40885 0.518142,-1.91222 0.518143,-0.72605 0.518142,0.2449 0.518142,1.0934 0.518143,1.86151 0.518142,2.50469 0.518142,2.72114 0.518143,1.6735 0.518142,-0.86087 0.518142,-2.70506 0.518143,-2.97841 0.518142,-2.55293 0.518143,-1.93201 0.518142,-1.23935 0.518142,-0.46754 0.518143,0.42177 0.518142,1.50158 0.518142,2.78175 0.518143,3.37174 0.518142,-0.63947 1.036285,-10.13996 0.518142,-3.56717 0.518142,-2.3711 0.518143,-1.30739 0.518142,-0.24985 0.518142,0.94003 0.518143,2.44037 0.518142,4.05574 0.518142,1.17627 1.036285,-13.17032 0.518143,-5.00566 0.518142,-3.82444 0.518142,-2.96728 0.518143,-2.30679 0.518142,-1.76255 0.518142,-1.29131 0.518143,-0.86582 0.518142,-0.4663 0.518142,-0.0779 0.518143,0.30922 0.518142,0.71491 0.518142,1.14783 0.518143,1.63268 0.518142,2.20042 0.518142,2.90543 0.518143,3.83805 0.518142,5.14914 0.518142,6.76822 0.518143,4.77065 0.518142,-3.56469 0.518143,-4.08913 0.518142,-2.35997 0.518142,-0.97343 0.518143,0.1509 0.518142,1.18864 0.518142,2.29318 0.518143,3.63025 1.036284,10.82272 0.518143,-1.68216 0.518142,-4.89558 0.518142,-3.35937 0.518143,-1.84172 0.518142,-0.63575 0.518142,0.42548 0.518143,1.48921 0.518142,2.70011 0.518142,4.2054 0.518143,5.56968 0.518142,1.92583 0.518143,-4.62718 0.518142,-4.24992 0.518142,-2.64446 0.518143,-1.33336 0.518142,-0.23129 0.518142,0.80644 0.518143,1.92088 0.518142,3.25795 1.036285,9.45967 0.518142,-2.3006 0.518142,-4.94753 0.518143,-3.50903 0.518142,-2.05694 0.518142,-0.87695 0.518143,0.1744 0.518142,1.23441 0.518142,2.44284 0.518143,3.93576 0.518142,5.24438 0.518143,1.59064 1.036284,-9.20612 0.518143,-2.84112 0.518142,-1.53497 0.518142,-0.43291 0.518143,0.61473 0.518142,1.7403 0.518142,3.10086 1.036285,9.24693 0.518142,-2.66548 0.518143,-5.21717 0.518142,-3.6958 0.518142,-2.22021 0.518143,-1.02537 0.518142,0.042 0.518142,1.12309 0.518143,2.37234 0.518142,3.94195 0.518143,5.31735 0.518142,1.05135 0.518142,-5.32849 0.518143,-4.59872 0.518142,-2.94502 0.518142,-1.62279 0.518143,-0.50589 0.518142,0.56279 0.518142,1.72916 0.518143,3.16889 0.518142,4.90424 0.518142,4.14232 0.518143,-3.84052 0.518142,-5.446 0.518142,-3.72672 0.518143,-2.24618 0.518142,-1.05382 0.518142,0.0247 0.516763,1.13793 0.518143,2.45521 0.518142,4.13861 0.518142,5.29138 0.518143,-0.70873 0.518142,-5.93704 0.518143,-4.58017 0.518142,-2.93018 0.518142,-1.6401 0.518143,-0.53681 0.518142,0.5467 0.518142,1.76503 0.518143,3.30743 0.518142,5.04276 0.518142,2.43543 1.036285,-11.08494 0.518142,-3.75394 0.518143,-2.36244 0.518142,-1.22823 0.518142,-0.17563 0.518143,0.95734 0.518142,2.35255 0.518142,4.11634 0.518143,3.77002 0.518142,-4.6952 0.518143,-6.84367 0.518142,-5.18749 0.518142,-3.8566 0.518143,-2.91533 0.518142,-2.2066 0.518142,-1.63886 0.518143,-1.15525 0.518142,-0.72358 0.518142,-0.32406 0.518143,0.0606 0.518142,0.44404 0.518142,0.83737 0.518143,1.25543 0.518142,1.72051 0.518142,2.25483 0.518143,2.90791 0.518142,3.75518 0.518139,4.93516 1.03629,13.39543 0.51814,-1.15525 0.51814,-4.34764 0.51815,-2.65806 0.51814,-1.12061 0.51814,0.0841 0.51814,1.15525 0.51814,2.2536 0.51815,3.54985 0.51814,5.22707 0.51814,6.49116 0.51814,0.66173 0.51815,-4.91042 0.51263,-3.53501"
       id="path13788" />
    <path
       style="fill:none;stroke:#bf1926;stroke-width:0.8;stroke-linejoin:bevel;stroke-dasharray:none;stroke-dashoffset:0.529164;stroke-opacity:1;marker-end:url(#TriangleStart);paint-order:stroke markers fill"
       d="M 12.231848,-62.187803 80.776147,24.424092"
       id="path42943"
       sodipodi:nodetypes="cc" />
    <path
       style="fill:none;stroke:#bf1926;stroke-width:0.8;stroke-linejoin:bevel;stroke-dasharray:none;stroke-dashoffset:0.529164;stroke-opacity:1;marker-end:url(#TriangleStart-2);paint-order:stroke markers fill"
       d="M 81.833676,26.33809 168.44557,-42.206206"
       id="path42943-0"
       sodipodi:nodetypes="cc" />
    <path
       style="fill:none;stroke:#bf1926;stroke-width:0.8;stroke-linejoin:bevel;stroke-dasharray:none;stroke-dashoffset:0.529164;stroke-opacity:1;marker-end:url(#TriangleStart-2-2);paint-order:stroke markers fill"
       d="M 92.943977,39.588658 179.55587,-28.955638"
       id="path42943-0-7"
       sodipodi:nodetypes="cc" />
    <path
       style="fill:none;stroke:#bf1926;stroke-width:0.8;stroke-linejoin:bevel;stroke-dasharray:none;stroke-dashoffset:0.529164;stroke-opacity:1;marker-end:url(#TriangleStart-2-2-5);paint-order:stroke markers fill"
       d="M 102.71561,52.24256 189.3275,-16.301736"
       id="path42943-0-7-7"
       sodipodi:nodetypes="cc" />
    <path
       style="fill:none;stroke:#bf1926;stroke-width:0.8;stroke-linejoin:bevel;stroke-dasharray:none;stroke-dashoffset:0.529164;stroke-opacity:1;marker-end:url(#TriangleStart-2-2-5-4);paint-order:stroke markers fill"
       d="M 113.3164,65.967084 199.92829,-2.5772157"
       id="path42943-0-7-7-7"
       sodipodi:nodetypes="cc" />
    <path
       style="fill:none;stroke:#bf1926;stroke-width:0.8;stroke-linejoin:bevel;stroke-dasharray:none;stroke-dashoffset:0.529164;stroke-opacity:1;marker-end:url(#TriangleStart-2-2-5-4-1);paint-order:stroke markers fill"
       d="M 124.72891,79.340285 211.34079,10.795987"
       id="path42943-0-7-7-7-1"
       sodipodi:nodetypes="cc" />
    <path
       style="fill:none;stroke:#bf1926;stroke-width:0.8;stroke-linejoin:bevel;stroke-dasharray:none;stroke-dashoffset:0.529164;stroke-opacity:1;marker-end:url(#TriangleStart-8);paint-order:stroke markers fill"
       d="m 81.898933,25.840793 9.416129,11.881012"
       id="path42943-9"
       sodipodi:nodetypes="cc" />
    <path
       style="fill:none;stroke:#bf1926;stroke-width:0.8;stroke-linejoin:bevel;stroke-dasharray:none;stroke-dashoffset:0.529164;stroke-opacity:1;marker-end:url(#TriangleStart-8-7);paint-order:stroke markers fill"
       d="m 92.474454,39.08333 9.416126,11.881012"
       id="path42943-9-9"
       sodipodi:nodetypes="cc" />
    <path
       style="fill:none;stroke:#bf1926;stroke-width:0.8;stroke-linejoin:bevel;stroke-dasharray:none;stroke-dashoffset:0.529164;stroke-opacity:1;marker-end:url(#TriangleStart-8-7-3);paint-order:stroke markers fill"
       d="m 102.71561,52.24256 9.41613,11.881012"
       id="path42943-9-9-4"
       sodipodi:nodetypes="cc" />
    <path
       style="fill:none;stroke:#bf1926;stroke-width:0.8;stroke-linejoin:bevel;stroke-dasharray:none;stroke-dashoffset:0.529164;stroke-opacity:1;marker-end:url(#TriangleStart-8-7-3-3);paint-order:stroke markers fill"
       d="m 113.30003,65.546511 9.41613,11.881012"
       id="path42943-9-9-4-1"
       sodipodi:nodetypes="cc" />
  </g>
</svg>
