<?xml version="1.0" encoding="UTF-8" standalone="no"?>
<svg
   xmlns:dc="http://purl.org/dc/elements/1.1/"
   xmlns:cc="http://creativecommons.org/ns#"
   xmlns:rdf="http://www.w3.org/1999/02/22-rdf-syntax-ns#"
   xmlns:svg="http://www.w3.org/2000/svg"
   xmlns="http://www.w3.org/2000/svg"
   xmlns:sodipodi="http://sodipodi.sourceforge.net/DTD/sodipodi-0.dtd"
   xmlns:inkscape="http://www.inkscape.org/namespaces/inkscape"
   width="103.02036mm"
   height="27.180019mm"
   viewBox="0 0 103.02036 27.180019"
   version="1.1"
   id="svg4951"
   inkscape:version="1.0.1 (3bc2e813f5, 2020-09-07)"
   sodipodi:docname="correlationlength.svg"
   inkscape:export-filename="/home/sjoerd/correlationlength.png"
   inkscape:export-xdpi="215.98061"
   inkscape:export-ydpi="215.98061">
  <defs
     id="defs4945">
    <marker
       style="overflow:visible"
       id="marker6110"
       refX="0"
       refY="0"
       orient="auto"
       inkscape:stockid="Arrow1Send"
       inkscape:isstock="true">
      <path
         transform="matrix(-0.2,0,0,-0.2,-1.2,0)"
         style="fill:#000000;fill-opacity:1;fill-rule:evenodd;stroke:#000000;stroke-width:1pt;stroke-opacity:1"
         d="M 0,0 5,-5 -12.5,0 5,5 Z"
         id="path6108" />
    </marker>
    <marker
       style="overflow:visible"
       id="marker6064"
       refX="0"
       refY="0"
       orient="auto"
       inkscape:stockid="Arrow1Sstart"
       inkscape:isstock="true">
      <path
         transform="matrix(0.2,0,0,0.2,1.2,0)"
         style="fill:#000000;fill-opacity:1;fill-rule:evenodd;stroke:#000000;stroke-width:1pt;stroke-opacity:1"
         d="M 0,0 5,-5 -12.5,0 5,5 Z"
         id="path6062" />
    </marker>
    <marker
       style="overflow:visible"
       id="Arrow1Send"
       refX="0"
       refY="0"
       orient="auto"
       inkscape:stockid="Arrow1Send"
       inkscape:isstock="true"
       inkscape:collect="always">
      <path
         transform="matrix(-0.2,0,0,-0.2,-1.2,0)"
         style="fill:#000000;fill-opacity:1;fill-rule:evenodd;stroke:#000000;stroke-width:1pt;stroke-opacity:1"
         d="M 0,0 5,-5 -12.5,0 5,5 Z"
         id="path2831" />
    </marker>
    <marker
       style="overflow:visible"
       id="Arrow1Sstart"
       refX="0"
       refY="0"
       orient="auto"
       inkscape:stockid="Arrow1Sstart"
       inkscape:isstock="true"
       inkscape:collect="always">
      <path
         transform="matrix(0.2,0,0,0.2,1.2,0)"
         style="fill:#000000;fill-opacity:1;fill-rule:evenodd;stroke:#000000;stroke-width:1pt;stroke-opacity:1"
         d="M 0,0 5,-5 -12.5,0 5,5 Z"
         id="path2828" />
    </marker>
    <marker
       style="overflow:visible"
       id="Arrow1Lstart"
       refX="0"
       refY="0"
       orient="auto"
       inkscape:stockid="Arrow1Lstart"
       inkscape:isstock="true">
      <path
         transform="matrix(0.8,0,0,0.8,10,0)"
         style="fill:#000000;fill-opacity:1;fill-rule:evenodd;stroke:#000000;stroke-width:1pt;stroke-opacity:1"
         d="M 0,0 5,-5 -12.5,0 5,5 Z"
         id="path2816" />
    </marker>
  </defs>
  <sodipodi:namedview
     id="base"
     pagecolor="#ffffff"
     bordercolor="#666666"
     borderopacity="1.0"
     inkscape:pageopacity="0.0"
     inkscape:pageshadow="2"
     inkscape:zoom="3.959798"
     inkscape:cx="324.49684"
     inkscape:cy="58.633671"
     inkscape:document-units="mm"
     inkscape:current-layer="layer1"
     inkscape:document-rotation="0"
     showgrid="false"
     fit-margin-top="0"
     fit-margin-left="0"
     fit-margin-right="0"
     fit-margin-bottom="0"
     inkscape:window-width="1920"
     inkscape:window-height="1053"
     inkscape:window-x="0"
     inkscape:window-y="27"
     inkscape:window-maximized="1">
    <inkscape:grid
       type="xygrid"
       id="grid5567"
       originx="-9.0626019"
       originy="-82.287844" />
  </sodipodi:namedview>
  <metadata
     id="metadata4948">
    <rdf:RDF>
      <cc:Work
         rdf:about="">
        <dc:format>image/svg+xml</dc:format>
        <dc:type
           rdf:resource="http://purl.org/dc/dcmitype/StillImage" />
        <dc:title></dc:title>
      </cc:Work>
    </rdf:RDF>
  </metadata>
  <g
     inkscape:groupmode="layer"
     id="layer2"
     inkscape:label="Lager 2"
     transform="translate(-9.0626016,-82.287842)" />
  <g
     inkscape:groupmode="layer"
     id="layer3"
     inkscape:label="Lager 3"
     transform="translate(-9.0626016,-82.287842)">
    <path
       style="fill:#cae7fb;fill-opacity:1;stroke:#000000;stroke-width:0.264583px;stroke-linecap:butt;stroke-linejoin:miter;stroke-opacity:1"
       d="M 9.2604166,91.281249 V 107.15625 H 58.208333 V 90.4875 Z"
       id="path5694"
       sodipodi:nodetypes="ccccc" />
  </g>
  <g
     inkscape:label="Lager 1"
     inkscape:groupmode="layer"
     id="layer1"
     transform="translate(-9.0626016,-82.287842)">
    <path
       style="fill:#0096ff;fill-opacity:1;stroke:#000000;stroke-width:0.264583px;stroke-linecap:butt;stroke-linejoin:miter;stroke-opacity:1"
       d="m 58.208333,95.249999 c -0.493726,-0.132608 -0.852584,-0.765894 -1.585942,-0.0089 -0.684331,0.245566 -1.112984,0.04517 -1.625393,-0.0091 -0.78143,-0.341859 -1.375758,-0.310021 -1.795389,0.07074 -1.071569,0.65668 -1.218302,0.136263 -1.636338,-0.147024 -0.600088,-0.276575 -1.115408,-0.34543 -2.270695,0.117304 -1.076931,0.444502 -1.251109,0.07771 -1.732283,-0.01318 -1.931207,-1.007226 -1.948703,-0.182889 -2.657534,-0.02021 -0.83089,0.633826 -1.667771,0.434534 -2.50648,-0.01906 -0.974571,-0.482357 -1.898811,-0.636198 -2.866581,0.01462 -0.678682,0.456408 -1.718286,0.44125 -2.3101,0.01357 -0.820115,-0.592661 -1.820534,-0.362905 -2.866191,0.01849 -1.131789,0.412807 -2.565579,-0.599911 -3.747831,0.02378 -1.191877,0.628772 -2.458711,0.611241 -3.889022,0.02079 -0.951519,-0.392801 -2.325035,0.648569 -3.397551,0.01473 -1.21302,-0.716878 -2.094683,-0.07105 -3.227356,0.01173 -1.238247,0.0905 -1.519532,0.381893 -2.948117,0.0873 -1.210492,-0.24962 -1.423056,-0.108253 -2.574019,0.0086 0.06675,0.05368 -1.462071,-0.443124 -2.608067,-0.17028 -1.577573,-0.01208 -1.50926,-0.45369 -2.7030274,-0.01391 v 2.645833 c 0.8702244,0.07911 1.5447304,0.619545 2.7113564,0 1.084687,-0.798927 1.719039,-0.04713 2.55803,0 1.023404,0.168167 1.754243,0.243606 2.698256,0 1.029725,-0.428676 1.987511,-0.359146 2.903477,0 1.720496,0.206063 2.638549,0.192371 3.549887,-0.1135 1.11022,-0.740606 1.964998,-0.424947 3.339676,0.1135 1.600261,0.424272 2.670898,0.571383 3.866865,0 1.253773,-0.862778 2.18272,-0.385873 3.13374,0 2.095625,0.894578 2.165122,0.08884 3.088886,0 1.182417,-0.384835 2.38008,-0.633295 3.67632,0 3.685534,0.726087 2.182741,0.574338 4.728676,0 1.894801,-0.972366 2.920421,-0.459597 4.164545,-0.01766 0.808357,0.287142 1.655441,0.409879 2.847185,0.0038 0.980716,-0.334134 1.919706,-0.445808 3.097542,0.0095 0.794577,0.307128 1.709612,0.0042 2.583475,0.0044 z"
       id="path5592"
       sodipodi:nodetypes="cccccccccsssssssscccccccccccccccssscc" />
    <path
       style="fill:#0096ff;fill-opacity:1;stroke:#000000;stroke-width:0.264583px;stroke-linecap:butt;stroke-linejoin:miter;stroke-opacity:1"
       d="m 58.20378,100.88268 c -0.493725,-0.13261 -0.85258,-0.7659 -1.585941,-0.009 -0.684332,0.24556 -1.112983,0.0452 -1.625394,-0.009 -0.781431,-0.34186 -1.133523,-0.12061 -1.795388,0.0707 -0.803233,0.23133 -0.813414,0.16612 -1.605354,-0.0122 -0.601134,-0.16716 -1.146392,-0.48025 -2.30168,-0.0175 -1.076931,0.4445 -1.251108,0.0777 -1.732282,-0.0132 -1.931207,-1.00723 -1.948704,-0.18289 -2.657533,-0.0202 -0.830893,0.63382 -1.667772,0.43453 -2.506483,-0.0191 -0.974569,-0.48236 -1.898809,-0.6362 -2.866581,0.0146 -0.67868,0.4564 -1.718286,0.44125 -2.310098,0.0136 -0.820116,-0.59267 -1.820534,-0.36291 -2.866191,0.0185 -1.131789,0.4128 -2.565579,-0.59992 -3.747831,0.0238 -1.191877,0.62877 -2.458711,0.61124 -3.889023,0.0208 -0.951518,-0.39281 -2.325035,0.64856 -3.39755,0.0147 -1.21302,-0.71688 -2.094684,-0.071 -3.227356,0.0117 -1.238248,0.0905 -1.519533,0.38189 -2.948118,0.0873 -1.210493,-0.24962 -1.423056,-0.10826 -2.57402,0.009 0.06675,0.0537 -1.46207,-0.44313 -2.608067,-0.17028 -1.577573,-0.0121 -1.50926,-0.45369 -2.7030269,-0.0139 v 2.64583 c 0.8702239,0.0791 1.5447299,0.61954 2.7113569,0 1.084686,-0.79893 1.719038,-0.0471 2.55803,0 0.806473,0.50773 1.754243,0.2436 2.698256,0 1.029725,-0.42868 1.987511,-0.35915 2.903477,0 1.702049,0.61874 1.72704,0.15963 3.143748,-0.1135 1.995919,-0.28321 3.478674,0.14701 3.745816,0.1135 1.169888,0.58391 2.444254,0.65545 3.866865,0 1.253773,-0.86278 2.18272,-0.38588 3.13374,0 2.095624,0.89457 2.165122,0.0888 3.088886,0 1.182417,-0.38484 2.38008,-0.6333 3.676319,0 3.685535,0.72608 2.182741,0.57433 4.728676,0 1.894803,-0.97237 2.92042,-0.4596 4.164547,-0.0177 0.808357,0.28715 1.655439,0.40988 2.847183,0.004 0.980716,-0.33413 1.919706,-0.44581 3.097544,0.01 0.794575,0.30712 1.70961,0.004 2.583473,0.004 z"
       id="path5592-8"
       sodipodi:nodetypes="cccccccccsssssssscccccccccccccccssscc" />
    <path
       style="fill:#0096ff;fill-opacity:1;stroke:#000000;stroke-width:0.264583px;stroke-linecap:butt;stroke-linejoin:miter;stroke-opacity:1"
       d="m 58.183044,106.20446 c -0.493725,-0.13261 -0.85258,-0.7659 -1.585941,-0.009 -0.684332,0.24556 -1.112983,0.0452 -1.625394,-0.009 -0.781431,-0.34186 -1.133523,-0.12061 -1.795388,0.0707 -0.803233,0.23133 -0.813414,0.16612 -1.605354,-0.0122 -0.601134,-0.16716 -1.146392,-0.48025 -2.30168,-0.0175 -1.076931,0.4445 -1.251108,0.0777 -1.732282,-0.0132 -1.931207,-1.00723 -1.948704,-0.18289 -2.657533,-0.0202 -0.830893,0.63382 -1.667772,0.43453 -2.506483,-0.0191 -0.974569,-0.48236 -1.898809,-0.6362 -2.866581,0.0146 -0.67868,0.4564 -1.718286,0.44125 -2.310098,0.0136 -0.820116,-0.59267 -1.820534,-0.36291 -2.866191,0.0185 -1.131789,0.4128 -2.565579,-0.59992 -3.747831,0.0238 -1.191877,0.62877 -2.458711,0.61124 -3.889023,0.0208 -0.951518,-0.39281 -2.325035,0.64856 -3.39755,0.0147 -1.21302,-0.71688 -2.094684,-0.071 -3.227356,0.0117 -1.238247,0.0905 -1.519533,0.38189 -2.948117,0.0873 -1.210494,-0.24962 -1.423056,-0.10826 -2.574021,0.009 0.06675,0.0537 -1.46207,-0.44313 -2.608066,-0.17028 -1.577573,-0.0121 -1.50926,-0.45369 -2.7030268,-0.0139 v 2.64583 c 0.8702238,0.0791 1.5447298,0.61954 2.7113568,0 1.084685,-0.79893 1.719037,-0.0471 2.55803,0 0.806473,0.50773 1.754242,0.2436 2.698256,0 1.029725,-0.42868 1.98751,-0.35915 2.903476,0 1.702049,0.61874 1.72704,0.15963 3.143748,-0.1135 1.995919,-0.28321 3.478674,0.14701 3.745816,0.1135 1.169888,0.58391 2.444254,0.65545 3.866865,0 1.253773,-0.86278 2.18272,-0.38588 3.13374,0 2.095624,0.89457 2.165122,0.0888 3.088886,0 1.182417,-0.38484 2.38008,-0.6333 3.676319,0 3.685535,0.72608 2.182741,0.57433 4.728676,0 1.894803,-0.97237 2.92042,-0.4596 4.164547,-0.0177 0.808357,0.28715 1.655439,0.40988 2.847183,0.004 0.980716,-0.33413 1.919706,-0.44581 3.097544,0.01 0.794575,0.30712 1.70961,0.004 2.583473,0.004 z"
       id="path5592-8-8"
       sodipodi:nodetypes="cccccccccsssssssscccccccccccccccssscc" />
    <path
       style="fill:#0096ff;fill-opacity:1;stroke:#000000;stroke-width:0.264583px;stroke-linecap:butt;stroke-linejoin:miter;stroke-opacity:1"
       d="m 58.14281,89.42885 c -0.493725,-0.13261 -0.85258,-0.765899 -1.585941,-0.009 -0.684332,0.24556 -1.112983,0.0452 -1.625394,-0.009 -0.781431,-0.34186 -1.133523,-0.12061 -1.795388,0.0707 -0.803233,0.23133 -0.813414,0.16612 -1.605354,-0.0122 -0.601134,-0.16716 -1.146392,-0.48025 -2.30168,-0.0175 -1.076931,0.4445 -1.251108,0.0777 -1.732282,-0.0132 -1.931207,-1.007231 -1.948704,-0.18289 -2.657533,-0.0202 -0.830893,0.63382 -1.667772,0.43453 -2.506483,-0.0191 -0.974569,-0.48236 -1.898809,-0.6362 -2.866581,0.0146 -0.67868,0.4564 -1.718286,0.44125 -2.310098,0.0136 -0.820116,-0.59267 -1.820534,-0.36291 -2.866191,0.0185 -1.131789,0.4128 -2.565579,-0.59992 -3.747831,0.0238 -1.191877,0.62877 -2.458711,0.61124 -3.889023,0.0208 -0.951518,-0.39281 -2.325035,0.64856 -3.39755,0.0147 -1.21302,-0.71688 -2.094684,-0.071 -3.227356,0.0117 -1.238248,0.0905 -1.519533,0.38189 -2.948118,0.0873 -1.210493,-0.24962 -1.423056,-0.10826 -2.57402,0.009 0.06675,0.0537 -1.46207,-0.44313 -2.608067,-0.17028 -1.577573,-0.0121 -1.50926,-0.45369 -2.7030269,-0.0139 V 92.075 c 0.8702239,0.0791 1.5447299,0.61954 2.7113569,0 1.084686,-0.79893 1.719038,-0.0471 2.55803,0 0.806473,0.50773 1.754243,0.2436 2.698256,0 1.029725,-0.428679 1.987511,-0.35915 2.903477,0 1.702049,0.61874 1.72704,0.15963 3.143748,-0.1135 1.995919,-0.28321 3.478674,0.14701 3.745816,0.1135 1.169888,0.58391 2.444254,0.65545 3.866865,0 1.253773,-0.86278 2.18272,-0.38588 3.13374,0 2.095624,0.89457 2.165122,0.0888 3.088886,0 1.182417,-0.38484 2.38008,-0.6333 3.676319,0 3.685535,0.72608 2.182741,0.574331 4.728676,0 1.894803,-0.97237 2.92042,-0.459599 4.164547,-0.0177 0.808357,0.28715 1.655439,0.40988 2.847183,0.004 0.980716,-0.33413 1.919706,-0.44581 3.097544,0.01 0.794575,0.30712 1.70961,0.004 2.583473,0.004 0,-0.88215 0.241551,-1.915591 0,-2.64645 z"
       id="path5592-8-3"
       sodipodi:nodetypes="cccccccccsssssssscccccccccccccccssscc" />
    <path
       style="fill:#cae7fb;fill-opacity:1;stroke:#000000;stroke-width:0.264583px;stroke-linecap:butt;stroke-linejoin:miter;stroke-opacity:1"
       d="M 63.002757,90.487501 V 106.3625 H 111.95067 V 89.693751 Z"
       id="path5694-6"
       sodipodi:nodetypes="ccccc" />
    <path
       style="fill:#0096ff;fill-opacity:1;stroke:#000000;stroke-width:0.264583px;stroke-linecap:butt;stroke-linejoin:miter;stroke-opacity:1"
       d="m 111.95067,94.456251 c -6.87864,1.400797 -7.13908,0.81596 -13.305092,0.225226 -2.316354,-0.267704 -5.902289,-1.186055 -10.54783,-0.207936 -5.009045,0.551661 -2.655486,0.178606 -6.773122,-0.0388 -1.75851,0.198967 -5.717919,-0.621463 -9.450797,0.377639 -2.928513,0.443945 -8.120035,-0.552957 -8.871072,-0.356101 v 2.645829 c 5.987048,2.113906 12.395111,-1.898882 17.760683,0 4.730975,1.312105 7.846982,-0.515976 14.07625,0.496988 11.18918,1.025341 12.76814,0.121373 17.11098,-0.497688 z"
       id="path5592-89"
       sodipodi:nodetypes="ccccccccccc" />
    <path
       style="fill:#0096ff;fill-opacity:1;stroke:#000000;stroke-width:0.264583px;stroke-linecap:butt;stroke-linejoin:miter;stroke-opacity:1"
       d="m 111.94823,100.09124 c -6.73504,1.48221 -6.09683,0.24346 -13.614129,0.0213 -2.367237,0.0618 -5.592202,-0.980775 -10.23879,-0.004 -5.008649,0.55055 -2.449145,-0.401705 -6.773122,-0.0388 -1.75851,0.19897 -5.717919,-0.621458 -9.450798,0.37764 -2.928513,0.44394 -8.120035,-0.552955 -8.871072,-0.3561 v 2.64583 c 5.987048,2.11391 12.395112,-1.89888 17.760684,0 4.730975,1.31211 10.072025,-0.50595 13.76581,0 11.189177,1.02534 13.078577,0.61836 17.421417,-6.9e-4 z"
       id="path5592-89-4"
       sodipodi:nodetypes="ccccccccccc" />
    <path
       style="fill:#0096ff;fill-opacity:1;stroke:#000000;stroke-width:0.264583px;stroke-linecap:butt;stroke-linejoin:miter;stroke-opacity:1"
       d="m 111.95067,105.83329 c -6.87866,1.40076 -8.03133,-0.89329 -13.220404,0.205 -3.825713,0.51635 -5.98593,-1.16448 -10.632518,-0.1877 -5.008649,0.55055 -2.449145,-0.40171 -6.773122,-0.0388 -1.75851,0.19897 -5.717919,-0.62146 -9.450797,0.37764 -2.928513,0.44395 -8.120035,-0.55295 -8.871072,-0.3561 v 2.64583 c 5.987048,2.11391 12.395111,-1.89888 17.760683,0 4.718028,1.33082 8.59628,0.55065 13.76581,0 11.18918,1.02534 13.07858,0.61836 17.42142,-6.9e-4 z"
       id="path5592-89-9"
       sodipodi:nodetypes="ccccccccccc" />
    <path
       style="fill:#0096ff;fill-opacity:1;stroke:#000000;stroke-width:0.264583px;stroke-linecap:butt;stroke-linejoin:miter;stroke-opacity:1"
       d="m 111.94497,89.28776 c -6.73679,0.771999 -7.3069,-0.9252 -13.303582,-0.01037 -4.192556,1.181909 -4.111712,0.0041 -7.955568,-0.01959 -4.965343,1.023176 -4.995685,0.161119 -9.366904,0.0084 -2.835368,0.521698 -5.88812,-0.570454 -9.450797,0.377639 -2.928513,0.443945 -8.120035,-0.552957 -8.871072,-0.356101 v 2.645829 c 5.987048,2.113906 12.395111,-1.898882 17.760683,0 5.112377,1.522174 7.846982,-0.515976 14.076251,0.496988 11.189179,1.025341 12.768139,0.121373 17.110989,-0.497688 z"
       id="path5592-89-5"
       sodipodi:nodetypes="ccccccccccc" />
    <path
       style="fill:none;stroke:#000000;stroke-width:0.234702;stroke-linecap:butt;stroke-linejoin:miter;stroke-miterlimit:4;stroke-dasharray:none;stroke-opacity:1;marker-start:url(#Arrow1Sstart);marker-end:url(#Arrow1Send)"
       d="m 46.43598,87.794506 h 4.102027"
       id="path5795" />
    <path
       style="fill:none;stroke:#000000;stroke-width:0.264583px;stroke-linecap:butt;stroke-linejoin:miter;stroke-opacity:1;marker-start:url(#marker6064);marker-end:url(#marker6110)"
       d="M 91.122406,87.826928 H 101.86589"
       id="path6060" />
    <text
       xml:space="preserve"
       style="font-style:normal;font-weight:normal;font-size:4.23333px;line-height:1.25;font-family:sans-serif;fill:#000000;fill-opacity:1;stroke:none;stroke-width:0.264583"
       x="47.204632"
       y="85.504181"
       id="text6162-7"><tspan
         sodipodi:role="line"
         id="tspan6160-2"
         x="47.204632"
         y="85.504181"
         style="font-size:4.23333px;stroke-width:0.264583">ξ<tspan
   style="font-size:65%;baseline-shift:sub"
   id="tspan6182">∥</tspan></tspan></text>
    <text
       xml:space="preserve"
       style="font-style:normal;font-weight:normal;font-size:4.23333px;line-height:1.25;font-family:sans-serif;fill:#000000;fill-opacity:1;stroke:none;stroke-width:0.264583"
       x="95.007195"
       y="85.927551"
       id="text6162-7-7"><tspan
         sodipodi:role="line"
         id="tspan6160-2-2"
         x="95.007195"
         y="85.927551"
         style="font-size:4.23333px;stroke-width:0.264583">ξ<tspan
   style="font-size:2.75167px;baseline-shift:sub;stroke-width:0.264583"
   id="tspan6182-2">∥</tspan></tspan></text>
  </g>
</svg>
