<?xml version="1.0" encoding="UTF-8" standalone="no"?>
<svg
   xmlns:dc="http://purl.org/dc/elements/1.1/"
   xmlns:cc="http://creativecommons.org/ns#"
   xmlns:rdf="http://www.w3.org/1999/02/22-rdf-syntax-ns#"
   xmlns:svg="http://www.w3.org/2000/svg"
   xmlns="http://www.w3.org/2000/svg"
   xmlns:sodipodi="http://sodipodi.sourceforge.net/DTD/sodipodi-0.dtd"
   xmlns:inkscape="http://www.inkscape.org/namespaces/inkscape"
   sodipodi:docname="diffusescattering.svg"
   inkscape:version="1.0 (4035a4fb49, 2020-05-01)"
   inkscape:export-ydpi="96"
   inkscape:export-xdpi="96"
   inkscape:export-filename="/home/sjoerd/correlatedscattering.png"
   id="svg8"
   version="1.1"
   viewBox="0 0 256.45224 72.658363"
   height="72.658363mm"
   width="256.45221mm">
  <defs
     id="defs2" />
  <sodipodi:namedview
     inkscape:window-maximized="1"
     inkscape:window-y="27"
     inkscape:window-x="1920"
     inkscape:window-height="1413"
     inkscape:window-width="2560"
     fit-margin-bottom="0"
     fit-margin-right="0"
     fit-margin-left="0"
     fit-margin-top="0"
     showgrid="false"
     inkscape:document-rotation="0"
     inkscape:current-layer="layer1"
     inkscape:document-units="mm"
     inkscape:cy="205.54211"
     inkscape:cx="475.45431"
     inkscape:zoom="1.4142136"
     inkscape:pageshadow="2"
     inkscape:pageopacity="0.0"
     borderopacity="1.0"
     bordercolor="#666666"
     pagecolor="#ffffff"
     id="base">
    <inkscape:grid
       originy="-103.57006"
       originx="-2.6421069"
       id="grid29"
       type="xygrid" />
  </sodipodi:namedview>
  <metadata
     id="metadata5">
    <rdf:RDF>
      <cc:Work
         rdf:about="">
        <dc:format>image/svg+xml</dc:format>
        <dc:type
           rdf:resource="http://purl.org/dc/dcmitype/StillImage" />
        <dc:title></dc:title>
      </cc:Work>
    </rdf:RDF>
  </metadata>
  <g
     transform="translate(54.021178,21.193286)"
     inkscape:label="low"
     id="layer2"
     inkscape:groupmode="layer">
    <path
       transform="translate(-56.66328,-124.76335)"
       sodipodi:nodetypes="cccccccc"
       id="path1042"
       d="m 126.83908,111.42372 41.54149,53.31318 6.13093,-0.0174 16.34231,-21.66081 -0.40058,-39.12146 -38.31782,0.044 0,39.68752 16.2452,21.06812"
       style="fill:#c5a037;fill-opacity:1;stroke:#000000;stroke-width:0.4572px;stroke-linecap:butt;stroke-linejoin:miter;stroke-opacity:1" />
  </g>
  <g
     transform="translate(-2.6421016,-103.57006)"
     id="layer1"
     inkscape:groupmode="layer"
     inkscape:label="Layer 1">
    <path
       sodipodi:nodetypes="csssssc"
       id="path10"
       d="m 3.097669,144.91164 c 10.543771,-2.2106 8.36964,0.0144 24.65709,1.08864 3.666002,0.24192 9.955374,-1.50977 14.543902,-1.33064 4.730748,0.18465 10.546941,1.72825 15.703737,1.95038 4.285614,0.1846 9.351196,-1.50223 13.654801,-1.45524 7.311422,0.0798 16.413437,1.76069 22.963176,1.85569 7.212385,0.10452 8.301035,-1.24153 13.963805,-2.13458"
       style="fill:none;stroke:#000000;stroke-width:0.519955px;stroke-linecap:butt;stroke-linejoin:miter;stroke-opacity:1" />
    <path
       style="fill:none;stroke:#000000;stroke-width:0.519955px;stroke-linecap:butt;stroke-linejoin:miter;stroke-opacity:1"
       d="m 3.3860637,153.36131 c 3.7026851,-0.7763 5.7165456,-0.3618 6.6373263,-0.26449 1.701236,0.17978 0.871787,-0.67133 11.439525,0.0257 3.666011,0.2418 10.006692,-2.46991 14.59522,-2.29079 4.730748,0.18468 8.708467,0.49822 13.865267,0.72036 3.514281,0.15138 4.619069,2.44299 8.087141,2.07994 0.761192,-0.0797 1.673714,-0.76697 2.44707,-0.81115 7.644186,-0.43668 3.358152,-0.22288 7.91963,-0.22824 0.621179,-7.3e-4 1.996283,0.5831 10.437336,1.08024 4.249271,0.25026 12.978825,-1.9063 20.713881,-1.01668 4.98811,0.57369 3.94878,-1.33823 8.25839,0.37718"
       id="path10-3"
       sodipodi:nodetypes="csssssssssc" />
    <path
       style="fill:none;stroke:#000000;stroke-width:0.519955px;stroke-linecap:butt;stroke-linejoin:miter;stroke-opacity:1"
       d="m 3.054484,159.64045 c 8.683206,1.10728 0.6670059,-0.15371 17.866195,0.79289 3.668424,0.2019 6.629526,-1.36729 11.218053,-1.18816 4.730749,0.18468 3.035766,1.32121 8.131034,0.49647 2.983483,-0.48293 6.788,2.24107 13.045165,1.24291 1.40432,-0.22402 5.364765,-1.23828 7.207389,-1.18625 1.625773,0.0459 4.475426,0.12491 5.465996,0.18649 5.170129,0.32142 4.417126,0.44361 7.661862,0.043 10.422587,-1.28669 12.241075,-0.37319 14.314078,-0.50264 0.867644,-0.0542 3.810101,0.24842 5.404833,0.27156 7.212361,0.10466 8.843881,-0.21018 14.506631,-1.10323"
       id="path10-6"
       sodipodi:nodetypes="csssssssssc" />
    <path
       style="fill:none;stroke:#000000;stroke-width:0.519955px;stroke-linecap:butt;stroke-linejoin:miter;stroke-opacity:1"
       d="m 3.0259546,165.61535 c 10.5437684,-2.21058 9.8498154,-1.10824 26.1372624,-0.034 3.666003,0.24192 16.337811,1.17995 20.926339,1.35907 2.317992,0.93016 11.512408,-1.78415 13.632329,-1.76058 6.127032,0.0681 4.308016,0.46174 7.513858,1.09551 7.299185,1.8105 9.431247,-2.68248 16.73161,-0.8747 5.298836,1.31215 8.813202,-2.21288 20.026047,-0.51549"
       id="path10-7"
       sodipodi:nodetypes="cscscsc" />
    <path
       id="path54"
       d="M 4.2310474,115.24811 55.603944,146.41295 77.383035,112.96213"
       style="fill:none;stroke:#727272;stroke-width:0.3456;stroke-linecap:butt;stroke-linejoin:miter;stroke-miterlimit:4;stroke-dasharray:none;stroke-opacity:1"
       sodipodi:nodetypes="ccc" />
    <path
       sodipodi:nodetypes="cc"
       id="path969"
       d="m 128.95898,168.09798 93.69481,0.0534"
       style="fill:none;stroke:#000000;stroke-width:0.4572px;stroke-linecap:butt;stroke-linejoin:miter;stroke-opacity:1" />
    <path
       sodipodi:nodetypes="cc"
       id="path971"
       d="m 171.47054,168.92245 -0.17849,-64.57083"
       style="fill:none;stroke:#000000;stroke-width:0.457006px;stroke-linecap:butt;stroke-linejoin:miter;stroke-opacity:1" />
    <ellipse
       ry="0.75477481"
       rx="0.7740761"
       cy="157.38751"
       cx="171.41765"
       id="path992"
       style="fill:#000000;fill-opacity:1;fill-rule:evenodd;stroke-width:0.4572" />
    <ellipse
       style="fill:#000000;fill-opacity:1;fill-rule:evenodd;stroke-width:0.4572"
       id="path992-6"
       cx="171.39896"
       cy="143.63016"
       rx="0.7740761"
       ry="0.75477481" />
    <ellipse
       style="fill:#000000;fill-opacity:1;fill-rule:evenodd;stroke-width:0.4572"
       id="path992-0"
       cx="171.38676"
       cy="128.98636"
       rx="0.7740761"
       ry="0.75477481" />
    <ellipse
       style="fill:#000000;fill-opacity:1;fill-rule:evenodd;stroke-width:0.4572"
       id="path992-62"
       cx="171.35008"
       cy="114.36201"
       rx="0.7740761"
       ry="0.75477481" />
    <path
       sodipodi:nodetypes="ccc"
       id="path1040"
       d="m 168.38057,164.7369 6.13093,-0.0174 40.19805,-53.05368"
       style="fill:none;stroke:#000000;stroke-width:0.4572px;stroke-linecap:butt;stroke-linejoin:miter;stroke-opacity:1" />
    <text
       id="text1116"
       y="174.64346"
       x="213.13597"
       style="font-style:normal;font-weight:normal;font-size:7.9248px;line-height:1.25;font-family:sans-serif;fill:#000000;fill-opacity:1;stroke:none;stroke-width:0.4572"
       xml:space="preserve"><tspan
         style="font-size:7.9248px;stroke-width:0.4572"
         y="174.64346"
         x="213.13597"
         id="tspan1114"
         sodipodi:role="line">K<tspan
   id="tspan1160"
   style="font-size:5.15112px;baseline-shift:sub;stroke-width:0.4572">x</tspan></tspan></text>
    <text
       id="text1133"
       y="110.2635"
       x="173.01973"
       style="font-style:normal;font-weight:normal;font-size:7.9248px;line-height:1.25;font-family:sans-serif;fill:#000000;fill-opacity:1;stroke:none;stroke-width:0.4572"
       xml:space="preserve"><tspan
         y="110.2635"
         x="173.01973"
         id="tspan1131"
         sodipodi:role="line"
         style="stroke-width:0.4572">K<tspan
   id="tspan1168"
   style="font-size:5.15112px;baseline-shift:sub;stroke-width:0.4572">z</tspan></tspan></text>
    <path
       id="path1149"
       d="m 170.37765,105.26604 0.9144,-0.91442 0.91439,0.91442"
       style="fill:none;stroke:#000000;stroke-width:0.4572px;stroke-linecap:butt;stroke-linejoin:miter;stroke-opacity:1" />
    <path
       id="path1166"
       d="m 222.01097,167.24183 0.9144,0.91442 -0.9144,0.91438"
       style="fill:none;stroke:#000000;stroke-width:0.4572px;stroke-linecap:butt;stroke-linejoin:miter;stroke-opacity:1" />
    <path
       id="path1170"
       d="m 194.13555,143.66975 v 14.28059"
       style="fill:none;stroke:#000000;stroke-width:0.4572px;stroke-linecap:butt;stroke-linejoin:miter;stroke-opacity:1" />
    <path
       id="path1176"
       d="m 192.76395,144.58417 1.3716,-0.91442 1.3716,0.91442"
       style="fill:none;stroke:#000000;stroke-width:0.4572px;stroke-linecap:butt;stroke-linejoin:miter;stroke-opacity:1" />
    <path
       id="path1180"
       d="m 192.76395,156.92857 1.3716,0.91438 1.3716,-0.91438"
       style="fill:none;stroke:#000000;stroke-width:0.4572px;stroke-linecap:butt;stroke-linejoin:miter;stroke-opacity:1" />
    <text
       id="text1184"
       y="149.60965"
       x="197.15607"
       style="font-style:normal;font-weight:normal;font-size:3.6576px;line-height:1.25;font-family:sans-serif;fill:#000000;fill-opacity:1;stroke:none;stroke-width:0.4572"
       xml:space="preserve"><tspan
         style="font-size:3.6576px;stroke-width:0.4572"
         y="149.60965"
         x="197.15607"
         id="tspan1182"
         sodipodi:role="line">2π</tspan></text>
    <text
       id="text1188"
       y="153.3922"
       x="198.09427"
       style="font-style:normal;font-weight:normal;font-size:3.6576px;line-height:1.25;font-family:sans-serif;fill:#000000;fill-opacity:1;stroke:none;stroke-width:0.4572"
       xml:space="preserve"><tspan
         style="font-size:3.6576px;stroke-width:0.4572"
         y="153.3922"
         x="198.09427"
         id="tspan1186"
         sodipodi:role="line">d</tspan></text>
    <path
       id="path1190"
       d="m 197.33595,150.07057 h 4.57201"
       style="fill:none;stroke:#000000;stroke-width:0.4572px;stroke-linecap:butt;stroke-linejoin:miter;stroke-opacity:1" />
    <circle
       id="path872"
       style="fill:#c5a037;stroke:#727272;stroke-width:0.4572"
       cx="102.82501"
       cy="113.0556"
       r="0.011418572" />
    <path
       sodipodi:nodetypes="ccc"
       style="fill:none;fill-opacity:1;stroke:#737373;stroke-width:0.45792;stroke-linecap:butt;stroke-linejoin:miter;stroke-miterlimit:4;stroke-dasharray:none;stroke-opacity:1"
       d="m 75.830113,113.32101 1.513229,-0.27221 0.457185,1.3716"
       id="path919" />
    <text
       xml:space="preserve"
       style="font-style:normal;font-weight:normal;font-size:7.3152px;line-height:1.25;font-family:sans-serif;white-space:pre;inline-size:32.2839;fill:#000000;fill-opacity:1;stroke:none;stroke-width:0.4572"
       x="211.20261"
       y="124.87666"
       id="text950" />
    <path
       sodipodi:nodetypes="ccc"
       style="fill:none;stroke:#727272;stroke-width:0.345599;stroke-linecap:butt;stroke-linejoin:miter;stroke-miterlimit:4;stroke-dasharray:none;stroke-opacity:1"
       d="M 4.7578294,122.23712 56.130727,153.40197 77.569005,136.18022"
       id="path54-8" />
    <path
       id="path54-8-4"
       d="M 5.9581754,136.95751 55.511077,166.27172 77.698963,130.78028"
       style="fill:none;stroke:#727272;stroke-width:0.32919;stroke-linecap:butt;stroke-linejoin:miter;stroke-miterlimit:4;stroke-dasharray:none;stroke-opacity:1"
       sodipodi:nodetypes="ccc" />
    <path
       id="path54-8-3"
       d="M 4.4067899,131.65081 54.621807,160.36299 77.6891,125.86019"
       style="fill:none;stroke:#727272;stroke-width:0.327961;stroke-linecap:butt;stroke-linejoin:miter;stroke-miterlimit:4;stroke-dasharray:none;stroke-opacity:1"
       sodipodi:nodetypes="ccc" />
    <path
       sodipodi:nodetypes="ccc"
       style="fill:none;fill-opacity:1;stroke:#737373;stroke-width:0.45792;stroke-linecap:butt;stroke-linejoin:miter;stroke-miterlimit:4;stroke-dasharray:none;stroke-opacity:1"
       d="m 76.121295,126.09436 1.567805,-0.23417 0.42459,1.41168"
       id="path919-1" />
    <path
       sodipodi:nodetypes="ccc"
       style="fill:none;fill-opacity:1;stroke:#737373;stroke-width:0.45792;stroke-linecap:butt;stroke-linejoin:miter;stroke-miterlimit:4;stroke-dasharray:none;stroke-opacity:1"
       d="m 76.170259,131.01526 1.528704,-0.23498 0.346882,1.40681"
       id="path919-1-4" />
    <path
       id="path919-1-4-9"
       d="m 75.767354,136.09844 1.900267,-0.11027 -0.02001,1.7399"
       style="fill:none;fill-opacity:1;stroke:#737373;stroke-width:0.468716;stroke-linecap:butt;stroke-linejoin:miter;stroke-miterlimit:4;stroke-dasharray:none;stroke-opacity:1"
       sodipodi:nodetypes="ccc" />
    <text
       id="text1826"
       y="122.98499"
       x="218.20638"
       style="font-style:normal;font-weight:normal;font-size:5.64444px;line-height:1.25;font-family:sans-serif;fill:#000000;fill-opacity:1;stroke:none;stroke-width:0.264583"
       xml:space="preserve"><tspan
         style="font-size:5.64444px;stroke-width:0.264583"
         y="122.98499"
         x="218.20638"
         id="tspan1824"
         sodipodi:role="line">Diffuse</tspan><tspan
         id="tspan1828"
         style="font-size:5.64444px;stroke-width:0.264583"
         y="130.04054"
         x="218.20638"
         sodipodi:role="line">scattering</tspan></text>
  </g>
</svg>
