<?xml version="1.0" encoding="UTF-8" standalone="no"?>
<svg width="164.042mm" height="117.21mm"
 viewBox="0 0 620 443"
 xmlns="http://www.w3.org/2000/svg" xmlns:xlink="http://www.w3.org/1999/xlink"  version="1.2" baseProfile="tiny">
<title>Graph1</title>
<desc>Generated with Qt</desc>
<defs>
</defs>
<g fill="none" stroke="black" stroke-width="1" fill-rule="evenodd" stroke-linecap="square" stroke-linejoin="bevel" >

<g fill="#ffffff" fill-opacity="1" stroke="none" transform="matrix(1,0,0,1,0,0)"
font-family="Cantarell" font-size="14.6667" font-weight="400" font-style="normal" 
>
<rect x="0" y="0" width="620" height="443"/>
</g>

<g fill="none" stroke="#000000" stroke-opacity="1" stroke-width="1" stroke-linecap="square" stroke-linejoin="bevel" transform="matrix(1,0,0,1,0,0)"
font-family="Cantarell" font-size="14.6667" font-weight="400" font-style="normal" 
>
</g>

<g fill="#ffffff" fill-opacity="1" stroke="none" transform="matrix(1,0,0,1,0,0)"
font-family="Cantarell" font-size="14.6667" font-weight="400" font-style="normal" 
>
<rect x="5" y="5" width="609" height="432"/>
</g>

<g fill="none" stroke="#000000" stroke-opacity="1" stroke-width="1" stroke-linecap="square" stroke-linejoin="bevel" transform="matrix(1,0,0,1,0,0)"
font-family="Cantarell" font-size="14.6667" font-weight="400" font-style="normal" 
>
</g>

<g fill="none" stroke="#2e3436" stroke-opacity="1" stroke-width="1" stroke-linecap="square" stroke-linejoin="bevel" transform="matrix(1,0,0,1,0,0)"
font-family="Cantarell" font-size="18.6667" font-weight="700" font-style="normal" 
>
</g>

<g fill="none" stroke="#2e3436" stroke-opacity="1" stroke-width="1" stroke-linecap="square" stroke-linejoin="bevel" transform="matrix(1,0,0,1,0,0)"
font-family="Cantarell" font-size="21.9589" font-weight="700" font-style="normal" 
>
<text fill="#2e3436" fill-opacity="1" stroke="none" xml:space="preserve" x="340.688" y="27" font-family="Cantarell" font-size="21.9589" font-weight="700" font-style="normal" 
 > </text>
</g>

<g fill="none" stroke="#2e3436" stroke-opacity="1" stroke-width="1" stroke-linecap="square" stroke-linejoin="bevel" transform="matrix(1,0,0,1,0,0)"
font-family="Cantarell" font-size="18.6667" font-weight="700" font-style="normal" 
>
</g>

<g fill="none" stroke="#929495" stroke-opacity="1" stroke-width="1" stroke-linecap="square" stroke-linejoin="bevel" transform="matrix(0,-1,1,0,5,380)"
font-family="TeX Gyre TermesX" font-size="18.5794" font-weight="400" font-style="normal" 
>
</g>

<g fill="none" stroke="#000000" stroke-opacity="1" stroke-width="1" stroke-linecap="square" stroke-linejoin="bevel" transform="matrix(0,-1,1,0,5,380)"
font-family="TeX Gyre TermesX" font-size="21.3333" font-weight="400" font-style="normal" 
>
<text fill="#000000" fill-opacity="1" stroke="none" xml:space="preserve" x="89.8594" y="17" font-family="TeX Gyre TermesX" font-size="21.3333" font-weight="400" font-style="normal" 
 >Reflectance (arb. u)</text>
</g>

<g fill="none" stroke="#929495" stroke-opacity="1" stroke-width="1" stroke-linecap="square" stroke-linejoin="bevel" transform="matrix(0,-1,1,0,5,380)"
font-family="TeX Gyre TermesX" font-size="18.5794" font-weight="400" font-style="normal" 
>
</g>

<g fill="none" stroke="#2e3436" stroke-opacity="1" stroke-width="1" stroke-linecap="square" stroke-linejoin="bevel" transform="matrix(1,0,0,1,0,0)"
font-family="Cantarell" font-size="18.6667" font-weight="700" font-style="normal" 
>
</g>

<g fill="none" stroke="#2e3436" stroke-opacity="1" stroke-width="1" stroke-linecap="square" stroke-linejoin="bevel" transform="matrix(1,0,0,1,0,0)"
font-family="TeX Gyre TermesX" font-size="18.5794" font-weight="400" font-style="normal" 
>
</g>

<g fill="none" stroke="#2e3436" stroke-opacity="1" stroke-width="1" stroke-linecap="square" stroke-linejoin="bevel" transform="matrix(1,0,0,1,29,288)"
font-family="TeX Gyre TermesX" font-size="18.5794" font-weight="400" font-style="normal" 
>
</g>

<g fill="none" stroke="#2e3436" stroke-opacity="1" stroke-width="1" stroke-linecap="square" stroke-linejoin="bevel" transform="matrix(1,0,0,1,29,288)"
font-family="TeX Gyre TermesX" font-size="18.5794" font-weight="400" font-style="normal" 
>
<text fill="#2e3436" fill-opacity="1" stroke="none" xml:space="preserve" x="0" y="15" font-family="TeX Gyre TermesX" font-size="18.5794" font-weight="400" font-style="normal" 
 >10</text>
<text fill="#2e3436" fill-opacity="1" stroke="none" xml:space="preserve" x="19" y="8.5" font-family="TeX Gyre TermesX" font-size="12" font-weight="400" font-style="normal" 
 >-4</text>
</g>

<g fill="none" stroke="#2e3436" stroke-opacity="1" stroke-width="1" stroke-linecap="square" stroke-linejoin="bevel" transform="matrix(1,0,0,1,29,288)"
font-family="TeX Gyre TermesX" font-size="18.5794" font-weight="400" font-style="normal" 
>
</g>

<g fill="none" stroke="#2e3436" stroke-opacity="1" stroke-width="1" stroke-linecap="square" stroke-linejoin="bevel" transform="matrix(1,0,0,1,29,288)"
font-family="TeX Gyre TermesX" font-size="18.5794" font-weight="400" font-style="normal" 
>
</g>

<g fill="none" stroke="#2e3436" stroke-opacity="1" stroke-width="1" stroke-linecap="square" stroke-linejoin="bevel" transform="matrix(1,0,0,1,0,0)"
font-family="TeX Gyre TermesX" font-size="18.5794" font-weight="400" font-style="normal" 
>
</g>

<g fill="none" stroke="#2e3436" stroke-opacity="1" stroke-width="1" stroke-linecap="square" stroke-linejoin="bevel" transform="matrix(1,0,0,1,29,162)"
font-family="TeX Gyre TermesX" font-size="18.5794" font-weight="400" font-style="normal" 
>
</g>

<g fill="none" stroke="#2e3436" stroke-opacity="1" stroke-width="1" stroke-linecap="square" stroke-linejoin="bevel" transform="matrix(1,0,0,1,29,162)"
font-family="TeX Gyre TermesX" font-size="18.5794" font-weight="400" font-style="normal" 
>
<text fill="#2e3436" fill-opacity="1" stroke="none" xml:space="preserve" x="0" y="15" font-family="TeX Gyre TermesX" font-size="18.5794" font-weight="400" font-style="normal" 
 >10</text>
<text fill="#2e3436" fill-opacity="1" stroke="none" xml:space="preserve" x="19" y="8.5" font-family="TeX Gyre TermesX" font-size="12" font-weight="400" font-style="normal" 
 >-2</text>
</g>

<g fill="none" stroke="#2e3436" stroke-opacity="1" stroke-width="1" stroke-linecap="square" stroke-linejoin="bevel" transform="matrix(1,0,0,1,29,162)"
font-family="TeX Gyre TermesX" font-size="18.5794" font-weight="400" font-style="normal" 
>
</g>

<g fill="none" stroke="#2e3436" stroke-opacity="1" stroke-width="1" stroke-linecap="square" stroke-linejoin="bevel" transform="matrix(1,0,0,1,29,162)"
font-family="TeX Gyre TermesX" font-size="18.5794" font-weight="400" font-style="normal" 
>
</g>

<g fill="none" stroke="#2e3436" stroke-opacity="1" stroke-width="1" stroke-linecap="square" stroke-linejoin="bevel" transform="matrix(1,0,0,1,0,0)"
font-family="TeX Gyre TermesX" font-size="18.5794" font-weight="400" font-style="normal" 
>
</g>

<g fill="none" stroke="#2e3436" stroke-opacity="1" stroke-width="1" stroke-linecap="square" stroke-linejoin="bevel" transform="matrix(1,0,0,1,33,37)"
font-family="TeX Gyre TermesX" font-size="18.5794" font-weight="400" font-style="normal" 
>
</g>

<g fill="none" stroke="#2e3436" stroke-opacity="1" stroke-width="1" stroke-linecap="square" stroke-linejoin="bevel" transform="matrix(1,0,0,1,33,37)"
font-family="TeX Gyre TermesX" font-size="18.5794" font-weight="400" font-style="normal" 
>
<text fill="#2e3436" fill-opacity="1" stroke="none" xml:space="preserve" x="0" y="15" font-family="TeX Gyre TermesX" font-size="18.5794" font-weight="400" font-style="normal" 
 >10</text>
<text fill="#2e3436" fill-opacity="1" stroke="none" xml:space="preserve" x="19" y="8.5" font-family="TeX Gyre TermesX" font-size="12" font-weight="400" font-style="normal" 
 >0</text>
</g>

<g fill="none" stroke="#2e3436" stroke-opacity="1" stroke-width="1" stroke-linecap="square" stroke-linejoin="bevel" transform="matrix(1,0,0,1,33,37)"
font-family="TeX Gyre TermesX" font-size="18.5794" font-weight="400" font-style="normal" 
>
</g>

<g fill="none" stroke="#2e3436" stroke-opacity="1" stroke-width="1" stroke-linecap="square" stroke-linejoin="bevel" transform="matrix(1,0,0,1,33,37)"
font-family="TeX Gyre TermesX" font-size="18.5794" font-weight="400" font-style="normal" 
>
</g>

<g fill="none" stroke="#2e3436" stroke-opacity="1" stroke-width="1" stroke-linecap="square" stroke-linejoin="bevel" transform="matrix(1,0,0,1,0,0)"
font-family="TeX Gyre TermesX" font-size="18.5794" font-weight="400" font-style="normal" 
>
</g>

<g fill="none" stroke="#2e3436" stroke-opacity="1" stroke-width="1" stroke-linecap="square" stroke-linejoin="bevel" transform="matrix(1,0,0,1,0,0)"
font-family="TeX Gyre TermesX" font-size="18.5794" font-weight="400" font-style="normal" 
>
</g>

<g fill="none" stroke="#000000" stroke-opacity="1" stroke-width="1" stroke-linecap="square" stroke-linejoin="bevel" transform="matrix(1,0,0,1,0,0)"
font-family="TeX Gyre TermesX" font-size="18.5794" font-weight="400" font-style="normal" 
>
<polyline fill="none" vector-effect="none" points="71,362 66,362 " />
<polyline fill="none" vector-effect="none" points="71,237 66,237 " />
<polyline fill="none" vector-effect="none" points="71,112 66,112 " />
<polyline fill="none" vector-effect="none" points="71,300 62,300 " />
<polyline fill="none" vector-effect="none" points="71,174 62,174 " />
<polyline fill="none" vector-effect="none" points="71,49 62,49 " />
</g>

<g fill="none" stroke="#2e3436" stroke-opacity="1" stroke-width="1" stroke-linecap="square" stroke-linejoin="bevel" transform="matrix(1,0,0,1,0,0)"
font-family="TeX Gyre TermesX" font-size="18.5794" font-weight="400" font-style="normal" 
>
</g>

<g fill="none" stroke="#000000" stroke-opacity="1" stroke-width="1" stroke-linecap="square" stroke-linejoin="bevel" transform="matrix(1,0,0,1,0,0)"
font-family="TeX Gyre TermesX" font-size="18.5794" font-weight="400" font-style="normal" 
>
<polyline fill="none" vector-effect="none" points="71,49 71,380 " />
</g>

<g fill="none" stroke="#2e3436" stroke-opacity="1" stroke-width="1" stroke-linecap="square" stroke-linejoin="bevel" transform="matrix(1,0,0,1,0,0)"
font-family="TeX Gyre TermesX" font-size="18.5794" font-weight="400" font-style="normal" 
>
</g>

<g fill="none" stroke="#2e3436" stroke-opacity="1" stroke-width="1" stroke-linecap="square" stroke-linejoin="bevel" transform="matrix(1,0,0,1,0,0)"
font-family="Cantarell" font-size="18.6667" font-weight="700" font-style="normal" 
>
</g>

<g fill="none" stroke="#929495" stroke-opacity="1" stroke-width="1" stroke-linecap="square" stroke-linejoin="bevel" transform="matrix(1,0,0,1,67,382)"
font-family="TeX Gyre TermesX" font-size="18.5794" font-weight="400" font-style="normal" 
>
</g>

<g fill="none" stroke="#000000" stroke-opacity="1" stroke-width="1" stroke-linecap="square" stroke-linejoin="bevel" transform="matrix(1,0,0,1,67,382)"
font-family="TeX Gyre TermesX" font-size="21.3333" font-weight="400" font-style="normal" 
>
</g>

<g fill="none" stroke="#000000" stroke-opacity="1" stroke-width="1" stroke-linecap="square" stroke-linejoin="bevel" transform="matrix(1,0,0,1,67,412)"
font-family="TeX Gyre TermesX" font-size="21.3333" font-weight="400" font-style="normal" 
>
<text fill="#000000" fill-opacity="1" stroke="none" xml:space="preserve" x="169.531" y="17" font-family="TeX Gyre TermesX" font-size="21.3333" font-weight="400" font-style="normal" 
 >Scattering vector Q (Å</text>
<text fill="#000000" fill-opacity="1" stroke="none" xml:space="preserve" x="359.641" y="10" font-family="TeX Gyre TermesX" font-size="13.3333" font-weight="400" font-style="normal" 
 >-1</text>
<text fill="#000000" fill-opacity="1" stroke="none" xml:space="preserve" x="370.469" y="17" font-family="TeX Gyre TermesX" font-size="21.3333" font-weight="400" font-style="normal" 
 >)</text>
</g>

<g fill="none" stroke="#000000" stroke-opacity="1" stroke-width="1" stroke-linecap="square" stroke-linejoin="bevel" transform="matrix(1,0,0,1,67,382)"
font-family="TeX Gyre TermesX" font-size="21.3333" font-weight="400" font-style="normal" 
>
</g>

<g fill="none" stroke="#929495" stroke-opacity="1" stroke-width="1" stroke-linecap="square" stroke-linejoin="bevel" transform="matrix(1,0,0,1,67,382)"
font-family="TeX Gyre TermesX" font-size="18.5794" font-weight="400" font-style="normal" 
>
</g>

<g fill="none" stroke="#2e3436" stroke-opacity="1" stroke-width="1" stroke-linecap="square" stroke-linejoin="bevel" transform="matrix(1,0,0,1,0,0)"
font-family="Cantarell" font-size="18.6667" font-weight="700" font-style="normal" 
>
</g>

<g fill="none" stroke="#2e3436" stroke-opacity="1" stroke-width="1" stroke-linecap="square" stroke-linejoin="bevel" transform="matrix(1,0,0,1,0,0)"
font-family="TeX Gyre TermesX" font-size="18.5794" font-weight="400" font-style="normal" 
>
</g>

<g fill="none" stroke="#2e3436" stroke-opacity="1" stroke-width="1" stroke-linecap="square" stroke-linejoin="bevel" transform="matrix(1,0,0,1,67,396)"
font-family="TeX Gyre TermesX" font-size="18.5794" font-weight="400" font-style="normal" 
>
<text fill="#2e3436" fill-opacity="1" stroke="none" xml:space="preserve" x="0" y="14" font-family="TeX Gyre TermesX" font-size="18.5794" font-weight="400" font-style="normal" 
 >0</text>
</g>

<g fill="none" stroke="#2e3436" stroke-opacity="1" stroke-width="1" stroke-linecap="square" stroke-linejoin="bevel" transform="matrix(1,0,0,1,67,396)"
font-family="TeX Gyre TermesX" font-size="18.5794" font-weight="400" font-style="normal" 
>
</g>

<g fill="none" stroke="#2e3436" stroke-opacity="1" stroke-width="1" stroke-linecap="square" stroke-linejoin="bevel" transform="matrix(1,0,0,1,0,0)"
font-family="TeX Gyre TermesX" font-size="18.5794" font-weight="400" font-style="normal" 
>
</g>

<g fill="none" stroke="#2e3436" stroke-opacity="1" stroke-width="1" stroke-linecap="square" stroke-linejoin="bevel" transform="matrix(1,0,0,1,148,396)"
font-family="TeX Gyre TermesX" font-size="18.5794" font-weight="400" font-style="normal" 
>
<text fill="#2e3436" fill-opacity="1" stroke="none" xml:space="preserve" x="0" y="14" font-family="TeX Gyre TermesX" font-size="18.5794" font-weight="400" font-style="normal" 
 >0.1</text>
</g>

<g fill="none" stroke="#2e3436" stroke-opacity="1" stroke-width="1" stroke-linecap="square" stroke-linejoin="bevel" transform="matrix(1,0,0,1,148,396)"
font-family="TeX Gyre TermesX" font-size="18.5794" font-weight="400" font-style="normal" 
>
</g>

<g fill="none" stroke="#2e3436" stroke-opacity="1" stroke-width="1" stroke-linecap="square" stroke-linejoin="bevel" transform="matrix(1,0,0,1,0,0)"
font-family="TeX Gyre TermesX" font-size="18.5794" font-weight="400" font-style="normal" 
>
</g>

<g fill="none" stroke="#2e3436" stroke-opacity="1" stroke-width="1" stroke-linecap="square" stroke-linejoin="bevel" transform="matrix(1,0,0,1,237,396)"
font-family="TeX Gyre TermesX" font-size="18.5794" font-weight="400" font-style="normal" 
>
<text fill="#2e3436" fill-opacity="1" stroke="none" xml:space="preserve" x="0" y="14" font-family="TeX Gyre TermesX" font-size="18.5794" font-weight="400" font-style="normal" 
 >0.2</text>
</g>

<g fill="none" stroke="#2e3436" stroke-opacity="1" stroke-width="1" stroke-linecap="square" stroke-linejoin="bevel" transform="matrix(1,0,0,1,237,396)"
font-family="TeX Gyre TermesX" font-size="18.5794" font-weight="400" font-style="normal" 
>
</g>

<g fill="none" stroke="#2e3436" stroke-opacity="1" stroke-width="1" stroke-linecap="square" stroke-linejoin="bevel" transform="matrix(1,0,0,1,0,0)"
font-family="TeX Gyre TermesX" font-size="18.5794" font-weight="400" font-style="normal" 
>
</g>

<g fill="none" stroke="#2e3436" stroke-opacity="1" stroke-width="1" stroke-linecap="square" stroke-linejoin="bevel" transform="matrix(1,0,0,1,325,396)"
font-family="TeX Gyre TermesX" font-size="18.5794" font-weight="400" font-style="normal" 
>
<text fill="#2e3436" fill-opacity="1" stroke="none" xml:space="preserve" x="0" y="14" font-family="TeX Gyre TermesX" font-size="18.5794" font-weight="400" font-style="normal" 
 >0.3</text>
</g>

<g fill="none" stroke="#2e3436" stroke-opacity="1" stroke-width="1" stroke-linecap="square" stroke-linejoin="bevel" transform="matrix(1,0,0,1,325,396)"
font-family="TeX Gyre TermesX" font-size="18.5794" font-weight="400" font-style="normal" 
>
</g>

<g fill="none" stroke="#2e3436" stroke-opacity="1" stroke-width="1" stroke-linecap="square" stroke-linejoin="bevel" transform="matrix(1,0,0,1,0,0)"
font-family="TeX Gyre TermesX" font-size="18.5794" font-weight="400" font-style="normal" 
>
</g>

<g fill="none" stroke="#2e3436" stroke-opacity="1" stroke-width="1" stroke-linecap="square" stroke-linejoin="bevel" transform="matrix(1,0,0,1,413,396)"
font-family="TeX Gyre TermesX" font-size="18.5794" font-weight="400" font-style="normal" 
>
<text fill="#2e3436" fill-opacity="1" stroke="none" xml:space="preserve" x="0" y="14" font-family="TeX Gyre TermesX" font-size="18.5794" font-weight="400" font-style="normal" 
 >0.4</text>
</g>

<g fill="none" stroke="#2e3436" stroke-opacity="1" stroke-width="1" stroke-linecap="square" stroke-linejoin="bevel" transform="matrix(1,0,0,1,413,396)"
font-family="TeX Gyre TermesX" font-size="18.5794" font-weight="400" font-style="normal" 
>
</g>

<g fill="none" stroke="#2e3436" stroke-opacity="1" stroke-width="1" stroke-linecap="square" stroke-linejoin="bevel" transform="matrix(1,0,0,1,0,0)"
font-family="TeX Gyre TermesX" font-size="18.5794" font-weight="400" font-style="normal" 
>
</g>

<g fill="none" stroke="#2e3436" stroke-opacity="1" stroke-width="1" stroke-linecap="square" stroke-linejoin="bevel" transform="matrix(1,0,0,1,502,396)"
font-family="TeX Gyre TermesX" font-size="18.5794" font-weight="400" font-style="normal" 
>
<text fill="#2e3436" fill-opacity="1" stroke="none" xml:space="preserve" x="0" y="14" font-family="TeX Gyre TermesX" font-size="18.5794" font-weight="400" font-style="normal" 
 >0.5</text>
</g>

<g fill="none" stroke="#2e3436" stroke-opacity="1" stroke-width="1" stroke-linecap="square" stroke-linejoin="bevel" transform="matrix(1,0,0,1,502,396)"
font-family="TeX Gyre TermesX" font-size="18.5794" font-weight="400" font-style="normal" 
>
</g>

<g fill="none" stroke="#2e3436" stroke-opacity="1" stroke-width="1" stroke-linecap="square" stroke-linejoin="bevel" transform="matrix(1,0,0,1,0,0)"
font-family="TeX Gyre TermesX" font-size="18.5794" font-weight="400" font-style="normal" 
>
</g>

<g fill="none" stroke="#2e3436" stroke-opacity="1" stroke-width="1" stroke-linecap="square" stroke-linejoin="bevel" transform="matrix(1,0,0,1,590,396)"
font-family="TeX Gyre TermesX" font-size="18.5794" font-weight="400" font-style="normal" 
>
<text fill="#2e3436" fill-opacity="1" stroke="none" xml:space="preserve" x="0" y="14" font-family="TeX Gyre TermesX" font-size="18.5794" font-weight="400" font-style="normal" 
 >0.6</text>
</g>

<g fill="none" stroke="#2e3436" stroke-opacity="1" stroke-width="1" stroke-linecap="square" stroke-linejoin="bevel" transform="matrix(1,0,0,1,590,396)"
font-family="TeX Gyre TermesX" font-size="18.5794" font-weight="400" font-style="normal" 
>
</g>

<g fill="none" stroke="#2e3436" stroke-opacity="1" stroke-width="1" stroke-linecap="square" stroke-linejoin="bevel" transform="matrix(1,0,0,1,0,0)"
font-family="TeX Gyre TermesX" font-size="18.5794" font-weight="400" font-style="normal" 
>
</g>

<g fill="none" stroke="#2e3436" stroke-opacity="1" stroke-width="1" stroke-linecap="square" stroke-linejoin="bevel" transform="matrix(1,0,0,1,0,0)"
font-family="TeX Gyre TermesX" font-size="18.5794" font-weight="400" font-style="normal" 
>
</g>

<g fill="none" stroke="#000000" stroke-opacity="1" stroke-width="1" stroke-linecap="square" stroke-linejoin="bevel" transform="matrix(1,0,0,1,0,0)"
font-family="TeX Gyre TermesX" font-size="18.5794" font-weight="400" font-style="normal" 
>
<polyline fill="none" vector-effect="none" points="90,382 90,387 " />
<polyline fill="none" vector-effect="none" points="107,382 107,387 " />
<polyline fill="none" vector-effect="none" points="125,382 125,387 " />
<polyline fill="none" vector-effect="none" points="143,382 143,387 " />
<polyline fill="none" vector-effect="none" points="178,382 178,387 " />
<polyline fill="none" vector-effect="none" points="196,382 196,387 " />
<polyline fill="none" vector-effect="none" points="213,382 213,387 " />
<polyline fill="none" vector-effect="none" points="231,382 231,387 " />
<polyline fill="none" vector-effect="none" points="266,382 266,387 " />
<polyline fill="none" vector-effect="none" points="284,382 284,387 " />
<polyline fill="none" vector-effect="none" points="302,382 302,387 " />
<polyline fill="none" vector-effect="none" points="319,382 319,387 " />
<polyline fill="none" vector-effect="none" points="355,382 355,387 " />
<polyline fill="none" vector-effect="none" points="372,382 372,387 " />
<polyline fill="none" vector-effect="none" points="390,382 390,387 " />
<polyline fill="none" vector-effect="none" points="408,382 408,387 " />
<polyline fill="none" vector-effect="none" points="443,382 443,387 " />
<polyline fill="none" vector-effect="none" points="461,382 461,387 " />
<polyline fill="none" vector-effect="none" points="478,382 478,387 " />
<polyline fill="none" vector-effect="none" points="496,382 496,387 " />
<polyline fill="none" vector-effect="none" points="531,382 531,387 " />
<polyline fill="none" vector-effect="none" points="549,382 549,387 " />
<polyline fill="none" vector-effect="none" points="567,382 567,387 " />
<polyline fill="none" vector-effect="none" points="584,382 584,387 " />
<polyline fill="none" vector-effect="none" points="72,382 72,391 " />
<polyline fill="none" vector-effect="none" points="160,382 160,391 " />
<polyline fill="none" vector-effect="none" points="249,382 249,391 " />
<polyline fill="none" vector-effect="none" points="337,382 337,391 " />
<polyline fill="none" vector-effect="none" points="425,382 425,391 " />
<polyline fill="none" vector-effect="none" points="514,382 514,391 " />
<polyline fill="none" vector-effect="none" points="602,382 602,391 " />
</g>

<g fill="none" stroke="#2e3436" stroke-opacity="1" stroke-width="1" stroke-linecap="square" stroke-linejoin="bevel" transform="matrix(1,0,0,1,0,0)"
font-family="TeX Gyre TermesX" font-size="18.5794" font-weight="400" font-style="normal" 
>
</g>

<g fill="none" stroke="#000000" stroke-opacity="1" stroke-width="1" stroke-linecap="square" stroke-linejoin="bevel" transform="matrix(1,0,0,1,0,0)"
font-family="TeX Gyre TermesX" font-size="18.5794" font-weight="400" font-style="normal" 
>
<polyline fill="none" vector-effect="none" points="72,382 601,382 " />
</g>

<g fill="none" stroke="#2e3436" stroke-opacity="1" stroke-width="1" stroke-linecap="square" stroke-linejoin="bevel" transform="matrix(1,0,0,1,0,0)"
font-family="TeX Gyre TermesX" font-size="18.5794" font-weight="400" font-style="normal" 
>
</g>

<g fill="none" stroke="#2e3436" stroke-opacity="1" stroke-width="1" stroke-linecap="square" stroke-linejoin="bevel" transform="matrix(1,0,0,1,0,0)"
font-family="Cantarell" font-size="18.6667" font-weight="700" font-style="normal" 
>
</g>

<g fill="#ffffff" fill-opacity="1" stroke="none" transform="matrix(1,0,0,1,0,0)"
font-family="Cantarell" font-size="18.6667" font-weight="700" font-style="normal" 
>
<rect x="72" y="49" width="530" height="332"/>
</g>

<g fill="none" stroke="#2e3436" stroke-opacity="1" stroke-width="1" stroke-linecap="square" stroke-linejoin="bevel" transform="matrix(1,0,0,1,0,0)"
font-family="Cantarell" font-size="18.6667" font-weight="700" font-style="normal" 
>
</g>

<g fill="none" stroke="#2e3436" stroke-opacity="1" stroke-width="1" stroke-linecap="square" stroke-linejoin="bevel" transform="matrix(1,0,0,1,0,0)"
font-family="Cantarell" font-size="18.6667" font-weight="700" font-style="normal" 
>
</g>

<g fill="none" stroke="#2e3436" stroke-opacity="1" stroke-width="1" stroke-linecap="square" stroke-linejoin="bevel" transform="matrix(1,0,0,1,0,0)"
font-family="Cantarell" font-size="18.6667" font-weight="700" font-style="normal" 
>
</g>

<g fill="none" stroke="#ff0004" stroke-opacity="1" stroke-width="2" stroke-linecap="butt" stroke-linejoin="bevel" transform="matrix(1,0,0,1,0,0)"
font-family="Cantarell" font-size="18.6667" font-weight="700" font-style="normal" 
>
<polyline fill="none" vector-effect="non-scaling-stroke" points="72,298 72,301 73,285 73,277 73,267 74,258 74,248 75,213 75,156 75,136 76,130 76,129 76,127 77,124 77,121 78,120 78,118 78,117 79,114 79,112 80,110 81,109 81,108 81,106 82,105 82,104 82,103 83,102 83,101 84,100 84,99 85,99 85,104 85,113 86,124 86,132 87,137 87,143 87,148 88,153 88,155 88,158 89,161 89,164 90,168 90,170 90,172 91,176 91,177 92,182 92,184 93,185 93,188 93,189 94,190 94,194 95,195 95,201 96,201 96,205 96,206 97,205 97,208 97,205 98,212 99,209 99,212 99,215 100,213 100,216 100,217 101,214 101,220 102,218 102,221 102,223 103,220 103,223 103,224 104,223 104,221 105,225 105,220 105,230 106,226 106,230 106,228 107,229 107,227 108,230 108,235 109,232 109,229 109,237 110,243 110,237 110,241 111,230 111,236 112,235 112,239 112,237 113,242 113,236 114,247 114,238 115,245 115,243 115,244 116,240 116,241 116,249 117,242 117,243 118,250 118,254 118,248 119,246 119,252 119,248 120,242 120,252 121,250 121,252 121,254 122,254 122,261 122,256 123,250 123,259 124,250 124,249 124,255 125,260 125,245 125,253 126,254 126,253 127,254 127,252 128,254 128,256 128,252 129,251 129,250 130,256 130,246 130,266 131,263 131,259 131,256 132,258 132,265 133,266 133,273 133,262 134,265 134,258 134,259 135,262 135,254 136,262 136,250 136,251 137,261 137,258 137,263 138,268 138,266 139,260 139,252 139,267 140,256 140,260 140,256 141,259 141,254 142,255 142,265 142,276 143,256 143,257 143,267 144,272 144,268 145,257 145,270 145,261 146,268 146,256 147,256 147,272 147,268 148,260 148,263 149,261 149,254 149,269 150,265 150,263 150,270 151,260 151,265 152,259 152,270 152,273 153,260 153,257 153,260 154,261 154,252 155,258 155,255 155,263 156,253 156,256 157,250 157,261 158,255 158,256 158,267 159,258 159,259 159,270 160,255 160,263 161,264 161,257 161,258 162,258 162,265 162,258 163,265 163,260 164,258 164,255 164,252 165,254 165,256 165,258 166,256 166,253 167,256 167,257 168,253 168,263 168,253 169,255 169,259 170,248 170,252 171,259 171,252 171,248 172,247 172,249 173,241 173,239 173,243 174,241 174,250 174,241 175,249 175,247 176,246 176,247 176,236 177,236 177,238 177,228 178,232 178,225 178,227 179,221 179,225 180,234 180,228 181,221 181,222 181,221 182,222 182,216 183,214 183,217 183,210 184,214 184,209 184,207 185,211 185,213 186,206 186,199 186,191 187,183 187,179 187,171 188,161 188,159 189,156 189,142 189,118 190,96 190,80 190,73 191,71 191,75 192,83 192,93 192,102 193,112 193,124 193,134 194,145 194,156 195,166 195,175 195,180 196,184 196,188 196,194 197,200 197,203 198,210 198,214 198,223 199,224 199,230 199,231 200,240 200,246 201,245 201,251 201,247 202,252 202,256 202,260 203,261 203,262 203,269 204,266 204,289 205,287 205,267 205,295 206,285 206,289 206,274 207,292 207,283 208,272 208,285 208,287 209,281 209,279 209,306 210,301 210,295 211,279 211,285 212,298 212,287 212,310 213,285 213,310 214,298 214,301 214,316 215,316 215,324 215,335 216,310 216,316 217,316 217,335 217,324 218,353 218,316 218,301 219,324 219,316 220,301 220,353 221,310 221,324 221,353 222,310 222,324 223,335 223,353 223,324 224,335 224,316 224,324 225,316 225,353 225,324 226,324 227,335 227,353 227,316 228,335 228,324 228,335 229,335 229,316 230,324 230,316 231,324 232,353 232,335 233,335 233,353 233,324 234,335 234,353 234,324 235,324 236,335 236,324 236,335 237,335 237,324 237,353 238,353 238,335 239,324 239,353 239,335 240,353 240,335 241,335 241,324 242,324 242,353 242,335 243,353 244,335 245,335 245,353 245,335 246,335 246,324 246,353 247,353 247,324 248,324 248,353 249,335 249,353 250,335 250,353 250,335 251,316 251,324 252,335 252,353 253,353 254,353 254,335 255,353 255,324 256,324 256,335 256,353 257,353 258,353 258,335 258,324 259,335 259,353 259,324 260,353 260,335 261,335 261,353 262,335 263,335 263,353 263,335 264,353 264,335 265,335 265,324 265,353 266,353 267,335 268,353 268,335 269,353 270,335 271,335 271,353 272,353 272,335 272,353 273,353 273,335 274,335 274,353 275,335 276,353 277,353 277,324 277,353 278,353 279,335 279,353 280,353 280,335 280,353 281,353 282,353 282,335 282,353 283,353 283,335 284,353 284,316 284,335 285,353 285,335 286,353 287,353 287,335 288,353 288,335 289,353 289,335 290,353 290,335 291,324 291,335 291,353 292,335 292,353 293,324 293,353 294,324 294,335 294,353 295,335 295,353 295,324 296,335 296,353 297,335 297,353 298,353 299,324 299,335 300,353 300,335 300,353 301,335 301,316 301,353 302,353 303,335 303,353 304,353 304,324 304,335 305,310 305,306 306,316 306,301 306,283 307,260 307,254 307,241 308,240 308,238 309,237 309,243 310,243 310,247 310,249 311,255 311,263 311,269 312,276 312,279 313,292 313,289 313,298 314,301 314,306 314,335 315,306 315,324 316,324 316,316 316,324 317,316 317,335 318,353 318,335 319,324 319,335 320,353 321,316 321,353 322,353 323,335 323,353 323,335 324,353 324,324 324,335 325,353 326,353 327,353 328,353 329,353 330,353 331,335 331,353 332,353 332,324 333,335 333,353 334,353 335,353 336,335 336,353 337,353 338,353 338,335 339,353 339,335 340,335 341,335 342,335 342,353 343,335 343,353 344,353 345,335 345,353 346,335 346,353 346,335 347,353 347,316 348,353 349,353 349,335 350,353 350,335 351,335 351,353 352,353 352,335 352,353 353,353 354,353 354,324 355,353 356,335 356,353 357,353 358,353 359,353 360,335 360,353 361,335 361,353 362,335 362,353 363,353 363,335 364,353 364,324 365,353 365,335 366,353 366,335 367,353 367,335 368,353 368,335 369,353 369,335 369,353 370,353 370,335 371,353 372,353 373,324 373,353 374,353 374,324 375,335 375,353 375,335 376,353 376,335 376,353 377,353 378,353 379,353 380,335 380,353 381,353 381,335 382,335 382,353 383,335 383,324 383,353 384,353 385,353 386,353 387,353 388,353 388,335 389,353 389,335 390,353 391,324 391,353 392,353 392,335 392,353 393,324 393,353 394,353 395,335 396,335 396,353 396,335 397,353 398,353 398,335 399,335 399,353 400,335 400,353 401,335 401,353 402,353 403,353 403,335 404,335 404,353 405,353 405,335 406,324 406,353 406,335 407,324 407,353 408,353 409,335 409,353 410,353 411,353 412,353 412,335 413,353 413,335 414,335 414,353 415,353 415,335 416,353 417,353 418,353 418,316 419,335 420,353 420,324 420,353 421,335 421,353 422,335 423,353 423,335 423,353 424,324 424,316 424,301 425,301 425,298 425,289 426,298 426,281 427,292 428,292 428,298 428,301 429,316 430,316 430,324 431,316 431,335 431,310 432,335 433,353 433,335 434,353 434,335 435,353 435,316 435,324 436,324 436,335 437,353 437,335 438,335 438,353 439,353 440,353 440,335 441,335 441,353 442,353 442,324 442,353 443,353 444,353 444,335 444,353 445,353 445,324 445,353 446,353 446,335 446,353 447,324 447,353 448,353 448,335 448,353 449,353 450,353 451,353 451,335 451,353 452,335 452,353 453,353 454,324 454,353 455,353 456,353 456,335 457,353 458,335 458,353 459,353 459,335 460,353 461,353 462,353 462,335 462,353 463,353 464,353 464,335 464,353 465,353 465,335 466,335 466,353 467,335 467,353 468,335 468,353 469,353 470,353 471,353 472,353 473,353 474,353 475,353 476,353 477,335 477,353 477,335 478,335 478,353 479,335 480,353 481,353 482,353 482,335 483,353 483,335 484,353 485,353 486,353 487,353 487,335 488,353 489,335 490,353 491,353 491,335 492,335 492,353 493,353 493,335 493,353 494,353 494,324 495,353 496,353 496,335 496,353 497,353 498,353 499,353 499,335 500,353 500,335 501,353 502,353 502,335 502,353 503,353 503,335 504,335 504,353 504,335 505,353 506,335 506,353 507,353 507,324 508,335 508,353 509,353 510,353 510,335 511,353 512,353 512,335 513,324 513,353 514,353 515,353 515,335 516,335 516,353 517,353 518,353 519,353 520,353 520,324 521,335 522,335 522,353 523,353 524,353 525,324 525,335 525,353 526,353 527,353 528,335 528,353 529,335 529,353 530,353 531,353 532,335 532,353 533,353 534,353 534,324 535,353 535,335 536,353 536,335 537,353 538,335 538,353 538,335 539,353 539,324 540,353 540,335 541,353 541,335 542,335 542,353 542,335 543,324 543,316 544,335 544,353 545,335 546,316 546,353 547,335 547,353 548,353 549,324 549,353 550,353 550,335 551,353 552,353 553,324 553,335 553,353 554,353 554,335 555,324 555,353 556,353 556,335 557,335 557,353 558,353 559,353 560,353 560,335 561,353 " />
</g>

<g fill="none" stroke="#2e3436" stroke-opacity="1" stroke-width="1" stroke-linecap="square" stroke-linejoin="bevel" transform="matrix(1,0,0,1,0,0)"
font-family="Cantarell" font-size="18.6667" font-weight="700" font-style="normal" 
>
</g>

<g fill="none" stroke="#2e3436" stroke-opacity="1" stroke-width="1" stroke-linecap="square" stroke-linejoin="bevel" transform="matrix(1,0,0,1,0,0)"
font-family="Cantarell" font-size="18.6667" font-weight="700" font-style="normal" 
>
</g>

<g fill="none" stroke="#2e3436" stroke-opacity="1" stroke-width="1" stroke-linecap="round" stroke-linejoin="round" transform="matrix(1,0,0,1,0,0)"
font-family="Cantarell" font-size="18.6667" font-weight="700" font-style="normal" 
>
</g>

<g fill="none" stroke="#2e3436" stroke-opacity="1" stroke-width="1" stroke-linecap="square" stroke-linejoin="bevel" transform="matrix(1,0,0,1,0,0)"
font-family="Cantarell" font-size="18.6667" font-weight="700" font-style="normal" 
>
</g>

<g fill="none" stroke="#000000" stroke-opacity="1" stroke-width="1" stroke-linecap="square" stroke-linejoin="bevel" transform="matrix(1,0,0,1,0,0)"
font-family="Cantarell" font-size="14.6667" font-weight="400" font-style="normal" 
>
</g>
</g>
</svg>
