<?xml version="1.0" encoding="utf-8" standalone="no"?>
<!DOCTYPE svg PUBLIC "-//W3C//DTD SVG 1.1//EN"
  "http://www.w3.org/Graphics/SVG/1.1/DTD/svg11.dtd">
<!-- Created with matplotlib (https://matplotlib.org/) -->
<svg height="358.56pt" version="1.1" viewBox="0 0 625.68 358.56" width="625.68pt" xmlns="http://www.w3.org/2000/svg" xmlns:xlink="http://www.w3.org/1999/xlink">
 <metadata>
  <rdf:RDF xmlns:cc="http://creativecommons.org/ns#" xmlns:dc="http://purl.org/dc/elements/1.1/" xmlns:rdf="http://www.w3.org/1999/02/22-rdf-syntax-ns#">
   <cc:Work>
    <dc:type rdf:resource="http://purl.org/dc/dcmitype/StillImage"/>
    <dc:date>2021-01-15T12:52:11.065051</dc:date>
    <dc:format>image/svg+xml</dc:format>
    <dc:creator>
     <cc:Agent>
      <dc:title>Matplotlib v3.3.3, https://matplotlib.org/</dc:title>
     </cc:Agent>
    </dc:creator>
   </cc:Work>
  </rdf:RDF>
 </metadata>
 <defs>
  <style type="text/css">*{stroke-linecap:butt;stroke-linejoin:round;}</style>
 </defs>
 <g id="figure_1">
  <g id="patch_1">
   <path d="M 0 358.56 
L 625.68 358.56 
L 625.68 0 
L 0 0 
z
" style="fill:#ffffff;"/>
  </g>
  <g id="axes_1">
   <g id="patch_2">
    <path d="M 78.21 319.1184 
L 563.112 319.1184 
L 563.112 43.0272 
L 78.21 43.0272 
z
" style="fill:#ffffff;"/>
   </g>
   <g id="matplotlib.axis_1">
    <g id="xtick_1">
     <g id="line2d_1">
      <defs>
       <path d="M 0 0 
L 0 3.5 
" id="m9084e20f34" style="stroke:#000000;stroke-width:0.8;"/>
      </defs>
      <g>
       <use style="stroke:#000000;stroke-width:0.8;" x="79.810479" xlink:href="#m9084e20f34" y="319.1184"/>
      </g>
     </g>
     <g id="text_1">
      <!-- 0 -->
      <g transform="translate(76.060479 336.529338)scale(0.15 -0.15)">
       <defs>
        <path d="M 3.90625 32 
Q 3.90625 46.703125 7.59375 54.703125 
Q 12.796875 66.59375 25 66.59375 
Q 27.59375 66.59375 30.296875 65.890625 
Q 33 65.203125 36.453125 62.5 
Q 39.90625 59.796875 42 55.40625 
Q 46 46.90625 46 32 
Q 46 17.40625 42.296875 9.40625 
Q 36.90625 -2.203125 24.90625 -2.203125 
Q 20.40625 -2.203125 15.84375 0.09375 
Q 11.296875 2.40625 8.40625 7.90625 
Q 3.90625 16.203125 3.90625 32 
z
M 12.203125 33.203125 
Q 12.203125 18.09375 13.296875 12.09375 
Q 14.5 5.59375 17.84375 2.796875 
Q 21.203125 0 24.90625 0 
Q 28.90625 0 32.25 3 
Q 35.59375 6 36.59375 12.5 
Q 37.703125 18.90625 37.703125 33.203125 
Q 37.703125 47.09375 36.703125 52.703125 
Q 35.40625 59.203125 31.90625 61.796875 
Q 28.40625 64.40625 24.90625 64.40625 
Q 23.59375 64.40625 22.1875 64 
Q 20.796875 63.59375 18.796875 62.5 
Q 16.796875 61.40625 15.25 58.59375 
Q 13.703125 55.796875 13 51.59375 
Q 12.203125 46.203125 12.203125 33.203125 
z
" id="CMUSerif-Roman-48"/>
       </defs>
       <use xlink:href="#CMUSerif-Roman-48"/>
      </g>
     </g>
    </g>
    <g id="xtick_2">
     <g id="line2d_2">
      <g>
       <use style="stroke:#000000;stroke-width:0.8;" x="176.601577" xlink:href="#m9084e20f34" y="319.1184"/>
      </g>
     </g>
     <g id="text_2">
      <!-- 1 -->
      <g transform="translate(172.851577 336.529338)scale(0.15 -0.15)">
       <defs>
        <path d="M 8.90625 57.09375 
L 8.90625 60.203125 
Q 20.90625 60.203125 27.09375 66.59375 
Q 28.796875 66.59375 29.09375 66.1875 
Q 29.40625 65.796875 29.40625 64 
L 29.40625 7.90625 
Q 29.40625 4.90625 30.84375 4 
Q 32.296875 3.09375 38.703125 3.09375 
L 41.90625 3.09375 
L 41.90625 0 
Q 38.40625 0.296875 25.703125 0.296875 
Q 13 0.296875 9.5 0 
L 9.5 3.09375 
L 12.703125 3.09375 
Q 19 3.09375 20.5 4 
Q 22 4.90625 22 7.90625 
L 22 59.703125 
Q 16.796875 57.09375 8.90625 57.09375 
z
" id="CMUSerif-Roman-49"/>
       </defs>
       <use xlink:href="#CMUSerif-Roman-49"/>
      </g>
     </g>
    </g>
    <g id="xtick_3">
     <g id="line2d_3">
      <g>
       <use style="stroke:#000000;stroke-width:0.8;" x="273.392674" xlink:href="#m9084e20f34" y="319.1184"/>
      </g>
     </g>
     <g id="text_3">
      <!-- 2 -->
      <g transform="translate(269.642674 336.529338)scale(0.15 -0.15)">
       <defs>
        <path d="M 5 0 
Q 5 1.796875 5.140625 2.34375 
Q 5.296875 2.90625 6.09375 3.703125 
L 25.296875 25.09375 
Q 35.796875 36.90625 35.796875 47.203125 
Q 35.796875 53.90625 32.296875 58.703125 
Q 28.796875 63.5 22.40625 63.5 
Q 18 63.5 14.296875 60.796875 
Q 10.59375 58.09375 8.90625 53.296875 
Q 9.203125 53.40625 10.203125 53.40625 
Q 12.703125 53.40625 14.09375 51.84375 
Q 15.5 50.296875 15.5 48.203125 
Q 15.5 45.5 13.75 44.203125 
Q 12 42.90625 10.296875 42.90625 
Q 9.59375 42.90625 8.6875 43.046875 
Q 7.796875 43.203125 6.390625 44.59375 
Q 5 46 5 48.5 
Q 5 55.5 10.296875 61.046875 
Q 15.59375 66.59375 23.703125 66.59375 
Q 32.90625 66.59375 38.90625 61.140625 
Q 44.90625 55.703125 44.90625 47.203125 
Q 44.90625 44.203125 44 41.5 
Q 43.09375 38.796875 41.890625 36.6875 
Q 40.703125 34.59375 37.5 31.25 
Q 34.296875 27.90625 31.6875 25.5 
Q 29.09375 23.09375 23.296875 18 
L 12.703125 7.703125 
L 30.703125 7.703125 
Q 39.5 7.703125 40.203125 8.5 
Q 41.203125 9.90625 42.40625 17.40625 
L 44.90625 17.40625 
L 42.09375 0 
z
" id="CMUSerif-Roman-50"/>
       </defs>
       <use xlink:href="#CMUSerif-Roman-50"/>
      </g>
     </g>
    </g>
    <g id="xtick_4">
     <g id="line2d_4">
      <g>
       <use style="stroke:#000000;stroke-width:0.8;" x="370.183772" xlink:href="#m9084e20f34" y="319.1184"/>
      </g>
     </g>
     <g id="text_4">
      <!-- 3 -->
      <g transform="translate(366.433772 336.529338)scale(0.15 -0.15)">
       <defs>
        <path d="M 4.203125 13.5 
Q 4.203125 16.5 5.890625 17.890625 
Q 7.59375 19.296875 9.796875 19.296875 
Q 12.09375 19.296875 13.75 17.796875 
Q 15.40625 16.296875 15.40625 13.703125 
Q 15.40625 10.90625 13.453125 9.34375 
Q 11.5 7.796875 8.796875 8.203125 
Q 11.203125 4.203125 15.59375 2.390625 
Q 20 0.59375 24.09375 0.59375 
Q 28.40625 0.59375 31.90625 4.296875 
Q 35.40625 8 35.40625 17.09375 
Q 35.40625 24.796875 32.40625 29.25 
Q 29.40625 33.703125 23.5 33.703125 
L 19.09375 33.703125 
Q 17.59375 33.703125 17.140625 33.84375 
Q 16.703125 34 16.703125 34.796875 
Q 16.703125 35.796875 18.203125 36 
Q 19.703125 36 22.09375 36.296875 
Q 27.90625 36.5 31 41.5 
Q 33.796875 46.203125 33.796875 52.90625 
Q 33.796875 59 30.890625 61.546875 
Q 28 64.09375 24.203125 64.09375 
Q 20.703125 64.09375 16.84375 62.640625 
Q 13 61.203125 10.90625 57.90625 
Q 17.09375 57.90625 17.09375 52.90625 
Q 17.09375 50.703125 15.6875 49.25 
Q 14.296875 47.796875 12 47.796875 
Q 9.796875 47.796875 8.34375 49.1875 
Q 6.90625 50.59375 6.90625 53 
Q 6.90625 58.703125 12 62.640625 
Q 17.09375 66.59375 24.59375 66.59375 
Q 32 66.59375 37.5 62.6875 
Q 43 58.796875 43 52.796875 
Q 43 46.90625 39.09375 42.046875 
Q 35.203125 37.203125 29 35.203125 
Q 36.59375 33.703125 41.140625 28.546875 
Q 45.703125 23.40625 45.703125 17.09375 
Q 45.703125 9.296875 39.546875 3.546875 
Q 33.40625 -2.203125 24.40625 -2.203125 
Q 16.09375 -2.203125 10.140625 2.296875 
Q 4.203125 6.796875 4.203125 13.5 
z
" id="CMUSerif-Roman-51"/>
       </defs>
       <use xlink:href="#CMUSerif-Roman-51"/>
      </g>
     </g>
    </g>
    <g id="xtick_5">
     <g id="line2d_5">
      <g>
       <use style="stroke:#000000;stroke-width:0.8;" x="466.974869" xlink:href="#m9084e20f34" y="319.1184"/>
      </g>
     </g>
     <g id="text_5">
      <!-- 4 -->
      <g transform="translate(463.224869 336.529338)scale(0.15 -0.15)">
       <defs>
        <path d="M 2.796875 16.5 
L 2.796875 19.59375 
L 33.5 66.5 
Q 34.296875 67.703125 35.5 67.703125 
Q 36.59375 67.703125 36.84375 67.25 
Q 37.09375 66.796875 37.09375 65.09375 
L 37.09375 19.59375 
L 47.09375 19.59375 
L 47.09375 16.5 
L 37.09375 16.5 
L 37.09375 7.796875 
Q 37.09375 4.90625 38.296875 4 
Q 39.5 3.09375 44.703125 3.09375 
L 46.796875 3.09375 
L 46.796875 0 
Q 42.703125 0.296875 33.203125 0.296875 
Q 23.796875 0.296875 19.703125 0 
L 19.703125 3.09375 
L 21.796875 3.09375 
Q 27 3.09375 28.203125 4 
Q 29.40625 4.90625 29.40625 7.796875 
L 29.40625 16.5 
z
M 5.59375 19.59375 
L 30 19.59375 
L 30 56.90625 
z
" id="CMUSerif-Roman-52"/>
       </defs>
       <use xlink:href="#CMUSerif-Roman-52"/>
      </g>
     </g>
    </g>
    <g id="text_6">
     <!-- Depth z (nm) -->
     <g transform="translate(275.819203 354.690275)scale(0.15 -0.15)">
      <defs>
       <path d="M 3.5 0 
L 3.5 3.09375 
L 5.90625 3.09375 
Q 11.296875 3.09375 12.546875 4 
Q 13.796875 4.90625 13.796875 7.796875 
L 13.796875 60.5 
Q 13.796875 63.40625 12.546875 64.296875 
Q 11.296875 65.203125 5.90625 65.203125 
L 3.5 65.203125 
L 3.5 68.296875 
L 40.09375 68.296875 
Q 52.90625 68.296875 61.796875 58.09375 
Q 70.703125 47.90625 70.703125 33.59375 
Q 70.703125 19.59375 61.75 9.796875 
Q 52.796875 0 40.09375 0 
z
M 22.40625 7.09375 
Q 22.40625 4.5 23.15625 3.796875 
Q 23.90625 3.09375 27.296875 3.09375 
L 37.40625 3.09375 
Q 44 3.09375 48.453125 5.796875 
Q 52.90625 8.5 55.203125 11.59375 
Q 60.703125 19.09375 60.703125 33.59375 
Q 60.703125 48.796875 55.5 55.90625 
Q 48.796875 65.203125 37.296875 65.203125 
L 27.296875 65.203125 
Q 23.90625 65.203125 23.15625 64.5 
Q 22.40625 63.796875 22.40625 61.203125 
z
" id="CMUSerif-Roman-68"/>
       <path d="M 2.796875 22 
Q 2.796875 31.40625 8.84375 38.09375 
Q 14.90625 44.796875 23.59375 44.796875 
Q 32.40625 44.796875 36.953125 39.09375 
Q 41.5 33.40625 41.5 25.203125 
Q 41.5 23.703125 41.09375 23.390625 
Q 40.703125 23.09375 39 23.09375 
L 11.09375 23.09375 
Q 11.09375 12.90625 14.09375 8.09375 
Q 18.296875 1.40625 25.40625 1.40625 
Q 26.40625 1.40625 27.546875 1.59375 
Q 28.703125 1.796875 31.09375 2.640625 
Q 33.5 3.5 35.59375 5.796875 
Q 37.703125 8.09375 38.90625 11.703125 
Q 39.203125 13.09375 40.203125 13.09375 
Q 41.5 13.09375 41.5 11.90625 
Q 41.5 11 40.546875 9.046875 
Q 39.59375 7.09375 37.796875 4.75 
Q 36 2.40625 32.5 0.65625 
Q 29 -1.09375 24.796875 -1.09375 
Q 16 -1.09375 9.390625 5.546875 
Q 2.796875 12.203125 2.796875 22 
z
M 11.203125 25.203125 
L 34.90625 25.203125 
Q 34.90625 27.296875 34.546875 29.640625 
Q 34.203125 32 33.140625 35.25 
Q 32.09375 38.5 29.640625 40.546875 
Q 27.203125 42.59375 23.59375 42.59375 
Q 22 42.59375 20.25 41.890625 
Q 18.5 41.203125 16.390625 39.546875 
Q 14.296875 37.90625 12.84375 34.15625 
Q 11.40625 30.40625 11.203125 25.203125 
z
" id="CMUSerif-Roman-101"/>
       <path d="M 2.796875 -16.296875 
Q 8.09375 -16.296875 9.34375 -15.640625 
Q 10.59375 -15 10.59375 -11.796875 
L 10.59375 35 
Q 10.59375 38.296875 9.34375 39.140625 
Q 8.09375 40 2.796875 40 
L 2.796875 43.09375 
L 17.203125 44.203125 
L 17.203125 37.59375 
Q 23.203125 44.203125 31.203125 44.203125 
Q 39.703125 44.203125 45.890625 37.59375 
Q 52.09375 31 52.09375 21.59375 
Q 52.09375 12.09375 45.5 5.5 
Q 38.90625 -1.09375 29.796875 -1.09375 
Q 24.796875 -1.09375 21.4375 1.453125 
Q 18.09375 4 17.5 5.90625 
L 17.5 5 
L 17.5 -11.796875 
Q 17.5 -15 18.75 -15.640625 
Q 20 -16.296875 25.296875 -16.296875 
L 25.296875 -19.40625 
Q 14.796875 -19.09375 14 -19.09375 
Q 13 -19.09375 2.796875 -19.40625 
z
M 17.5 11.40625 
Q 17.5 9.90625 17.703125 9.34375 
Q 17.90625 8.796875 18.90625 7.203125 
Q 22.90625 1.09375 29.40625 1.09375 
Q 35.09375 1.09375 39.4375 6.9375 
Q 43.796875 12.796875 43.796875 21.59375 
Q 43.796875 30 39.84375 35.84375 
Q 35.90625 41.703125 30.40625 41.703125 
Q 26.5 41.703125 23.09375 39.59375 
Q 19.703125 37.5 17.5 33.703125 
z
" id="CMUSerif-Roman-112"/>
       <path d="M 1.90625 40 
L 1.90625 42.203125 
Q 6.5 42.40625 9.546875 45.65625 
Q 12.59375 48.90625 13.640625 52.90625 
Q 14.703125 56.90625 14.796875 61.5 
L 17.296875 61.5 
L 17.296875 43.09375 
L 31.59375 43.09375 
L 31.59375 40 
L 17.296875 40 
L 17.296875 12.203125 
Q 17.296875 1.40625 24 1.40625 
Q 26.90625 1.40625 28.796875 4.34375 
Q 30.703125 7.296875 30.703125 12.59375 
L 30.703125 18.09375 
L 33.203125 18.09375 
L 33.203125 12.40625 
Q 33.203125 7 30.703125 2.953125 
Q 28.203125 -1.09375 23.296875 -1.09375 
Q 21.5 -1.09375 19.703125 -0.640625 
Q 17.90625 -0.203125 15.59375 1 
Q 13.296875 2.203125 11.84375 5.140625 
Q 10.40625 8.09375 10.40625 12.40625 
L 10.40625 40 
z
" id="CMUSerif-Roman-116"/>
       <path d="M 3.203125 0 
L 3.203125 3.09375 
Q 8.5 3.09375 9.75 3.75 
Q 11 4.40625 11 7.59375 
L 11 59.59375 
Q 11 63.296875 9.703125 64.25 
Q 8.40625 65.203125 3.203125 65.203125 
L 3.203125 68.296875 
L 17.59375 69.40625 
L 17.59375 34.59375 
L 17.703125 34.59375 
Q 19.296875 38.203125 22.890625 41.203125 
Q 26.5 44.203125 32.09375 44.203125 
Q 39.59375 44.203125 42.59375 40.5 
Q 44.796875 38 45.25 35.203125 
Q 45.703125 32.40625 45.703125 25.203125 
L 45.703125 6.09375 
Q 45.796875 4 47.390625 3.546875 
Q 49 3.09375 53.5 3.09375 
L 53.5 0 
Q 43.296875 0.296875 42.296875 0.296875 
Q 41.5 0.296875 31 0 
L 31 3.09375 
Q 36.296875 3.09375 37.546875 3.75 
Q 38.796875 4.40625 38.796875 7.59375 
L 38.796875 30.90625 
Q 38.796875 36 37.25 39 
Q 35.703125 42 31.40625 42 
Q 26.203125 42 22.046875 37.640625 
Q 17.90625 33.296875 17.90625 26 
L 17.90625 7.59375 
Q 17.90625 4.40625 19.15625 3.75 
Q 20.40625 3.09375 25.703125 3.09375 
L 25.703125 0 
Q 15.5 0.296875 14.5 0.296875 
Q 13.703125 0.296875 3.203125 0 
z
" id="CMUSerif-Roman-104"/>
       <path id="CMUSerif-Roman-32"/>
       <path d="M 2.796875 1.40625 
Q 2.796875 2.09375 3.703125 3.203125 
L 31.59375 40.90625 
L 20.203125 40.90625 
Q 12.296875 40.90625 9.75 38 
Q 7.203125 35.09375 6.703125 27 
L 4.203125 27 
L 5.296875 43.09375 
L 37.296875 43.09375 
Q 38.40625 43.09375 38.84375 43.046875 
Q 39.296875 43 39.59375 42.703125 
Q 39.90625 42.40625 39.90625 41.796875 
Q 39.90625 41.203125 39 40.09375 
L 11.203125 2.5 
L 23 2.5 
Q 31.296875 2.5 34.09375 5.953125 
Q 36.90625 9.40625 37.59375 18.703125 
L 40.09375 18.703125 
L 38.40625 0 
L 5.40625 0 
Q 3.796875 0 3.296875 0.203125 
Q 2.796875 0.40625 2.796875 1.40625 
z
" id="CMUSerif-Roman-122"/>
       <path d="M 9.90625 25 
Q 9.90625 41.90625 16.203125 55.5 
Q 18.90625 61.203125 22.65625 66 
Q 26.40625 70.796875 28.90625 72.890625 
Q 31.40625 75 32.09375 75 
Q 33.09375 75 33.09375 74 
Q 33.09375 73.5 31.796875 72.296875 
Q 15.703125 55.90625 15.703125 25 
Q 15.703125 -6 31.40625 -21.796875 
Q 33.09375 -23.5 33.09375 -24 
Q 33.09375 -25 32.09375 -25 
Q 31.40625 -25 29 -23 
Q 26.59375 -21 22.890625 -16.390625 
Q 19.203125 -11.796875 16.5 -6.203125 
Q 9.90625 7.40625 9.90625 25 
z
" id="CMUSerif-Roman-40"/>
       <path d="M 3.203125 0 
L 3.203125 3.09375 
Q 8.5 3.09375 9.75 3.75 
Q 11 4.40625 11 7.59375 
L 11 34.40625 
Q 11 38.09375 9.703125 39.046875 
Q 8.40625 40 3.203125 40 
L 3.203125 43.09375 
L 17.296875 44.203125 
L 17.296875 33.703125 
Q 22 44.203125 32.09375 44.203125 
Q 39.59375 44.203125 42.59375 40.5 
Q 44.796875 38 45.25 35.203125 
Q 45.703125 32.40625 45.703125 25.203125 
L 45.703125 6.09375 
Q 45.796875 4 47.390625 3.546875 
Q 49 3.09375 53.5 3.09375 
L 53.5 0 
Q 43.296875 0.296875 42.296875 0.296875 
Q 41.5 0.296875 31 0 
L 31 3.09375 
Q 36.296875 3.09375 37.546875 3.75 
Q 38.796875 4.40625 38.796875 7.59375 
L 38.796875 30.90625 
Q 38.796875 36 37.25 39 
Q 35.703125 42 31.40625 42 
Q 26.203125 42 22.046875 37.640625 
Q 17.90625 33.296875 17.90625 26 
L 17.90625 7.59375 
Q 17.90625 4.40625 19.15625 3.75 
Q 20.40625 3.09375 25.703125 3.09375 
L 25.703125 0 
Q 15.5 0.296875 14.5 0.296875 
Q 13.703125 0.296875 3.203125 0 
z
" id="CMUSerif-Roman-110"/>
       <path d="M 3.203125 0 
L 3.203125 3.09375 
Q 8.5 3.09375 9.75 3.75 
Q 11 4.40625 11 7.59375 
L 11 34.40625 
Q 11 38.09375 9.703125 39.046875 
Q 8.40625 40 3.203125 40 
L 3.203125 43.09375 
L 17.296875 44.203125 
L 17.296875 33.703125 
Q 22 44.203125 32.09375 44.203125 
Q 43.796875 44.203125 45.40625 34.40625 
Q 47.09375 38.203125 50.6875 41.203125 
Q 54.296875 44.203125 59.90625 44.203125 
Q 67.40625 44.203125 70.40625 40.5 
Q 72.59375 38 73.046875 35.203125 
Q 73.5 32.40625 73.5 25.203125 
L 73.5 6.09375 
Q 73.59375 4 75.1875 3.546875 
Q 76.796875 3.09375 81.296875 3.09375 
L 81.296875 0 
Q 71.09375 0.296875 70.09375 0.296875 
Q 69.296875 0.296875 58.796875 0 
L 58.796875 3.09375 
Q 64.09375 3.09375 65.34375 3.75 
Q 66.59375 4.40625 66.59375 7.59375 
L 66.59375 30.90625 
Q 66.59375 36 65.046875 39 
Q 63.5 42 59.203125 42 
Q 54 42 49.84375 37.640625 
Q 45.703125 33.296875 45.703125 26 
L 45.703125 7.59375 
Q 45.703125 4.40625 46.953125 3.75 
Q 48.203125 3.09375 53.5 3.09375 
L 53.5 0 
Q 43.296875 0.296875 42.296875 0.296875 
Q 41.5 0.296875 31 0 
L 31 3.09375 
Q 36.296875 3.09375 37.546875 3.75 
Q 38.796875 4.40625 38.796875 7.59375 
L 38.796875 30.90625 
Q 38.796875 36 37.25 39 
Q 35.703125 42 31.40625 42 
Q 26.203125 42 22.046875 37.640625 
Q 17.90625 33.296875 17.90625 26 
L 17.90625 7.59375 
Q 17.90625 4.40625 19.15625 3.75 
Q 20.40625 3.09375 25.703125 3.09375 
L 25.703125 0 
Q 15.5 0.296875 14.5 0.296875 
Q 13.703125 0.296875 3.203125 0 
z
" id="CMUSerif-Roman-109"/>
       <path d="M 5.703125 -24 
Q 5.703125 -23.5 7 -22.296875 
Q 23.09375 -5.90625 23.09375 25 
Q 23.09375 56 7.59375 71.703125 
Q 5.703125 73.5 5.703125 74 
Q 5.703125 75 6.703125 75 
Q 7.40625 75 9.796875 73 
Q 12.203125 71 15.890625 66.390625 
Q 19.59375 61.796875 22.296875 56.203125 
Q 28.90625 42.59375 28.90625 25 
Q 28.90625 8.09375 22.59375 -5.5 
Q 19.90625 -11.203125 16.15625 -16 
Q 12.40625 -20.796875 9.90625 -22.890625 
Q 7.40625 -25 6.703125 -25 
Q 5.703125 -25 5.703125 -24 
z
" id="CMUSerif-Roman-41"/>
      </defs>
      <use xlink:href="#CMUSerif-Roman-68"/>
      <use x="76.299988" xlink:href="#CMUSerif-Roman-101"/>
      <use x="120.699982" xlink:href="#CMUSerif-Roman-112"/>
      <use x="176.199966" xlink:href="#CMUSerif-Roman-116"/>
      <use x="214.999954" xlink:href="#CMUSerif-Roman-104"/>
      <use x="270.499939" xlink:href="#CMUSerif-Roman-32"/>
      <use x="303.799927" xlink:href="#CMUSerif-Roman-122"/>
      <use x="348.199921" xlink:href="#CMUSerif-Roman-32"/>
      <use x="381.499908" xlink:href="#CMUSerif-Roman-40"/>
      <use x="420.299896" xlink:href="#CMUSerif-Roman-110"/>
      <use x="475.799881" xlink:href="#CMUSerif-Roman-109"/>
      <use x="559.099869" xlink:href="#CMUSerif-Roman-41"/>
     </g>
    </g>
   </g>
   <g id="matplotlib.axis_2">
    <g id="ytick_1">
     <g id="line2d_6">
      <defs>
       <path d="M 0 0 
L -3.5 0 
" id="mc2dda590ac" style="stroke:#000000;stroke-width:0.8;"/>
      </defs>
      <g>
       <use style="stroke:#000000;stroke-width:0.8;" x="78.21" xlink:href="#mc2dda590ac" y="288.159431"/>
      </g>
     </g>
     <g id="text_7">
      <!-- −1.0 -->
      <g transform="translate(40.370937 293.3649)scale(0.15 -0.15)">
       <defs>
        <path d="M 5.703125 24.90625 
Q 5.703125 26.09375 7.703125 26.09375 
L 69 26.09375 
Q 69.09375 26.09375 69.546875 26.09375 
Q 70 26.09375 70.140625 26.09375 
Q 70.296875 26.09375 70.640625 26.09375 
Q 71 26.09375 71.140625 26 
Q 71.296875 25.90625 71.5 25.796875 
Q 71.703125 25.703125 71.796875 25.5 
Q 71.90625 25.296875 71.90625 25 
Q 71.90625 23.796875 69.296875 23.796875 
L 69.09375 23.796875 
Q 68.796875 23.796875 68.25 23.84375 
Q 67.703125 23.90625 67.40625 23.90625 
L 11.09375 23.90625 
Q 10.703125 23.90625 9.953125 23.84375 
Q 9.203125 23.796875 8.796875 23.796875 
L 8.296875 23.796875 
Q 5.703125 23.796875 5.703125 24.90625 
z
" id="CMUSerif-Roman-8722"/>
        <path d="M 11.5 0 
Q 8.5 3.203125 8.5 5.296875 
Q 8.5 7.40625 10 8.953125 
Q 11.5 10.5 13.796875 10.5 
Q 16 10.5 17.5 9.046875 
Q 19 7.59375 19 5.296875 
Q 19 3 17.390625 1.5 
Q 15.796875 0 13.796875 0 
Q 11.5 0 8.5 3.203125 
z
" id="CMUSerif-Roman-46"/>
       </defs>
       <use xlink:href="#CMUSerif-Roman-8722"/>
       <use x="77.799988" xlink:href="#CMUSerif-Roman-49"/>
       <use x="127.799973" xlink:href="#CMUSerif-Roman-46"/>
       <use x="155.59996" xlink:href="#CMUSerif-Roman-48"/>
      </g>
     </g>
    </g>
    <g id="ytick_2">
     <g id="line2d_7">
      <g>
       <use style="stroke:#000000;stroke-width:0.8;" x="78.21" xlink:href="#mc2dda590ac" y="235.363234"/>
      </g>
     </g>
     <g id="text_8">
      <!-- −0.5 -->
      <g transform="translate(40.370937 240.568703)scale(0.15 -0.15)">
       <defs>
        <path d="M 5 16.09375 
Q 5 19.09375 6.59375 20.25 
Q 8.203125 21.40625 9.90625 21.40625 
Q 12.203125 21.40625 13.546875 19.953125 
Q 14.90625 18.5 14.90625 16.5 
Q 14.90625 14.5 13.546875 13.046875 
Q 12.203125 11.59375 9.90625 11.59375 
Q 8.796875 11.59375 8.203125 11.796875 
Q 9.5 7.203125 13.546875 3.890625 
Q 17.59375 0.59375 22.90625 0.59375 
Q 29.59375 0.59375 33.59375 7.09375 
Q 36 11.296875 36 20.796875 
Q 36 29.203125 34.203125 33.40625 
Q 31.40625 39.796875 25.703125 39.796875 
Q 17.59375 39.796875 12.796875 32.796875 
Q 12.203125 31.90625 11.5 31.90625 
Q 10.5 31.90625 10.296875 32.453125 
Q 10.09375 33 10.09375 34.5 
L 10.09375 64.09375 
Q 10.09375 66.5 11.09375 66.5 
Q 11.5 66.5 12.296875 66.203125 
Q 18.59375 63.40625 25.59375 63.40625 
Q 32.796875 63.40625 39.203125 66.296875 
Q 39.703125 66.59375 40 66.59375 
Q 41 66.59375 41 65.5 
Q 41 65.09375 40.203125 63.9375 
Q 39.40625 62.796875 37.703125 61.296875 
Q 36 59.796875 33.796875 58.390625 
Q 31.59375 57 28.390625 56.046875 
Q 25.203125 55.09375 21.703125 55.09375 
Q 17.5 55.09375 13.203125 56.40625 
L 13.203125 36.90625 
Q 18.40625 42 25.90625 42 
Q 33.90625 42 39.40625 35.546875 
Q 44.90625 29.09375 44.90625 20.09375 
Q 44.90625 10.703125 38.40625 4.25 
Q 31.90625 -2.203125 23.09375 -2.203125 
Q 15.09375 -2.203125 10.046875 3.5 
Q 5 9.203125 5 16.09375 
z
" id="CMUSerif-Roman-53"/>
       </defs>
       <use xlink:href="#CMUSerif-Roman-8722"/>
       <use x="77.799988" xlink:href="#CMUSerif-Roman-48"/>
       <use x="127.799973" xlink:href="#CMUSerif-Roman-46"/>
       <use x="155.59996" xlink:href="#CMUSerif-Roman-53"/>
      </g>
     </g>
    </g>
    <g id="ytick_3">
     <g id="line2d_8">
      <g>
       <use style="stroke:#000000;stroke-width:0.8;" x="78.21" xlink:href="#mc2dda590ac" y="182.567038"/>
      </g>
     </g>
     <g id="text_9">
      <!-- 0.0 -->
      <g transform="translate(52.040469 187.772507)scale(0.15 -0.15)">
       <use xlink:href="#CMUSerif-Roman-48"/>
       <use x="49.999985" xlink:href="#CMUSerif-Roman-46"/>
       <use x="77.799973" xlink:href="#CMUSerif-Roman-48"/>
      </g>
     </g>
    </g>
    <g id="ytick_4">
     <g id="line2d_9">
      <g>
       <use style="stroke:#000000;stroke-width:0.8;" x="78.21" xlink:href="#mc2dda590ac" y="129.770841"/>
      </g>
     </g>
     <g id="text_10">
      <!-- 0.5 -->
      <g transform="translate(52.040469 134.97631)scale(0.15 -0.15)">
       <use xlink:href="#CMUSerif-Roman-48"/>
       <use x="49.999985" xlink:href="#CMUSerif-Roman-46"/>
       <use x="77.799973" xlink:href="#CMUSerif-Roman-53"/>
      </g>
     </g>
    </g>
    <g id="ytick_5">
     <g id="line2d_10">
      <g>
       <use style="stroke:#000000;stroke-width:0.8;" x="78.21" xlink:href="#mc2dda590ac" y="76.974645"/>
      </g>
     </g>
     <g id="text_11">
      <!-- 1.0 -->
      <g transform="translate(52.040469 82.180114)scale(0.15 -0.15)">
       <use xlink:href="#CMUSerif-Roman-49"/>
       <use x="49.999985" xlink:href="#CMUSerif-Roman-46"/>
       <use x="77.799973" xlink:href="#CMUSerif-Roman-48"/>
      </g>
     </g>
    </g>
    <g id="text_12">
     <!-- SLD ($Å^-2$) -->
     <g transform="translate(32.620937 221.2728)rotate(-90)scale(0.15 -0.15)">
      <defs>
       <path d="M 5.59375 0.203125 
L 5.59375 20.203125 
Q 5.59375 21.296875 5.640625 21.6875 
Q 5.703125 22.09375 6 22.390625 
Q 6.296875 22.703125 6.90625 22.703125 
Q 8 22.703125 8.09375 21.703125 
Q 8.40625 11.796875 14.296875 6.296875 
Q 20.09375 0.90625 30.09375 0.90625 
Q 36.09375 0.90625 39.796875 5.203125 
Q 43.5 9.5 43.5 15.203125 
Q 43.5 20.59375 40.40625 24.40625 
Q 39.09375 26.09375 37.4375 27.1875 
Q 35.796875 28.296875 34.796875 28.640625 
Q 33.796875 29 31.90625 29.5 
Q 19.5 32.5 18.703125 32.796875 
Q 12.796875 34.796875 9.1875 39.84375 
Q 5.59375 44.90625 5.59375 51.09375 
Q 5.59375 59.09375 11.25 64.796875 
Q 16.90625 70.5 25.09375 70.5 
Q 29.203125 70.5 32.640625 69.203125 
Q 36.09375 67.90625 37.5 66.75 
Q 38.90625 65.59375 41.09375 63.5 
L 44.59375 69.203125 
Q 45.40625 70.5 46.09375 70.5 
Q 46.90625 70.5 47.046875 70.046875 
Q 47.203125 69.59375 47.203125 68.09375 
L 47.203125 48 
Q 47.203125 46.90625 47.140625 46.5 
Q 47.09375 46.09375 46.796875 45.84375 
Q 46.5 45.59375 45.90625 45.59375 
Q 44.90625 45.59375 44.703125 46.796875 
Q 41.90625 67.703125 25.203125 67.703125 
Q 19.5 67.703125 15.75 63.84375 
Q 12 60 12 54.59375 
Q 12 50.203125 14.75 46.59375 
Q 17.5 43 22.09375 41.90625 
L 34.90625 38.796875 
Q 41.296875 37.296875 45.59375 31.640625 
Q 49.90625 26 49.90625 18.59375 
Q 49.90625 10.09375 44.34375 3.9375 
Q 38.796875 -2.203125 30.203125 -2.203125 
Q 24 -2.203125 19.203125 -0.140625 
Q 14.40625 1.90625 11.796875 4.796875 
Q 9.796875 1.5 8.5 -0.40625 
L 8.203125 -0.90625 
Q 7.40625 -2.203125 6.703125 -2.203125 
Q 5.90625 -2.203125 5.75 -1.703125 
Q 5.59375 -1.203125 5.59375 0.203125 
z
" id="CMUSerif-Roman-83"/>
       <path d="M 3.296875 0 
L 3.296875 3.09375 
L 5.703125 3.09375 
Q 11.09375 3.09375 12.34375 4 
Q 13.59375 4.90625 13.59375 7.796875 
L 13.59375 60.5 
Q 13.59375 63.40625 12.34375 64.296875 
Q 11.09375 65.203125 5.703125 65.203125 
L 3.296875 65.203125 
L 3.296875 68.296875 
Q 6.796875 68 18.5 68 
Q 31.703125 68 35.296875 68.296875 
L 35.296875 65.203125 
L 32 65.203125 
Q 27.40625 65.203125 25.296875 64.59375 
Q 23.203125 64 22.84375 63.203125 
Q 22.5 62.40625 22.5 60.40625 
L 22.5 7.09375 
Q 22.5 4.5 23.25 3.796875 
Q 24 3.09375 27.40625 3.09375 
L 35.59375 3.09375 
Q 40.703125 3.09375 44.34375 4.59375 
Q 48 6.09375 49.953125 8 
Q 51.90625 9.90625 53.203125 13.5 
Q 54.5 17.09375 54.890625 19.390625 
Q 55.296875 21.703125 55.703125 25.796875 
L 58.203125 25.796875 
L 55.40625 0 
z
" id="CMUSerif-Roman-76"/>
       <path d="M 49.8125 79.390625 
Q 49.8125 82.46875 47.625 84.640625 
Q 45.453125 86.8125 42.390625 86.8125 
Q 39.265625 86.8125 37.140625 84.6875 
Q 35.015625 82.5625 35.015625 79.390625 
Q 35.015625 76.3125 37.140625 74.15625 
Q 39.265625 72.015625 42.390625 72.015625 
Q 45.453125 72.015625 47.625 74.15625 
Q 49.8125 76.3125 49.8125 79.390625 
z
M 34.421875 68.703125 
Q 31.78125 70.515625 30.390625 73.265625 
Q 29 76.03125 29 79.390625 
Q 29 84.96875 32.90625 88.890625 
Q 36.8125 92.828125 42.390625 92.828125 
Q 47.953125 92.828125 51.875 88.890625 
Q 55.8125 84.96875 55.8125 79.390625 
Q 55.8125 75.53125 54.03125 72.546875 
Q 52.25 69.578125 48.875 67.828125 
L 61.53125 0 
L 51.21875 0 
L 48.1875 18.703125 
L 15.375 18.703125 
L 5.078125 0 
L -5.328125 0 
z
M 40.375 63.1875 
L 19.921875 26.90625 
L 46.6875 26.90625 
z
" id="DejaVuSans-Oblique-197"/>
       <path d="M 10.59375 35.5 
L 73.1875 35.5 
L 73.1875 27.203125 
L 10.59375 27.203125 
z
" id="DejaVuSans-8722"/>
       <path d="M 19.1875 8.296875 
L 53.609375 8.296875 
L 53.609375 0 
L 7.328125 0 
L 7.328125 8.296875 
Q 12.9375 14.109375 22.625 23.890625 
Q 32.328125 33.6875 34.8125 36.53125 
Q 39.546875 41.84375 41.421875 45.53125 
Q 43.3125 49.21875 43.3125 52.78125 
Q 43.3125 58.59375 39.234375 62.25 
Q 35.15625 65.921875 28.609375 65.921875 
Q 23.96875 65.921875 18.8125 64.3125 
Q 13.671875 62.703125 7.8125 59.421875 
L 7.8125 69.390625 
Q 13.765625 71.78125 18.9375 73 
Q 24.125 74.21875 28.421875 74.21875 
Q 39.75 74.21875 46.484375 68.546875 
Q 53.21875 62.890625 53.21875 53.421875 
Q 53.21875 48.921875 51.53125 44.890625 
Q 49.859375 40.875 45.40625 35.40625 
Q 44.1875 33.984375 37.640625 27.21875 
Q 31.109375 20.453125 19.1875 8.296875 
z
" id="DejaVuSans-50"/>
      </defs>
      <use transform="translate(0 0.171875)" xlink:href="#CMUSerif-Roman-83"/>
      <use transform="translate(55.499985 0.171875)" xlink:href="#CMUSerif-Roman-76"/>
      <use transform="translate(117.999969 0.171875)" xlink:href="#CMUSerif-Roman-68"/>
      <use transform="translate(194.299957 0.171875)" xlink:href="#CMUSerif-Roman-32"/>
      <use transform="translate(227.599945 0.171875)" xlink:href="#CMUSerif-Roman-40"/>
      <use transform="translate(266.399933 0.171875)" xlink:href="#DejaVuSans-Oblique-197"/>
      <use transform="translate(358.251665 38.453125)scale(0.7)" xlink:href="#DejaVuSans-8722"/>
      <use transform="translate(433.276079 0.171875)" xlink:href="#DejaVuSans-50"/>
      <use transform="translate(496.899126 0.171875)" xlink:href="#CMUSerif-Roman-41"/>
     </g>
    </g>
   </g>
   <g id="line2d_11">
    <path clip-path="url(#pbbff8d18e1)" d="M 78.842568 288.159431 
L 79.327977 288.159431 
L 79.813386 76.974645 
L 176.409738 76.974645 
L 176.895147 288.159431 
L 273.006091 288.159431 
L 273.4915 76.974645 
L 370.087853 76.974645 
L 370.573261 288.159431 
L 466.684205 288.159431 
L 467.169614 76.974645 
L 563.280558 76.974645 
L 563.765967 288.159431 
L 563.765967 288.159431 
" style="fill:none;stroke:#1f77b4;stroke-linecap:square;stroke-width:2;"/>
   </g>
   <g id="line2d_12">
    <path clip-path="url(#pbbff8d18e1)" d="M 79.810479 182.567038 
L 88.424887 145.464026 
L 92.974068 126.856557 
L 96.748921 112.320026 
L 100.039818 100.499254 
L 103.040342 90.533506 
L 105.750493 82.27942 
L 108.267062 75.308035 
L 110.590048 69.506739 
L 112.719452 64.752503 
L 114.752065 60.738863 
L 116.687887 57.408919 
L 118.430127 54.833955 
L 120.075576 52.776873 
L 121.624233 51.178801 
L 123.0761 49.981975 
L 124.431175 49.130483 
L 125.78625 48.537075 
L 127.044535 48.218154 
L 128.302819 48.123291 
L 129.561103 48.252644 
L 130.819387 48.605997 
L 132.077672 49.182762 
L 133.432747 50.052631 
L 134.884613 51.268995 
L 136.33648 52.776873 
L 137.885137 54.702805 
L 139.530586 57.102891 
L 141.272826 60.033962 
L 143.208648 63.749689 
L 145.241261 68.155587 
L 147.370665 73.30485 
L 149.693651 79.516338 
L 152.21022 86.905043 
L 154.920371 95.573981 
L 157.920895 105.95344 
L 161.211792 118.168394 
L 164.986645 133.074749 
L 169.535826 152.003627 
L 176.214412 180.877604 
L 185.215984 219.670049 
L 189.765166 238.277519 
L 193.540019 252.814049 
L 196.830916 264.634822 
L 199.83144 274.60057 
L 202.541591 282.854655 
L 205.058159 289.826041 
L 207.381146 295.627336 
L 209.51055 300.381573 
L 211.543163 304.395213 
L 213.478985 307.725157 
L 215.221224 310.30012 
L 216.866673 312.357203 
L 218.415331 313.955275 
L 219.867197 315.1521 
L 221.222273 316.003593 
L 222.577348 316.597001 
L 223.835632 316.915922 
L 225.093916 317.010785 
L 226.352201 316.881432 
L 227.610485 316.528078 
L 228.868769 315.951314 
L 230.223845 315.081444 
L 231.675711 313.865081 
L 233.127578 312.357203 
L 234.676235 310.431271 
L 236.321684 308.031185 
L 238.063924 305.100114 
L 239.999745 301.384387 
L 242.032359 296.978489 
L 244.161763 291.829226 
L 246.484749 285.617738 
L 249.001318 278.229033 
L 251.711468 269.560095 
L 254.711992 259.180636 
L 258.00289 246.965682 
L 261.777742 232.059326 
L 266.326924 213.130449 
L 273.00551 184.256472 
L 282.007082 145.464026 
L 286.556263 126.856557 
L 290.331116 112.320026 
L 293.622014 100.499254 
L 296.622538 90.533506 
L 299.332688 82.27942 
L 301.849257 75.308035 
L 304.172243 69.506739 
L 306.301647 64.752503 
L 308.33426 60.738863 
L 310.270082 57.408919 
L 312.012322 54.833955 
L 313.657771 52.776873 
L 315.206428 51.178801 
L 316.658295 49.981975 
L 318.01337 49.130483 
L 319.368446 48.537075 
L 320.62673 48.218154 
L 321.885014 48.123291 
L 323.143298 48.252644 
L 324.401583 48.605997 
L 325.659867 49.182762 
L 327.014942 50.052631 
L 328.466809 51.268995 
L 329.918675 52.776873 
L 331.467333 54.702805 
L 333.112781 57.102891 
L 334.855021 60.033962 
L 336.790843 63.749689 
L 338.823456 68.155587 
L 340.95286 73.30485 
L 343.275847 79.516338 
L 345.792415 86.905043 
L 348.502566 95.573981 
L 351.50309 105.95344 
L 354.793987 118.168394 
L 358.56884 133.074749 
L 363.118022 152.003627 
L 369.796607 180.877604 
L 378.798179 219.670049 
L 383.347361 238.277519 
L 387.122214 252.814049 
L 390.413111 264.634822 
L 393.413635 274.60057 
L 396.123786 282.854655 
L 398.640354 289.826041 
L 400.963341 295.627336 
L 403.092745 300.381573 
L 405.125358 304.395213 
L 407.06118 307.725157 
L 408.80342 310.30012 
L 410.448868 312.357203 
L 411.997526 313.955275 
L 413.449392 315.1521 
L 414.804468 316.003593 
L 416.159543 316.597001 
L 417.417827 316.915922 
L 418.676112 317.010785 
L 419.934396 316.881432 
L 421.19268 316.528078 
L 422.450964 315.951314 
L 423.80604 315.081444 
L 425.257906 313.865081 
L 426.709773 312.357203 
L 428.25843 310.431271 
L 429.903879 308.031185 
L 431.646119 305.100114 
L 433.581941 301.384387 
L 435.614554 296.978489 
L 437.743958 291.829226 
L 440.066944 285.617738 
L 442.583513 278.229033 
L 445.293663 269.560095 
L 448.294188 259.180636 
L 451.585085 246.965682 
L 455.359938 232.059326 
L 459.909119 213.130449 
L 466.587705 184.256472 
L 475.589277 145.464026 
L 480.138459 126.856557 
L 483.913311 112.320026 
L 487.204209 100.499254 
L 490.204733 90.533506 
L 492.914884 82.27942 
L 495.431452 75.308035 
L 497.754438 69.506739 
L 499.883843 64.752503 
L 501.916456 60.738863 
L 503.852278 57.408919 
L 505.594517 54.833955 
L 507.239966 52.776873 
L 508.788624 51.178801 
L 510.24049 49.981975 
L 511.595565 49.130483 
L 512.950641 48.537075 
L 514.208925 48.218154 
L 515.467209 48.123291 
L 516.725494 48.252644 
L 517.983778 48.605997 
L 519.242062 49.182762 
L 520.597137 50.052631 
L 522.049004 51.268995 
L 523.50087 52.776873 
L 525.049528 54.702805 
L 526.694977 57.102891 
L 528.437216 60.033962 
L 530.373038 63.749689 
L 532.405651 68.155587 
L 534.535055 73.30485 
L 536.858042 79.516338 
L 539.37461 86.905043 
L 542.084761 95.573981 
L 545.085285 105.95344 
L 548.376182 118.168394 
L 552.151035 133.074749 
L 556.700217 152.003627 
L 563.18522 180.032971 
L 563.18522 180.032971 
" style="fill:none;stroke:#ff7f0e;stroke-dasharray:9.6,2.4,1.5,2.4;stroke-dashoffset:0;stroke-width:1.5;"/>
   </g>
   <g id="line2d_13">
    <path clip-path="url(#pbbff8d18e1)" d="M 79.810479 182.567038 
L 85.23078 159.399381 
L 88.134513 147.985278 
L 90.4575 139.717992 
L 92.490113 133.275997 
L 94.329144 128.183131 
L 95.974592 124.280633 
L 97.426459 121.387708 
L 98.781534 119.177135 
L 99.943027 117.671955 
L 101.007729 116.61597 
L 102.072431 115.8749 
L 103.040342 115.47748 
L 103.911462 115.34616 
L 104.782582 115.429737 
L 105.653702 115.727946 
L 106.621613 116.309835 
L 107.589524 117.15321 
L 108.654226 118.378938 
L 109.815719 120.065412 
L 111.074003 122.29285 
L 112.429079 125.140625 
L 113.977736 128.937536 
L 115.719976 133.854256 
L 117.655798 140.044277 
L 119.785202 147.62377 
L 122.301771 157.428675 
L 125.592668 171.217681 
L 135.078196 211.570465 
L 137.691555 221.392749 
L 139.820959 228.583804 
L 141.756781 234.362637 
L 143.499021 238.86752 
L 145.047679 242.269529 
L 146.402754 244.752768 
L 147.661038 246.628411 
L 148.822532 247.980866 
L 149.887234 248.894243 
L 150.855145 249.449839 
L 151.823056 249.74148 
L 152.694175 249.777301 
L 153.565295 249.598258 
L 154.436415 249.204923 
L 155.404326 248.518106 
L 156.469028 247.462121 
L 157.630521 245.956941 
L 158.888806 243.920179 
L 160.243881 241.269666 
L 161.695747 237.926715 
L 163.341196 233.545798 
L 165.180227 227.964399 
L 167.21284 221.047188 
L 169.535826 212.330223 
L 172.439559 200.508778 
L 176.89195 181.300004 
L 182.021878 159.399381 
L 184.925611 147.985278 
L 187.248597 139.717992 
L 189.28121 133.275997 
L 191.120241 128.183131 
L 192.76569 124.280633 
L 194.217556 121.387708 
L 195.572632 119.177135 
L 196.734125 117.671955 
L 197.798827 116.61597 
L 198.863529 115.8749 
L 199.83144 115.47748 
L 200.70256 115.34616 
L 201.57368 115.429737 
L 202.4448 115.727946 
L 203.412711 116.309835 
L 204.380622 117.15321 
L 205.445324 118.378938 
L 206.606817 120.065412 
L 207.865101 122.29285 
L 209.220176 125.140625 
L 210.768834 128.937536 
L 212.511074 133.854256 
L 214.446896 140.044277 
L 216.5763 147.62377 
L 219.092868 157.428675 
L 222.383766 171.217681 
L 231.869293 211.570465 
L 234.482653 221.392749 
L 236.612057 228.583804 
L 238.547879 234.362637 
L 240.290119 238.86752 
L 241.838776 242.269529 
L 243.193852 244.752768 
L 244.452136 246.628411 
L 245.613629 247.980866 
L 246.678331 248.894243 
L 247.646242 249.449839 
L 248.614153 249.74148 
L 249.485273 249.777301 
L 250.356393 249.598258 
L 251.227513 249.204923 
L 252.195424 248.518106 
L 253.260126 247.462121 
L 254.421619 245.956941 
L 255.679903 243.920179 
L 257.034979 241.269666 
L 258.486845 237.926715 
L 260.132294 233.545798 
L 261.971325 227.964399 
L 264.003938 221.047188 
L 266.326924 212.330223 
L 269.230657 200.508778 
L 273.683047 181.300004 
L 278.812976 159.399381 
L 281.716709 147.985278 
L 284.039695 139.717992 
L 286.072308 133.275997 
L 287.911339 128.183131 
L 289.556787 124.280633 
L 291.008654 121.387708 
L 292.363729 119.177135 
L 293.525222 117.671955 
L 294.589925 116.61597 
L 295.654627 115.8749 
L 296.622538 115.47748 
L 297.493657 115.34616 
L 298.364777 115.429737 
L 299.235897 115.727946 
L 300.203808 116.309835 
L 301.171719 117.15321 
L 302.236421 118.378938 
L 303.397914 120.065412 
L 304.656199 122.29285 
L 306.011274 125.140625 
L 307.559932 128.937536 
L 309.302171 133.854256 
L 311.237993 140.044277 
L 313.367397 147.62377 
L 315.883966 157.428675 
L 319.174863 171.217681 
L 328.660391 211.570465 
L 331.273751 221.392749 
L 333.403155 228.583804 
L 335.338977 234.362637 
L 337.081216 238.86752 
L 338.629874 242.269529 
L 339.984949 244.752768 
L 341.243234 246.628411 
L 342.404727 247.980866 
L 343.469429 248.894243 
L 344.43734 249.449839 
L 345.405251 249.74148 
L 346.276371 249.777301 
L 347.147491 249.598258 
L 348.01861 249.204923 
L 348.986521 248.518106 
L 350.051223 247.462121 
L 351.212717 245.956941 
L 352.471001 243.920179 
L 353.826076 241.269666 
L 355.277943 237.926715 
L 356.923391 233.545798 
L 358.762422 227.964399 
L 360.795035 221.047188 
L 363.118022 212.330223 
L 366.021755 200.508778 
L 370.474145 181.300004 
L 375.604073 159.399381 
L 378.507806 147.985278 
L 380.830792 139.717992 
L 382.863406 133.275997 
L 384.702436 128.183131 
L 386.347885 124.280633 
L 387.799752 121.387708 
L 389.154827 119.177135 
L 390.31632 117.671955 
L 391.381022 116.61597 
L 392.445724 115.8749 
L 393.413635 115.47748 
L 394.284755 115.34616 
L 395.155875 115.429737 
L 396.026995 115.727946 
L 396.994906 116.309835 
L 397.962817 117.15321 
L 399.027519 118.378938 
L 400.189012 120.065412 
L 401.447296 122.29285 
L 402.802372 125.140625 
L 404.351029 128.937536 
L 406.093269 133.854256 
L 408.029091 140.044277 
L 410.158495 147.62377 
L 412.675064 157.428675 
L 415.965961 171.217681 
L 425.451488 211.570465 
L 428.064848 221.392749 
L 430.194252 228.583804 
L 432.130074 234.362637 
L 433.872314 238.86752 
L 435.420972 242.269529 
L 436.776047 244.752768 
L 438.034331 246.628411 
L 439.195824 247.980866 
L 440.260526 248.894243 
L 441.228437 249.449839 
L 442.196348 249.74148 
L 443.067468 249.777301 
L 443.938588 249.598258 
L 444.809708 249.204923 
L 445.777619 248.518106 
L 446.842321 247.462121 
L 448.003814 245.956941 
L 449.262099 243.920179 
L 450.617174 241.269666 
L 452.06904 237.926715 
L 453.714489 233.545798 
L 455.55352 227.964399 
L 457.586133 221.047188 
L 459.909119 212.330223 
L 462.812852 200.508778 
L 467.265243 181.300004 
L 472.395171 159.399381 
L 475.298904 147.985278 
L 477.62189 139.717992 
L 479.654503 133.275997 
L 481.493534 128.183131 
L 483.138983 124.280633 
L 484.590849 121.387708 
L 485.945924 119.177135 
L 487.107418 117.671955 
L 488.17212 116.61597 
L 489.236822 115.8749 
L 490.204733 115.47748 
L 491.075853 115.34616 
L 491.946973 115.429737 
L 492.818092 115.727946 
L 493.786003 116.309835 
L 494.753914 117.15321 
L 495.818616 118.378938 
L 496.98011 120.065412 
L 498.238394 122.29285 
L 499.593469 125.140625 
L 501.142127 128.937536 
L 502.884367 133.854256 
L 504.820189 140.044277 
L 506.949593 147.62377 
L 509.466161 157.428675 
L 512.757059 171.217681 
L 522.242586 211.570465 
L 524.855946 221.392749 
L 526.98535 228.583804 
L 528.921172 234.362637 
L 530.663412 238.86752 
L 532.212069 242.269529 
L 533.567145 244.752768 
L 534.825429 246.628411 
L 535.986922 247.980866 
L 537.051624 248.894243 
L 538.019535 249.449839 
L 538.987446 249.74148 
L 539.858566 249.777301 
L 540.729686 249.598258 
L 541.600806 249.204923 
L 542.568717 248.518106 
L 543.633419 247.462121 
L 544.794912 245.956941 
L 546.053196 243.920179 
L 547.408271 241.269666 
L 548.860138 237.926715 
L 550.505587 233.545798 
L 552.344617 227.964399 
L 554.377231 221.047188 
L 556.700217 212.330223 
L 559.60395 200.508778 
L 563.18522 185.100655 
L 563.18522 185.100655 
" style="fill:none;stroke:#2ca02c;stroke-dasharray:5.55,2.4;stroke-dashoffset:0;stroke-width:1.5;"/>
   </g>
   <g id="line2d_14">
    <path clip-path="url(#pbbff8d18e1)" d="M 79.810479 182.567038 
L 83.972496 164.898231 
L 86.1019 156.798291 
L 87.84414 150.977896 
L 89.392798 146.560969 
L 90.747873 143.363546 
L 91.909366 141.163558 
L 92.974068 139.611072 
L 93.941979 138.599659 
L 94.813099 138.022873 
L 95.587428 137.778991 
L 96.361757 137.789604 
L 97.136085 138.054651 
L 97.910414 138.572626 
L 98.781534 139.453957 
L 99.749445 140.796454 
L 100.814147 142.70087 
L 101.97564 145.265827 
L 103.330716 148.858018 
L 104.782582 153.355238 
L 106.524822 159.512531 
L 108.654226 167.917615 
L 111.848332 181.581588 
L 116.203932 200.106372 
L 118.333336 208.220471 
L 120.075576 214.056158 
L 121.624233 218.489105 
L 122.979308 221.702123 
L 124.140802 223.916435 
L 125.205504 225.482664 
L 126.173415 226.50695 
L 127.044535 227.095534 
L 127.818863 227.349999 
L 128.593192 227.349999 
L 129.367521 227.095534 
L 130.14185 226.588048 
L 131.01297 225.718335 
L 131.980881 224.38842 
L 133.045583 222.49732 
L 134.207076 219.946099 
L 135.46536 216.644482 
L 136.917227 212.203599 
L 138.659466 206.102636 
L 140.78887 197.747511 
L 143.789394 184.959328 
L 148.532158 164.768933 
L 150.661562 156.683231 
L 152.403802 150.878186 
L 153.95246 146.477323 
L 155.307535 143.295526 
L 156.469028 141.109885 
L 157.53373 139.571157 
L 158.501641 138.572626 
L 159.372761 138.007643 
L 160.14709 137.774348 
L 160.921419 137.795573 
L 161.695747 138.071199 
L 162.470076 138.599659 
L 163.341196 139.492598 
L 164.309107 140.847665 
L 165.373809 142.765377 
L 166.535302 145.344046 
L 167.890378 148.950958 
L 169.439035 153.784611 
L 171.181275 159.997263 
L 173.310679 168.450979 
L 176.601577 182.567038 
L 180.763594 200.235844 
L 182.892998 208.335785 
L 184.635238 214.15618 
L 186.183895 218.573106 
L 187.538971 221.77053 
L 188.700464 223.970518 
L 189.765166 225.523004 
L 190.733077 226.534417 
L 191.604197 227.111203 
L 192.378525 227.355085 
L 193.152854 227.344472 
L 193.927183 227.079425 
L 194.701512 226.561449 
L 195.572632 225.680119 
L 196.540543 224.337622 
L 197.605245 222.433206 
L 198.766738 219.868249 
L 200.121813 216.276058 
L 201.57368 211.778838 
L 203.315919 205.621545 
L 205.445324 197.216461 
L 208.63943 183.552487 
L 212.995029 165.027704 
L 215.124433 156.913605 
L 216.866673 151.077918 
L 218.415331 146.644971 
L 219.770406 143.431953 
L 220.931899 141.21764 
L 221.996601 139.651412 
L 222.964512 138.627126 
L 223.835632 138.038542 
L 224.609961 137.784077 
L 225.38429 137.784077 
L 226.158619 138.038542 
L 226.932947 138.546028 
L 227.804067 139.415741 
L 228.771978 140.745656 
L 229.83668 142.636756 
L 230.998173 145.187977 
L 232.256458 148.489594 
L 233.708324 152.930477 
L 235.450564 159.03144 
L 237.579968 167.386565 
L 240.580492 180.174748 
L 245.323256 200.365143 
L 247.45266 208.450845 
L 249.1949 214.255889 
L 250.743557 218.656753 
L 252.098633 221.83855 
L 253.260126 224.024191 
L 254.324828 225.562919 
L 255.292739 226.561449 
L 256.163859 227.126432 
L 256.938188 227.359728 
L 257.712516 227.338503 
L 258.486845 227.062877 
L 259.261174 226.534417 
L 260.132294 225.641477 
L 261.100205 224.286411 
L 262.164907 222.368698 
L 263.3264 219.79003 
L 264.681475 216.183118 
L 266.230133 211.349464 
L 267.972373 205.136813 
L 270.101777 196.683097 
L 273.392674 182.567038 
L 277.554691 164.898231 
L 279.684095 156.798291 
L 281.426335 150.977896 
L 282.974993 146.560969 
L 284.330068 143.363546 
L 285.491561 141.163558 
L 286.556263 139.611072 
L 287.524174 138.599659 
L 288.395294 138.022873 
L 289.169623 137.778991 
L 289.943952 137.789604 
L 290.718281 138.054651 
L 291.492609 138.572626 
L 292.363729 139.453957 
L 293.33164 140.796454 
L 294.396342 142.70087 
L 295.557835 145.265827 
L 296.912911 148.858018 
L 298.364777 153.355238 
L 300.107017 159.512531 
L 302.236421 167.917615 
L 305.430527 181.581588 
L 309.786127 200.106372 
L 311.915531 208.220471 
L 313.657771 214.056158 
L 315.206428 218.489105 
L 316.561504 221.702123 
L 317.722997 223.916435 
L 318.787699 225.482664 
L 319.75561 226.50695 
L 320.62673 227.095534 
L 321.401059 227.349999 
L 322.175387 227.349999 
L 322.949716 227.095534 
L 323.724045 226.588048 
L 324.595165 225.718335 
L 325.563076 224.38842 
L 326.627778 222.49732 
L 327.789271 219.946099 
L 329.047555 216.644482 
L 330.499422 212.203599 
L 332.241661 206.102636 
L 334.371066 197.747511 
L 337.37159 184.959328 
L 342.114353 164.768933 
L 344.243758 156.683231 
L 345.985997 150.878186 
L 347.534655 146.477323 
L 348.88973 143.295526 
L 350.051223 141.109885 
L 351.115926 139.571157 
L 352.083837 138.572626 
L 352.954956 138.007643 
L 353.729285 137.774348 
L 354.503614 137.795573 
L 355.277943 138.071199 
L 356.052272 138.599659 
L 356.923391 139.492598 
L 357.891302 140.847665 
L 358.956004 142.765377 
L 360.117498 145.344046 
L 361.472573 148.950958 
L 363.021231 153.784611 
L 364.76347 159.997263 
L 366.892874 168.450979 
L 370.183772 182.567038 
L 374.345789 200.235844 
L 376.475193 208.335785 
L 378.217433 214.15618 
L 379.76609 218.573106 
L 381.121166 221.77053 
L 382.282659 223.970518 
L 383.347361 225.523004 
L 384.315272 226.534417 
L 385.186392 227.111203 
L 385.960721 227.355085 
L 386.735049 227.344472 
L 387.509378 227.079425 
L 388.283707 226.561449 
L 389.154827 225.680119 
L 390.122738 224.337622 
L 391.18744 222.433206 
L 392.348933 219.868249 
L 393.704008 216.276058 
L 395.155875 211.778838 
L 396.898115 205.621545 
L 399.027519 197.216461 
L 402.221625 183.552487 
L 406.577224 165.027704 
L 408.706629 156.913605 
L 410.448868 151.077918 
L 411.997526 146.644971 
L 413.352601 143.431953 
L 414.514094 141.21764 
L 415.578797 139.651412 
L 416.546708 138.627126 
L 417.417827 138.038542 
L 418.192156 137.784077 
L 418.966485 137.784077 
L 419.740814 138.038542 
L 420.515143 138.546028 
L 421.386262 139.415741 
L 422.354173 140.745656 
L 423.418875 142.636756 
L 424.580369 145.187977 
L 425.838653 148.489594 
L 427.290519 152.930477 
L 429.032759 159.03144 
L 431.162163 167.386565 
L 434.162687 180.174748 
L 438.905451 200.365143 
L 441.034855 208.450845 
L 442.777095 214.255889 
L 444.325753 218.656753 
L 445.680828 221.83855 
L 446.842321 224.024191 
L 447.907023 225.562919 
L 448.874934 226.561449 
L 449.746054 227.126432 
L 450.520383 227.359728 
L 451.294712 227.338503 
L 452.06904 227.062877 
L 452.843369 226.534417 
L 453.714489 225.641477 
L 454.6824 224.286411 
L 455.747102 222.368698 
L 456.908595 219.79003 
L 458.263671 216.183118 
L 459.812328 211.349464 
L 461.554568 205.136813 
L 463.683972 196.683097 
L 466.974869 182.567038 
L 471.136887 164.898231 
L 473.266291 156.798291 
L 475.00853 150.977896 
L 476.557188 146.560969 
L 477.912263 143.363546 
L 479.073757 141.163558 
L 480.138459 139.611072 
L 481.10637 138.599659 
L 481.977489 138.022873 
L 482.751818 137.778991 
L 483.526147 137.789604 
L 484.300476 138.054651 
L 485.074805 138.572626 
L 485.945924 139.453957 
L 486.913835 140.796454 
L 487.978538 142.70087 
L 489.140031 145.265827 
L 490.495106 148.858018 
L 491.946973 153.355238 
L 493.689212 159.512531 
L 495.818616 167.917615 
L 499.012723 181.581588 
L 503.368322 200.106372 
L 505.497726 208.220471 
L 507.239966 214.056158 
L 508.788624 218.489105 
L 510.143699 221.702123 
L 511.305192 223.916435 
L 512.369894 225.482664 
L 513.337805 226.50695 
L 514.208925 227.095534 
L 514.983254 227.349999 
L 515.757583 227.349999 
L 516.531911 227.095534 
L 517.30624 226.588048 
L 518.17736 225.718335 
L 519.145271 224.38842 
L 520.209973 222.49732 
L 521.371466 219.946099 
L 522.62975 216.644482 
L 524.081617 212.203599 
L 525.823857 206.102636 
L 527.953261 197.747511 
L 530.953785 184.959328 
L 535.696549 164.768933 
L 537.825953 156.683231 
L 539.568193 150.878186 
L 541.11685 146.477323 
L 542.471926 143.295526 
L 543.633419 141.109885 
L 544.698121 139.571157 
L 545.666032 138.572626 
L 546.537152 138.007643 
L 547.31148 137.774348 
L 548.085809 137.795573 
L 548.860138 138.071199 
L 549.634467 138.599659 
L 550.505587 139.492598 
L 551.473498 140.847665 
L 552.5382 142.765377 
L 553.699693 145.344046 
L 555.054768 148.950958 
L 556.603426 153.784611 
L 558.345666 159.997263 
L 560.47507 168.450979 
L 563.18522 180.034171 
L 563.18522 180.034171 
" style="fill:none;stroke:#d62728;stroke-dasharray:1.5,2.475;stroke-dashoffset:0;stroke-width:1.5;"/>
   </g>
   <g id="line2d_15">
    <path clip-path="url(#pbbff8d18e1)" d="M 78.21 182.567038 
L 563.112 182.567038 
" style="fill:none;stroke:#000000;stroke-linecap:square;stroke-width:1.5;"/>
   </g>
   <g id="patch_3">
    <path d="M 78.21 319.1184 
L 78.21 43.0272 
" style="fill:none;stroke:#000000;stroke-linecap:square;stroke-linejoin:miter;stroke-width:0.8;"/>
   </g>
   <g id="patch_4">
    <path d="M 563.112 319.1184 
L 563.112 43.0272 
" style="fill:none;stroke:#000000;stroke-linecap:square;stroke-linejoin:miter;stroke-width:0.8;"/>
   </g>
   <g id="patch_5">
    <path d="M 78.21 319.1184 
L 563.112 319.1184 
" style="fill:none;stroke:#000000;stroke-linecap:square;stroke-linejoin:miter;stroke-width:0.8;"/>
   </g>
   <g id="patch_6">
    <path d="M 78.21 43.0272 
L 563.112 43.0272 
" style="fill:none;stroke:#000000;stroke-linecap:square;stroke-linejoin:miter;stroke-width:0.8;"/>
   </g>
  </g>
 </g>
 <defs>
  <clipPath id="pbbff8d18e1">
   <rect height="276.0912" width="484.902" x="78.21" y="43.0272"/>
  </clipPath>
 </defs>
</svg>
