<?xml version="1.0" encoding="utf-8" standalone="no"?>
<!DOCTYPE svg PUBLIC "-//W3C//DTD SVG 1.1//EN"
  "http://www.w3.org/Graphics/SVG/1.1/DTD/svg11.dtd">
<!-- Created with matplotlib (https://matplotlib.org/) -->
<svg height="435.6pt" version="1.1" viewBox="0 0 723.6 435.6" width="723.6pt" xmlns="http://www.w3.org/2000/svg" xmlns:xlink="http://www.w3.org/1999/xlink">
 <metadata>
  <rdf:RDF xmlns:cc="http://creativecommons.org/ns#" xmlns:dc="http://purl.org/dc/elements/1.1/" xmlns:rdf="http://www.w3.org/1999/02/22-rdf-syntax-ns#">
   <cc:Work>
    <dc:type rdf:resource="http://purl.org/dc/dcmitype/StillImage"/>
    <dc:date>2021-01-15T13:08:10.421349</dc:date>
    <dc:format>image/svg+xml</dc:format>
    <dc:creator>
     <cc:Agent>
      <dc:title>Matplotlib v3.3.3, https://matplotlib.org/</dc:title>
     </cc:Agent>
    </dc:creator>
   </cc:Work>
  </rdf:RDF>
 </metadata>
 <defs>
  <style type="text/css">*{stroke-linecap:butt;stroke-linejoin:round;}</style>
 </defs>
 <g id="figure_1">
  <g id="patch_1">
   <path d="M 0 435.6 
L 723.6 435.6 
L 723.6 0 
L 0 0 
z
" style="fill:#ffffff;"/>
  </g>
  <g id="axes_1">
   <g id="patch_2">
    <path d="M 90.45 387.684 
L 651.24 387.684 
L 651.24 52.272 
L 90.45 52.272 
z
" style="fill:#ffffff;"/>
   </g>
   <g id="matplotlib.axis_1">
    <g id="xtick_1">
     <g id="line2d_1">
      <defs>
       <path d="M 0 0 
L 0 3.5 
" id="mf16ecf7444" style="stroke:#000000;stroke-width:0.8;"/>
      </defs>
      <g>
       <use style="stroke:#000000;stroke-width:0.8;" x="94.402363" xlink:href="#mf16ecf7444" y="387.684"/>
      </g>
     </g>
     <g id="text_1">
      <!-- 0 -->
      <g transform="translate(90.902363 404.400875)scale(0.14 -0.14)">
       <defs>
        <path d="M 3.90625 32 
Q 3.90625 46.703125 7.59375 54.703125 
Q 12.796875 66.59375 25 66.59375 
Q 27.59375 66.59375 30.296875 65.890625 
Q 33 65.203125 36.453125 62.5 
Q 39.90625 59.796875 42 55.40625 
Q 46 46.90625 46 32 
Q 46 17.40625 42.296875 9.40625 
Q 36.90625 -2.203125 24.90625 -2.203125 
Q 20.40625 -2.203125 15.84375 0.09375 
Q 11.296875 2.40625 8.40625 7.90625 
Q 3.90625 16.203125 3.90625 32 
z
M 12.203125 33.203125 
Q 12.203125 18.09375 13.296875 12.09375 
Q 14.5 5.59375 17.84375 2.796875 
Q 21.203125 0 24.90625 0 
Q 28.90625 0 32.25 3 
Q 35.59375 6 36.59375 12.5 
Q 37.703125 18.90625 37.703125 33.203125 
Q 37.703125 47.09375 36.703125 52.703125 
Q 35.40625 59.203125 31.90625 61.796875 
Q 28.40625 64.40625 24.90625 64.40625 
Q 23.59375 64.40625 22.1875 64 
Q 20.796875 63.59375 18.796875 62.5 
Q 16.796875 61.40625 15.25 58.59375 
Q 13.703125 55.796875 13 51.59375 
Q 12.203125 46.203125 12.203125 33.203125 
z
" id="CMUSerif-Roman-48"/>
       </defs>
       <use xlink:href="#CMUSerif-Roman-48"/>
      </g>
     </g>
    </g>
    <g id="xtick_2">
     <g id="line2d_2">
      <g>
       <use style="stroke:#000000;stroke-width:0.8;" x="207.143469" xlink:href="#mf16ecf7444" y="387.684"/>
      </g>
     </g>
     <g id="text_2">
      <!-- 1 -->
      <g transform="translate(203.643469 404.400875)scale(0.14 -0.14)">
       <defs>
        <path d="M 8.90625 57.09375 
L 8.90625 60.203125 
Q 20.90625 60.203125 27.09375 66.59375 
Q 28.796875 66.59375 29.09375 66.1875 
Q 29.40625 65.796875 29.40625 64 
L 29.40625 7.90625 
Q 29.40625 4.90625 30.84375 4 
Q 32.296875 3.09375 38.703125 3.09375 
L 41.90625 3.09375 
L 41.90625 0 
Q 38.40625 0.296875 25.703125 0.296875 
Q 13 0.296875 9.5 0 
L 9.5 3.09375 
L 12.703125 3.09375 
Q 19 3.09375 20.5 4 
Q 22 4.90625 22 7.90625 
L 22 59.703125 
Q 16.796875 57.09375 8.90625 57.09375 
z
" id="CMUSerif-Roman-49"/>
       </defs>
       <use xlink:href="#CMUSerif-Roman-49"/>
      </g>
     </g>
    </g>
    <g id="xtick_3">
     <g id="line2d_3">
      <g>
       <use style="stroke:#000000;stroke-width:0.8;" x="319.884574" xlink:href="#mf16ecf7444" y="387.684"/>
      </g>
     </g>
     <g id="text_3">
      <!-- 2 -->
      <g transform="translate(316.384574 404.400875)scale(0.14 -0.14)">
       <defs>
        <path d="M 5 0 
Q 5 1.796875 5.140625 2.34375 
Q 5.296875 2.90625 6.09375 3.703125 
L 25.296875 25.09375 
Q 35.796875 36.90625 35.796875 47.203125 
Q 35.796875 53.90625 32.296875 58.703125 
Q 28.796875 63.5 22.40625 63.5 
Q 18 63.5 14.296875 60.796875 
Q 10.59375 58.09375 8.90625 53.296875 
Q 9.203125 53.40625 10.203125 53.40625 
Q 12.703125 53.40625 14.09375 51.84375 
Q 15.5 50.296875 15.5 48.203125 
Q 15.5 45.5 13.75 44.203125 
Q 12 42.90625 10.296875 42.90625 
Q 9.59375 42.90625 8.6875 43.046875 
Q 7.796875 43.203125 6.390625 44.59375 
Q 5 46 5 48.5 
Q 5 55.5 10.296875 61.046875 
Q 15.59375 66.59375 23.703125 66.59375 
Q 32.90625 66.59375 38.90625 61.140625 
Q 44.90625 55.703125 44.90625 47.203125 
Q 44.90625 44.203125 44 41.5 
Q 43.09375 38.796875 41.890625 36.6875 
Q 40.703125 34.59375 37.5 31.25 
Q 34.296875 27.90625 31.6875 25.5 
Q 29.09375 23.09375 23.296875 18 
L 12.703125 7.703125 
L 30.703125 7.703125 
Q 39.5 7.703125 40.203125 8.5 
Q 41.203125 9.90625 42.40625 17.40625 
L 44.90625 17.40625 
L 42.09375 0 
z
" id="CMUSerif-Roman-50"/>
       </defs>
       <use xlink:href="#CMUSerif-Roman-50"/>
      </g>
     </g>
    </g>
    <g id="xtick_4">
     <g id="line2d_4">
      <g>
       <use style="stroke:#000000;stroke-width:0.8;" x="432.62568" xlink:href="#mf16ecf7444" y="387.684"/>
      </g>
     </g>
     <g id="text_4">
      <!-- 3 -->
      <g transform="translate(429.12568 404.400875)scale(0.14 -0.14)">
       <defs>
        <path d="M 4.203125 13.5 
Q 4.203125 16.5 5.890625 17.890625 
Q 7.59375 19.296875 9.796875 19.296875 
Q 12.09375 19.296875 13.75 17.796875 
Q 15.40625 16.296875 15.40625 13.703125 
Q 15.40625 10.90625 13.453125 9.34375 
Q 11.5 7.796875 8.796875 8.203125 
Q 11.203125 4.203125 15.59375 2.390625 
Q 20 0.59375 24.09375 0.59375 
Q 28.40625 0.59375 31.90625 4.296875 
Q 35.40625 8 35.40625 17.09375 
Q 35.40625 24.796875 32.40625 29.25 
Q 29.40625 33.703125 23.5 33.703125 
L 19.09375 33.703125 
Q 17.59375 33.703125 17.140625 33.84375 
Q 16.703125 34 16.703125 34.796875 
Q 16.703125 35.796875 18.203125 36 
Q 19.703125 36 22.09375 36.296875 
Q 27.90625 36.5 31 41.5 
Q 33.796875 46.203125 33.796875 52.90625 
Q 33.796875 59 30.890625 61.546875 
Q 28 64.09375 24.203125 64.09375 
Q 20.703125 64.09375 16.84375 62.640625 
Q 13 61.203125 10.90625 57.90625 
Q 17.09375 57.90625 17.09375 52.90625 
Q 17.09375 50.703125 15.6875 49.25 
Q 14.296875 47.796875 12 47.796875 
Q 9.796875 47.796875 8.34375 49.1875 
Q 6.90625 50.59375 6.90625 53 
Q 6.90625 58.703125 12 62.640625 
Q 17.09375 66.59375 24.59375 66.59375 
Q 32 66.59375 37.5 62.6875 
Q 43 58.796875 43 52.796875 
Q 43 46.90625 39.09375 42.046875 
Q 35.203125 37.203125 29 35.203125 
Q 36.59375 33.703125 41.140625 28.546875 
Q 45.703125 23.40625 45.703125 17.09375 
Q 45.703125 9.296875 39.546875 3.546875 
Q 33.40625 -2.203125 24.40625 -2.203125 
Q 16.09375 -2.203125 10.140625 2.296875 
Q 4.203125 6.796875 4.203125 13.5 
z
" id="CMUSerif-Roman-51"/>
       </defs>
       <use xlink:href="#CMUSerif-Roman-51"/>
      </g>
     </g>
    </g>
    <g id="xtick_5">
     <g id="line2d_5">
      <g>
       <use style="stroke:#000000;stroke-width:0.8;" x="545.366785" xlink:href="#mf16ecf7444" y="387.684"/>
      </g>
     </g>
     <g id="text_5">
      <!-- 4 -->
      <g transform="translate(541.866785 404.400875)scale(0.14 -0.14)">
       <defs>
        <path d="M 2.796875 16.5 
L 2.796875 19.59375 
L 33.5 66.5 
Q 34.296875 67.703125 35.5 67.703125 
Q 36.59375 67.703125 36.84375 67.25 
Q 37.09375 66.796875 37.09375 65.09375 
L 37.09375 19.59375 
L 47.09375 19.59375 
L 47.09375 16.5 
L 37.09375 16.5 
L 37.09375 7.796875 
Q 37.09375 4.90625 38.296875 4 
Q 39.5 3.09375 44.703125 3.09375 
L 46.796875 3.09375 
L 46.796875 0 
Q 42.703125 0.296875 33.203125 0.296875 
Q 23.796875 0.296875 19.703125 0 
L 19.703125 3.09375 
L 21.796875 3.09375 
Q 27 3.09375 28.203125 4 
Q 29.40625 4.90625 29.40625 7.796875 
L 29.40625 16.5 
z
M 5.59375 19.59375 
L 30 19.59375 
L 30 56.90625 
z
" id="CMUSerif-Roman-52"/>
       </defs>
       <use xlink:href="#CMUSerif-Roman-52"/>
      </g>
     </g>
    </g>
    <g id="text_6">
     <!-- Depth z (nm) -->
     <g transform="translate(328.992656 421.61775)scale(0.14 -0.14)">
      <defs>
       <path d="M 3.5 0 
L 3.5 3.09375 
L 5.90625 3.09375 
Q 11.296875 3.09375 12.546875 4 
Q 13.796875 4.90625 13.796875 7.796875 
L 13.796875 60.5 
Q 13.796875 63.40625 12.546875 64.296875 
Q 11.296875 65.203125 5.90625 65.203125 
L 3.5 65.203125 
L 3.5 68.296875 
L 40.09375 68.296875 
Q 52.90625 68.296875 61.796875 58.09375 
Q 70.703125 47.90625 70.703125 33.59375 
Q 70.703125 19.59375 61.75 9.796875 
Q 52.796875 0 40.09375 0 
z
M 22.40625 7.09375 
Q 22.40625 4.5 23.15625 3.796875 
Q 23.90625 3.09375 27.296875 3.09375 
L 37.40625 3.09375 
Q 44 3.09375 48.453125 5.796875 
Q 52.90625 8.5 55.203125 11.59375 
Q 60.703125 19.09375 60.703125 33.59375 
Q 60.703125 48.796875 55.5 55.90625 
Q 48.796875 65.203125 37.296875 65.203125 
L 27.296875 65.203125 
Q 23.90625 65.203125 23.15625 64.5 
Q 22.40625 63.796875 22.40625 61.203125 
z
" id="CMUSerif-Roman-68"/>
       <path d="M 2.796875 22 
Q 2.796875 31.40625 8.84375 38.09375 
Q 14.90625 44.796875 23.59375 44.796875 
Q 32.40625 44.796875 36.953125 39.09375 
Q 41.5 33.40625 41.5 25.203125 
Q 41.5 23.703125 41.09375 23.390625 
Q 40.703125 23.09375 39 23.09375 
L 11.09375 23.09375 
Q 11.09375 12.90625 14.09375 8.09375 
Q 18.296875 1.40625 25.40625 1.40625 
Q 26.40625 1.40625 27.546875 1.59375 
Q 28.703125 1.796875 31.09375 2.640625 
Q 33.5 3.5 35.59375 5.796875 
Q 37.703125 8.09375 38.90625 11.703125 
Q 39.203125 13.09375 40.203125 13.09375 
Q 41.5 13.09375 41.5 11.90625 
Q 41.5 11 40.546875 9.046875 
Q 39.59375 7.09375 37.796875 4.75 
Q 36 2.40625 32.5 0.65625 
Q 29 -1.09375 24.796875 -1.09375 
Q 16 -1.09375 9.390625 5.546875 
Q 2.796875 12.203125 2.796875 22 
z
M 11.203125 25.203125 
L 34.90625 25.203125 
Q 34.90625 27.296875 34.546875 29.640625 
Q 34.203125 32 33.140625 35.25 
Q 32.09375 38.5 29.640625 40.546875 
Q 27.203125 42.59375 23.59375 42.59375 
Q 22 42.59375 20.25 41.890625 
Q 18.5 41.203125 16.390625 39.546875 
Q 14.296875 37.90625 12.84375 34.15625 
Q 11.40625 30.40625 11.203125 25.203125 
z
" id="CMUSerif-Roman-101"/>
       <path d="M 2.796875 -16.296875 
Q 8.09375 -16.296875 9.34375 -15.640625 
Q 10.59375 -15 10.59375 -11.796875 
L 10.59375 35 
Q 10.59375 38.296875 9.34375 39.140625 
Q 8.09375 40 2.796875 40 
L 2.796875 43.09375 
L 17.203125 44.203125 
L 17.203125 37.59375 
Q 23.203125 44.203125 31.203125 44.203125 
Q 39.703125 44.203125 45.890625 37.59375 
Q 52.09375 31 52.09375 21.59375 
Q 52.09375 12.09375 45.5 5.5 
Q 38.90625 -1.09375 29.796875 -1.09375 
Q 24.796875 -1.09375 21.4375 1.453125 
Q 18.09375 4 17.5 5.90625 
L 17.5 5 
L 17.5 -11.796875 
Q 17.5 -15 18.75 -15.640625 
Q 20 -16.296875 25.296875 -16.296875 
L 25.296875 -19.40625 
Q 14.796875 -19.09375 14 -19.09375 
Q 13 -19.09375 2.796875 -19.40625 
z
M 17.5 11.40625 
Q 17.5 9.90625 17.703125 9.34375 
Q 17.90625 8.796875 18.90625 7.203125 
Q 22.90625 1.09375 29.40625 1.09375 
Q 35.09375 1.09375 39.4375 6.9375 
Q 43.796875 12.796875 43.796875 21.59375 
Q 43.796875 30 39.84375 35.84375 
Q 35.90625 41.703125 30.40625 41.703125 
Q 26.5 41.703125 23.09375 39.59375 
Q 19.703125 37.5 17.5 33.703125 
z
" id="CMUSerif-Roman-112"/>
       <path d="M 1.90625 40 
L 1.90625 42.203125 
Q 6.5 42.40625 9.546875 45.65625 
Q 12.59375 48.90625 13.640625 52.90625 
Q 14.703125 56.90625 14.796875 61.5 
L 17.296875 61.5 
L 17.296875 43.09375 
L 31.59375 43.09375 
L 31.59375 40 
L 17.296875 40 
L 17.296875 12.203125 
Q 17.296875 1.40625 24 1.40625 
Q 26.90625 1.40625 28.796875 4.34375 
Q 30.703125 7.296875 30.703125 12.59375 
L 30.703125 18.09375 
L 33.203125 18.09375 
L 33.203125 12.40625 
Q 33.203125 7 30.703125 2.953125 
Q 28.203125 -1.09375 23.296875 -1.09375 
Q 21.5 -1.09375 19.703125 -0.640625 
Q 17.90625 -0.203125 15.59375 1 
Q 13.296875 2.203125 11.84375 5.140625 
Q 10.40625 8.09375 10.40625 12.40625 
L 10.40625 40 
z
" id="CMUSerif-Roman-116"/>
       <path d="M 3.203125 0 
L 3.203125 3.09375 
Q 8.5 3.09375 9.75 3.75 
Q 11 4.40625 11 7.59375 
L 11 59.59375 
Q 11 63.296875 9.703125 64.25 
Q 8.40625 65.203125 3.203125 65.203125 
L 3.203125 68.296875 
L 17.59375 69.40625 
L 17.59375 34.59375 
L 17.703125 34.59375 
Q 19.296875 38.203125 22.890625 41.203125 
Q 26.5 44.203125 32.09375 44.203125 
Q 39.59375 44.203125 42.59375 40.5 
Q 44.796875 38 45.25 35.203125 
Q 45.703125 32.40625 45.703125 25.203125 
L 45.703125 6.09375 
Q 45.796875 4 47.390625 3.546875 
Q 49 3.09375 53.5 3.09375 
L 53.5 0 
Q 43.296875 0.296875 42.296875 0.296875 
Q 41.5 0.296875 31 0 
L 31 3.09375 
Q 36.296875 3.09375 37.546875 3.75 
Q 38.796875 4.40625 38.796875 7.59375 
L 38.796875 30.90625 
Q 38.796875 36 37.25 39 
Q 35.703125 42 31.40625 42 
Q 26.203125 42 22.046875 37.640625 
Q 17.90625 33.296875 17.90625 26 
L 17.90625 7.59375 
Q 17.90625 4.40625 19.15625 3.75 
Q 20.40625 3.09375 25.703125 3.09375 
L 25.703125 0 
Q 15.5 0.296875 14.5 0.296875 
Q 13.703125 0.296875 3.203125 0 
z
" id="CMUSerif-Roman-104"/>
       <path id="CMUSerif-Roman-32"/>
       <path d="M 2.796875 1.40625 
Q 2.796875 2.09375 3.703125 3.203125 
L 31.59375 40.90625 
L 20.203125 40.90625 
Q 12.296875 40.90625 9.75 38 
Q 7.203125 35.09375 6.703125 27 
L 4.203125 27 
L 5.296875 43.09375 
L 37.296875 43.09375 
Q 38.40625 43.09375 38.84375 43.046875 
Q 39.296875 43 39.59375 42.703125 
Q 39.90625 42.40625 39.90625 41.796875 
Q 39.90625 41.203125 39 40.09375 
L 11.203125 2.5 
L 23 2.5 
Q 31.296875 2.5 34.09375 5.953125 
Q 36.90625 9.40625 37.59375 18.703125 
L 40.09375 18.703125 
L 38.40625 0 
L 5.40625 0 
Q 3.796875 0 3.296875 0.203125 
Q 2.796875 0.40625 2.796875 1.40625 
z
" id="CMUSerif-Roman-122"/>
       <path d="M 9.90625 25 
Q 9.90625 41.90625 16.203125 55.5 
Q 18.90625 61.203125 22.65625 66 
Q 26.40625 70.796875 28.90625 72.890625 
Q 31.40625 75 32.09375 75 
Q 33.09375 75 33.09375 74 
Q 33.09375 73.5 31.796875 72.296875 
Q 15.703125 55.90625 15.703125 25 
Q 15.703125 -6 31.40625 -21.796875 
Q 33.09375 -23.5 33.09375 -24 
Q 33.09375 -25 32.09375 -25 
Q 31.40625 -25 29 -23 
Q 26.59375 -21 22.890625 -16.390625 
Q 19.203125 -11.796875 16.5 -6.203125 
Q 9.90625 7.40625 9.90625 25 
z
" id="CMUSerif-Roman-40"/>
       <path d="M 3.203125 0 
L 3.203125 3.09375 
Q 8.5 3.09375 9.75 3.75 
Q 11 4.40625 11 7.59375 
L 11 34.40625 
Q 11 38.09375 9.703125 39.046875 
Q 8.40625 40 3.203125 40 
L 3.203125 43.09375 
L 17.296875 44.203125 
L 17.296875 33.703125 
Q 22 44.203125 32.09375 44.203125 
Q 39.59375 44.203125 42.59375 40.5 
Q 44.796875 38 45.25 35.203125 
Q 45.703125 32.40625 45.703125 25.203125 
L 45.703125 6.09375 
Q 45.796875 4 47.390625 3.546875 
Q 49 3.09375 53.5 3.09375 
L 53.5 0 
Q 43.296875 0.296875 42.296875 0.296875 
Q 41.5 0.296875 31 0 
L 31 3.09375 
Q 36.296875 3.09375 37.546875 3.75 
Q 38.796875 4.40625 38.796875 7.59375 
L 38.796875 30.90625 
Q 38.796875 36 37.25 39 
Q 35.703125 42 31.40625 42 
Q 26.203125 42 22.046875 37.640625 
Q 17.90625 33.296875 17.90625 26 
L 17.90625 7.59375 
Q 17.90625 4.40625 19.15625 3.75 
Q 20.40625 3.09375 25.703125 3.09375 
L 25.703125 0 
Q 15.5 0.296875 14.5 0.296875 
Q 13.703125 0.296875 3.203125 0 
z
" id="CMUSerif-Roman-110"/>
       <path d="M 3.203125 0 
L 3.203125 3.09375 
Q 8.5 3.09375 9.75 3.75 
Q 11 4.40625 11 7.59375 
L 11 34.40625 
Q 11 38.09375 9.703125 39.046875 
Q 8.40625 40 3.203125 40 
L 3.203125 43.09375 
L 17.296875 44.203125 
L 17.296875 33.703125 
Q 22 44.203125 32.09375 44.203125 
Q 43.796875 44.203125 45.40625 34.40625 
Q 47.09375 38.203125 50.6875 41.203125 
Q 54.296875 44.203125 59.90625 44.203125 
Q 67.40625 44.203125 70.40625 40.5 
Q 72.59375 38 73.046875 35.203125 
Q 73.5 32.40625 73.5 25.203125 
L 73.5 6.09375 
Q 73.59375 4 75.1875 3.546875 
Q 76.796875 3.09375 81.296875 3.09375 
L 81.296875 0 
Q 71.09375 0.296875 70.09375 0.296875 
Q 69.296875 0.296875 58.796875 0 
L 58.796875 3.09375 
Q 64.09375 3.09375 65.34375 3.75 
Q 66.59375 4.40625 66.59375 7.59375 
L 66.59375 30.90625 
Q 66.59375 36 65.046875 39 
Q 63.5 42 59.203125 42 
Q 54 42 49.84375 37.640625 
Q 45.703125 33.296875 45.703125 26 
L 45.703125 7.59375 
Q 45.703125 4.40625 46.953125 3.75 
Q 48.203125 3.09375 53.5 3.09375 
L 53.5 0 
Q 43.296875 0.296875 42.296875 0.296875 
Q 41.5 0.296875 31 0 
L 31 3.09375 
Q 36.296875 3.09375 37.546875 3.75 
Q 38.796875 4.40625 38.796875 7.59375 
L 38.796875 30.90625 
Q 38.796875 36 37.25 39 
Q 35.703125 42 31.40625 42 
Q 26.203125 42 22.046875 37.640625 
Q 17.90625 33.296875 17.90625 26 
L 17.90625 7.59375 
Q 17.90625 4.40625 19.15625 3.75 
Q 20.40625 3.09375 25.703125 3.09375 
L 25.703125 0 
Q 15.5 0.296875 14.5 0.296875 
Q 13.703125 0.296875 3.203125 0 
z
" id="CMUSerif-Roman-109"/>
       <path d="M 5.703125 -24 
Q 5.703125 -23.5 7 -22.296875 
Q 23.09375 -5.90625 23.09375 25 
Q 23.09375 56 7.59375 71.703125 
Q 5.703125 73.5 5.703125 74 
Q 5.703125 75 6.703125 75 
Q 7.40625 75 9.796875 73 
Q 12.203125 71 15.890625 66.390625 
Q 19.59375 61.796875 22.296875 56.203125 
Q 28.90625 42.59375 28.90625 25 
Q 28.90625 8.09375 22.59375 -5.5 
Q 19.90625 -11.203125 16.15625 -16 
Q 12.40625 -20.796875 9.90625 -22.890625 
Q 7.40625 -25 6.703125 -25 
Q 5.703125 -25 5.703125 -24 
z
" id="CMUSerif-Roman-41"/>
      </defs>
      <use xlink:href="#CMUSerif-Roman-68"/>
      <use x="76.299988" xlink:href="#CMUSerif-Roman-101"/>
      <use x="120.699982" xlink:href="#CMUSerif-Roman-112"/>
      <use x="176.199966" xlink:href="#CMUSerif-Roman-116"/>
      <use x="214.999954" xlink:href="#CMUSerif-Roman-104"/>
      <use x="270.499939" xlink:href="#CMUSerif-Roman-32"/>
      <use x="303.799927" xlink:href="#CMUSerif-Roman-122"/>
      <use x="348.199921" xlink:href="#CMUSerif-Roman-32"/>
      <use x="381.499908" xlink:href="#CMUSerif-Roman-40"/>
      <use x="420.299896" xlink:href="#CMUSerif-Roman-110"/>
      <use x="475.799881" xlink:href="#CMUSerif-Roman-109"/>
      <use x="559.099869" xlink:href="#CMUSerif-Roman-41"/>
     </g>
    </g>
   </g>
   <g id="matplotlib.axis_2">
    <g id="ytick_1">
     <g id="line2d_6">
      <defs>
       <path d="M 0 0 
L -3.5 0 
" id="ma6af0d77ae" style="stroke:#000000;stroke-width:0.8;"/>
      </defs>
      <g>
       <use style="stroke:#000000;stroke-width:0.8;" x="90.45" xlink:href="#ma6af0d77ae" y="338.855225"/>
      </g>
     </g>
     <g id="text_7">
      <!-- −1.0 -->
      <g transform="translate(54.666875 343.713662)scale(0.14 -0.14)">
       <defs>
        <path d="M 5.703125 24.90625 
Q 5.703125 26.09375 7.703125 26.09375 
L 69 26.09375 
Q 69.09375 26.09375 69.546875 26.09375 
Q 70 26.09375 70.140625 26.09375 
Q 70.296875 26.09375 70.640625 26.09375 
Q 71 26.09375 71.140625 26 
Q 71.296875 25.90625 71.5 25.796875 
Q 71.703125 25.703125 71.796875 25.5 
Q 71.90625 25.296875 71.90625 25 
Q 71.90625 23.796875 69.296875 23.796875 
L 69.09375 23.796875 
Q 68.796875 23.796875 68.25 23.84375 
Q 67.703125 23.90625 67.40625 23.90625 
L 11.09375 23.90625 
Q 10.703125 23.90625 9.953125 23.84375 
Q 9.203125 23.796875 8.796875 23.796875 
L 8.296875 23.796875 
Q 5.703125 23.796875 5.703125 24.90625 
z
" id="CMUSerif-Roman-8722"/>
        <path d="M 11.5 0 
Q 8.5 3.203125 8.5 5.296875 
Q 8.5 7.40625 10 8.953125 
Q 11.5 10.5 13.796875 10.5 
Q 16 10.5 17.5 9.046875 
Q 19 7.59375 19 5.296875 
Q 19 3 17.390625 1.5 
Q 15.796875 0 13.796875 0 
Q 11.5 0 8.5 3.203125 
z
" id="CMUSerif-Roman-46"/>
       </defs>
       <use xlink:href="#CMUSerif-Roman-8722"/>
       <use x="77.799988" xlink:href="#CMUSerif-Roman-49"/>
       <use x="127.799973" xlink:href="#CMUSerif-Roman-46"/>
       <use x="155.59996" xlink:href="#CMUSerif-Roman-48"/>
      </g>
     </g>
    </g>
    <g id="ytick_2">
     <g id="line2d_7">
      <g>
       <use style="stroke:#000000;stroke-width:0.8;" x="90.45" xlink:href="#ma6af0d77ae" y="278.803853"/>
      </g>
     </g>
     <g id="text_8">
      <!-- −0.5 -->
      <g transform="translate(54.666875 283.66229)scale(0.14 -0.14)">
       <defs>
        <path d="M 5 16.09375 
Q 5 19.09375 6.59375 20.25 
Q 8.203125 21.40625 9.90625 21.40625 
Q 12.203125 21.40625 13.546875 19.953125 
Q 14.90625 18.5 14.90625 16.5 
Q 14.90625 14.5 13.546875 13.046875 
Q 12.203125 11.59375 9.90625 11.59375 
Q 8.796875 11.59375 8.203125 11.796875 
Q 9.5 7.203125 13.546875 3.890625 
Q 17.59375 0.59375 22.90625 0.59375 
Q 29.59375 0.59375 33.59375 7.09375 
Q 36 11.296875 36 20.796875 
Q 36 29.203125 34.203125 33.40625 
Q 31.40625 39.796875 25.703125 39.796875 
Q 17.59375 39.796875 12.796875 32.796875 
Q 12.203125 31.90625 11.5 31.90625 
Q 10.5 31.90625 10.296875 32.453125 
Q 10.09375 33 10.09375 34.5 
L 10.09375 64.09375 
Q 10.09375 66.5 11.09375 66.5 
Q 11.5 66.5 12.296875 66.203125 
Q 18.59375 63.40625 25.59375 63.40625 
Q 32.796875 63.40625 39.203125 66.296875 
Q 39.703125 66.59375 40 66.59375 
Q 41 66.59375 41 65.5 
Q 41 65.09375 40.203125 63.9375 
Q 39.40625 62.796875 37.703125 61.296875 
Q 36 59.796875 33.796875 58.390625 
Q 31.59375 57 28.390625 56.046875 
Q 25.203125 55.09375 21.703125 55.09375 
Q 17.5 55.09375 13.203125 56.40625 
L 13.203125 36.90625 
Q 18.40625 42 25.90625 42 
Q 33.90625 42 39.40625 35.546875 
Q 44.90625 29.09375 44.90625 20.09375 
Q 44.90625 10.703125 38.40625 4.25 
Q 31.90625 -2.203125 23.09375 -2.203125 
Q 15.09375 -2.203125 10.046875 3.5 
Q 5 9.203125 5 16.09375 
z
" id="CMUSerif-Roman-53"/>
       </defs>
       <use xlink:href="#CMUSerif-Roman-8722"/>
       <use x="77.799988" xlink:href="#CMUSerif-Roman-48"/>
       <use x="127.799973" xlink:href="#CMUSerif-Roman-46"/>
       <use x="155.59996" xlink:href="#CMUSerif-Roman-53"/>
      </g>
     </g>
    </g>
    <g id="ytick_3">
     <g id="line2d_8">
      <g>
       <use style="stroke:#000000;stroke-width:0.8;" x="90.45" xlink:href="#ma6af0d77ae" y="218.752481"/>
      </g>
     </g>
     <g id="text_9">
      <!-- 0.0 -->
      <g transform="translate(65.558437 223.610918)scale(0.14 -0.14)">
       <use xlink:href="#CMUSerif-Roman-48"/>
       <use x="49.999985" xlink:href="#CMUSerif-Roman-46"/>
       <use x="77.799973" xlink:href="#CMUSerif-Roman-48"/>
      </g>
     </g>
    </g>
    <g id="ytick_4">
     <g id="line2d_9">
      <g>
       <use style="stroke:#000000;stroke-width:0.8;" x="90.45" xlink:href="#ma6af0d77ae" y="158.701109"/>
      </g>
     </g>
     <g id="text_10">
      <!-- 0.5 -->
      <g transform="translate(65.558437 163.559546)scale(0.14 -0.14)">
       <use xlink:href="#CMUSerif-Roman-48"/>
       <use x="49.999985" xlink:href="#CMUSerif-Roman-46"/>
       <use x="77.799973" xlink:href="#CMUSerif-Roman-53"/>
      </g>
     </g>
    </g>
    <g id="ytick_5">
     <g id="line2d_10">
      <g>
       <use style="stroke:#000000;stroke-width:0.8;" x="90.45" xlink:href="#ma6af0d77ae" y="98.649737"/>
      </g>
     </g>
     <g id="text_11">
      <!-- 1.0 -->
      <g transform="translate(65.558437 103.508174)scale(0.14 -0.14)">
       <use xlink:href="#CMUSerif-Roman-49"/>
       <use x="49.999985" xlink:href="#CMUSerif-Roman-46"/>
       <use x="77.799973" xlink:href="#CMUSerif-Roman-48"/>
      </g>
     </g>
    </g>
    <g id="text_12">
     <!-- SLD ($Å^-2$) -->
     <g transform="translate(47.166875 257.498)rotate(-90)scale(0.14 -0.14)">
      <defs>
       <path d="M 5.59375 0.203125 
L 5.59375 20.203125 
Q 5.59375 21.296875 5.640625 21.6875 
Q 5.703125 22.09375 6 22.390625 
Q 6.296875 22.703125 6.90625 22.703125 
Q 8 22.703125 8.09375 21.703125 
Q 8.40625 11.796875 14.296875 6.296875 
Q 20.09375 0.90625 30.09375 0.90625 
Q 36.09375 0.90625 39.796875 5.203125 
Q 43.5 9.5 43.5 15.203125 
Q 43.5 20.59375 40.40625 24.40625 
Q 39.09375 26.09375 37.4375 27.1875 
Q 35.796875 28.296875 34.796875 28.640625 
Q 33.796875 29 31.90625 29.5 
Q 19.5 32.5 18.703125 32.796875 
Q 12.796875 34.796875 9.1875 39.84375 
Q 5.59375 44.90625 5.59375 51.09375 
Q 5.59375 59.09375 11.25 64.796875 
Q 16.90625 70.5 25.09375 70.5 
Q 29.203125 70.5 32.640625 69.203125 
Q 36.09375 67.90625 37.5 66.75 
Q 38.90625 65.59375 41.09375 63.5 
L 44.59375 69.203125 
Q 45.40625 70.5 46.09375 70.5 
Q 46.90625 70.5 47.046875 70.046875 
Q 47.203125 69.59375 47.203125 68.09375 
L 47.203125 48 
Q 47.203125 46.90625 47.140625 46.5 
Q 47.09375 46.09375 46.796875 45.84375 
Q 46.5 45.59375 45.90625 45.59375 
Q 44.90625 45.59375 44.703125 46.796875 
Q 41.90625 67.703125 25.203125 67.703125 
Q 19.5 67.703125 15.75 63.84375 
Q 12 60 12 54.59375 
Q 12 50.203125 14.75 46.59375 
Q 17.5 43 22.09375 41.90625 
L 34.90625 38.796875 
Q 41.296875 37.296875 45.59375 31.640625 
Q 49.90625 26 49.90625 18.59375 
Q 49.90625 10.09375 44.34375 3.9375 
Q 38.796875 -2.203125 30.203125 -2.203125 
Q 24 -2.203125 19.203125 -0.140625 
Q 14.40625 1.90625 11.796875 4.796875 
Q 9.796875 1.5 8.5 -0.40625 
L 8.203125 -0.90625 
Q 7.40625 -2.203125 6.703125 -2.203125 
Q 5.90625 -2.203125 5.75 -1.703125 
Q 5.59375 -1.203125 5.59375 0.203125 
z
" id="CMUSerif-Roman-83"/>
       <path d="M 3.296875 0 
L 3.296875 3.09375 
L 5.703125 3.09375 
Q 11.09375 3.09375 12.34375 4 
Q 13.59375 4.90625 13.59375 7.796875 
L 13.59375 60.5 
Q 13.59375 63.40625 12.34375 64.296875 
Q 11.09375 65.203125 5.703125 65.203125 
L 3.296875 65.203125 
L 3.296875 68.296875 
Q 6.796875 68 18.5 68 
Q 31.703125 68 35.296875 68.296875 
L 35.296875 65.203125 
L 32 65.203125 
Q 27.40625 65.203125 25.296875 64.59375 
Q 23.203125 64 22.84375 63.203125 
Q 22.5 62.40625 22.5 60.40625 
L 22.5 7.09375 
Q 22.5 4.5 23.25 3.796875 
Q 24 3.09375 27.40625 3.09375 
L 35.59375 3.09375 
Q 40.703125 3.09375 44.34375 4.59375 
Q 48 6.09375 49.953125 8 
Q 51.90625 9.90625 53.203125 13.5 
Q 54.5 17.09375 54.890625 19.390625 
Q 55.296875 21.703125 55.703125 25.796875 
L 58.203125 25.796875 
L 55.40625 0 
z
" id="CMUSerif-Roman-76"/>
       <path d="M 49.8125 79.390625 
Q 49.8125 82.46875 47.625 84.640625 
Q 45.453125 86.8125 42.390625 86.8125 
Q 39.265625 86.8125 37.140625 84.6875 
Q 35.015625 82.5625 35.015625 79.390625 
Q 35.015625 76.3125 37.140625 74.15625 
Q 39.265625 72.015625 42.390625 72.015625 
Q 45.453125 72.015625 47.625 74.15625 
Q 49.8125 76.3125 49.8125 79.390625 
z
M 34.421875 68.703125 
Q 31.78125 70.515625 30.390625 73.265625 
Q 29 76.03125 29 79.390625 
Q 29 84.96875 32.90625 88.890625 
Q 36.8125 92.828125 42.390625 92.828125 
Q 47.953125 92.828125 51.875 88.890625 
Q 55.8125 84.96875 55.8125 79.390625 
Q 55.8125 75.53125 54.03125 72.546875 
Q 52.25 69.578125 48.875 67.828125 
L 61.53125 0 
L 51.21875 0 
L 48.1875 18.703125 
L 15.375 18.703125 
L 5.078125 0 
L -5.328125 0 
z
M 40.375 63.1875 
L 19.921875 26.90625 
L 46.6875 26.90625 
z
" id="DejaVuSans-Oblique-197"/>
       <path d="M 10.59375 35.5 
L 73.1875 35.5 
L 73.1875 27.203125 
L 10.59375 27.203125 
z
" id="DejaVuSans-8722"/>
       <path d="M 19.1875 8.296875 
L 53.609375 8.296875 
L 53.609375 0 
L 7.328125 0 
L 7.328125 8.296875 
Q 12.9375 14.109375 22.625 23.890625 
Q 32.328125 33.6875 34.8125 36.53125 
Q 39.546875 41.84375 41.421875 45.53125 
Q 43.3125 49.21875 43.3125 52.78125 
Q 43.3125 58.59375 39.234375 62.25 
Q 35.15625 65.921875 28.609375 65.921875 
Q 23.96875 65.921875 18.8125 64.3125 
Q 13.671875 62.703125 7.8125 59.421875 
L 7.8125 69.390625 
Q 13.765625 71.78125 18.9375 73 
Q 24.125 74.21875 28.421875 74.21875 
Q 39.75 74.21875 46.484375 68.546875 
Q 53.21875 62.890625 53.21875 53.421875 
Q 53.21875 48.921875 51.53125 44.890625 
Q 49.859375 40.875 45.40625 35.40625 
Q 44.1875 33.984375 37.640625 27.21875 
Q 31.109375 20.453125 19.1875 8.296875 
z
" id="DejaVuSans-50"/>
      </defs>
      <use transform="translate(0 0.171875)" xlink:href="#CMUSerif-Roman-83"/>
      <use transform="translate(55.499985 0.171875)" xlink:href="#CMUSerif-Roman-76"/>
      <use transform="translate(117.999969 0.171875)" xlink:href="#CMUSerif-Roman-68"/>
      <use transform="translate(194.299957 0.171875)" xlink:href="#CMUSerif-Roman-32"/>
      <use transform="translate(227.599945 0.171875)" xlink:href="#CMUSerif-Roman-40"/>
      <use transform="translate(266.399933 0.171875)" xlink:href="#DejaVuSans-Oblique-197"/>
      <use transform="translate(358.251665 38.453125)scale(0.7)" xlink:href="#DejaVuSans-8722"/>
      <use transform="translate(433.276079 0.171875)" xlink:href="#DejaVuSans-50"/>
      <use transform="translate(496.899126 0.171875)" xlink:href="#CMUSerif-Roman-41"/>
     </g>
    </g>
   </g>
   <g id="line2d_11">
    <path clip-path="url(#p82827d9662)" d="M 93.274952 338.855225 
L 93.840351 338.855225 
L 94.405749 98.649737 
L 206.920018 98.649737 
L 207.485416 338.855225 
L 319.434287 338.855225 
L 319.999685 98.649737 
L 432.513954 98.649737 
L 433.079353 338.855225 
L 545.028223 338.855225 
L 545.593622 98.649737 
L 657.542492 98.649737 
L 658.107891 338.855225 
L 658.107891 338.855225 
" style="fill:none;stroke:#1f77b4;stroke-linecap:square;stroke-width:2;"/>
   </g>
   <g id="line2d_12">
    <path clip-path="url(#p82827d9662)" d="M 94.402363 218.752481 
L 103.985357 178.401129 
L 109.058707 158.020799 
L 113.230128 142.154059 
L 116.950585 128.868617 
L 120.220077 117.985819 
L 123.264086 108.60314 
L 126.082614 100.620289 
L 128.67566 93.918239 
L 131.155964 88.116749 
L 133.410786 83.383296 
L 135.552867 79.38109 
L 137.582207 76.047236 
L 139.498806 73.317334 
L 141.302663 71.126743 
L 142.99378 69.411654 
L 144.572155 68.109993 
L 146.150531 67.099694 
L 147.616165 66.424165 
L 149.0818 66.002678 
L 150.434693 65.839709 
L 151.787586 65.894039 
L 153.140479 66.165588 
L 154.493373 66.653972 
L 155.959007 67.426933 
L 157.424641 68.452265 
L 159.003017 69.836735 
L 160.694133 71.63963 
L 162.38525 73.769152 
L 164.189108 76.395318 
L 166.105707 79.579474 
L 168.135046 83.383296 
L 170.277127 87.867668 
L 172.644691 93.365763 
L 175.124995 99.710366 
L 177.830781 107.278917 
L 180.649309 115.835701 
L 183.693319 125.788045 
L 187.075552 137.626942 
L 190.796009 151.477175 
L 195.080171 168.311135 
L 200.379003 190.098212 
L 209.172809 227.39527 
L 217.064686 260.492171 
L 222.025295 280.364757 
L 226.196716 296.180978 
L 229.804431 309.024561 
L 233.073923 319.880002 
L 236.117933 329.234517 
L 238.936461 337.18915 
L 241.529506 343.863578 
L 244.00981 349.637293 
L 246.264633 354.344461 
L 248.406714 358.320879 
L 250.436053 361.629654 
L 252.352652 364.335365 
L 254.15651 366.502801 
L 255.847626 368.195895 
L 257.426002 369.476821 
L 259.004377 370.466227 
L 260.470012 371.12225 
L 261.935646 371.524161 
L 263.288539 371.669025 
L 264.641433 371.596587 
L 265.994326 371.306949 
L 267.347219 370.800523 
L 268.812854 370.008097 
L 270.278488 368.963418 
L 271.856863 367.55828 
L 273.54798 365.733477 
L 275.239097 363.58234 
L 277.042954 360.933495 
L 278.959553 357.725731 
L 280.988893 353.897535 
L 283.130974 349.388212 
L 285.498537 343.863578 
L 287.978842 337.492459 
L 290.684628 329.896631 
L 293.503156 321.313426 
L 296.547166 311.335016 
L 299.929399 299.470386 
L 303.649855 285.596033 
L 307.934017 268.740055 
L 313.232849 246.934707 
L 322.252138 208.671167 
L 329.918533 176.550828 
L 334.879141 156.700818 
L 339.050562 140.91009 
L 342.658278 128.093075 
L 345.92777 117.265097 
L 348.97178 107.938841 
L 351.790307 100.012503 
L 354.383353 93.365763 
L 356.863657 87.619879 
L 359.118479 82.939043 
L 361.26056 78.988452 
L 363.2899 75.704788 
L 365.206499 73.023296 
L 367.010356 70.879036 
L 368.701473 69.207954 
L 370.279849 67.947775 
L 371.745483 67.038734 
L 373.211117 66.382712 
L 374.676752 65.980801 
L 376.029645 65.835936 
L 377.382538 65.908374 
L 378.735431 66.198012 
L 380.088325 66.704439 
L 381.553959 67.496864 
L 383.019593 68.541544 
L 384.597969 69.946682 
L 386.289085 71.771485 
L 387.980202 73.922622 
L 389.78406 76.571467 
L 391.700659 79.779231 
L 393.729998 83.607427 
L 395.872079 88.116749 
L 398.239643 93.641384 
L 400.719947 100.012503 
L 403.425734 107.60833 
L 406.244261 116.191536 
L 409.288271 126.169945 
L 412.670504 138.034576 
L 416.390961 151.908929 
L 420.675123 168.764906 
L 425.973955 190.570254 
L 434.993243 228.833794 
L 442.659638 260.954133 
L 447.620247 280.804144 
L 451.791668 296.594872 
L 455.399383 309.411887 
L 458.668875 320.239864 
L 461.712885 329.566121 
L 464.531413 337.492459 
L 467.124458 344.139199 
L 469.604762 349.885082 
L 471.859585 354.565918 
L 474.001666 358.51651 
L 476.031005 361.800173 
L 477.947604 364.481665 
L 479.751462 366.625926 
L 481.442579 368.297008 
L 483.020954 369.557187 
L 484.486588 370.466227 
L 485.952223 371.12225 
L 487.417857 371.524161 
L 488.77075 371.669025 
L 490.123644 371.596587 
L 491.476537 371.306949 
L 492.82943 370.800523 
L 494.295065 370.008097 
L 495.760699 368.963418 
L 497.339074 367.55828 
L 499.030191 365.733477 
L 500.721308 363.58234 
L 502.525165 360.933495 
L 504.441764 357.725731 
L 506.471104 353.897535 
L 508.613185 349.388212 
L 510.980748 343.863578 
L 513.461052 337.492459 
L 516.166839 329.896631 
L 518.985367 321.313426 
L 522.029376 311.335016 
L 525.41161 299.470386 
L 529.132066 285.596033 
L 533.416228 268.740055 
L 538.71506 246.934707 
L 547.734349 208.671167 
L 555.400744 176.550828 
L 560.361352 156.700818 
L 564.532773 140.91009 
L 568.140489 128.093075 
L 571.409981 117.265097 
L 574.453991 107.938841 
L 577.272518 100.012503 
L 579.865564 93.365763 
L 582.345868 87.619879 
L 584.60069 82.939043 
L 586.742771 78.988452 
L 588.772111 75.704788 
L 590.68871 73.023296 
L 592.492567 70.879036 
L 594.183684 69.207954 
L 595.762059 67.947775 
L 597.227694 67.038734 
L 598.693328 66.382712 
L 600.158963 65.980801 
L 601.511856 65.835936 
L 602.864749 65.908374 
L 604.217642 66.198012 
L 605.570536 66.704439 
L 607.03617 67.496864 
L 608.501804 68.541544 
L 610.08018 69.946682 
L 611.771296 71.771485 
L 613.462413 73.922622 
L 615.266271 76.571467 
L 617.182869 79.779231 
L 619.212209 83.607427 
L 621.35429 88.116749 
L 623.721854 93.641384 
L 626.202158 100.012503 
L 628.907944 107.60833 
L 631.726472 116.191536 
L 634.770482 126.169945 
L 638.152715 138.034576 
L 641.873172 151.908929 
L 646.157334 168.764906 
L 651.343424 190.098212 
L 651.343424 190.098212 
" style="fill:none;stroke:#ff7f0e;stroke-dasharray:9.6,2.4,1.5,2.4;stroke-dashoffset:0;stroke-width:1.5;"/>
   </g>
   <g id="line2d_13">
    <path clip-path="url(#p82827d9662)" d="M 94.402363 218.752481 
L 100.377642 193.758693 
L 103.534393 181.497443 
L 106.127438 172.270263 
L 108.382261 165.028018 
L 110.4116 159.231423 
L 112.215458 154.71527 
L 113.906575 151.067888 
L 115.372209 148.391755 
L 116.725102 146.337551 
L 117.965254 144.815758 
L 119.205407 143.647012 
L 120.332818 142.895608 
L 121.347488 142.475247 
L 122.362158 142.298736 
L 123.376828 142.366641 
L 124.391498 142.678743 
L 125.406167 143.234046 
L 126.533579 144.134098 
L 127.66099 145.328635 
L 128.901142 146.977095 
L 130.254035 149.165977 
L 131.719669 151.983024 
L 133.298045 155.514081 
L 134.989161 159.839207 
L 136.90576 165.370905 
L 139.047841 172.270263 
L 141.415404 180.661357 
L 144.233932 191.501306 
L 147.841647 206.317279 
L 158.439311 250.435547 
L 161.257839 260.931203 
L 163.625402 268.954884 
L 165.767483 275.465895 
L 167.684082 280.609743 
L 169.375199 284.564628 
L 170.953574 287.729446 
L 172.419208 290.191068 
L 173.772102 292.040847 
L 175.012254 293.370863 
L 176.139665 294.270915 
L 177.154335 294.826218 
L 178.169005 295.138321 
L 179.183675 295.206225 
L 180.198345 295.029715 
L 181.213015 294.609354 
L 182.227685 293.946486 
L 183.355096 292.928148 
L 184.595248 291.470054 
L 185.8354 289.664735 
L 187.188293 287.309459 
L 188.653928 284.318782 
L 190.345044 280.326146 
L 192.148902 275.465895 
L 194.178242 269.316241 
L 196.433064 261.729253 
L 199.026109 252.174257 
L 202.18286 239.622326 
L 206.805246 220.193628 
L 213.118748 193.758693 
L 216.275498 181.497443 
L 218.868544 172.270263 
L 221.123366 165.028018 
L 223.152706 159.231423 
L 224.956564 154.71527 
L 226.64768 151.067888 
L 228.113315 148.391755 
L 229.466208 146.337551 
L 230.70636 144.815758 
L 231.946512 143.647012 
L 233.073923 142.895608 
L 234.088593 142.475247 
L 235.103263 142.298736 
L 236.117933 142.366641 
L 237.132603 142.678743 
L 238.147273 143.234046 
L 239.274684 144.134098 
L 240.402095 145.328635 
L 241.642247 146.977095 
L 242.99514 149.165977 
L 244.460775 151.983024 
L 246.03915 155.514081 
L 247.730267 159.839207 
L 249.646866 165.370905 
L 251.788947 172.270263 
L 254.15651 180.661357 
L 256.975038 191.501306 
L 260.582753 206.317279 
L 271.180417 250.435547 
L 273.998944 260.931203 
L 276.366508 268.954884 
L 278.508589 275.465895 
L 280.425187 280.609743 
L 282.116304 284.564628 
L 283.69468 287.729446 
L 285.160314 290.191068 
L 286.513207 292.040847 
L 287.753359 293.370863 
L 288.88077 294.270915 
L 289.89544 294.826218 
L 290.91011 295.138321 
L 291.92478 295.206225 
L 292.93945 295.029715 
L 293.95412 294.609354 
L 294.96879 293.946486 
L 296.096201 292.928148 
L 297.336353 291.470054 
L 298.576505 289.664735 
L 299.929399 287.309459 
L 301.395033 284.318782 
L 303.08615 280.326146 
L 304.890007 275.465895 
L 306.919347 269.316241 
L 309.174169 261.729253 
L 311.767215 252.174257 
L 314.923966 239.622326 
L 319.546351 220.193628 
L 325.859853 193.758693 
L 329.016604 181.497443 
L 331.609649 172.270263 
L 333.864471 165.028018 
L 335.893811 159.231423 
L 337.697669 154.71527 
L 339.388786 151.067888 
L 340.85442 148.391755 
L 342.207313 146.337551 
L 343.447465 144.815758 
L 344.687618 143.647012 
L 345.815029 142.895608 
L 346.829699 142.475247 
L 347.844369 142.298736 
L 348.859038 142.366641 
L 349.873708 142.678743 
L 350.888378 143.234046 
L 352.015789 144.134098 
L 353.1432 145.328635 
L 354.383353 146.977095 
L 355.736246 149.165977 
L 357.20188 151.983024 
L 358.780256 155.514081 
L 360.471372 159.839207 
L 362.387971 165.370905 
L 364.530052 172.270263 
L 366.897615 180.661357 
L 369.716143 191.501306 
L 373.323858 206.317279 
L 383.921522 250.435547 
L 386.74005 260.931203 
L 389.107613 268.954884 
L 391.249694 275.465895 
L 393.166293 280.609743 
L 394.85741 284.564628 
L 396.435785 287.729446 
L 397.901419 290.191068 
L 399.254313 292.040847 
L 400.494465 293.370863 
L 401.621876 294.270915 
L 402.636546 294.826218 
L 403.651216 295.138321 
L 404.665886 295.206225 
L 405.680556 295.029715 
L 406.695226 294.609354 
L 407.709896 293.946486 
L 408.837307 292.928148 
L 410.077459 291.470054 
L 411.317611 289.664735 
L 412.670504 287.309459 
L 414.136139 284.318782 
L 415.827255 280.326146 
L 417.631113 275.465895 
L 419.660453 269.316241 
L 421.915275 261.729253 
L 424.50832 252.174257 
L 427.665071 239.622326 
L 432.287457 220.193628 
L 438.600958 193.758693 
L 441.757709 181.497443 
L 444.350755 172.270263 
L 446.605577 165.028018 
L 448.634917 159.231423 
L 450.438775 154.71527 
L 452.129891 151.067888 
L 453.595525 148.391755 
L 454.948419 146.337551 
L 456.188571 144.815758 
L 457.428723 143.647012 
L 458.556134 142.895608 
L 459.570804 142.475247 
L 460.585474 142.298736 
L 461.600144 142.366641 
L 462.614814 142.678743 
L 463.629484 143.234046 
L 464.756895 144.134098 
L 465.884306 145.328635 
L 467.124458 146.977095 
L 468.477351 149.165977 
L 469.942986 151.983024 
L 471.521361 155.514081 
L 473.212478 159.839207 
L 475.129077 165.370905 
L 477.271158 172.270263 
L 479.638721 180.661357 
L 482.457248 191.501306 
L 486.064964 206.317279 
L 496.662628 250.435547 
L 499.481155 260.931203 
L 501.848719 268.954884 
L 503.9908 275.465895 
L 505.907398 280.609743 
L 507.598515 284.564628 
L 509.17689 287.729446 
L 510.642525 290.191068 
L 511.995418 292.040847 
L 513.23557 293.370863 
L 514.362981 294.270915 
L 515.377651 294.826218 
L 516.392321 295.138321 
L 517.406991 295.206225 
L 518.421661 295.029715 
L 519.436331 294.609354 
L 520.451001 293.946486 
L 521.578412 292.928148 
L 522.818564 291.470054 
L 524.058716 289.664735 
L 525.41161 287.309459 
L 526.877244 284.318782 
L 528.568361 280.326146 
L 530.372218 275.465895 
L 532.401558 269.316241 
L 534.65638 261.729253 
L 537.249426 252.174257 
L 540.406177 239.622326 
L 545.028562 220.193628 
L 551.342064 193.758693 
L 554.498815 181.497443 
L 557.09186 172.270263 
L 559.346682 165.028018 
L 561.376022 159.231423 
L 563.17988 154.71527 
L 564.870997 151.067888 
L 566.336631 148.391755 
L 567.689524 146.337551 
L 568.929676 144.815758 
L 570.169829 143.647012 
L 571.29724 142.895608 
L 572.31191 142.475247 
L 573.326579 142.298736 
L 574.341249 142.366641 
L 575.355919 142.678743 
L 576.370589 143.234046 
L 577.498 144.134098 
L 578.625411 145.328635 
L 579.865564 146.977095 
L 581.218457 149.165977 
L 582.684091 151.983024 
L 584.262467 155.514081 
L 585.953583 159.839207 
L 587.870182 165.370905 
L 590.012263 172.270263 
L 592.379826 180.661357 
L 595.198354 191.501306 
L 598.806069 206.317279 
L 609.403733 250.435547 
L 612.222261 260.931203 
L 614.589824 268.954884 
L 616.731905 275.465895 
L 618.648504 280.609743 
L 620.33962 284.564628 
L 621.917996 287.729446 
L 623.38363 290.191068 
L 624.736524 292.040847 
L 625.976676 293.370863 
L 627.104087 294.270915 
L 628.118757 294.826218 
L 629.133427 295.138321 
L 630.148097 295.206225 
L 631.162767 295.029715 
L 632.177437 294.609354 
L 633.192106 293.946486 
L 634.319518 292.928148 
L 635.55967 291.470054 
L 636.799822 289.664735 
L 638.152715 287.309459 
L 639.618349 284.318782 
L 641.309466 280.326146 
L 643.113324 275.465895 
L 645.142664 269.316241 
L 647.397486 261.729253 
L 649.990531 252.174257 
L 651.343424 246.899204 
L 651.343424 246.899204 
" style="fill:none;stroke:#2ca02c;stroke-dasharray:5.55,2.4;stroke-dashoffset:0;stroke-width:1.5;"/>
   </g>
   <g id="line2d_14">
    <path clip-path="url(#p82827d9662)" d="M 94.402363 218.752481 
L 99.024749 199.542164 
L 101.392312 190.633332 
L 103.308911 184.210682 
L 105.000027 179.273591 
L 106.465662 175.628802 
L 107.818555 172.837156 
L 109.058707 170.792789 
L 110.073377 169.502374 
L 111.088047 168.566098 
L 111.989976 168.036656 
L 112.779164 167.809727 
L 113.568351 167.804445 
L 114.357539 168.020835 
L 115.146727 168.457953 
L 116.048656 169.225314 
L 117.063326 170.424705 
L 118.077996 171.971602 
L 119.205407 174.084336 
L 120.445559 176.865447 
L 121.911193 180.729483 
L 123.489569 185.526438 
L 125.406167 192.119063 
L 127.66099 200.734741 
L 130.817741 213.796078 
L 136.90576 239.143241 
L 139.273323 247.931171 
L 141.189922 254.225374 
L 142.881039 259.0292 
L 144.346673 262.545513 
L 145.699566 265.209611 
L 146.826977 266.977467 
L 147.841647 268.202926 
L 148.743576 268.993928 
L 149.645505 269.499448 
L 150.434693 269.705295 
L 151.223881 269.689451 
L 152.013068 269.451984 
L 152.802256 268.993928 
L 153.704185 268.202926 
L 154.718855 266.977467 
L 155.846266 265.209611 
L 157.086418 262.789411 
L 158.439311 259.610905 
L 159.904946 255.579826 
L 161.596062 250.246755 
L 163.512661 243.449209 
L 165.880224 234.199154 
L 169.48794 219.072753 
L 174.110325 199.8392 
L 176.477888 190.901019 
L 178.394487 184.446888 
L 180.085604 179.476965 
L 181.551238 175.800413 
L 182.904131 172.977153 
L 184.144283 170.902224 
L 185.271694 169.461332 
L 186.286364 168.538318 
L 187.188293 168.020835 
L 187.977481 167.804445 
L 188.766669 167.809727 
L 189.555856 168.036656 
L 190.345044 168.484245 
L 191.246973 169.263431 
L 192.261643 170.475861 
L 193.276313 172.035431 
L 194.403724 174.161703 
L 195.756617 177.233763 
L 197.222252 181.159086 
L 198.913368 186.384496 
L 200.829967 193.081201 
L 203.19753 202.241377 
L 206.579763 216.351315 
L 211.765854 237.962798 
L 214.133417 246.871629 
L 216.050016 253.29428 
L 217.741133 258.231371 
L 219.206767 261.87616 
L 220.55966 264.667805 
L 221.799813 266.712173 
L 222.814483 268.002588 
L 223.829153 268.938863 
L 224.731081 269.468306 
L 225.520269 269.695235 
L 226.309457 269.700516 
L 227.098645 269.484127 
L 227.887832 269.047009 
L 228.789761 268.279647 
L 229.804431 267.080257 
L 230.819101 265.53336 
L 231.946512 263.420626 
L 233.186664 260.639515 
L 234.652299 256.775479 
L 236.230674 251.978524 
L 238.147273 245.385898 
L 240.402095 236.77022 
L 243.558846 223.708884 
L 249.646866 198.361721 
L 252.014429 189.573791 
L 253.931028 183.279587 
L 255.622144 178.475761 
L 257.087779 174.959449 
L 258.440672 172.295351 
L 259.568083 170.527494 
L 260.582753 169.302036 
L 261.484682 168.511034 
L 262.386611 168.005514 
L 263.175798 167.799667 
L 263.964986 167.815511 
L 264.754174 168.052978 
L 265.543362 168.511034 
L 266.44529 169.302036 
L 267.45996 170.527494 
L 268.587371 172.295351 
L 269.827524 174.71555 
L 271.180417 177.894056 
L 272.646051 181.925136 
L 274.337168 187.258207 
L 276.253767 194.055753 
L 278.62133 203.305807 
L 282.229045 218.432209 
L 286.85143 237.665761 
L 289.218994 246.603942 
L 291.135592 253.058074 
L 292.826709 258.027997 
L 294.292343 261.704549 
L 295.645237 264.527809 
L 296.885389 266.602738 
L 298.0128 268.043629 
L 299.02747 268.966643 
L 299.929399 269.484127 
L 300.718586 269.700516 
L 301.507774 269.695235 
L 302.296962 269.468306 
L 303.08615 269.020716 
L 303.988079 268.241531 
L 305.002748 267.0291 
L 306.017418 265.469531 
L 307.144829 263.343259 
L 308.497723 260.271199 
L 309.963357 256.345875 
L 311.654474 251.120466 
L 313.571072 244.423761 
L 315.938636 235.263584 
L 319.320869 221.153647 
L 324.50696 199.542164 
L 326.874523 190.633332 
L 328.791122 184.210682 
L 330.482238 179.273591 
L 331.947873 175.628802 
L 333.300766 172.837156 
L 334.540918 170.792789 
L 335.555588 169.502374 
L 336.570258 168.566098 
L 337.472187 168.036656 
L 338.261375 167.809727 
L 339.050562 167.804445 
L 339.83975 168.020835 
L 340.628938 168.457953 
L 341.530867 169.225314 
L 342.545537 170.424705 
L 343.560207 171.971602 
L 344.687618 174.084336 
L 345.92777 176.865447 
L 347.393404 180.729483 
L 348.97178 185.526438 
L 350.888378 192.119063 
L 353.1432 200.734741 
L 356.299951 213.796078 
L 362.387971 239.143241 
L 364.755534 247.931171 
L 366.672133 254.225374 
L 368.36325 259.0292 
L 369.828884 262.545513 
L 371.181777 265.209611 
L 372.309188 266.977467 
L 373.323858 268.202926 
L 374.225787 268.993928 
L 375.127716 269.499448 
L 375.916904 269.705295 
L 376.706092 269.689451 
L 377.495279 269.451984 
L 378.284467 268.993928 
L 379.186396 268.202926 
L 380.201066 266.977467 
L 381.328477 265.209611 
L 382.568629 262.789411 
L 383.921522 259.610905 
L 385.387157 255.579826 
L 387.078273 250.246755 
L 388.994872 243.449209 
L 391.362435 234.199154 
L 394.970151 219.072753 
L 399.592536 199.8392 
L 401.960099 190.901019 
L 403.876698 184.446888 
L 405.567815 179.476965 
L 407.033449 175.800413 
L 408.386342 172.977153 
L 409.626494 170.902224 
L 410.753905 169.461332 
L 411.768575 168.538318 
L 412.670504 168.020835 
L 413.459692 167.804445 
L 414.24888 167.809727 
L 415.038067 168.036656 
L 415.827255 168.484245 
L 416.729184 169.263431 
L 417.743854 170.475861 
L 418.758524 172.035431 
L 419.885935 174.161703 
L 421.238828 177.233763 
L 422.704463 181.159086 
L 424.395579 186.384496 
L 426.312178 193.081201 
L 428.679741 202.241377 
L 432.061974 216.351315 
L 437.248065 237.962798 
L 439.615628 246.871629 
L 441.532227 253.29428 
L 443.223344 258.231371 
L 444.688978 261.87616 
L 446.041871 264.667805 
L 447.282024 266.712173 
L 448.296694 268.002588 
L 449.311363 268.938863 
L 450.213292 269.468306 
L 451.00248 269.695235 
L 451.791668 269.700516 
L 452.580856 269.484127 
L 453.370043 269.047009 
L 454.271972 268.279647 
L 455.286642 267.080257 
L 456.301312 265.53336 
L 457.428723 263.420626 
L 458.668875 260.639515 
L 460.13451 256.775479 
L 461.712885 251.978524 
L 463.629484 245.385898 
L 465.884306 236.77022 
L 469.041057 223.708884 
L 475.129077 198.361721 
L 477.49664 189.573791 
L 479.413239 183.279587 
L 481.104355 178.475761 
L 482.56999 174.959449 
L 483.922883 172.295351 
L 485.050294 170.527494 
L 486.064964 169.302036 
L 486.966893 168.511034 
L 487.868822 168.005514 
L 488.658009 167.799667 
L 489.447197 167.815511 
L 490.236385 168.052978 
L 491.025572 168.511034 
L 491.927501 169.302036 
L 492.942171 170.527494 
L 494.069582 172.295351 
L 495.309734 174.71555 
L 496.662628 177.894056 
L 498.128262 181.925136 
L 499.819379 187.258207 
L 501.735977 194.055753 
L 504.103541 203.305807 
L 507.711256 218.432209 
L 512.333641 237.665761 
L 514.701205 246.603942 
L 516.617803 253.058074 
L 518.30892 258.027997 
L 519.774554 261.704549 
L 521.127448 264.527809 
L 522.3676 266.602738 
L 523.495011 268.043629 
L 524.509681 268.966643 
L 525.41161 269.484127 
L 526.200797 269.700516 
L 526.989985 269.695235 
L 527.779173 269.468306 
L 528.568361 269.020716 
L 529.470289 268.241531 
L 530.484959 267.0291 
L 531.499629 265.469531 
L 532.62704 263.343259 
L 533.979934 260.271199 
L 535.445568 256.345875 
L 537.136685 251.120466 
L 539.053283 244.423761 
L 541.420847 235.263584 
L 544.80308 221.153647 
L 549.989171 199.542164 
L 552.356734 190.633332 
L 554.273333 184.210682 
L 555.964449 179.273591 
L 557.430084 175.628802 
L 558.782977 172.837156 
L 560.023129 170.792789 
L 561.037799 169.502374 
L 562.052469 168.566098 
L 562.954398 168.036656 
L 563.743586 167.809727 
L 564.532773 167.804445 
L 565.321961 168.020835 
L 566.111149 168.457953 
L 567.013078 169.225314 
L 568.027748 170.424705 
L 569.042417 171.971602 
L 570.169829 174.084336 
L 571.409981 176.865447 
L 572.875615 180.729483 
L 574.453991 185.526438 
L 576.370589 192.119063 
L 578.625411 200.734741 
L 581.782162 213.796078 
L 587.870182 239.143241 
L 590.237745 247.931171 
L 592.154344 254.225374 
L 593.845461 259.0292 
L 595.311095 262.545513 
L 596.663988 265.209611 
L 597.791399 266.977467 
L 598.806069 268.202926 
L 599.707998 268.993928 
L 600.609927 269.499448 
L 601.399115 269.705295 
L 602.188302 269.689451 
L 602.97749 269.451984 
L 603.766678 268.993928 
L 604.668607 268.202926 
L 605.683277 266.977467 
L 606.810688 265.209611 
L 608.05084 262.789411 
L 609.403733 259.610905 
L 610.869368 255.579826 
L 612.560484 250.246755 
L 614.477083 243.449209 
L 616.844646 234.199154 
L 620.452362 219.072753 
L 625.074747 199.8392 
L 627.44231 190.901019 
L 629.358909 184.446888 
L 631.050025 179.476965 
L 632.51566 175.800413 
L 633.868553 172.977153 
L 635.108705 170.902224 
L 636.236116 169.461332 
L 637.250786 168.538318 
L 638.152715 168.020835 
L 638.941903 167.804445 
L 639.731091 167.809727 
L 640.520278 168.036656 
L 641.309466 168.484245 
L 642.211395 169.263431 
L 643.226065 170.475861 
L 644.240735 172.035431 
L 645.368146 174.161703 
L 646.721039 177.233763 
L 648.186673 181.159086 
L 649.87779 186.384496 
L 651.343424 191.439681 
L 651.343424 191.439681 
" style="fill:none;stroke:#d62728;stroke-dasharray:1.5,2.475;stroke-dashoffset:0;stroke-width:1.5;"/>
   </g>
   <g id="line2d_15">
    <path clip-path="url(#p82827d9662)" d="M 90.45 218.752481 
L 651.24 218.752481 
" style="fill:none;stroke:#000000;stroke-linecap:square;stroke-width:1.5;"/>
   </g>
   <g id="patch_3">
    <path d="M 90.45 387.684 
L 90.45 52.272 
" style="fill:none;stroke:#000000;stroke-linecap:square;stroke-linejoin:miter;stroke-width:0.8;"/>
   </g>
   <g id="patch_4">
    <path d="M 651.24 387.684 
L 651.24 52.272 
" style="fill:none;stroke:#000000;stroke-linecap:square;stroke-linejoin:miter;stroke-width:0.8;"/>
   </g>
   <g id="patch_5">
    <path d="M 90.45 387.684 
L 651.24 387.684 
" style="fill:none;stroke:#000000;stroke-linecap:square;stroke-linejoin:miter;stroke-width:0.8;"/>
   </g>
   <g id="patch_6">
    <path d="M 90.45 52.272 
L 651.24 52.272 
" style="fill:none;stroke:#000000;stroke-linecap:square;stroke-linejoin:miter;stroke-width:0.8;"/>
   </g>
   <g id="legend_1">
    <g id="patch_7">
     <path d="M 482.397812 380.684 
L 641.44 380.684 
Q 644.24 380.684 644.24 377.884 
L 644.24 301.1465 
Q 644.24 298.3465 641.44 298.3465 
L 482.397812 298.3465 
Q 479.597812 298.3465 479.597812 301.1465 
L 479.597812 377.884 
Q 479.597812 380.684 482.397812 380.684 
z
" style="fill:#ffffff;stroke:#cccccc;stroke-linejoin:miter;"/>
    </g>
    <g id="line2d_16">
     <path d="M 485.197812 308.8465 
L 513.197812 308.8465 
" style="fill:none;stroke:#1f77b4;stroke-linecap:square;stroke-width:2;"/>
    </g>
    <g id="line2d_17"/>
    <g id="text_13">
     <!-- SLD function -->
     <g transform="translate(524.397812 313.7465)scale(0.14 -0.14)">
      <defs>
       <path d="M 3.296875 40 
L 3.296875 43.09375 
L 11.203125 43.09375 
L 11.203125 54.59375 
Q 11.203125 62 16 66.25 
Q 20.796875 70.5 26.703125 70.5 
Q 30.59375 70.5 33.140625 68.390625 
Q 35.703125 66.296875 35.703125 63.5 
Q 35.703125 61.59375 34.546875 60.34375 
Q 33.40625 59.09375 31.296875 59.09375 
Q 29.296875 59.09375 28.140625 60.34375 
Q 27 61.59375 27 63.40625 
Q 27 66.59375 30 67.59375 
Q 28.5 68.296875 26.703125 68.296875 
Q 23.09375 68.296875 20.296875 64.59375 
Q 17.5 60.90625 17.5 54.703125 
L 17.5 43.09375 
L 29.203125 43.09375 
L 29.203125 40 
L 17.796875 40 
L 17.796875 7.796875 
Q 17.796875 4.90625 19 4 
Q 20.203125 3.09375 25.40625 3.09375 
L 27.5 3.09375 
L 27.5 0 
Q 23.5 0.296875 14.796875 0.296875 
Q 13.59375 0.296875 11.6875 0.25 
Q 9.796875 0.203125 7.296875 0.09375 
Q 4.796875 0 3.40625 0 
L 3.40625 3.09375 
Q 8.703125 3.09375 9.953125 3.75 
Q 11.203125 4.40625 11.203125 7.59375 
L 11.203125 40 
z
" id="CMUSerif-Roman-102"/>
       <path d="M 3.203125 40 
L 3.203125 43.09375 
L 17.90625 44.203125 
L 17.90625 11 
Q 17.90625 8.59375 18.09375 7.1875 
Q 18.296875 5.796875 19.09375 4.1875 
Q 19.90625 2.59375 21.796875 1.84375 
Q 23.703125 1.09375 26.703125 1.09375 
Q 32.09375 1.09375 35.4375 5.546875 
Q 38.796875 10 38.796875 16.59375 
L 38.796875 34.40625 
Q 38.796875 38.09375 37.5 39.046875 
Q 36.203125 40 31 40 
L 31 43.09375 
L 45.703125 44.203125 
L 45.703125 8.703125 
Q 45.703125 5 47 4.046875 
Q 48.296875 3.09375 53.5 3.09375 
L 53.5 0 
L 39.09375 -1.09375 
L 39.09375 7.90625 
Q 34.90625 -1.09375 26.203125 -1.09375 
Q 21.796875 -1.09375 18.796875 0 
Q 15.796875 1.09375 14.296875 2.5 
Q 12.796875 3.90625 12 6.59375 
Q 11.203125 9.296875 11.09375 10.9375 
Q 11 12.59375 11 15.796875 
L 11 30.796875 
Q 11 37.59375 10 38.796875 
Q 9 40 3.203125 40 
z
" id="CMUSerif-Roman-117"/>
       <path d="M 16.09375 -1.09375 
Q 3.40625 12.09375 3.40625 21.59375 
Q 3.40625 31.09375 9.65625 37.9375 
Q 15.90625 44.796875 25.09375 44.796875 
Q 31.203125 44.796875 35.796875 41.890625 
Q 40.40625 39 40.40625 34.09375 
Q 40.40625 31.90625 39.09375 30.65625 
Q 37.796875 29.40625 35.796875 29.40625 
Q 33.703125 29.40625 32.453125 30.703125 
Q 31.203125 32 31.203125 34 
Q 31.203125 34.90625 31.5 35.75 
Q 31.796875 36.59375 32.890625 37.546875 
Q 34 38.5 35.90625 38.59375 
Q 32.296875 42.296875 25.203125 42.296875 
Q 20.09375 42.296875 15.890625 37.5 
Q 11.703125 32.703125 11.703125 21.796875 
Q 11.703125 16.09375 13.09375 11.890625 
Q 14.5 7.703125 16.796875 5.546875 
Q 19.09375 3.40625 21.34375 2.40625 
Q 23.59375 1.40625 25.796875 1.40625 
Q 35.59375 1.40625 38.90625 11.90625 
Q 39.203125 12.90625 40.203125 12.90625 
Q 41.5 12.90625 41.5 11.90625 
Q 41.5 11.40625 41.09375 10.15625 
Q 40.703125 8.90625 39.5 6.90625 
Q 38.296875 4.90625 36.546875 3.15625 
Q 34.796875 1.40625 31.75 0.15625 
Q 28.703125 -1.09375 24.90625 -1.09375 
Q 16.09375 -1.09375 3.40625 12.09375 
z
" id="CMUSerif-Roman-99"/>
       <path d="M 3.296875 0 
L 3.296875 3.09375 
Q 8.59375 3.09375 9.84375 3.75 
Q 11.09375 4.40625 11.09375 7.59375 
L 11.09375 34.5 
Q 11.09375 38.203125 9.84375 39.09375 
Q 8.59375 40 3.703125 40 
L 3.703125 43.09375 
L 17.703125 44.203125 
L 17.703125 7.5 
Q 17.703125 4.5 18.75 3.796875 
Q 19.796875 3.09375 24.703125 3.09375 
L 24.703125 0 
Q 14.5 0.296875 14.296875 0.296875 
Q 12.90625 0.296875 3.296875 0 
z
M 7.5 61.59375 
Q 7.5 63.59375 9.046875 65.25 
Q 10.59375 66.90625 12.796875 66.90625 
Q 15 66.90625 16.546875 65.40625 
Q 18.09375 63.90625 18.09375 61.59375 
Q 18.09375 59.296875 16.546875 57.796875 
Q 15 56.296875 12.796875 56.296875 
Q 10.5 56.296875 9 57.890625 
Q 7.5 59.5 7.5 61.59375 
z
" id="CMUSerif-Roman-105"/>
       <path d="M 16 -1.09375 
Q 2.796875 11.90625 2.796875 21.40625 
Q 2.796875 30.90625 9.25 37.84375 
Q 15.703125 44.796875 25 44.796875 
Q 34.09375 44.796875 40.59375 37.890625 
Q 47.09375 31 47.09375 21.40625 
Q 47.09375 12 40.546875 5.453125 
Q 34 -1.09375 24.90625 -1.09375 
Q 16 -1.09375 2.796875 11.90625 
z
M 11.09375 22.203125 
Q 11.09375 12.5 13.59375 8.09375 
Q 17.5 1.40625 25 1.40625 
Q 28.703125 1.40625 31.796875 3.40625 
Q 34.90625 5.40625 36.59375 8.796875 
Q 38.796875 13.203125 38.796875 22.203125 
Q 38.796875 31.796875 36.203125 36.09375 
Q 32.296875 42.59375 24.90625 42.59375 
Q 21.703125 42.59375 18.546875 40.890625 
Q 15.40625 39.203125 13.5 35.90625 
Q 11.09375 31.5 11.09375 22.203125 
z
" id="CMUSerif-Roman-111"/>
      </defs>
      <use xlink:href="#CMUSerif-Roman-83"/>
      <use x="55.499985" xlink:href="#CMUSerif-Roman-76"/>
      <use x="117.999969" xlink:href="#CMUSerif-Roman-68"/>
      <use x="194.299957" xlink:href="#CMUSerif-Roman-32"/>
      <use x="227.599945" xlink:href="#CMUSerif-Roman-102"/>
      <use x="258.09993" xlink:href="#CMUSerif-Roman-117"/>
      <use x="313.599915" xlink:href="#CMUSerif-Roman-110"/>
      <use x="369.099899" xlink:href="#CMUSerif-Roman-99"/>
      <use x="413.499893" xlink:href="#CMUSerif-Roman-116"/>
      <use x="452.299881" xlink:href="#CMUSerif-Roman-105"/>
      <use x="479.999878" xlink:href="#CMUSerif-Roman-111"/>
      <use x="529.999863" xlink:href="#CMUSerif-Roman-110"/>
     </g>
    </g>
    <g id="line2d_18">
     <path d="M 485.197812 328.363375 
L 513.197812 328.363375 
" style="fill:none;stroke:#ff7f0e;stroke-dasharray:9.6,2.4,1.5,2.4;stroke-dashoffset:0;stroke-width:1.5;"/>
    </g>
    <g id="line2d_19"/>
    <g id="text_14">
     <!-- First component -->
     <g transform="translate(524.397812 333.263375)scale(0.14 -0.14)">
      <defs>
       <path d="M 3.296875 0 
L 3.296875 3.09375 
L 5.703125 3.09375 
Q 11.09375 3.09375 12.34375 4 
Q 13.59375 4.90625 13.59375 7.796875 
L 13.59375 60.203125 
Q 13.59375 63.09375 12.34375 64 
Q 11.09375 64.90625 5.703125 64.90625 
L 3.296875 64.90625 
L 3.296875 68 
L 58.203125 68 
L 61 45.5 
L 58.5 45.5 
Q 57.796875 51.203125 56.890625 54.453125 
Q 56 57.703125 53.953125 60.296875 
Q 51.90625 62.90625 48.453125 63.90625 
Q 45 64.90625 39.40625 64.90625 
L 27.40625 64.90625 
Q 24 64.90625 23.25 64.203125 
Q 22.5 63.5 22.5 60.90625 
L 22.5 35.59375 
L 31.09375 35.59375 
Q 37.90625 35.59375 39.796875 38.046875 
Q 41.703125 40.5 41.703125 47.296875 
L 44.203125 47.296875 
L 44.203125 20.796875 
L 41.703125 20.796875 
Q 41.703125 27.703125 39.796875 30.09375 
Q 37.90625 32.5 31.09375 32.5 
L 22.5 32.5 
L 22.5 7.90625 
Q 22.5 5.796875 22.84375 5 
Q 23.203125 4.203125 25.296875 3.640625 
Q 27.40625 3.09375 32 3.09375 
L 35.296875 3.09375 
L 35.296875 0 
Q 31.703125 0.296875 18.5 0.296875 
Q 6.796875 0.296875 3.296875 0 
z
" id="CMUSerif-Roman-70"/>
       <path d="M 2.796875 0 
L 2.796875 3.09375 
Q 8.09375 3.09375 9.34375 3.75 
Q 10.59375 4.40625 10.59375 7.59375 
L 10.59375 34.40625 
Q 10.59375 38.09375 9.296875 39.046875 
Q 8 40 2.796875 40 
L 2.796875 43.09375 
L 16.703125 44.203125 
L 16.703125 33.203125 
Q 18.09375 37.5 21.09375 40.84375 
Q 24.09375 44.203125 29 44.203125 
Q 32.203125 44.203125 34.296875 42.390625 
Q 36.40625 40.59375 36.40625 38.09375 
Q 36.40625 35.90625 35.046875 34.796875 
Q 33.703125 33.703125 32.09375 33.703125 
Q 30.296875 33.703125 29.046875 34.84375 
Q 27.796875 36 27.796875 38 
Q 27.796875 39.203125 28.34375 40.140625 
Q 28.90625 41.09375 29.34375 41.4375 
Q 29.796875 41.796875 30.09375 41.90625 
Q 29.90625 42 29 42 
Q 23.5 42 20.34375 36.5 
Q 17.203125 31 17.203125 23.203125 
L 17.203125 7.796875 
Q 17.203125 4.90625 18.390625 4 
Q 19.59375 3.09375 24.796875 3.09375 
L 26.90625 3.09375 
L 26.90625 0 
Q 22.90625 0.296875 14.203125 0.296875 
Q 13 0.296875 11.09375 0.25 
Q 9.203125 0.203125 6.703125 0.09375 
Q 4.203125 0 2.796875 0 
z
" id="CMUSerif-Roman-114"/>
       <path d="M 3.296875 1.296875 
L 3.296875 14.5 
Q 3.296875 15.59375 3.34375 16 
Q 3.40625 16.40625 3.703125 16.703125 
Q 4 17 4.59375 17 
Q 5.296875 17 5.546875 16.703125 
Q 5.796875 16.40625 6 15.296875 
Q 7.5 8.40625 10.75 4.75 
Q 14 1.09375 19.90625 1.09375 
Q 25.5 1.09375 28.34375 3.59375 
Q 31.203125 6.09375 31.203125 10.203125 
Q 31.203125 17.5 20.796875 19.40625 
Q 14.796875 20.59375 12.296875 21.390625 
Q 9.796875 22.203125 7.59375 24 
Q 3.296875 27.5 3.296875 32.5 
Q 3.296875 37.5 7.09375 41.140625 
Q 10.90625 44.796875 19.296875 44.796875 
Q 24.90625 44.796875 28.703125 42 
Q 29.796875 42.90625 30.40625 43.59375 
Q 31.703125 44.796875 32.40625 44.796875 
Q 33.203125 44.796875 33.34375 44.296875 
Q 33.5 43.796875 33.5 42.40625 
L 33.5 32.296875 
Q 33.5 31.203125 33.453125 30.796875 
Q 33.40625 30.40625 33.09375 30.15625 
Q 32.796875 29.90625 32.203125 29.90625 
Q 31.09375 29.90625 31 30.796875 
Q 30.203125 42.90625 19.296875 42.90625 
Q 13.40625 42.90625 10.75 40.65625 
Q 8.09375 38.40625 8.09375 35.296875 
Q 8.09375 33.59375 8.890625 32.296875 
Q 9.703125 31 10.75 30.25 
Q 11.796875 29.5 13.75 28.796875 
Q 15.703125 28.09375 16.890625 27.84375 
Q 18.09375 27.59375 20.40625 27.09375 
Q 28.40625 25.59375 31.796875 22.296875 
Q 36 18.09375 36 12.796875 
Q 36 6.90625 32 2.90625 
Q 28 -1.09375 19.90625 -1.09375 
Q 13.40625 -1.09375 8.90625 3.203125 
Q 8.296875 2.59375 7.84375 2.09375 
Q 7.40625 1.59375 7.25 1.390625 
Q 7.09375 1.203125 7.046875 1.09375 
Q 7 1 6.90625 0.90625 
Q 4.90625 -1.09375 4.40625 -1.09375 
Q 3.59375 -1.09375 3.4375 -0.59375 
Q 3.296875 -0.09375 3.296875 1.296875 
z
" id="CMUSerif-Roman-115"/>
      </defs>
      <use xlink:href="#CMUSerif-Roman-70"/>
      <use x="65.199997" xlink:href="#CMUSerif-Roman-105"/>
      <use x="92.899994" xlink:href="#CMUSerif-Roman-114"/>
      <use x="131.999985" xlink:href="#CMUSerif-Roman-115"/>
      <use x="171.399979" xlink:href="#CMUSerif-Roman-116"/>
      <use x="210.199966" xlink:href="#CMUSerif-Roman-32"/>
      <use x="243.499954" xlink:href="#CMUSerif-Roman-99"/>
      <use x="287.899948" xlink:href="#CMUSerif-Roman-111"/>
      <use x="337.899933" xlink:href="#CMUSerif-Roman-109"/>
      <use x="421.199921" xlink:href="#CMUSerif-Roman-112"/>
      <use x="476.699905" xlink:href="#CMUSerif-Roman-111"/>
      <use x="526.69989" xlink:href="#CMUSerif-Roman-110"/>
      <use x="582.199875" xlink:href="#CMUSerif-Roman-101"/>
      <use x="626.599869" xlink:href="#CMUSerif-Roman-110"/>
      <use x="682.099854" xlink:href="#CMUSerif-Roman-116"/>
     </g>
    </g>
    <g id="line2d_20">
     <path d="M 485.197812 347.95025 
L 513.197812 347.95025 
" style="fill:none;stroke:#2ca02c;stroke-dasharray:5.55,2.4;stroke-dashoffset:0;stroke-width:1.5;"/>
    </g>
    <g id="line2d_21"/>
    <g id="text_15">
     <!-- Second component -->
     <g transform="translate(524.397812 352.85025)scale(0.14 -0.14)">
      <defs>
       <path d="M 3.40625 21.5 
Q 3.40625 31 10.046875 37.59375 
Q 16.703125 44.203125 25.703125 44.203125 
Q 33.296875 44.203125 38.296875 38 
L 38.296875 59.59375 
Q 38.296875 63.296875 37 64.25 
Q 35.703125 65.203125 30.5 65.203125 
L 30.5 68.296875 
L 44.90625 69.40625 
L 44.90625 8.703125 
Q 44.90625 5 46.203125 4.046875 
Q 47.5 3.09375 52.703125 3.09375 
L 52.703125 0 
L 38 -1.09375 
L 38 5.5 
Q 32.796875 -1.09375 24.59375 -1.09375 
Q 16 -1.09375 9.703125 5.5 
Q 3.40625 12.09375 3.40625 21.5 
z
M 11.703125 21.40625 
Q 11.703125 12.09375 14.59375 7.5 
Q 18.59375 1.09375 25.09375 1.09375 
Q 32.5 1.09375 36.90625 8.09375 
Q 38 9.796875 38 11.796875 
L 38 32.296875 
Q 38 34.296875 36.90625 36 
Q 32.796875 42 26.09375 42 
Q 19.09375 42 14.796875 35.59375 
Q 11.703125 30.796875 11.703125 21.40625 
z
" id="CMUSerif-Roman-100"/>
      </defs>
      <use xlink:href="#CMUSerif-Roman-83"/>
      <use x="55.499985" xlink:href="#CMUSerif-Roman-101"/>
      <use x="99.899979" xlink:href="#CMUSerif-Roman-99"/>
      <use x="144.299973" xlink:href="#CMUSerif-Roman-111"/>
      <use x="194.299957" xlink:href="#CMUSerif-Roman-110"/>
      <use x="249.799942" xlink:href="#CMUSerif-Roman-100"/>
      <use x="305.299927" xlink:href="#CMUSerif-Roman-32"/>
      <use x="338.599915" xlink:href="#CMUSerif-Roman-99"/>
      <use x="382.999908" xlink:href="#CMUSerif-Roman-111"/>
      <use x="432.999893" xlink:href="#CMUSerif-Roman-109"/>
      <use x="516.299881" xlink:href="#CMUSerif-Roman-112"/>
      <use x="571.799866" xlink:href="#CMUSerif-Roman-111"/>
      <use x="621.79985" xlink:href="#CMUSerif-Roman-110"/>
      <use x="677.299835" xlink:href="#CMUSerif-Roman-101"/>
      <use x="721.699829" xlink:href="#CMUSerif-Roman-110"/>
      <use x="777.199814" xlink:href="#CMUSerif-Roman-116"/>
     </g>
    </g>
    <g id="line2d_22">
     <path d="M 485.197812 367.467125 
L 513.197812 367.467125 
" style="fill:none;stroke:#d62728;stroke-dasharray:1.5,2.475;stroke-dashoffset:0;stroke-width:1.5;"/>
    </g>
    <g id="line2d_23"/>
    <g id="text_16">
     <!-- Third component -->
     <g transform="translate(524.397812 372.367125)scale(0.14 -0.14)">
      <defs>
       <path d="M 3.59375 45.203125 
L 5.5 67.703125 
L 66.59375 67.703125 
L 68.5 45.203125 
L 66 45.203125 
Q 65.59375 49.703125 65.25 52.296875 
Q 64.90625 54.90625 64.046875 57.34375 
Q 63.203125 59.796875 62.140625 61 
Q 61.09375 62.203125 59.09375 63.140625 
Q 57.09375 64.09375 54.5 64.34375 
Q 51.90625 64.59375 48 64.59375 
Q 43.40625 64.59375 42.296875 64.40625 
Q 41.09375 64.09375 40.796875 63.25 
Q 40.5 62.40625 40.5 60.59375 
L 40.5 7.90625 
Q 40.5 5.90625 40.890625 5.09375 
Q 41.296875 4.296875 43.59375 3.6875 
Q 45.90625 3.09375 51 3.09375 
L 55 3.09375 
L 55 0 
Q 50.90625 0.296875 36 0.296875 
Q 21.203125 0.296875 17.09375 0 
L 17.09375 3.09375 
L 21.09375 3.09375 
Q 26.203125 3.09375 28.5 3.6875 
Q 30.796875 4.296875 31.1875 5.09375 
Q 31.59375 5.90625 31.59375 7.90625 
L 31.59375 60.59375 
Q 31.59375 62 31.5 62.59375 
Q 31.40625 63.203125 30.953125 63.703125 
Q 30.5 64.203125 29.5 64.390625 
Q 28.5 64.59375 24.09375 64.59375 
Q 20.203125 64.59375 17.59375 64.34375 
Q 15 64.09375 13 63.140625 
Q 11 62.203125 9.953125 61 
Q 8.90625 59.796875 8.046875 57.34375 
Q 7.203125 54.90625 6.84375 52.296875 
Q 6.5 49.703125 6.09375 45.203125 
z
" id="CMUSerif-Roman-84"/>
      </defs>
      <use xlink:href="#CMUSerif-Roman-84"/>
      <use x="72.199982" xlink:href="#CMUSerif-Roman-104"/>
      <use x="127.699966" xlink:href="#CMUSerif-Roman-105"/>
      <use x="155.399963" xlink:href="#CMUSerif-Roman-114"/>
      <use x="194.499954" xlink:href="#CMUSerif-Roman-100"/>
      <use x="249.999939" xlink:href="#CMUSerif-Roman-32"/>
      <use x="283.299927" xlink:href="#CMUSerif-Roman-99"/>
      <use x="327.699921" xlink:href="#CMUSerif-Roman-111"/>
      <use x="377.699905" xlink:href="#CMUSerif-Roman-109"/>
      <use x="460.999893" xlink:href="#CMUSerif-Roman-112"/>
      <use x="516.499878" xlink:href="#CMUSerif-Roman-111"/>
      <use x="566.499863" xlink:href="#CMUSerif-Roman-110"/>
      <use x="621.999847" xlink:href="#CMUSerif-Roman-101"/>
      <use x="666.399841" xlink:href="#CMUSerif-Roman-110"/>
      <use x="721.899826" xlink:href="#CMUSerif-Roman-116"/>
     </g>
    </g>
   </g>
  </g>
 </g>
 <defs>
  <clipPath id="p82827d9662">
   <rect height="335.412" width="560.79" x="90.45" y="52.272"/>
  </clipPath>
 </defs>
</svg>
