<?xml version="1.0" encoding="UTF-8" standalone="no"?>
<svg
   xmlns:dc="http://purl.org/dc/elements/1.1/"
   xmlns:cc="http://creativecommons.org/ns#"
   xmlns:rdf="http://www.w3.org/1999/02/22-rdf-syntax-ns#"
   xmlns:svg="http://www.w3.org/2000/svg"
   xmlns="http://www.w3.org/2000/svg"
   xmlns:sodipodi="http://sodipodi.sourceforge.net/DTD/sodipodi-0.dtd"
   xmlns:inkscape="http://www.inkscape.org/namespaces/inkscape"
   width="264.43466mm"
   height="171.9662mm"
   viewBox="0 0 264.43467 171.96619"
   version="1.1"
   id="svg8"
   inkscape:version="1.0 (4035a4fb49, 2020-05-01)"
   sodipodi:docname="multilayersketch_n=5.svg"
   inkscape:export-filename="/home/sjoerd/multilayersketch_n=5.png"
   inkscape:export-xdpi="96"
   inkscape:export-ydpi="96">
  <defs
     id="defs2">
    <rect
       x="-58.477146"
       y="12.199606"
       width="57.480732"
       height="21.192549"
       id="rect4076" />
    <rect
       x="120.12516"
       y="-67.935661"
       width="104.38138"
       height="21.967129"
       id="rect4064" />
    <rect
       x="179.0437"
       y="-64.735344"
       width="58.358913"
       height="30.190735"
       id="rect4052" />
    <rect
       x="38.689583"
       y="-8.1111078"
       width="10.875293"
       height="13.76895"
       id="rect4036" />
  </defs>
  <sodipodi:namedview
     id="base"
     pagecolor="#ffffff"
     bordercolor="#666666"
     borderopacity="1.0"
     inkscape:pageopacity="0.0"
     inkscape:pageshadow="2"
     inkscape:zoom="1"
     inkscape:cx="816.45563"
     inkscape:cy="396.21477"
     inkscape:document-units="mm"
     inkscape:current-layer="layer1"
     inkscape:document-rotation="0"
     showgrid="false"
     fit-margin-top="0"
     fit-margin-left="0"
     fit-margin-right="0"
     fit-margin-bottom="0"
     inkscape:window-width="2560"
     inkscape:window-height="1413"
     inkscape:window-x="1920"
     inkscape:window-y="27"
     inkscape:window-maximized="1">
    <inkscape:grid
       type="xygrid"
       id="grid835"
       originx="30.944712"
       originy="74.002417" />
  </sodipodi:namedview>
  <metadata
     id="metadata5">
    <rdf:RDF>
      <cc:Work
         rdf:about="">
        <dc:format>image/svg+xml</dc:format>
        <dc:type
           rdf:resource="http://purl.org/dc/dcmitype/StillImage" />
        <dc:title></dc:title>
      </cc:Work>
    </rdf:RDF>
  </metadata>
  <g
     inkscape:label="Layer 1"
     inkscape:groupmode="layer"
     id="layer1"
     transform="translate(30.944709,74.002427)">
    <path
       style="fill:#0096ff;fill-opacity:1;stroke:#000000;stroke-width:0.404464px;stroke-linecap:square;stroke-linejoin:miter;stroke-opacity:1"
       d="m 10.598995,13.239474 v 5.290549 H 233.2336 V 13.239474 H 10.598995"
       id="path3618" />
    <path
       style="fill:#cae7fb;fill-opacity:1;stroke:#000000;stroke-width:0.404464px;stroke-linecap:butt;stroke-linejoin:miter;stroke-opacity:1"
       d="m 10.598988,18.530024 v 7.935825 H 233.2336 v -7.935825 z"
       id="path3620" />
    <path
       style="fill:none;fill-opacity:1;stroke:none;stroke-width:0.677002;stroke-linecap:round;stroke-linejoin:round"
       d="m 11.115262,15.841746 v -2.456845 h 86.792784 86.792784 v 2.456845 2.456846 H 97.908046 11.115262 Z"
       id="path3646" />
    <path
       id="path3618-7"
       d="m 10.598988,26.465849 v 5.290549 H 233.2336 V 26.465849 H 10.598988"
       style="fill:#0096ff;fill-opacity:1;stroke:#000000;stroke-width:0.404464px;stroke-linecap:butt;stroke-linejoin:miter;stroke-opacity:1" />
    <path
       id="path3620-2"
       d="m 10.598988,31.756398 v 7.935825 H 233.2336 v -7.935825 z"
       style="fill:#cae7fb;fill-opacity:1;stroke:#000000;stroke-width:0.404464px;stroke-linecap:butt;stroke-linejoin:miter;stroke-opacity:1" />
    <path
       id="path3646-2"
       d="m 11.115255,29.070913 v -2.456845 h 86.792785 86.79279 v 2.456845 2.456845 H 97.90804 11.115255 Z"
       style="fill:none;fill-opacity:1;stroke:none;stroke-width:0.677002;stroke-linecap:round;stroke-linejoin:round" />
    <path
       id="path3618-1"
       d="m 10.599002,39.692223 v 5.290549 H 233.2336 V 39.692223 H 10.599002"
       style="fill:#0096ff;fill-opacity:1;stroke:#000000;stroke-width:0.404464px;stroke-linecap:butt;stroke-linejoin:miter;stroke-opacity:1" />
    <path
       id="path3620-1"
       d="m 10.599002,44.982772 v 7.935824 H 233.2336 v -7.935824 z"
       style="fill:#cae7fb;fill-opacity:1;stroke:#000000;stroke-width:0.404464px;stroke-linecap:butt;stroke-linejoin:miter;stroke-opacity:1" />
    <path
       id="path3646-5"
       d="m 11.115266,42.300079 v -2.456845 h 86.792785 86.792779 v 2.456845 2.456845 H 97.908051 11.115266 Z"
       style="fill:none;fill-opacity:1;stroke:none;stroke-width:0.677002;stroke-linecap:round;stroke-linejoin:round" />
    <path
       style="fill:#0096ff;fill-opacity:1;stroke:#000000;stroke-width:0.404464px;stroke-linecap:butt;stroke-linejoin:miter;stroke-opacity:1"
       d="m 10.598995,52.918597 v 5.29055 H 233.2336 v -5.29055 H 10.598995"
       id="path3618-7-9" />
    <path
       style="fill:#cae7fb;fill-opacity:1;stroke:#000000;stroke-width:0.404464px;stroke-linecap:butt;stroke-linejoin:miter;stroke-opacity:1"
       d="m 10.598995,58.209147 v 7.935825 H 233.2336 v -7.935825 z"
       id="path3620-2-7" />
    <path
       style="fill:none;fill-opacity:1;stroke:none;stroke-width:0.677002;stroke-linecap:round;stroke-linejoin:round"
       d="m 11.115261,55.529246 v -2.456845 h 86.792784 86.792785 v 2.456845 2.456845 H 97.908045 11.115261 Z"
       id="path3646-2-7" />
    <path
       id="path3618-6"
       d="m 10.598995,66.144973 v 5.29055 H 233.2336 v -5.29055 H 10.598995"
       style="fill:#0096ff;fill-opacity:1;stroke:#000000;stroke-width:0.404464px;stroke-linecap:butt;stroke-linejoin:miter;stroke-opacity:1" />
    <path
       id="path3620-7"
       d="m 10.598995,71.435523 v 7.935825 H 233.2336 v -7.935825 z"
       style="fill:#cae7fb;fill-opacity:1;stroke:#000000;stroke-width:0.404464px;stroke-linecap:butt;stroke-linejoin:miter;stroke-opacity:1" />
    <path
       id="path3646-3"
       d="m 11.115261,68.758414 v -2.456845 h 86.792784 86.792785 v 2.456845 2.456845 H 97.908045 11.115261 Z"
       style="fill:none;fill-opacity:1;stroke:none;stroke-width:0.677002;stroke-linecap:round;stroke-linejoin:round" />
    <path
       style="fill:none;fill-opacity:1;stroke:none;stroke-width:0.677002;stroke-linecap:round;stroke-linejoin:round"
       d="m 11.115255,81.987581 v -2.456845 h 86.792785 86.79279 v 2.456845 2.456845 H 97.90804 11.115255 Z"
       id="path3646-2-6" />
    <path
       style="fill:#c3c3c3;fill-opacity:1;stroke:#000000;stroke-width:0.404;stroke-linecap:butt;stroke-linejoin:miter;stroke-miterlimit:4;stroke-dasharray:none;stroke-opacity:1"
       d="M 10.598995,79.371348 V 97.761775 H 233.28796 V 79.371348 Z"
       id="path3788" />
    <text
       xml:space="preserve"
       style="font-style:normal;font-weight:normal;font-size:4.23333px;line-height:1.25;font-family:sans-serif;fill:#000000;fill-opacity:1;stroke:none;stroke-width:0.264583"
       x="110.38959"
       y="89.597618"
       id="text3792"><tspan
         sodipodi:role="line"
         id="tspan3790"
         x="110.38959"
         y="89.597618"
         style="font-size:4.23333px;stroke-width:0.264583">Substrate</tspan></text>
    <path
       style="fill:none;stroke:#ff0000;stroke-width:0.565;stroke-linecap:butt;stroke-linejoin:miter;stroke-miterlimit:4;stroke-dasharray:none;stroke-opacity:1"
       d="M 35.795047,-11.080413 107.31384,79.355021"
       id="path3796" />
    <path
       style="fill:none;stroke:#ff0000;stroke-width:0.565;stroke-linecap:butt;stroke-linejoin:miter;stroke-miterlimit:4;stroke-dasharray:none;stroke-opacity:1"
       d="M 176.0998,-7.4391173 107.31384,79.355021"
       id="path3796-2-3" />
    <path
       style="fill:none;stroke:#ff0000;stroke-width:0.564999;stroke-linecap:butt;stroke-linejoin:miter;stroke-miterlimit:4;stroke-dasharray:none;stroke-opacity:1"
       d="M 165.55103,-21.053993 96.759367,66.258503"
       id="path3796-2-8" />
    <path
       style="fill:none;stroke:#ff0000;stroke-width:0.564999;stroke-linecap:butt;stroke-linejoin:miter;stroke-miterlimit:4;stroke-dasharray:none;stroke-opacity:1"
       d="M 155.27945,-34.302117 86.487785,53.010382"
       id="path3796-2-0" />
    <path
       style="fill:none;stroke:#ff0000;stroke-width:0.564999;stroke-linecap:butt;stroke-linejoin:miter;stroke-miterlimit:4;stroke-dasharray:none;stroke-opacity:1"
       d="M 144.9425,-47.695294 76.150831,39.617207"
       id="path3796-2-38" />
    <path
       style="fill:none;stroke:#ff0000;stroke-width:0.564999;stroke-linecap:butt;stroke-linejoin:miter;stroke-miterlimit:4;stroke-dasharray:none;stroke-opacity:1"
       d="m 134.48414,-60.948506 -68.791665,87.3125"
       id="path3796-2-6" />
    <path
       style="fill:none;stroke:#ff0000;stroke-width:0.564999;stroke-linecap:butt;stroke-linejoin:miter;stroke-miterlimit:4;stroke-dasharray:none;stroke-opacity:1"
       d="m 123.73671,-73.827596 -68.791669,87.3125"
       id="path3796-2-15" />
    <path
       style="fill:none;stroke:#000000;stroke-width:0.264583px;stroke-linecap:butt;stroke-linejoin:miter;stroke-opacity:1"
       d="m 52.268472,10.375382 c -0.03904,-0.01329 -0.05859,0.02594 -0.08951,0.03367 -0.139626,0.03491 -0.175596,0.128982 -0.295296,0.2008 -0.02792,0.01675 -0.05078,0.01948 -0.08268,0.03544 -0.03049,0.01525 -0.05401,0.04188 -0.08324,0.05943 -0.04219,0.02533 -0.09998,0.03658 -0.133226,0.0701 -0.03757,0.03788 -0.07058,0.08184 -0.111726,0.116243 -0.02139,0.01788 -0.0222,0.0037 -0.03566,0.02385 -0.0474,0.07109 -0.118476,0.130378 -0.165722,0.201247 -0.0022,0.0033 0.0028,0.009 0,0.01181 -0.01004,0.01004 -0.0254,0.01359 -0.03544,0.02363 -0.02244,0.02245 -0.0282,0.05729 -0.04725,0.08268 -0.03341,0.04454 -0.08027,0.07155 -0.106306,0.118118 -0.02255,0.04033 -0.03566,0.08919 -0.06047,0.1264 -0.04427,0.0664 -0.08575,0.134537 -0.129929,0.2008 -0.02756,0.04134 -0.03386,0.09975 -0.05906,0.141741 -0.01013,0.01688 -0.02531,0.03037 -0.03543,0.04725 -0.01861,0.03101 -0.02653,0.07523 -0.04725,0.106306 -0.01025,0.01538 -0.02729,0.03096 -0.03543,0.04725 -0.01109,0.02218 -0.01057,0.0631 -0.02362,0.08268 -0.03597,0.05395 -0.03247,0.07531 -0.0594,0.142586 -0.01234,0.03083 -0.03699,0.06355 -0.04742,0.09483 -0.01255,0.03766 -0.02016,0.07992 -0.03543,0.118117 -0.01983,0.04958 -0.05962,0.09826 -0.08218,0.152548 -0.01461,0.03514 -0.01719,0.06991 -0.0288,0.104737 -0.01345,0.04036 -0.04409,0.07243 -0.05733,0.112177 -0.0085,0.02539 -5.03e-4,0.07187 -0.01181,0.09449 -0.01882,0.03764 -0.01181,-0.07096 -0.01181,0.02103 0,0.03795 -0.01169,0.214208 0.03543,0.214208"
       id="path3981" />
    <text
       xml:space="preserve"
       style="font-style:normal;font-weight:normal;font-size:4.23333px;line-height:1.25;font-family:sans-serif;fill:#000000;fill-opacity:1;stroke:none;stroke-width:0.264583"
       x="47.644802"
       y="12.061245"
       id="text3985"><tspan
         sodipodi:role="line"
         id="tspan3983"
         x="47.644802"
         y="12.061245"
         style="font-size:4.23333px;stroke-width:0.264583">θ</tspan></text>
    <path
       id="path3981-6"
       d="m 57.621734,10.471926 c 0.03904,-0.01329 0.05859,0.02594 0.08951,0.03367 0.139626,0.03491 0.175596,0.128982 0.295296,0.2008 0.02792,0.01675 0.05078,0.01948 0.08268,0.03544 0.03049,0.01525 0.05401,0.04188 0.08324,0.05943 0.04219,0.02533 0.09998,0.03658 0.133226,0.0701 0.03757,0.03788 0.07058,0.08184 0.111726,0.116243 0.02139,0.01788 0.0222,0.0037 0.03566,0.02385 0.0474,0.07109 0.118476,0.130378 0.165722,0.201247 0.0022,0.0033 -0.0028,0.009 0,0.01181 0.01004,0.01004 0.0254,0.01359 0.03544,0.02363 0.02244,0.02245 0.0282,0.05729 0.04725,0.08268 0.03341,0.04454 0.08027,0.07155 0.106306,0.118118 0.02255,0.04033 0.03566,0.08919 0.06047,0.1264 0.04427,0.0664 0.08575,0.134537 0.129929,0.2008 0.02756,0.04134 0.03386,0.09975 0.05906,0.141741 0.01013,0.01688 0.02531,0.03037 0.03543,0.04725 0.01861,0.03101 0.02653,0.07523 0.04725,0.106306 0.01025,0.01538 0.02729,0.03096 0.03543,0.04725 0.01109,0.02218 0.01057,0.0631 0.02362,0.08268 0.03597,0.05395 0.03247,0.07531 0.0594,0.142586 0.01234,0.03083 0.03699,0.06355 0.04742,0.09483 0.01255,0.03766 0.02016,0.07992 0.03543,0.118117 0.01983,0.04958 0.05962,0.09826 0.08218,0.152548 0.01461,0.03514 0.01719,0.06991 0.0288,0.104737 0.01345,0.04036 0.04409,0.07243 0.05733,0.112177 0.0085,0.02539 5.03e-4,0.07187 0.01181,0.09449 0.01882,0.03764 0.01181,-0.07096 0.01181,0.02103 0,0.03795 0.01169,0.214208 -0.03543,0.214208"
       style="fill:none;stroke:#000000;stroke-width:0.264583px;stroke-linecap:butt;stroke-linejoin:miter;stroke-opacity:1" />
    <text
       id="text3985-3"
       y="12.148827"
       x="59.64476"
       style="font-style:normal;font-weight:normal;font-size:4.23333px;line-height:1.25;font-family:sans-serif;fill:#000000;fill-opacity:1;stroke:none;stroke-width:0.264583"
       xml:space="preserve"><tspan
         style="font-size:4.23333px;stroke-width:0.264583"
         y="12.148827"
         x="59.64476"
         id="tspan3983-1"
         sodipodi:role="line">θ</tspan></text>
    <path
       style="fill:none;stroke:#000000;stroke-width:0.264583px;stroke-linecap:butt;stroke-linejoin:miter;stroke-opacity:1"
       d="M 75.594144,13.236668 64.918595,1.1511304"
       id="path4020" />
    <text
       xml:space="preserve"
       style="font-style:normal;font-weight:normal;font-size:4.23333px;line-height:1.25;font-family:sans-serif;fill:#000000;fill-opacity:1;stroke:none;stroke-width:0.264583"
       x="52.18309"
       y="16.971636"
       id="text4024"><tspan
         sodipodi:role="line"
         id="tspan4022"
         x="52.18309"
         y="16.971636"
         style="font-size:4.23333px;stroke-width:0.264583">A</tspan></text>
    <text
       xml:space="preserve"
       style="font-style:normal;font-weight:normal;font-size:4.23333px;line-height:1.25;font-family:sans-serif;fill:#000000;fill-opacity:1;stroke:none;stroke-width:0.264583"
       x="62.454002"
       y="30.4958"
       id="text4028"><tspan
         sodipodi:role="line"
         id="tspan4026"
         x="62.454002"
         y="30.4958"
         style="font-size:4.23333px;stroke-width:0.264583">B</tspan></text>
    <text
       xml:space="preserve"
       style="font-style:normal;font-weight:normal;font-size:4.23333px;line-height:1.25;font-family:sans-serif;fill:#000000;fill-opacity:1;stroke:none;stroke-width:0.264583"
       x="75.844337"
       y="17.21969"
       id="text4032"><tspan
         sodipodi:role="line"
         id="tspan4030"
         x="75.844337"
         y="17.21969"
         style="font-size:4.23333px;stroke-width:0.264583">C</tspan></text>
    <text
       xml:space="preserve"
       id="text4034"
       style="font-style:normal;font-weight:normal;font-size:4.23333px;line-height:1.25;font-family:sans-serif;white-space:pre;shape-inside:url(#rect4036);fill:#000000;fill-opacity:1;stroke:none;"
       transform="translate(22.313992,4.7271404)"><tspan
         x="38.689453"
         y="-4.3658235"><tspan
           style="shape-inside:url(#rect4036)">C' </tspan></tspan></text>
    <path
       style="fill:none;stroke:#000000;stroke-width:0.264583px;stroke-linecap:butt;stroke-linejoin:miter;stroke-opacity:1"
       d="M 65.692475,26.363994 V 13.417148"
       id="path4040" />
    <path
       style="fill:none;stroke:#000000;stroke-width:0.264583px;stroke-linecap:butt;stroke-linejoin:miter;stroke-opacity:1"
       d="m 64.633457,13.567244 v 0.901199 h 2.122138 v -0.888097"
       id="path4044" />
    <text
       xml:space="preserve"
       style="font-style:normal;font-weight:normal;font-size:4.23333px;line-height:1.25;font-family:sans-serif;fill:#000000;fill-opacity:1;stroke:none;stroke-width:0.264583"
       x="-1.1642091"
       y="-14.97898"
       id="text4048"><tspan
         sodipodi:role="line"
         id="tspan4046"
         x="-1.1642091"
         y="-14.97898"
         style="font-size:4.23333px;stroke-width:0.264583">Incident neutron beam</tspan></text>
    <text
       xml:space="preserve"
       id="text4050"
       style="font-style:normal;font-weight:normal;font-size:10.5833px;line-height:1.25;font-family:sans-serif;white-space:pre;shape-inside:url(#rect4052);fill:#000000;fill-opacity:1;stroke:none;" />
    <text
       xml:space="preserve"
       id="text4062"
       style="font-style:normal;font-weight:normal;font-size:4.23333px;line-height:1.25;font-family:sans-serif;white-space:pre;shape-inside:url(#rect4064);fill:#000000;fill-opacity:1;stroke:none;"
       transform="translate(37.427377,24.198463)"
       inkscape:export-filename="/home/sjoerd/text4062.png"
       inkscape:export-xdpi="96"
       inkscape:export-ydpi="96"><tspan
         x="120.125"
         y="-64.190042"><tspan
           style="shape-inside:url(#rect4064)">Reflected neutrons</tspan></tspan></text>
    <text
       xml:space="preserve"
       id="text4074"
       style="font-style:normal;font-weight:normal;font-size:10.5833px;line-height:1.25;font-family:sans-serif;white-space:pre;shape-inside:url(#rect4076);fill:#000000;fill-opacity:1;stroke:none;" />
    <text
       xml:space="preserve"
       style="font-style:normal;font-weight:normal;font-size:4.23333px;line-height:1.25;font-family:sans-serif;fill:#000000;fill-opacity:1;stroke:none;stroke-width:0.264583"
       x="-31.360188"
       y="20.348288"
       id="text4082"><tspan
         sodipodi:role="line"
         id="tspan4080"
         x="-31.360188"
         y="20.348288"
         style="font-size:4.23333px;stroke-width:0.264583">Bilayer period Λ </tspan></text>
    <path
       style="fill:none;stroke:#000000;stroke-width:0.264583px;stroke-linecap:round;stroke-linejoin:bevel;stroke-opacity:1"
       d="M 6.5979364,13.188177 V 26.614529"
       id="path4084" />
    <path
       style="fill:none;stroke:#000000;stroke-width:0.264583px;stroke-linecap:butt;stroke-linejoin:miter;stroke-opacity:1"
       d="m 6.5979364,13.188177 -0.900879,0.900878"
       id="path4086" />
    <path
       id="path4086-5"
       d="m 6.5979364,13.188177 0.900878,0.900878"
       style="fill:none;stroke:#000000;stroke-width:0.264583px;stroke-linecap:butt;stroke-linejoin:miter;stroke-opacity:1" />
    <path
       id="path4086-9"
       d="M 6.5979364,26.614529 5.6970574,25.713651"
       style="fill:none;stroke:#000000;stroke-width:0.264583px;stroke-linecap:butt;stroke-linejoin:miter;stroke-opacity:1" />
    <path
       style="fill:none;stroke:#000000;stroke-width:0.264583px;stroke-linecap:butt;stroke-linejoin:miter;stroke-opacity:1"
       d="m 6.5979364,26.614529 0.900878,-0.900878"
       id="path4086-5-6" />
    <path
       style="fill:none;stroke:#000000;stroke-width:0.264583px;stroke-linecap:butt;stroke-linejoin:miter;stroke-opacity:1"
       d="m 78.35841,10.636204 c 0.03904,-0.01329 0.05859,0.02594 0.08951,0.03367 0.139626,0.03491 0.175596,0.128982 0.295296,0.2008 0.02792,0.01675 0.05078,0.01948 0.08268,0.03544 0.03049,0.01525 0.05401,0.04188 0.08324,0.05943 0.04219,0.02533 0.09998,0.03658 0.133226,0.0701 0.03757,0.03788 0.07058,0.08184 0.111726,0.116243 0.02139,0.01788 0.0222,0.0037 0.03566,0.02385 0.0474,0.07109 0.118476,0.130378 0.165722,0.201247 0.0022,0.0033 -0.0028,0.009 0,0.01181 0.01004,0.01004 0.0254,0.01359 0.03544,0.02363 0.02244,0.02245 0.0282,0.05729 0.04725,0.08268 0.03341,0.04454 0.08027,0.07155 0.106306,0.118118 0.02255,0.04033 0.03566,0.08919 0.06047,0.1264 0.04427,0.0664 0.08575,0.134537 0.129929,0.2008 0.02756,0.04134 0.03386,0.09975 0.05906,0.141741 0.01013,0.01688 0.02531,0.03037 0.03543,0.04725 0.01861,0.03101 0.02653,0.07523 0.04725,0.106305 0.01025,0.01538 0.02729,0.03096 0.03543,0.04725 0.01109,0.02218 0.01057,0.0631 0.02362,0.08268 0.03597,0.05395 0.03247,0.07531 0.0594,0.142587 0.01234,0.03083 0.03699,0.06355 0.04742,0.09483 0.01255,0.03766 0.02016,0.07992 0.03543,0.118116 0.01983,0.04958 0.05962,0.09826 0.08218,0.152548 0.01461,0.03514 0.01719,0.06991 0.0288,0.104737 0.01345,0.04036 0.04409,0.07243 0.05733,0.112177 0.0085,0.02539 5.03e-4,0.07187 0.01181,0.09449 0.01882,0.03764 0.01181,-0.07096 0.01181,0.02103 0,0.03795 0.01169,0.214208 -0.03543,0.214208"
       id="path3981-6-2" />
    <text
       xml:space="preserve"
       style="font-style:normal;font-weight:normal;font-size:4.23333px;line-height:1.25;font-family:sans-serif;fill:#000000;fill-opacity:1;stroke:none;stroke-width:0.264583"
       x="80.381432"
       y="12.313104"
       id="text3985-3-1"><tspan
         sodipodi:role="line"
         id="tspan3983-1-7"
         x="80.381432"
         y="12.313104"
         style="font-size:4.23333px;stroke-width:0.264583">θ</tspan></text>
    <path
       style="fill:none;stroke:#000000;stroke-width:0.264583px;stroke-linecap:butt;stroke-linejoin:miter;stroke-opacity:1"
       d="m 99.64009,10.435176 c 0.03904,-0.01329 0.05859,0.02594 0.08951,0.03367 0.139626,0.03491 0.175596,0.128982 0.2953,0.2008 0.0279,0.01675 0.0508,0.01948 0.0827,0.03544 0.0305,0.01525 0.054,0.04188 0.0832,0.05943 0.0422,0.02533 0.1,0.03658 0.13322,0.0701 0.0376,0.03788 0.0706,0.08184 0.11173,0.116243 0.0214,0.01788 0.0222,0.0037 0.0357,0.02385 0.0474,0.07109 0.11847,0.130378 0.16572,0.201247 0.002,0.0033 -0.003,0.009 0,0.01181 0.01,0.01004 0.0254,0.01359 0.0354,0.02363 0.0224,0.02245 0.0282,0.05729 0.0473,0.08268 0.0334,0.04454 0.0803,0.07155 0.10631,0.118118 0.0225,0.04033 0.0357,0.08919 0.0605,0.1264 0.0443,0.0664 0.0858,0.134537 0.12993,0.2008 0.0276,0.04134 0.0339,0.09975 0.0591,0.141741 0.0101,0.01688 0.0253,0.03037 0.0354,0.04725 0.0186,0.03101 0.0265,0.07523 0.0472,0.106306 0.0102,0.01538 0.0273,0.03096 0.0354,0.04725 0.0111,0.02218 0.0106,0.0631 0.0236,0.08268 0.036,0.05395 0.0325,0.07531 0.0594,0.142586 0.0123,0.03083 0.037,0.06355 0.0474,0.09483 0.0125,0.03766 0.0202,0.07992 0.0354,0.118117 0.0198,0.04958 0.0596,0.09826 0.0822,0.152548 0.0146,0.03514 0.0172,0.06991 0.0288,0.104737 0.0135,0.04036 0.0441,0.07243 0.0573,0.112177 0.008,0.02539 5e-4,0.07187 0.0118,0.09449 0.0188,0.03764 0.0118,-0.07096 0.0118,0.02103 0,0.03795 0.0117,0.214208 -0.0354,0.214208"
       id="path3981-6-8" />
    <text
       xml:space="preserve"
       style="font-style:normal;font-weight:normal;font-size:4.23333px;line-height:1.25;font-family:sans-serif;fill:#000000;fill-opacity:1;stroke:none;stroke-width:0.264583"
       x="101.66311"
       y="12.112078"
       id="text3985-3-5"><tspan
         sodipodi:role="line"
         id="tspan3983-1-74"
         x="101.66311"
         y="12.112078"
         style="font-size:4.23333px;stroke-width:0.264583">θ</tspan></text>
    <path
       style="fill:none;stroke:#000000;stroke-width:0.264583px;stroke-linecap:butt;stroke-linejoin:miter;stroke-opacity:1"
       d="m 120.23456,10.75216 c 0.039,-0.01329 0.0586,0.02594 0.0895,0.03367 0.13962,0.03491 0.17559,0.128982 0.29529,0.2008 0.0279,0.01675 0.0508,0.01948 0.0827,0.03544 0.0305,0.01525 0.054,0.04188 0.0832,0.05943 0.0422,0.02533 0.1,0.03658 0.13323,0.0701 0.0376,0.03788 0.0706,0.08184 0.11172,0.116243 0.0214,0.01788 0.0222,0.0037 0.0357,0.02385 0.0474,0.07109 0.11848,0.130378 0.16573,0.201247 0.002,0.0033 -0.003,0.009 0,0.01181 0.01,0.01004 0.0254,0.01359 0.0354,0.02363 0.0224,0.02245 0.0282,0.05729 0.0473,0.08268 0.0334,0.04454 0.0803,0.07155 0.1063,0.118118 0.0226,0.04033 0.0357,0.08919 0.0605,0.1264 0.0443,0.0664 0.0857,0.134537 0.12993,0.2008 0.0276,0.04134 0.0339,0.09975 0.0591,0.141741 0.0101,0.01688 0.0253,0.03037 0.0354,0.04725 0.0186,0.03101 0.0265,0.07523 0.0473,0.106305 0.0102,0.01538 0.0273,0.03096 0.0354,0.04725 0.0111,0.02218 0.0106,0.0631 0.0236,0.08268 0.036,0.05395 0.0325,0.07531 0.0594,0.142587 0.0123,0.03083 0.037,0.06355 0.0474,0.09483 0.0125,0.03766 0.0202,0.07992 0.0354,0.118116 0.0198,0.04958 0.0596,0.09826 0.0822,0.152548 0.0146,0.03514 0.0172,0.06991 0.0288,0.104737 0.0135,0.04036 0.0441,0.07243 0.0573,0.112177 0.008,0.02539 5e-4,0.07187 0.0118,0.09449 0.0188,0.03764 0.0118,-0.07096 0.0118,0.02103 0,0.03795 0.0117,0.214208 -0.0354,0.214208"
       id="path3981-6-1" />
    <text
       xml:space="preserve"
       style="font-style:normal;font-weight:normal;font-size:4.23333px;line-height:1.25;font-family:sans-serif;fill:#000000;fill-opacity:1;stroke:none;stroke-width:0.264583"
       x="122.25758"
       y="12.429061"
       id="text3985-3-8"><tspan
         sodipodi:role="line"
         id="tspan3983-1-5"
         x="122.25758"
         y="12.429061"
         style="font-size:4.23333px;stroke-width:0.264583">θ</tspan></text>
    <path
       style="fill:none;stroke:#000000;stroke-width:0.264583px;stroke-linecap:butt;stroke-linejoin:miter;stroke-opacity:1"
       d="m 140.93057,10.661357 c 0.039,-0.01329 0.0586,0.02594 0.0895,0.03367 0.13962,0.03491 0.17559,0.128982 0.29529,0.2008 0.0279,0.01675 0.0508,0.01948 0.0827,0.03544 0.0305,0.01525 0.054,0.04188 0.0832,0.05943 0.0422,0.02533 0.1,0.03658 0.13323,0.0701 0.0376,0.03788 0.0706,0.08184 0.11173,0.116243 0.0214,0.01788 0.0222,0.0037 0.0357,0.02385 0.0474,0.07109 0.11847,0.130378 0.16572,0.201247 0.002,0.0033 -0.003,0.009 0,0.01181 0.01,0.01004 0.0254,0.01359 0.0354,0.02363 0.0224,0.02245 0.0282,0.05729 0.0472,0.08268 0.0334,0.04454 0.0803,0.07155 0.1063,0.118118 0.0225,0.04033 0.0357,0.08919 0.0605,0.1264 0.0443,0.0664 0.0858,0.134537 0.12993,0.2008 0.0276,0.04134 0.0339,0.09975 0.0591,0.141741 0.0101,0.01688 0.0253,0.03037 0.0354,0.04725 0.0186,0.03101 0.0265,0.07523 0.0472,0.106306 0.0102,0.01538 0.0273,0.03096 0.0354,0.04725 0.0111,0.02218 0.0106,0.0631 0.0236,0.08268 0.036,0.05395 0.0325,0.07531 0.0594,0.142586 0.0123,0.03083 0.037,0.06355 0.0474,0.09483 0.0126,0.03766 0.0202,0.07992 0.0354,0.118116 0.0198,0.04958 0.0596,0.09826 0.0822,0.152548 0.0146,0.03514 0.0172,0.06991 0.0288,0.104738 0.0135,0.04036 0.0441,0.07243 0.0573,0.112177 0.008,0.02539 5.1e-4,0.07187 0.0118,0.09449 0.0188,0.03764 0.0118,-0.07096 0.0118,0.02103 0,0.03795 0.0117,0.214208 -0.0354,0.214208"
       id="path3981-6-9" />
    <text
       xml:space="preserve"
       style="font-style:normal;font-weight:normal;font-size:4.23333px;line-height:1.25;font-family:sans-serif;fill:#000000;fill-opacity:1;stroke:none;stroke-width:0.264583"
       x="142.9536"
       y="12.338258"
       id="text3985-3-7"><tspan
         sodipodi:role="line"
         id="tspan3983-1-53"
         x="142.9536"
         y="12.338258"
         style="font-size:4.23333px;stroke-width:0.264583">θ</tspan></text>
    <path
       style="fill:none;stroke:#000000;stroke-width:0.264583px;stroke-linecap:butt;stroke-linejoin:miter;stroke-opacity:1"
       d="m 162.2459,10.533041 c 0.039,-0.01329 0.0586,0.02594 0.0895,0.03367 0.13962,0.03491 0.17559,0.128982 0.29529,0.2008 0.0279,0.01675 0.0508,0.01948 0.0827,0.03544 0.0305,0.01525 0.054,0.04188 0.0832,0.05943 0.0422,0.02533 0.1,0.03658 0.13323,0.0701 0.0376,0.03788 0.0706,0.08184 0.11173,0.116243 0.0214,0.01788 0.0222,0.0037 0.0357,0.02385 0.0474,0.07109 0.11847,0.130378 0.16572,0.201247 0.002,0.0033 -0.003,0.009 0,0.01181 0.01,0.01004 0.0254,0.01359 0.0354,0.02363 0.0224,0.02245 0.0282,0.05729 0.0472,0.08268 0.0334,0.04454 0.0803,0.07155 0.1063,0.118118 0.0225,0.04033 0.0357,0.08919 0.0605,0.1264 0.0443,0.0664 0.0857,0.134537 0.12993,0.2008 0.0276,0.04134 0.0339,0.09975 0.0591,0.141741 0.0101,0.01688 0.0253,0.03037 0.0354,0.04725 0.0186,0.03101 0.0265,0.07523 0.0473,0.106306 0.0102,0.01538 0.0273,0.03096 0.0354,0.04725 0.0111,0.02218 0.0106,0.0631 0.0236,0.08268 0.036,0.05395 0.0325,0.07531 0.0594,0.142586 0.0123,0.03083 0.037,0.06355 0.0474,0.09483 0.0126,0.03766 0.0202,0.07992 0.0354,0.118117 0.0198,0.04958 0.0596,0.09826 0.0822,0.152548 0.0146,0.03514 0.0172,0.06991 0.0288,0.104737 0.0135,0.04036 0.0441,0.07243 0.0573,0.112177 0.008,0.02539 5.1e-4,0.07187 0.0118,0.09449 0.0188,0.03764 0.0118,-0.07096 0.0118,0.02103 0,0.03795 0.0117,0.214208 -0.0354,0.214208"
       id="path3981-6-88" />
    <text
       xml:space="preserve"
       style="font-style:normal;font-weight:normal;font-size:4.23333px;line-height:1.25;font-family:sans-serif;fill:#000000;fill-opacity:1;stroke:none;stroke-width:0.264583"
       x="164.26892"
       y="12.209942"
       id="text3985-3-3"><tspan
         sodipodi:role="line"
         id="tspan3983-1-1"
         x="164.26892"
         y="12.209942"
         style="font-size:4.23333px;stroke-width:0.264583">θ</tspan></text>
  </g>
</svg>
