<?xml version="1.0" encoding="UTF-8" standalone="no"?>
<svg
   xmlns:dc="http://purl.org/dc/elements/1.1/"
   xmlns:cc="http://creativecommons.org/ns#"
   xmlns:rdf="http://www.w3.org/1999/02/22-rdf-syntax-ns#"
   xmlns:svg="http://www.w3.org/2000/svg"
   xmlns="http://www.w3.org/2000/svg"
   xmlns:sodipodi="http://sodipodi.sourceforge.net/DTD/sodipodi-0.dtd"
   xmlns:inkscape="http://www.inkscape.org/namespaces/inkscape"
   width="264.43466mm"
   height="171.9662mm"
   viewBox="0 0 264.43467 171.96619"
   version="1.1"
   id="svg8"
   inkscape:version="1.0 (4035a4fb49, 2020-05-01)"
   sodipodi:docname="multilayersketchn=5.svg"
   inkscape:export-filename="/home/sjoerd/multilayersketch_n=5.png"
   inkscape:export-xdpi="96"
   inkscape:export-ydpi="96">
  <defs
     id="defs2">
    <rect
       x="-58.477146"
       y="12.199606"
       width="57.480732"
       height="21.192549"
       id="rect4076" />
    <rect
       x="120.12516"
       y="-67.935661"
       width="104.38138"
       height="21.967129"
       id="rect4064" />
    <rect
       x="179.0437"
       y="-64.735344"
       width="58.358913"
       height="30.190735"
       id="rect4052" />
    <rect
       x="38.689583"
       y="-8.1111078"
       width="10.875293"
       height="13.76895"
       id="rect4036" />
  </defs>
  <sodipodi:namedview
     id="base"
     pagecolor="#ffffff"
     bordercolor="#666666"
     borderopacity="1.0"
     inkscape:pageopacity="0.0"
     inkscape:pageshadow="2"
     inkscape:zoom="1"
     inkscape:cx="816.45563"
     inkscape:cy="396.21477"
     inkscape:document-units="mm"
     inkscape:current-layer="layer1"
     inkscape:document-rotation="0"
     showgrid="false"
     fit-margin-top="0"
     fit-margin-left="0"
     fit-margin-right="0"
     fit-margin-bottom="0"
     inkscape:window-width="2560"
     inkscape:window-height="1413"
     inkscape:window-x="1920"
     inkscape:window-y="27"
     inkscape:window-maximized="1">
    <inkscape:grid
       type="xygrid"
       id="grid835"
       originx="30.944712"
       originy="74.002417" />
  </sodipodi:namedview>
  <metadata
     id="metadata5">
    <rdf:RDF>
      <cc:Work
         rdf:about="">
        <dc:format>image/svg+xml</dc:format>
        <dc:type
           rdf:resource="http://purl.org/dc/dcmitype/StillImage" />
        <dc:title></dc:title>
      </cc:Work>
    </rdf:RDF>
  </metadata>
  <g
     inkscape:label="Layer 1"
     inkscape:groupmode="layer"
     id="layer1"
     transform="translate(30.944709,74.002427)">
    <path
       style="fill:none;fill-opacity:1;stroke:none;stroke-width:0.677002;stroke-linecap:round;stroke-linejoin:round"
       d="m 11.115262,15.841746 v -2.456845 h 86.792784 86.792784 v 2.456845 2.456846 H 97.908046 11.115262 Z"
       id="path3646" />
    <path
       id="path3646-2"
       d="m 11.115255,29.070913 v -2.456845 h 86.792785 86.79279 v 2.456845 2.456845 H 97.90804 11.115255 Z"
       style="fill:none;fill-opacity:1;stroke:none;stroke-width:0.677002;stroke-linecap:round;stroke-linejoin:round" />
    <path
       id="path3646-5"
       d="m 11.115266,42.300079 v -2.456845 h 86.792785 86.792779 v 2.456845 2.456845 H 97.908051 11.115266 Z"
       style="fill:none;fill-opacity:1;stroke:none;stroke-width:0.677002;stroke-linecap:round;stroke-linejoin:round" />
    <path
       style="fill:none;fill-opacity:1;stroke:none;stroke-width:0.677002;stroke-linecap:round;stroke-linejoin:round"
       d="m 11.115261,55.529246 v -2.456845 h 86.792784 86.792785 v 2.456845 2.456845 H 97.908045 11.115261 Z"
       id="path3646-2-7" />
    <path
       id="path3620-7"
       d="M 0.06161642,30.350923 V 43.48974 H 222.35596 V 30.350923 Z"
       style="fill:#cae7fb;fill-opacity:1;stroke:#000000;stroke-width:0.565;stroke-linecap:butt;stroke-linejoin:miter;stroke-miterlimit:4;stroke-dasharray:none;stroke-opacity:1" />
    <path
       id="path3646-3"
       d="m 11.115261,68.758414 v -2.456845 h 86.792784 86.792785 v 2.456845 2.456845 H 97.908045 11.115261 Z"
       style="fill:none;fill-opacity:1;stroke:none;stroke-width:0.677002;stroke-linecap:round;stroke-linejoin:round" />
    <path
       style="fill:none;fill-opacity:1;stroke:none;stroke-width:0.677002;stroke-linecap:round;stroke-linejoin:round"
       d="m 11.115255,81.987581 v -2.456845 h 86.792785 86.79279 v 2.456845 2.456845 H 97.90804 11.115255 Z"
       id="path3646-2-6" />
    <path
       style="fill:#c3c3c3;fill-opacity:1;stroke:#000000;stroke-width:0.565;stroke-linecap:butt;stroke-linejoin:miter;stroke-miterlimit:4;stroke-dasharray:none;stroke-opacity:1"
       d="M 0.06161642,43.48974 V 65.933408 H 222.6915 V 43.48974 Z"
       id="path3788" />
    <text
       xml:space="preserve"
       style="font-style:normal;font-weight:normal;font-size:4.23333px;line-height:1.25;font-family:sans-serif;fill:#000000;fill-opacity:1;stroke:none;stroke-width:0.264583"
       x="89.077309"
       y="56.211491"
       id="text3792"><tspan
         sodipodi:role="line"
         id="tspan3790"
         x="89.077309"
         y="56.211491"
         style="font-size:4.23333px;stroke-width:0.264583">Substrate</tspan></text>
    <path
       style="fill:none;stroke:#ff0000;stroke-width:0.418;stroke-linecap:butt;stroke-linejoin:miter;stroke-miterlimit:4;stroke-dasharray:none;stroke-opacity:1"
       d="M 28.060015,-11.047252 77.513267,30.250501"
       id="path3796" />
    <path
       style="fill:none;stroke:#000000;stroke-width:0.265;stroke-linecap:butt;stroke-linejoin:miter;stroke-miterlimit:4;stroke-dasharray:0.265,1.06;stroke-dashoffset:0;stroke-opacity:1"
       d="M 124.05009,30.250501 104.41573,8.122"
       id="path4020" />
    <text
       xml:space="preserve"
       style="font-style:normal;font-weight:normal;font-size:4.23333px;line-height:1.25;font-family:sans-serif;fill:#000000;fill-opacity:1;stroke:none;stroke-width:0.264583"
       x="99.002045"
       y="48.036915"
       id="text4024"><tspan
         sodipodi:role="line"
         id="tspan4022"
         x="99.002045"
         y="48.036915"
         style="font-size:4.23333px;stroke-width:0.264583">B</tspan></text>
    <text
       xml:space="preserve"
       style="font-style:normal;font-weight:normal;font-size:4.23333px;line-height:1.25;font-family:sans-serif;fill:#000000;fill-opacity:1;stroke:none;stroke-width:0.264583"
       x="99.285378"
       y="6.8974838"
       id="text4028"><tspan
         sodipodi:role="line"
         id="tspan4026"
         x="99.285378"
         y="6.8974838"
         style="font-size:4.23333px;stroke-width:0.264583">D</tspan></text>
    <text
       xml:space="preserve"
       style="font-style:normal;font-weight:normal;font-size:4.23333px;line-height:1.25;font-family:sans-serif;fill:#000000;fill-opacity:1;stroke:none;stroke-width:0.264583"
       x="123.53954"
       y="34.716171"
       id="text4032"><tspan
         sodipodi:role="line"
         id="tspan4030"
         x="123.53954"
         y="34.716171"
         style="font-size:4.23333px;stroke-width:0.264583">C</tspan></text>
    <text
       xml:space="preserve"
       id="text4034"
       style="font-style:normal;font-weight:normal;font-size:4.23333px;line-height:1.25;font-family:sans-serif;white-space:pre;shape-inside:url(#rect4036);fill:#000000;fill-opacity:1;stroke:none;"
       transform="translate(36.286094,38.496892)"><tspan
         x="38.689453"
         y="-4.3658235"><tspan>A</tspan></tspan></text>
    <text
       xml:space="preserve"
       style="font-style:normal;font-weight:normal;font-size:4.23333px;line-height:1.25;font-family:sans-serif;fill:#000000;fill-opacity:1;stroke:none;stroke-width:0.264583"
       x="-1.1642091"
       y="-14.97898"
       id="text4048"><tspan
         sodipodi:role="line"
         id="tspan4046"
         x="-1.1642091"
         y="-14.97898"
         style="font-size:4.23333px;stroke-width:0.264583">Incident neutron beam</tspan></text>
    <text
       xml:space="preserve"
       id="text4050"
       style="font-style:normal;font-weight:normal;font-size:10.5833px;line-height:1.25;font-family:sans-serif;white-space:pre;shape-inside:url(#rect4052);fill:#000000;fill-opacity:1;stroke:none;" />
    <text
       xml:space="preserve"
       id="text4062"
       style="font-style:normal;font-weight:normal;font-size:4.23333px;line-height:1.25;font-family:sans-serif;white-space:pre;shape-inside:url(#rect4064);fill:#000000;fill-opacity:1;stroke:none;"
       transform="translate(36.910398,43.853101)"
       inkscape:export-filename="/home/sjoerd/text4062.png"
       inkscape:export-xdpi="96"
       inkscape:export-ydpi="96"><tspan
         x="120.125"
         y="-64.190042"><tspan
           style="shape-inside:url(#rect4064)">Reflected neutrons</tspan></tspan></text>
    <text
       xml:space="preserve"
       id="text4074"
       style="font-style:normal;font-weight:normal;font-size:10.5833px;line-height:1.25;font-family:sans-serif;white-space:pre;shape-inside:url(#rect4076);fill:#000000;fill-opacity:1;stroke:none;" />
    <text
       xml:space="preserve"
       style="font-style:normal;font-weight:normal;font-size:4.23333px;line-height:1.25;font-family:sans-serif;fill:#000000;fill-opacity:1;stroke:none;stroke-width:0.264583"
       x="-43.859222"
       y="38.214779"
       id="text4082"><tspan
         id="tspan2989"
         sodipodi:role="line"
         x="-43.859222"
         y="38.214779"
         style="font-size:4.23333px;stroke-width:0.264583">Bilayer thickness d </tspan></text>
    <path
       style="fill:none;stroke:#000000;stroke-width:0.259557px;stroke-linecap:round;stroke-linejoin:bevel;stroke-opacity:1"
       d="M -2.6068244,30.291133 V 43.181367"
       id="path4084" />
    <path
       style="fill:none;stroke:#000000;stroke-width:0.259557px;stroke-linecap:butt;stroke-linejoin:miter;stroke-opacity:1"
       d="M -2.6068244,30.291133 -3.509859,31.156039"
       id="path4086" />
    <path
       id="path4086-5"
       d="m -2.6068244,30.291133 0.9030336,0.864906"
       style="fill:none;stroke:#000000;stroke-width:0.259557px;stroke-linecap:butt;stroke-linejoin:miter;stroke-opacity:1" />
    <path
       id="path4086-9"
       d="M -2.6068244,43.181367 -3.509859,42.316462"
       style="fill:none;stroke:#000000;stroke-width:0.259557px;stroke-linecap:butt;stroke-linejoin:miter;stroke-opacity:1" />
    <path
       style="fill:none;stroke:#000000;stroke-width:0.259557px;stroke-linecap:butt;stroke-linejoin:miter;stroke-opacity:1"
       d="m -2.6068244,43.181367 0.9030336,-0.864905"
       id="path4086-5-6" />
    <path
       style="fill:none;stroke:#ff0000;stroke-width:0.418166;stroke-linecap:butt;stroke-linejoin:miter;stroke-miterlimit:4;stroke-dasharray:none;stroke-opacity:1"
       d="M 142.55333,-24.222041 77.513267,30.250501"
       id="path3796-7-8" />
    <path
       id="path3981-6-9-6"
       d="m 81.140576,27.431891 c 0.039,-0.01329 0.0586,0.02594 0.0895,0.03367 0.13962,0.03491 0.17559,0.128982 0.29529,0.2008 0.0279,0.01675 0.0508,0.01948 0.0827,0.03544 0.0305,0.01525 0.054,0.04188 0.0832,0.05943 0.0422,0.02533 0.1,0.03658 0.13323,0.0701 0.0376,0.03788 0.0706,0.08184 0.11173,0.116243 0.0214,0.01788 0.0222,0.0037 0.0357,0.02385 0.0474,0.07109 0.11847,0.130378 0.16572,0.201247 0.002,0.0033 -0.003,0.009 0,0.01181 0.01,0.01004 0.0254,0.01359 0.0354,0.02363 0.0224,0.02245 0.0282,0.05729 0.0472,0.08268 0.0334,0.04454 0.0803,0.07155 0.1063,0.118118 0.0225,0.04033 0.0357,0.08919 0.0605,0.1264 0.0443,0.0664 0.0858,0.134537 0.12993,0.2008 0.0276,0.04134 0.0339,0.09975 0.0591,0.141741 0.0101,0.01688 0.0253,0.03037 0.0354,0.04725 0.0186,0.03101 0.0265,0.07523 0.0472,0.106306 0.0102,0.01538 0.0273,0.03096 0.0354,0.04725 0.0111,0.02218 0.0106,0.0631 0.0236,0.08268 0.036,0.05395 0.0325,0.07531 0.0594,0.142586 0.0123,0.03083 0.037,0.06355 0.0474,0.09483 0.0126,0.03766 0.0202,0.07992 0.0354,0.118116 0.0198,0.04958 0.0596,0.09826 0.0822,0.152548 0.0146,0.03514 0.0172,0.06991 0.0288,0.104738 0.0135,0.04036 0.0441,0.07243 0.0573,0.112177 0.008,0.02539 5.1e-4,0.07187 0.0118,0.09449 0.0188,0.03764 0.0118,-0.07096 0.0118,0.02103 0,0.03795 0.0117,0.214207 -0.0354,0.214207"
       style="fill:none;stroke:#000000;stroke-width:0.264583px;stroke-linecap:butt;stroke-linejoin:miter;stroke-opacity:1" />
    <text
       id="text3985-3-7-8"
       y="29.314369"
       x="83.434326"
       style="font-style:normal;font-weight:normal;font-size:4.23333px;line-height:1.25;font-family:sans-serif;fill:#000000;fill-opacity:1;stroke:none;stroke-width:0.264583"
       xml:space="preserve"><tspan
         style="font-size:4.23333px;stroke-width:0.264583"
         y="29.314369"
         x="83.434326"
         id="tspan3983-1-53-8"
         sodipodi:role="line">θ</tspan></text>
    <path
       id="path4084-2"
       d="M 100.78489,30.462369 V 43.651455"
       style="fill:none;stroke:#000000;stroke-width:0.265;stroke-linecap:round;stroke-linejoin:bevel;stroke-miterlimit:4;stroke-dasharray:0.265,1.06;stroke-dashoffset:0;stroke-opacity:1" />
    <text
       id="text4082-1"
       y="32.791267"
       x="96.543053"
       style="font-style:normal;font-weight:normal;font-size:4.23333px;line-height:1.25;font-family:sans-serif;fill:#000000;fill-opacity:1;stroke:none;stroke-width:0.264583"
       xml:space="preserve"><tspan
         style="font-size:4.23333px;stroke-width:0.264583"
         y="32.791267"
         x="96.543053"
         sodipodi:role="line"
         id="tspan2989-0"></tspan><tspan
         id="tspan3041"
         style="font-size:4.23333px;stroke-width:0.264583"
         y="38.082928"
         x="96.543053"
         sodipodi:role="line">d </tspan></text>
    <path
       style="fill:none;stroke:#000000;stroke-width:0.222006px;stroke-linecap:butt;stroke-linejoin:miter;stroke-opacity:1"
       d="m 82.651012,32.838592 c 0.03375,0.01081 0.05071,-0.0211 0.07745,-0.02739 0.120821,-0.0284 0.151947,-0.10494 0.25553,-0.163371 0.02414,-0.01363 0.04396,-0.01585 0.07156,-0.02884 0.02639,-0.01241 0.04673,-0.03407 0.072,-0.04835 0.03652,-0.02061 0.08653,-0.02976 0.115291,-0.05703 0.03254,-0.03082 0.06109,-0.06658 0.09669,-0.09457 0.01852,-0.01455 0.01921,-0.003 0.03089,-0.0194 0.04102,-0.05784 0.102519,-0.106076 0.143407,-0.163735 0.0017,-0.0027 -0.0026,-0.0073 0,-0.0096 0.0087,-0.0082 0.02198,-0.01106 0.03063,-0.01922 0.01938,-0.01826 0.0244,-0.04661 0.04084,-0.06727 0.0289,-0.03624 0.06949,-0.05821 0.09199,-0.0961 0.01947,-0.03281 0.03089,-0.07257 0.05235,-0.102839 0.03833,-0.05402 0.07425,-0.10946 0.112435,-0.163372 0.02388,-0.03363 0.02934,-0.08116 0.05114,-0.115321 0.0087,-0.01373 0.02189,-0.02471 0.03063,-0.03844 0.0161,-0.02523 0.02293,-0.06121 0.04085,-0.08649 0.0088,-0.01251 0.02362,-0.02519 0.03063,-0.03844 0.0096,-0.01805 0.0092,-0.05134 0.02042,-0.06727 0.03115,-0.04389 0.02812,-0.06127 0.0514,-0.116008 0.01064,-0.02508 0.03202,-0.05171 0.04102,-0.07715 0.0109,-0.03064 0.01748,-0.06502 0.03063,-0.0961 0.01713,-0.04034 0.05157,-0.07995 0.07113,-0.124113 0.01263,-0.02859 0.01488,-0.05688 0.02492,-0.08522 0.01168,-0.03284 0.03816,-0.05893 0.04959,-0.09127 0.0069,-0.02066 4.42e-4,-0.05847 0.01021,-0.07688 0.01627,-0.03062 0.01021,0.05773 0.01021,-0.01711 0,-0.03088 0.01013,-0.174279 -0.03063,-0.174279"
       id="path3981-6-9-6-5" />
    <text
       xml:space="preserve"
       style="font-style:normal;font-weight:normal;font-size:4.23333px;line-height:1.25;font-family:sans-serif;fill:#000000;fill-opacity:1;stroke:none;stroke-width:0.264583"
       x="84.4552"
       y="33.935616"
       id="text3985-3-7-8-9"><tspan
         sodipodi:role="line"
         id="tspan3983-1-53-8-4"
         x="84.4552"
         y="33.935616"
         style="font-size:4.23333px;stroke-width:0.264583">θ<tspan
   id="tspan3104"
   style="font-size:65%;baseline-shift:sub">t</tspan></tspan></text>
    <path
       id="path3796-9"
       d="M 77.517779,30.257192 100.78168,43.349595"
       style="fill:none;stroke:#ff0000;stroke-width:0.418;stroke-linecap:butt;stroke-linejoin:miter;stroke-miterlimit:4;stroke-dasharray:none;stroke-opacity:1" />
    <path
       id="path3796-91"
       d="M 173.50335,-11.047253 124.05009,30.250501"
       style="fill:none;stroke:#ff0000;stroke-width:0.417999;stroke-linecap:butt;stroke-linejoin:miter;stroke-miterlimit:4;stroke-dasharray:none;stroke-opacity:1" />
    <path
       style="fill:none;stroke:#ff0000;stroke-width:0.417999;stroke-linecap:butt;stroke-linejoin:miter;stroke-miterlimit:4;stroke-dasharray:none;stroke-opacity:1"
       d="m 124.05009,30.250501 -23.2639,13.092403"
       id="path3796-9-7" />
    <path
       style="fill:none;stroke:#000000;stroke-width:0.264583px;stroke-linecap:butt;stroke-linejoin:miter;stroke-opacity:1"
       d="m 127.4892,27.376461 c 0.039,-0.01329 0.0586,0.02594 0.0895,0.03367 0.13962,0.03491 0.17559,0.128982 0.29529,0.2008 0.0279,0.01675 0.0508,0.01948 0.0827,0.03544 0.0305,0.01525 0.054,0.04188 0.0832,0.05943 0.0422,0.02533 0.1,0.03658 0.13323,0.0701 0.0376,0.03788 0.0706,0.08184 0.11173,0.116243 0.0214,0.01788 0.0222,0.0037 0.0357,0.02385 0.0474,0.07109 0.11847,0.130378 0.16572,0.201247 0.002,0.0033 -0.003,0.009 0,0.01181 0.01,0.01004 0.0254,0.01359 0.0354,0.02363 0.0224,0.02245 0.0282,0.05729 0.0472,0.08268 0.0334,0.04454 0.0803,0.07155 0.1063,0.118118 0.0225,0.04033 0.0357,0.08919 0.0605,0.1264 0.0443,0.0664 0.0858,0.134537 0.12993,0.2008 0.0276,0.04134 0.0339,0.09975 0.0591,0.141741 0.0101,0.01688 0.0253,0.03037 0.0354,0.04725 0.0186,0.03101 0.0265,0.07523 0.0472,0.106306 0.0102,0.01538 0.0273,0.03096 0.0354,0.04725 0.0111,0.02218 0.0106,0.0631 0.0236,0.08268 0.036,0.05395 0.0325,0.07531 0.0594,0.142586 0.0123,0.03083 0.037,0.06355 0.0474,0.09483 0.0126,0.03766 0.0202,0.07992 0.0354,0.118116 0.0198,0.04958 0.0596,0.09826 0.0822,0.152548 0.0146,0.03514 0.0172,0.06991 0.0288,0.104738 0.0135,0.04036 0.0441,0.07243 0.0573,0.112177 0.008,0.02539 5.1e-4,0.07187 0.0118,0.09449 0.0188,0.03764 0.0118,-0.07096 0.0118,0.02103 0,0.03795 0.0117,0.214207 -0.0354,0.214207"
       id="path3981-6-9-6-7" />
    <text
       xml:space="preserve"
       style="font-style:normal;font-weight:normal;font-size:4.23333px;line-height:1.25;font-family:sans-serif;fill:#000000;fill-opacity:1;stroke:none;stroke-width:0.264583"
       x="129.78296"
       y="29.258942"
       id="text3985-3-7-8-1"><tspan
         sodipodi:role="line"
         id="tspan3983-1-53-8-1"
         x="129.78296"
         y="29.258942"
         style="font-size:4.23333px;stroke-width:0.264583">θ</tspan></text>
    <text
       id="text3179"
       y="37.862713"
       x="7.0484023"
       style="font-style:normal;font-weight:normal;font-size:4.23333px;line-height:1.25;font-family:sans-serif;fill:#000000;fill-opacity:1;stroke:none;stroke-width:0.264583"
       xml:space="preserve"><tspan
         style="font-size:4.23333px;stroke-width:0.264583"
         y="37.862713"
         x="7.0484023"
         id="tspan3177"
         sodipodi:role="line">Thin film</tspan></text>
  </g>
</svg>
