<?xml version="1.0" encoding="UTF-8" standalone="no"?>
<svg
   version="1.1"
   id="Layer_1"
   x="0px"
   y="0px"
   width="414.65253"
   height="160.1398"
   viewBox="0 0 414.65251 160.1398"
   enable-background="new 0 0 595.28 841.89"
   xml:space="preserve"
   sodipodi:docname="XPS.svg"
   inkscape:version="1.2.2 (732a01da63, 2022-12-09)"
   xmlns:inkscape="http://www.inkscape.org/namespaces/inkscape"
   xmlns:sodipodi="http://sodipodi.sourceforge.net/DTD/sodipodi-0.dtd"
   xmlns="http://www.w3.org/2000/svg"
   xmlns:svg="http://www.w3.org/2000/svg"
   xmlns:rdf="http://www.w3.org/1999/02/22-rdf-syntax-ns#"
   xmlns:cc="http://creativecommons.org/ns#"
   xmlns:dc="http://purl.org/dc/elements/1.1/"><metadata
   id="metadata1897"><rdf:RDF><cc:Work
       rdf:about=""><dc:format>image/svg+xml</dc:format><dc:type
         rdf:resource="http://purl.org/dc/dcmitype/StillImage" /></cc:Work></rdf:RDF></metadata><defs
   id="defs1895">
	
	
	
	
	
	
	
	
	
	

		
		
	
		
		
	
		
		
	
		
		
	
		
		
	
		
		
	
		
		
	
		
		
	
		
		
	
	
	

		
		
		
		
		
		
		
		
		
	
			
			
		
			
			
		
			
			
		
			
			
		
			
			
		
			
			
		
			
			
		
			
			
		
			
			
		</defs><sodipodi:namedview
   pagecolor="#ffffff"
   bordercolor="#666666"
   borderopacity="1"
   objecttolerance="10"
   gridtolerance="10"
   guidetolerance="10"
   inkscape:pageopacity="0"
   inkscape:pageshadow="2"
   inkscape:window-width="1920"
   inkscape:window-height="1009"
   id="namedview1893"
   showgrid="false"
   inkscape:zoom="5.7516626"
   inkscape:cx="45.725909"
   inkscape:cy="112.48921"
   inkscape:window-x="2552"
   inkscape:window-y="358"
   inkscape:window-maximized="1"
   inkscape:current-layer="Layer_1"
   fit-margin-top="0"
   fit-margin-left="0"
   fit-margin-right="0"
   fit-margin-bottom="0"
   inkscape:showpageshadow="2"
   inkscape:pagecheckerboard="0"
   inkscape:deskcolor="#d1d1d1" />










<g
   id="g42"
   transform="translate(-84.831473,-245.742)">
	
		<line
   fill="none"
   stroke="#000000"
   stroke-linecap="round"
   stroke-linejoin="round"
   stroke-miterlimit="10"
   x1="479.34399"
   y1="376.392"
   x2="479.34399"
   y2="372.50201"
   id="line40" />
</g>
<g
   id="g46"
   transform="translate(-84.831473,-245.742)">
	<polyline
   fill="none"
   stroke="#000000"
   stroke-linecap="round"
   stroke-linejoin="round"
   stroke-miterlimit="10"
   points="   321.717,374.714 323.668,374.256 325.621,373.799 327.572,373.341 329.646,373.265 331.6,372.884 333.551,373.036 335.504,371.893    337.455,372.731 339.408,373.036 341.359,372.655 343.434,371.817 345.387,372.274 347.338,372.427 349.291,370.597    351.242,370.444 353.195,369.682 355.146,368.462 357.219,368.995 359.172,367.622 361.123,367.547 363.076,366.86    365.027,365.335 366.979,364.802 368.932,364.191 371.006,365.335 372.957,366.021 374.91,365.488 376.861,366.708    378.814,367.318 380.766,368.004 382.719,368.309 384.793,368.69 386.744,368.081 388.697,368.309 390.648,367.622 392.6,365.717    394.553,364.573 396.506,362.82 398.578,361.065 400.529,357.635 402.482,354.661 404.434,352.222 406.387,350.011    408.338,349.554 410.412,351.46 412.365,354.661 414.316,357.102 416.27,358.092 418.221,361.142 420.174,363.964 422.125,366.556    424.199,368.995 426.15,371.282 428.104,372.808 430.055,372.578 432.006,372.198 433.959,372.198 435.91,373.265 437.984,374.027    439.938,373.57 441.889,373.951 443.842,374.638 445.793,374.256 447.746,374.027 449.697,374.865 451.771,376.238    453.725,376.162 455.676,375.544 457.627,375.4 459.58,376.087 461.531,376.162 463.484,376.009 465.557,376.087 467.508,375.695    469.461,375.62 471.412,375.705 473.365,376.392 475.316,375.705 477.27,376.238 479.344,376.001 481.295,375.458 483.248,376.077    485.199,375.857 487.152,376.162 489.104,375.857 491.057,375.4 493.131,375.248 495.082,375.934 497.033,376.392 498.984,375.771     "
   id="polyline44" />
</g>
<g
   id="g50"
   transform="translate(-84.831473,-245.742)">
	<polyline
   fill="none"
   stroke="#ed1c24"
   stroke-linecap="round"
   stroke-linejoin="round"
   stroke-miterlimit="10"
   points="   321.717,367.699 323.668,368.69 325.621,368.462 327.572,368.385 329.646,368.614 331.6,368.843 333.551,366.938 335.504,367.699    337.455,367.852 339.408,367.547 341.359,366.175 343.434,368.081 345.387,366.938 347.338,366.327 349.291,365.26    351.242,365.107 353.195,364.04 355.146,364.497 357.219,363.505 359.172,362.82 361.123,361.523 363.076,360.914 365.027,361.904    366.979,361.371 368.932,359.617 371.006,360.99 372.957,362.667 374.91,362.058 376.861,363.505 378.814,364.345 380.766,364.269    382.719,364.573 384.793,364.497 386.744,364.04 388.697,362.667 390.648,362.134 392.6,363.277 394.553,361.142 396.506,359.998    398.578,359.008 400.529,357.788 402.482,354.967 404.434,355.042 406.387,352.755 408.338,351.384 410.412,351.46    412.365,352.374 414.316,354.204 416.27,355.958 418.221,355.958 420.174,358.017 422.125,361.371 424.199,362.361 426.15,361.904    428.104,363.354 430.055,364.269 432.006,365.031 433.959,364.345 435.91,363.354 437.984,363.964 439.938,362.82 441.889,361.981    443.842,364.878 445.793,365.488 447.746,368.309 449.697,370.063 451.771,368.919 453.725,369.987 455.676,369.682    457.627,370.749 459.58,369.528 461.531,369.528 463.484,370.901 465.557,370.368 467.508,370.215 469.461,369.301    471.412,369.682 473.365,370.291 475.316,371.358 477.27,370.597 479.344,370.291 481.295,370.825 483.248,371.206    485.199,370.521 487.152,370.978 489.104,369.834 491.057,370.901 493.131,370.901 495.082,371.131 497.033,371.055    498.984,370.444  "
   id="polyline48" />
</g>
<g
   id="g54"
   transform="translate(-84.831473,-245.742)">
	<polyline
   fill="none"
   stroke="#00a651"
   stroke-linecap="round"
   stroke-linejoin="round"
   stroke-miterlimit="10"
   points="   321.717,362.287 323.668,362.058 325.621,363.582 327.572,362.515 329.646,362.361 331.6,363.201 333.551,362.361 335.504,360.761    337.455,362.361 339.408,362.058 341.359,361.828 343.434,361.904 345.387,360.228 347.338,360.228 349.291,360.38    351.242,360.228 353.195,359.084 355.146,358.017 357.219,358.092 359.172,358.551 361.123,357.94 363.076,356.948    365.027,356.873 366.979,356.873 368.932,357.178 371.006,357.559 372.957,356.721 374.91,358.627 376.861,359.084    378.814,360.228 380.766,360.304 382.719,361.523 384.793,360.608 386.744,359.617 388.697,359.541 390.648,359.16 392.6,357.559    394.553,357.864 396.506,358.932 398.578,357.407 400.529,355.729 402.482,353.214 404.434,352.146 406.387,351.46    408.338,350.087 410.412,348.334 412.365,348.485 414.316,348.791 416.27,347.875 418.221,347.647 420.174,348.181 422.125,348.41    424.199,348.485 426.15,349.705 428.104,348.41 430.055,350.011 432.006,349.478 433.959,348.562 435.91,347.494 437.984,347.494    439.938,348.867 441.889,347.952 443.842,350.164 445.793,353.289 447.746,358.092 449.697,360.685 451.771,362.361    453.725,364.04 455.676,364.726 457.627,364.954 459.58,365.945 461.531,364.954 463.484,364.573 465.557,366.021 467.508,365.107    469.461,365.335 471.412,366.021 473.365,366.327 475.316,366.251 477.27,364.726 479.344,364.345 481.295,364.726 483.248,365.26    485.199,365.412 487.152,364.497 489.104,365.26 491.057,365.335 493.131,364.802 495.082,364.191 497.033,364.648    498.984,365.794  "
   id="polyline52" />
</g>
<g
   id="g58"
   transform="translate(-84.831473,-245.742)">
	<polyline
   fill="none"
   stroke="#2e3192"
   stroke-linecap="round"
   stroke-linejoin="round"
   stroke-miterlimit="10"
   points="   321.717,357.33 323.668,356.797 325.621,357.33 327.572,356.187 329.646,355.042 331.6,356.415 333.551,356.948 335.504,357.178    337.455,356.11 339.408,355.958 341.359,355.881 343.434,356.187 345.387,355.195 347.338,355.195 349.291,354.357    351.242,355.577 353.195,354.585 355.146,354.204 357.219,353.061 359.172,353.898 361.123,353.594 363.076,352.984    365.027,353.137 366.979,353.289 368.932,353.137 371.006,351.688 372.957,352.984 374.91,354.052 376.861,354.204    378.814,353.747 380.766,352.604 382.719,353.289 384.793,352.604 386.744,352.984 388.697,352.374 390.648,351.841 392.6,351.917    394.553,351.611 396.506,349.705 398.578,350.468 400.529,348.41 402.482,347.8 404.434,345.131 406.387,343.073 408.338,341.318    410.412,339.031 412.365,335.754 414.316,333.542 416.27,330.645 418.221,328.204 420.174,326.07 422.125,323.401 424.199,321.267    426.15,322.487 428.104,322.563 430.055,320.733 432.006,322.182 433.959,321.495 435.91,321.495 437.984,323.554 439.938,324.24    441.889,325.308 443.842,330.493 445.793,337.201 447.746,346.656 449.697,353.061 451.771,355.042 453.725,356.645    455.676,358.168 457.627,358.702 459.58,359.846 461.531,358.092 463.484,359.465 465.557,359.16 467.508,359.008 469.461,359.236    471.412,357.711 473.365,359.008 475.316,358.474 477.27,359.084 479.344,359.389 481.295,359.541 483.248,359.617    485.199,359.465 487.152,358.702 489.104,359.16 491.057,360.151 493.131,359.541 495.082,359.922 497.033,359.16 498.984,359.541     "
   id="polyline56" />
</g>
<g
   id="g62"
   transform="translate(-84.831473,-245.742)">
	<polyline
   fill="none"
   stroke="#00aeef"
   stroke-linecap="round"
   stroke-linejoin="round"
   stroke-miterlimit="10"
   points="   321.717,350.087 323.668,350.087 325.621,350.468 327.572,350.468 329.646,349.935 331.6,350.621 333.551,351.23 335.504,350.164    337.455,350.85 339.408,349.858 341.359,349.4 343.434,348.943 345.387,350.468 347.338,349.858 349.291,350.315 351.242,351.23    353.195,349.095 355.146,349.248 357.219,348.791 359.172,349.248 361.123,349.324 363.076,348.943 365.027,348.257    366.979,347.647 368.932,347.113 371.006,346.58 372.957,346.274 374.91,346.504 376.861,347.113 378.814,346.504 380.766,346.504    382.719,345.513 384.793,347.418 386.744,346.274 388.697,346.428 390.648,345.36 392.6,344.063 394.553,343.911 396.506,343.53    398.578,343.073 400.529,340.861 402.482,340.633 404.434,338.117 406.387,335.981 408.338,334.228 410.412,331.026    412.365,326.604 414.316,322.944 416.27,318.674 418.221,314.328 420.174,309.525 422.125,306.018 424.199,304.646 426.15,301.673    428.104,298.013 430.055,298.394 432.006,300.3 433.959,299.461 435.91,299.689 437.984,299.31 439.938,301.139 441.889,306.094    443.842,314.023 445.793,324.088 447.746,333.542 449.697,344.444 451.771,349.63 453.725,350.24 455.676,352.604 457.627,352.527    459.58,351.841 461.531,352.831 463.484,353.671 465.557,353.441 467.508,353.289 469.461,351.688 471.412,354.891    473.365,354.128 475.316,353.441 477.27,354.204 479.344,352.984 481.295,352.831 483.248,352.527 485.199,353.594    487.152,353.671 489.104,353.518 491.057,354.509 493.131,353.898 495.082,353.898 497.033,353.365 498.984,353.518  "
   id="polyline60" />
</g>
<g
   id="g66"
   transform="translate(-84.831473,-245.742)">
	<polyline
   fill="none"
   stroke="#e9cb54"
   stroke-linecap="round"
   stroke-linejoin="round"
   stroke-miterlimit="10"
   points="   321.717,340.404 323.668,340.404 325.621,338.955 327.572,338.879 329.646,339.794 331.6,339.261 333.551,341.014 335.504,340.938    337.455,339.184 339.408,340.023 341.359,339.794 343.434,338.345 345.387,339.107 347.338,338.879 349.291,339.337    351.242,338.879 353.195,338.193 355.146,337.507 357.219,338.117 359.172,338.193 361.123,337.66 363.076,337.277    365.027,337.354 366.979,336.897 368.932,335.754 371.006,336.439 372.957,336.211 374.91,335.83 376.861,336.363 378.814,335.448    380.766,334.075 382.719,334.914 384.793,333.924 386.744,334.762 388.697,333.771 390.648,333.924 392.6,332.627 394.553,331.56    396.506,331.178 398.578,328.053 400.529,325.766 402.482,324.24 404.434,320.2 406.387,317.684 408.338,315.396 410.412,312.956    412.365,308.61 414.316,305.637 416.27,302.74 418.221,299.232 420.174,294.581 422.125,290.999 424.199,288.33 426.15,285.279    428.104,283.907 430.055,284.899 432.006,283.983 433.959,282.84 435.91,284.517 437.984,284.822 439.938,286.347 441.889,292.752    443.842,302.74 445.793,314.634 447.746,324.47 449.697,331.788 451.771,337.735 453.725,341.167 455.676,341.395 457.627,341.395    459.58,342.081 461.531,342.768 463.484,343.073 465.557,342.614 467.508,342.614 469.461,341.929 471.412,343.454    473.365,343.987 475.316,341.854 477.27,341.7 479.344,342.005 481.295,343.835 483.248,343.148 485.199,343.148 487.152,342.92    489.104,341.318 491.057,342.997 493.131,342.311 495.082,341.471 497.033,343.148 498.984,342.997  "
   id="polyline64" />
</g>
<g
   id="g70"
   transform="translate(-84.831473,-245.742)">
	<polyline
   fill="none"
   stroke="#947f3a"
   stroke-linecap="round"
   stroke-linejoin="round"
   stroke-miterlimit="10"
   points="   321.717,311.89 323.668,312.193 325.621,312.117 327.572,312.041 329.646,312.728 331.6,312.117 333.551,312.347 335.504,312.193    337.455,312.271 339.408,310.746 341.359,311.508 343.434,311.127 345.387,310.593 347.338,310.897 349.291,310.669    351.242,311.279 353.195,310.364 355.146,309.144 357.219,309.754 359.172,310.593 361.123,311.05 363.076,309.297 365.027,308.61    366.979,308.381 368.932,308.381 371.006,308.457 372.957,306.934 374.91,308.457 376.861,306.78 378.814,307.01 380.766,307.237    382.719,307.771 384.793,307.237 386.744,306.094 388.697,305.866 390.648,305.407 392.6,304.036 394.553,303.044 396.506,301.063    398.578,299.767 400.529,297.783 402.482,295.192 404.434,292.827 406.387,289.474 408.338,285.89 410.412,285.66 412.365,283.603    414.316,281.544 416.27,280.4 418.221,276.97 420.174,276.054 422.125,275.292 424.199,273.69 426.15,274.377 428.104,274.148    430.055,275.445 432.006,276.207 433.959,278.723 435.91,279.485 437.984,284.289 439.938,287.49 441.889,291.913 443.842,297.326    445.793,302.13 447.746,305.407 449.697,309.525 451.771,311.813 453.725,313.871 455.676,313.643 457.627,314.177 459.58,314.71    461.531,314.404 463.484,314.71 465.557,314.558 467.508,314.1 469.461,314.177 471.412,313.795 473.365,314.404 475.316,314.634    477.27,315.091 479.344,314.558 481.295,314.023 483.248,313.72 485.199,313.643 487.152,314.558 489.104,314.253 491.057,314.328    493.131,314.177 495.082,314.253 497.033,315.091 498.984,314.786  "
   id="polyline68" />
</g>
<g
   id="g74"
   transform="translate(-84.831473,-245.742)">
	<polyline
   fill="none"
   stroke="#343465"
   stroke-linecap="round"
   stroke-linejoin="round"
   stroke-miterlimit="10"
   points="   321.717,283.983 323.668,283.983 325.621,282.84 327.572,284.899 329.646,283.297 331.6,284.136 333.551,284.976 335.504,284.213    337.455,285.203 339.408,284.213 341.359,284.213 343.434,283.679 345.387,283.831 347.338,283.297 349.291,283.146    351.242,282.916 353.195,283.373 355.146,283.526 357.219,283.603 359.172,282.688 361.123,281.849 363.076,282.153    365.027,281.01 366.979,280.78 368.932,282.383 371.006,281.315 372.957,281.01 374.91,280.553 376.861,280.629 378.814,280.323    380.766,281.772 382.719,282.153 384.793,281.392 386.744,279.714 388.697,279.714 390.648,279.639 392.6,279.485 394.553,277.046    396.506,275.292 398.578,273.69 400.529,272.166 402.482,269.421 404.434,267.21 406.387,263.626 408.338,262.863 410.412,263.474    412.365,263.474 414.316,264.618 416.27,265.075 418.221,265.609 420.174,264.313 422.125,265.762 424.199,265.38 426.15,266.143    428.104,269.04 430.055,270.106 432.006,270.489 433.959,273.31 435.91,274.072 437.984,274.225 439.938,275.368 441.889,278.113    443.842,279.866 445.793,282.61 447.746,283.373 449.697,284.136 451.771,286.5 453.725,285.737 455.676,284.746 457.627,285.966    459.58,287.187 461.531,285.585 463.484,285.813 465.557,286.194 467.508,285.966 469.461,286.729 471.412,286.347    473.365,287.187 475.316,286.194 477.27,286.881 479.344,286.576 481.295,285.89 483.248,286.576 485.199,286.5 487.152,285.433    489.104,288.101 491.057,287.414 493.131,285.203 495.082,285.966 497.033,287.033 498.984,285.813  "
   id="polyline72" />
</g>
<rect
   x="366.17294"
   y="34.767136"
   fill="#ffffff"
   stroke="#000000"
   stroke-width="0.534281"
   stroke-miterlimit="10"
   width="45.615532"
   height="92.63784"
   id="rect76" />









































<g
   id="g238"
   transform="translate(-84.831473,-245.742)">
	
		<line
   fill="none"
   stroke="#000000"
   stroke-linecap="round"
   stroke-linejoin="round"
   stroke-miterlimit="10"
   x1="256.733"
   y1="376.39099"
   x2="256.733"
   y2="372.50201"
   id="line236" />
</g>
<g
   id="g242"
   transform="translate(-84.831473,-245.742)">
	<polyline
   fill="none"
   stroke="#000000"
   stroke-linecap="round"
   stroke-linejoin="round"
   stroke-miterlimit="10"
   points="   99.108,368.614 101.059,367.623 103.011,367.774 104.962,368.31 107.038,368.386 108.989,369.376 110.941,368.004 112.892,367.928    114.846,367.166 116.799,367.089 118.75,368.004 120.825,366.937 122.776,367.853 124.727,368.08 126.68,367.317 128.633,366.937    130.584,364.878 132.538,365.488 134.612,365.716 136.563,364.878 138.514,363.964 140.465,361.523 142.418,359.997    144.372,359.388 146.323,356.72 148.395,357.634 150.35,357.405 152.301,359.007 154.252,359.466 156.204,361.904 158.157,364.039    160.108,365.183 162.182,365.488 164.133,365.106 166.084,365.411 168.04,365.183 169.991,365.259 171.942,365.488    173.895,364.649 175.969,363.812 177.92,363.124 179.872,361.142 181.825,358.702 183.778,359.007 185.729,356.872    187.801,355.806 189.756,354.967 191.708,356.187 193.659,356.948 195.61,357.939 197.563,361.6 199.516,364.269 201.588,367.089    203.54,367.241 205.495,369.682 207.446,370.444 209.397,370.291 211.348,369.604 213.303,369.758 215.375,370.444    217.327,369.911 219.282,369.147 221.233,368.31 223.184,369.682 225.135,370.444 227.086,371.054 229.163,370.597 231.114,369.3    233.065,370.139 235.02,368.919 236.971,370.978 238.922,370.825 240.874,370.444 242.95,370.063 244.901,369.376 246.852,368.614    248.803,370.672 250.754,370.825 252.709,371.739 254.661,370.444 256.733,369.224 258.688,368.614 260.639,370.519    262.59,370.214 264.542,370.597 266.493,370.063 268.448,369.985 270.52,370.901 272.471,369.985 274.426,368.995 276.377,369.604     "
   id="polyline240" />
</g>
<g
   id="g246"
   transform="translate(-84.831473,-245.742)">
	<polyline
   fill="none"
   stroke="#ed1c24"
   stroke-linecap="round"
   stroke-linejoin="round"
   stroke-miterlimit="10"
   points="   99.108,361.904 101.059,361.98 103.011,362.896 104.962,362.286 107.038,361.98 108.989,361.828 110.941,362.591 112.892,361.294    114.846,361.828 116.799,360.075 118.75,360.837 120.825,360.761 122.776,359.923 124.727,360.532 126.68,359.77 128.633,359.693    130.584,358.702 132.538,358.169 134.612,359.997 136.563,359.77 138.514,358.474 140.465,357.405 142.418,358.245 144.372,356.72    146.323,355.424 148.395,354.813 150.35,355.348 152.301,355.881 154.252,355.118 156.204,356.948 158.157,357.712    160.108,358.092 162.182,358.55 164.133,357.405 166.084,358.32 168.04,358.092 169.991,358.702 171.942,358.092 173.895,357.939    175.969,355.653 177.92,354.89 179.872,353.06 181.825,351.612 183.778,349.095 185.729,346.198 187.801,344.598 189.756,344.14    191.708,344.598 193.659,346.503 195.61,348.485 197.563,351.306 199.516,355.501 201.588,358.778 203.54,358.702 205.495,359.466    207.446,359.77 209.397,361.065 211.348,361.065 213.303,360.837 215.375,361.828 217.327,362.515 219.282,362.972    221.233,363.429 223.184,363.505 225.135,361.904 227.086,362.515 229.163,364.039 231.114,363.353 233.065,363.353    235.02,361.828 236.971,362.361 238.922,362.972 240.874,362.515 242.95,363.048 244.901,363.048 246.852,363.124 248.803,362.361    250.754,362.056 252.709,362.286 254.661,363.582 256.733,362.972 258.688,362.819 260.639,363.505 262.59,362.438    264.542,363.353 266.493,363.429 268.448,362.361 270.52,363.124 272.471,362.438 274.426,363.505 276.377,364.191  "
   id="polyline244" />
</g>
<g
   id="g250"
   transform="translate(-84.831473,-245.742)">
	<polyline
   fill="none"
   stroke="#00a651"
   stroke-linecap="round"
   stroke-linejoin="round"
   stroke-miterlimit="10"
   points="   99.108,355.729 101.059,356.415 103.011,354.737 104.962,354.585 107.038,356.187 108.989,354.128 110.941,354.433    112.892,354.661 114.846,354.585 116.799,354.813 118.75,354.051 120.825,354.356 122.776,354.967 124.727,355.194 126.68,355.881    128.633,353.67 130.584,352.222 132.538,352.146 134.612,353.747 136.563,353.137 138.514,351.612 140.465,352.679    142.418,352.679 144.372,351.306 146.323,352.45 148.395,352.756 150.35,353.289 152.301,353.518 154.252,352.146 156.204,351.459    158.157,351.535 160.108,353.364 162.182,351.612 164.133,351.078 166.084,352.222 168.04,351.916 169.991,352.679    171.942,352.146 173.895,351.001 175.969,351.916 177.92,350.926 179.872,348.79 181.825,348.942 183.778,347.951 185.729,347.113    187.801,344.673 189.756,343.072 191.708,340.784 193.659,339.946 195.61,338.116 197.563,338.116 199.516,337.507    201.588,337.049 203.54,337.735 205.495,339.565 207.446,339.26 209.397,341.546 211.348,344.14 213.303,346.273 215.375,348.257    217.327,349.476 219.282,350.315 221.233,351.84 223.184,353.747 225.135,354.356 227.086,354.433 229.163,355.271    231.114,354.128 233.065,355.194 235.02,355.881 236.971,355.958 238.922,354.661 240.874,356.034 242.95,354.433 244.901,354.128    246.852,354.967 248.803,355.042 250.754,355.881 252.709,354.128 254.661,355.958 256.733,356.11 258.688,353.518    260.639,354.813 262.59,355.806 264.542,355.881 266.493,355.042 268.448,354.356 270.52,355.653 272.471,355.881 274.426,355.042    276.377,356.872  "
   id="polyline248" />
</g>
<g
   id="g254"
   transform="translate(-84.831473,-245.742)">
	<polyline
   fill="none"
   stroke="#2e3192"
   stroke-linecap="round"
   stroke-linejoin="round"
   stroke-miterlimit="10"
   points="   99.108,347.647 101.059,347.647 103.011,347.876 104.962,349.401 107.038,349.095 108.989,348.714 110.941,347.951    112.892,347.724 114.846,348.104 116.799,349.323 118.75,347.8 120.825,348.257 122.776,347.343 124.727,347.418 126.68,348.409    128.633,346.656 130.584,346.122 132.538,348.257 134.612,347.189 136.563,346.96 138.514,347.037 140.465,345.284    142.418,345.359 144.372,346.808 146.323,345.513 148.395,344.979 150.35,346.273 152.301,345.359 154.252,345.206    156.204,344.216 158.157,346.122 160.108,346.503 162.182,345.97 164.133,346.731 166.084,346.122 168.04,345.587 169.991,345.894    171.942,345.206 173.895,345.206 175.969,346.046 177.92,346.579 179.872,345.587 181.825,344.292 183.778,344.292    185.729,344.063 187.801,343.224 189.756,341.776 191.708,339.26 193.659,339.487 195.61,336.973 197.563,335.065 199.516,331.636    201.588,328.892 203.54,326.603 205.495,324.927 207.446,324.469 209.397,324.316 211.348,324.85 213.303,325.917 215.375,327.366    217.327,328.814 219.282,332.093 221.233,336.592 223.184,341.014 225.135,344.749 227.086,346.198 229.163,346.503    231.114,348.181 233.065,348.485 235.02,347.343 236.971,349.476 238.922,347.8 240.874,348.562 242.95,347.724 244.901,348.867    246.852,349.095 248.803,348.104 250.754,349.021 252.709,348.334 254.661,347.876 256.733,348.942 258.688,350.011    260.639,347.418 262.59,347.8 264.542,348.181 266.493,348.181 268.448,348.867 270.52,348.714 272.471,348.79 274.426,348.334    276.377,348.334  "
   id="polyline252" />
</g>
<g
   id="g258"
   transform="translate(-84.831473,-245.742)">
	<polyline
   fill="none"
   stroke="#00aeef"
   stroke-linecap="round"
   stroke-linejoin="round"
   stroke-miterlimit="10"
   points="   99.108,343.224 101.059,342.005 103.011,342.538 104.962,342.921 107.038,342.538 108.989,342.005 110.941,342.615    112.892,342.081 114.846,341.014 116.799,342.005 118.75,342.157 120.825,340.557 122.776,341.395 124.727,341.014 126.68,340.251    128.633,340.403 130.584,341.546 132.538,340.557 134.612,342.157 136.563,340.784 138.514,340.86 140.465,341.091    142.418,341.776 144.372,341.243 146.323,340.632 148.395,342.081 150.35,341.471 152.301,340.403 154.252,340.632    156.204,341.014 158.157,339.26 160.108,341.014 162.182,340.022 164.133,339.26 166.084,340.175 168.04,340.557 169.991,340.784    171.942,339.87 173.895,340.479 175.969,340.251 177.92,340.327 179.872,338.879 181.825,339.107 183.778,339.87 185.729,338.956    187.801,336.135 189.756,336.743 191.708,336.286 193.659,333.999 195.61,333.313 197.563,331.177 199.516,328.28 201.588,323.782    203.54,321.038 205.495,318.598 207.446,315.548 209.397,313.108 211.348,309.525 213.303,309.067 215.375,309.677    217.327,312.728 219.282,318.14 221.233,322.257 223.184,327.976 225.135,334.608 227.086,339.107 229.163,341.014    231.114,341.624 233.065,341.471 235.02,342.767 236.971,342.005 238.922,343.683 240.874,343.683 242.95,343.148 244.901,342.995    246.852,342.234 248.803,342.462 250.754,342.234 252.709,342.31 254.661,342.31 256.733,341.318 258.688,341.624 260.639,342.995    262.59,341.165 264.542,342.462 266.493,342.691 268.448,342.462 270.52,343.606 272.471,342.615 274.426,341.776 276.377,342.157     "
   id="polyline256" />
</g>
<g
   id="g262"
   transform="translate(-84.831473,-245.742)">
	<polyline
   fill="none"
   stroke="#ec008c"
   stroke-linecap="round"
   stroke-linejoin="round"
   stroke-miterlimit="10"
   points="   99.108,328.28 101.059,327.976 103.011,328.511 104.962,328.585 107.038,328.511 108.989,327.747 110.941,327.519 112.892,328.052    114.846,325.841 116.799,328.128 118.75,326.833 120.825,327.824 122.776,328.28 124.727,329.272 126.68,327.671 128.633,328.052    130.584,327.671 132.538,327.214 134.612,328.052 136.563,326.527 138.514,326.222 140.465,325.308 142.418,326.374    144.372,326.298 146.323,326.222 148.395,326.069 150.35,326.298 152.301,326.681 154.252,325.993 156.204,327.138    158.157,325.003 160.108,326.146 162.182,325.536 164.133,326.681 166.084,325.841 168.04,326.222 169.991,326.069    171.942,325.993 173.895,324.469 175.969,324.62 177.92,325.917 179.872,324.62 181.825,323.63 183.778,323.249 185.729,321.038    187.801,320.809 189.756,321.038 191.708,319.513 193.659,317.073 195.61,313.337 197.563,310.669 199.516,310.134    201.588,308.075 203.54,306.018 205.495,304.265 207.446,302.282 209.397,304.493 211.348,305.255 213.303,306.78 215.375,308.687    217.327,309.982 219.282,314.253 221.233,318.14 223.184,322.257 225.135,324.011 227.086,325.46 229.163,327.366 231.114,326.374    233.065,329.425 235.02,328.892 236.971,330.11 238.922,328.585 240.874,327.061 242.95,327.061 244.901,327.366 246.852,328.966    248.803,328.585 250.754,328.738 252.709,327.061 254.661,329.577 256.733,328.585 258.688,328.357 260.639,328.28 262.59,327.519    264.542,327.214 266.493,326.908 268.448,328.205 270.52,328.28 272.471,328.585 274.426,328.28 276.377,329.501  "
   id="polyline260" />
</g>
<g
   id="g266"
   transform="translate(-84.831473,-245.742)">
	<polyline
   fill="none"
   stroke="#e9cb54"
   stroke-linecap="round"
   stroke-linejoin="round"
   stroke-miterlimit="10"
   points="   99.108,308.382 101.059,308.763 103.011,308.001 104.962,307.466 107.038,306.704 108.989,306.628 110.941,307.314    112.892,306.551 114.846,307.161 116.799,308.153 118.75,306.398 120.825,306.247 122.776,306.551 124.727,306.551 126.68,307.542    128.633,307.466 130.584,305.712 132.538,306.093 134.612,304.721 136.563,305.941 138.514,306.78 140.465,305.637 142.418,305.79    144.372,303.73 146.323,303.349 148.395,303.96 150.35,302.435 152.301,301.442 154.252,304.34 156.204,304.646 158.157,303.272    160.108,303.73 162.182,304.417 164.133,304.493 166.084,304.646 168.04,303.579 169.991,304.646 171.942,302.892 173.895,302.282    175.969,302.435 177.92,299.385 179.872,298.622 181.825,298.241 183.778,295.801 185.729,293.895 187.801,292.065    189.756,292.827 191.708,291.989 193.659,292.218 195.61,293.514 197.563,294.886 199.516,295.725 201.588,297.249 203.54,299.232    205.495,299.765 207.446,301.062 209.397,301.214 211.348,302.129 213.303,302.968 215.375,304.34 217.327,304.646    219.282,305.561 221.233,306.093 223.184,307.542 225.135,305.407 227.086,307.009 229.163,307.618 231.114,307.925    233.065,308.382 235.02,307.618 236.971,308.001 238.922,307.695 240.874,308.305 242.95,308.763 244.901,308.534 246.852,307.161    248.803,309.143 250.754,308.839 252.709,308.382 254.661,308.305 256.733,307.466 258.688,307.009 260.639,309.296    262.59,308.305 264.542,307.771 266.493,307.466 268.448,308.763 270.52,306.551 272.471,307.466 274.426,307.771 276.377,307.39     "
   id="polyline264" />
</g>
<g
   id="g270"
   transform="translate(-84.831473,-245.742)">
	<polyline
   fill="none"
   stroke="#947f3a"
   stroke-linecap="round"
   stroke-linejoin="round"
   stroke-miterlimit="10"
   points="   99.108,293.132 101.059,295.038 103.011,295.572 104.962,293.285 107.038,293.132 108.989,294.505 110.941,293.36 112.892,294.276    114.846,294.124 116.799,293.514 118.75,293.819 120.825,294.276 122.776,294.886 124.727,292.751 126.68,292.903 128.633,292.903    130.584,290.692 132.538,290.692 134.612,292.599 136.563,290.845 138.514,290.997 140.465,291.607 142.418,289.854    144.372,288.71 146.323,289.015 148.395,287.947 150.35,287.186 152.301,287.644 154.252,288.786 156.204,290.692 158.157,289.778    160.108,290.464 162.182,291.76 164.133,289.778 166.084,290.921 168.04,291.455 169.991,290.464 171.942,289.931 173.895,288.71    175.969,287.415 177.92,287.032 179.872,286.423 181.825,285.051 183.778,283.297 185.729,279.561 187.801,277.808    189.756,277.731 191.708,280.552 193.659,280.476 195.61,281.848 197.563,284.593 199.516,287.72 201.588,289.778 203.54,290.769    205.495,292.065 207.446,292.37 209.397,293.057 211.348,293.057 213.303,294.353 215.375,293.591 217.327,293.208 219.282,294.81    221.233,295.648 223.184,295.725 225.135,295.801 227.086,295.878 229.163,294.276 231.114,293.819 233.065,294.048    235.02,295.725 236.971,295.495 238.922,295.19 240.874,294.81 242.95,295.953 244.901,295.343 246.852,295.801 248.803,294.962    250.754,295.878 252.709,294.429 254.661,293.437 256.733,294.505 258.688,295.038 260.639,294.962 262.59,294.962 264.542,295.42    266.493,296.259 268.448,295.19 270.52,297.021 272.471,294.505 274.426,294.2 276.377,293.743  "
   id="polyline268" />
</g>
<g
   id="g274"
   transform="translate(-84.831473,-245.742)">
	<polyline
   fill="none"
   stroke="#343465"
   stroke-linecap="round"
   stroke-linejoin="round"
   stroke-miterlimit="10"
   points="   99.108,287.108 101.059,286.88 103.011,285.508 104.962,285.051 107.038,284.288 108.989,286.575 110.941,286.423 112.892,286.423    114.846,285.737 116.799,286.804 118.75,285.813 120.825,285.583 122.776,285.813 124.727,285.737 126.68,284.822 128.633,285.965    130.584,284.822 132.538,284.059 134.612,283.373 136.563,284.288 138.514,283.525 140.465,282.382 142.418,283.602    144.372,282.916 146.323,282.687 148.395,282.306 150.35,283.831 152.301,282.077 154.252,282.153 156.204,284.517    158.157,284.211 160.108,282.535 162.182,282.687 164.133,283.297 166.084,283.297 168.04,282.382 169.991,283.145    171.942,282.611 173.895,282.229 175.969,282.153 177.92,281.467 179.872,280.4 181.825,277.045 183.778,274.681 185.729,273.081    187.801,271.937 189.756,270.107 191.708,270.107 193.659,274.224 195.61,272.852 197.563,273.843 199.516,275.063    201.588,277.045 203.54,277.273 205.495,279.637 207.446,281.009 209.397,283.983 211.348,283.068 213.303,283.831    215.375,285.279 217.327,284.365 219.282,285.889 221.233,286.347 223.184,285.432 225.135,285.737 227.086,286.194    229.163,285.355 231.114,286.957 233.065,285.965 235.02,287.186 236.971,285.737 238.922,286.194 240.874,286.957 242.95,285.126    244.901,288.177 246.852,286.5 248.803,286.729 250.754,287.796 252.709,287.796 254.661,285.661 256.733,286.804 258.688,287.108    260.639,286.194 262.59,286.957 264.542,287.72 266.493,287.49 268.448,286.575 270.52,286.575 272.471,286.729 274.426,287.872    276.377,286.271  "
   id="polyline272" />
</g>
<rect
   x="142.61238"
   y="35.209316"
   fill="#ffffff"
   stroke="#000000"
   stroke-width="0.534144"
   stroke-miterlimit="10"
   width="45.657429"
   height="92.505836"
   id="rect276" />
<g
   id="g288"
   transform="translate(-84.831473,-245.742)">
	<g
   id="g286">
		<g
   id="g284">
			
				<line
   fill="none"
   stroke="#000000"
   stroke-width="0.5"
   stroke-linecap="round"
   stroke-linejoin="round"
   x1="203.418"
   y1="376.39099"
   x2="203.418"
   y2="374.39099"
   id="line278" />
			
				<line
   fill="none"
   stroke="#000000"
   stroke-width="0.5"
   stroke-linecap="round"
   stroke-linejoin="round"
   stroke-dasharray="4.0693, 4.0693"
   x1="203.418"
   y1="370.32101"
   x2="203.418"
   y2="250.27699"
   id="line280" />
			
				<line
   fill="none"
   stroke="#000000"
   stroke-width="0.5"
   stroke-linecap="round"
   stroke-linejoin="round"
   x1="203.418"
   y1="248.242"
   x2="203.418"
   y2="246.242"
   id="line282" />
		</g>
	</g>
</g>
<rect
   x="113.78252"
   y="7.6079974"
   fill="#ffffff"
   width="16.5"
   height="7.5170002"
   id="rect290" />





































<g
   id="g432"
   transform="translate(-84.831473,-245.742)">
	
		<line
   fill="none"
   stroke="#000000"
   stroke-linecap="round"
   stroke-linejoin="round"
   stroke-miterlimit="10"
   x1="321.71701"
   y1="376.392"
   x2="498.98401"
   y2="376.392"
   id="line430" />
</g>
<g
   id="g436"
   transform="translate(-84.831473,-245.742)">
	
		<line
   fill="none"
   stroke="#000000"
   stroke-linecap="round"
   stroke-linejoin="round"
   stroke-miterlimit="10"
   x1="341.35901"
   y1="376.392"
   x2="341.35901"
   y2="374.40799"
   id="line434" />
</g>
<g
   id="g440"
   transform="translate(-84.831473,-245.742)">
	
		<line
   fill="none"
   stroke="#000000"
   stroke-linecap="round"
   stroke-linejoin="round"
   stroke-miterlimit="10"
   x1="361.12299"
   y1="376.392"
   x2="361.12299"
   y2="374.40799"
   id="line438" />
</g>
<g
   id="g444"
   transform="translate(-84.831473,-245.742)">
	
		<line
   fill="none"
   stroke="#000000"
   stroke-linecap="round"
   stroke-linejoin="round"
   stroke-miterlimit="10"
   x1="400.52899"
   y1="376.392"
   x2="400.52899"
   y2="374.40799"
   id="line442" />
</g>
<g
   id="g448"
   transform="translate(-84.831473,-245.742)">
	
		<line
   fill="none"
   stroke="#000000"
   stroke-linecap="round"
   stroke-linejoin="round"
   stroke-miterlimit="10"
   x1="420.17401"
   y1="376.392"
   x2="420.17401"
   y2="374.40799"
   id="line446" />
</g>
<g
   id="g452"
   transform="translate(-84.831473,-245.742)">
	
		<line
   fill="none"
   stroke="#000000"
   stroke-linecap="round"
   stroke-linejoin="round"
   stroke-miterlimit="10"
   x1="439.81799"
   y1="376.392"
   x2="439.81799"
   y2="374.40799"
   id="line450" />
</g>
<g
   id="g456"
   transform="translate(-84.831473,-245.742)">
	
		<line
   fill="none"
   stroke="#000000"
   stroke-linecap="round"
   stroke-linejoin="round"
   stroke-miterlimit="10"
   x1="459.46301"
   y1="376.392"
   x2="459.46301"
   y2="374.40799"
   id="line454" />
</g>
<g
   id="g460"
   transform="translate(-84.831473,-245.742)">
	
		<line
   fill="none"
   stroke="#000000"
   stroke-linecap="round"
   stroke-linejoin="round"
   stroke-miterlimit="10"
   x1="380.76599"
   y1="376.392"
   x2="380.76599"
   y2="372.50201"
   id="line458" />
</g>
<g
   id="g464"
   transform="translate(-84.831473,-245.742)">
	
		<line
   fill="none"
   stroke="#000000"
   stroke-linecap="round"
   stroke-linejoin="round"
   stroke-miterlimit="10"
   x1="321.71701"
   y1="246.243"
   x2="498.98401"
   y2="246.243"
   id="line462" />
</g>
<g
   id="g468"
   transform="translate(-84.831473,-245.742)">
	
		<line
   fill="none"
   stroke="#000000"
   stroke-linecap="round"
   stroke-linejoin="round"
   stroke-miterlimit="10"
   x1="321.71701"
   y1="246.243"
   x2="321.71701"
   y2="248.226"
   id="line466" />
</g>
<g
   id="g472"
   transform="translate(-84.831473,-245.742)">
	
		<line
   fill="none"
   stroke="#000000"
   stroke-linecap="round"
   stroke-linejoin="round"
   stroke-miterlimit="10"
   x1="341.35901"
   y1="246.243"
   x2="341.35901"
   y2="248.226"
   id="line470" />
</g>
<g
   id="g476"
   transform="translate(-84.831473,-245.742)">
	
		<line
   fill="none"
   stroke="#000000"
   stroke-linecap="round"
   stroke-linejoin="round"
   stroke-miterlimit="10"
   x1="361.12299"
   y1="246.243"
   x2="361.12299"
   y2="248.226"
   id="line474" />
</g>
<g
   id="g480"
   transform="translate(-84.831473,-245.742)">
	
		<line
   fill="none"
   stroke="#000000"
   stroke-linecap="round"
   stroke-linejoin="round"
   stroke-miterlimit="10"
   x1="400.52899"
   y1="246.243"
   x2="400.52899"
   y2="248.226"
   id="line478" />
</g>
<g
   id="g484"
   transform="translate(-84.831473,-245.742)">
	
		<line
   fill="none"
   stroke="#000000"
   stroke-linecap="round"
   stroke-linejoin="round"
   stroke-miterlimit="10"
   x1="420.17401"
   y1="246.243"
   x2="420.17401"
   y2="248.226"
   id="line482" />
</g>
<g
   id="g488"
   transform="translate(-84.831473,-245.742)">
	
		<line
   fill="none"
   stroke="#000000"
   stroke-linecap="round"
   stroke-linejoin="round"
   stroke-miterlimit="10"
   x1="439.93799"
   y1="246.243"
   x2="439.93799"
   y2="248.226"
   id="line486" />
</g>
<g
   id="g492"
   transform="translate(-84.831473,-245.742)">
	
		<line
   fill="none"
   stroke="#000000"
   stroke-linecap="round"
   stroke-linejoin="round"
   stroke-miterlimit="10"
   x1="459.57999"
   y1="246.243"
   x2="459.57999"
   y2="248.226"
   id="line490" />
</g>
<g
   id="g496"
   transform="translate(-84.831473,-245.742)">
	
		<line
   fill="none"
   stroke="#000000"
   stroke-linecap="round"
   stroke-linejoin="round"
   stroke-miterlimit="10"
   x1="498.98401"
   y1="246.243"
   x2="498.98401"
   y2="248.226"
   id="line494" />
</g>
<g
   id="g500"
   transform="translate(-84.831473,-245.742)">
	
		<line
   fill="none"
   stroke="#000000"
   stroke-linecap="round"
   stroke-linejoin="round"
   stroke-miterlimit="10"
   x1="380.76599"
   y1="246.243"
   x2="380.76599"
   y2="250.132"
   id="line498" />
</g>
<g
   id="g504"
   transform="translate(-84.831473,-245.742)">
	
		<line
   fill="none"
   stroke="#000000"
   stroke-linecap="round"
   stroke-linejoin="round"
   stroke-miterlimit="10"
   x1="479.34399"
   y1="246.243"
   x2="479.34399"
   y2="250.132"
   id="line502" />
</g>
<g
   id="g508"
   transform="translate(-84.831473,-245.742)">
	
		<line
   fill="none"
   stroke="#000000"
   stroke-linecap="round"
   stroke-linejoin="round"
   stroke-miterlimit="10"
   x1="321.71701"
   y1="376.392"
   x2="321.71701"
   y2="246.243"
   id="line506" />
</g>
<g
   id="g512"
   transform="translate(-84.831473,-245.742)">
	
		<line
   fill="none"
   stroke="#000000"
   stroke-linecap="round"
   stroke-linejoin="round"
   stroke-miterlimit="10"
   x1="498.98401"
   y1="376.392"
   x2="498.98401"
   y2="246.243"
   id="line510" />
</g>
















































<g
   id="g706"
   transform="translate(-84.831473,-245.742)">
	
		<line
   fill="none"
   stroke="#000000"
   stroke-linecap="round"
   stroke-linejoin="round"
   stroke-miterlimit="10"
   x1="99.108002"
   y1="376.39099"
   x2="276.37701"
   y2="376.39099"
   id="line704" />
</g>
<g
   id="g710"
   transform="translate(-84.831473,-245.742)">
	
		<line
   fill="none"
   stroke="#000000"
   stroke-linecap="round"
   stroke-linejoin="round"
   stroke-miterlimit="10"
   x1="99.108002"
   y1="376.39099"
   x2="99.108002"
   y2="374.40701"
   id="line708" />
</g>
<g
   id="g714"
   transform="translate(-84.831473,-245.742)">
	
		<line
   fill="none"
   stroke="#000000"
   stroke-linecap="round"
   stroke-linejoin="round"
   stroke-miterlimit="10"
   x1="118.75"
   y1="376.39099"
   x2="118.75"
   y2="374.40701"
   id="line712" />
</g>
<g
   id="g718"
   transform="translate(-84.831473,-245.742)">
	
		<line
   fill="none"
   stroke="#000000"
   stroke-linecap="round"
   stroke-linejoin="round"
   stroke-miterlimit="10"
   x1="138.51401"
   y1="376.39099"
   x2="138.51401"
   y2="374.40701"
   id="line716" />
</g>
<g
   id="g722"
   transform="translate(-84.831473,-245.742)">
	
		<line
   fill="none"
   stroke="#000000"
   stroke-linecap="round"
   stroke-linejoin="round"
   stroke-miterlimit="10"
   x1="177.92"
   y1="376.39099"
   x2="177.92"
   y2="374.40701"
   id="line720" />
</g>
<g
   id="g726"
   transform="translate(-84.831473,-245.742)">
	
		<line
   fill="none"
   stroke="#000000"
   stroke-linecap="round"
   stroke-linejoin="round"
   stroke-miterlimit="10"
   x1="197.563"
   y1="376.39099"
   x2="197.563"
   y2="374.40701"
   id="line724" />
</g>
<g
   id="g730"
   transform="translate(-84.831473,-245.742)">
	
		<line
   fill="none"
   stroke="#000000"
   stroke-linecap="round"
   stroke-linejoin="round"
   stroke-miterlimit="10"
   x1="217.327"
   y1="376.39099"
   x2="217.327"
   y2="374.40701"
   id="line728" />
</g>
<g
   id="g734"
   transform="translate(-84.831473,-245.742)">
	
		<line
   fill="none"
   stroke="#000000"
   stroke-linecap="round"
   stroke-linejoin="round"
   stroke-miterlimit="10"
   x1="236.97099"
   y1="376.39099"
   x2="236.97099"
   y2="374.40701"
   id="line732" />
</g>
<g
   id="g738"
   transform="translate(-84.831473,-245.742)">
	
		<line
   fill="none"
   stroke="#000000"
   stroke-linecap="round"
   stroke-linejoin="round"
   stroke-miterlimit="10"
   x1="276.37701"
   y1="376.39099"
   x2="276.37701"
   y2="374.40701"
   id="line736" />
</g>
<g
   id="g742"
   transform="translate(-84.831473,-245.742)">
	
		<line
   fill="none"
   stroke="#000000"
   stroke-linecap="round"
   stroke-linejoin="round"
   stroke-miterlimit="10"
   x1="158.157"
   y1="376.39099"
   x2="158.157"
   y2="372.50201"
   id="line740" />
</g>
<g
   id="g746"
   transform="translate(-84.831473,-245.742)">
	
		<line
   fill="none"
   stroke="#000000"
   stroke-linecap="round"
   stroke-linejoin="round"
   stroke-miterlimit="10"
   x1="99.108002"
   y1="246.242"
   x2="276.37701"
   y2="246.242"
   id="line744" />
</g>
<g
   id="g750"
   transform="translate(-84.831473,-245.742)">
	
		<line
   fill="none"
   stroke="#000000"
   stroke-linecap="round"
   stroke-linejoin="round"
   stroke-miterlimit="10"
   x1="99.108002"
   y1="246.242"
   x2="99.108002"
   y2="248.224"
   id="line748" />
</g>
<g
   id="g754"
   transform="translate(-84.831473,-245.742)">
	
		<line
   fill="none"
   stroke="#000000"
   stroke-linecap="round"
   stroke-linejoin="round"
   stroke-miterlimit="10"
   x1="118.75"
   y1="246.242"
   x2="118.75"
   y2="248.224"
   id="line752" />
</g>
<g
   id="g758"
   transform="translate(-84.831473,-245.742)">
	
		<line
   fill="none"
   stroke="#000000"
   stroke-linecap="round"
   stroke-linejoin="round"
   stroke-miterlimit="10"
   x1="138.51401"
   y1="246.242"
   x2="138.51401"
   y2="248.224"
   id="line756" />
</g>
<g
   id="g762"
   transform="translate(-84.831473,-245.742)">
	
		<line
   fill="none"
   stroke="#000000"
   stroke-linecap="round"
   stroke-linejoin="round"
   stroke-miterlimit="10"
   x1="177.92"
   y1="246.242"
   x2="177.92"
   y2="248.224"
   id="line760" />
</g>
<g
   id="g766"
   transform="translate(-84.831473,-245.742)">
	
		<line
   fill="none"
   stroke="#000000"
   stroke-linecap="round"
   stroke-linejoin="round"
   stroke-miterlimit="10"
   x1="197.563"
   y1="246.242"
   x2="197.563"
   y2="248.224"
   id="line764" />
</g>
<g
   id="g770"
   transform="translate(-84.831473,-245.742)">
	
		<line
   fill="none"
   stroke="#000000"
   stroke-linecap="round"
   stroke-linejoin="round"
   stroke-miterlimit="10"
   x1="217.327"
   y1="246.242"
   x2="217.327"
   y2="248.224"
   id="line768" />
</g>
<g
   id="g774"
   transform="translate(-84.831473,-245.742)">
	
		<line
   fill="none"
   stroke="#000000"
   stroke-linecap="round"
   stroke-linejoin="round"
   stroke-miterlimit="10"
   x1="236.97099"
   y1="246.242"
   x2="236.97099"
   y2="248.224"
   id="line772" />
</g>
<g
   id="g778"
   transform="translate(-84.831473,-245.742)">
	
		<line
   fill="none"
   stroke="#000000"
   stroke-linecap="round"
   stroke-linejoin="round"
   stroke-miterlimit="10"
   x1="276.37701"
   y1="246.242"
   x2="276.37701"
   y2="248.224"
   id="line776" />
</g>
<g
   id="g782"
   transform="translate(-84.831473,-245.742)">
	
		<line
   fill="none"
   stroke="#000000"
   stroke-linecap="round"
   stroke-linejoin="round"
   stroke-miterlimit="10"
   x1="158.157"
   y1="246.242"
   x2="158.157"
   y2="250.13"
   id="line780" />
</g>
<g
   id="g786"
   transform="translate(-84.831473,-245.742)">
	
		<line
   fill="none"
   stroke="#000000"
   stroke-linecap="round"
   stroke-linejoin="round"
   stroke-miterlimit="10"
   x1="256.733"
   y1="246.242"
   x2="256.733"
   y2="250.13"
   id="line784" />
</g>
<g
   id="g790"
   transform="translate(-84.831473,-245.742)">
	
		<line
   fill="none"
   stroke="#000000"
   stroke-linecap="round"
   stroke-linejoin="round"
   stroke-miterlimit="10"
   x1="99.108002"
   y1="376.39099"
   x2="99.108002"
   y2="246.242"
   id="line788" />
</g>
<g
   id="g794"
   transform="translate(-84.831473,-245.742)">
	
		<line
   fill="none"
   stroke="#000000"
   stroke-linecap="round"
   stroke-linejoin="round"
   stroke-miterlimit="10"
   x1="276.37701"
   y1="376.39099"
   x2="276.37701"
   y2="246.242"
   id="line792" />
</g>

<text
   font-family="'Helvetica'"
   font-size="10px"
   id="text798"
   style="font-style:normal;font-variant:normal;font-weight:normal;font-stretch:normal;font-family:'CMU Serif';-inkscape-font-specification:'CMU Serif'"
   x="44.13583"
   y="143.00119">286</text>

<text
   font-family="'Helvetica'"
   font-size="10px"
   id="text802"
   style="font-style:normal;font-variant:normal;font-weight:normal;font-stretch:normal;font-family:'CMU Serif';-inkscape-font-specification:'CMU Serif'"
   x="4.1944275"
   y="143.00119">288</text>
<text
   font-family="'Helvetica'"
   font-size="10px"
   id="text804"
   style="font-style:normal;font-variant:normal;font-weight:normal;font-stretch:normal;font-family:'CMU Serif';-inkscape-font-specification:'CMU Serif'"
   x="163.95903"
   y="143.00119">280</text>
<text
   font-family="'Helvetica'"
   font-size="10px"
   id="text806"
   style="font-style:normal;font-variant:normal;font-weight:normal;font-stretch:normal;font-family:'CMU Serif';-inkscape-font-specification:'CMU Serif'"
   x="84.077225"
   y="143.00119">284</text>

<text
   font-family="'Helvetica'"
   font-size="10px"
   id="text810"
   style="font-style:normal;font-variant:normal;font-weight:normal;font-stretch:normal;font-family:'CMU Serif';-inkscape-font-specification:'CMU Serif'"
   x="124.01763"
   y="143.00119">282</text>


<g
   id="g826"
   transform="translate(-84.831473,-245.742)">
	<g
   id="g824">
		<g
   id="g822">
			
				<line
   fill="none"
   stroke="#000000"
   stroke-width="0.5"
   stroke-linecap="round"
   stroke-linejoin="round"
   x1="191.82899"
   y1="376.39099"
   x2="191.82899"
   y2="374.39099"
   id="line816" />
			
				<line
   fill="none"
   stroke="#000000"
   stroke-width="0.5"
   stroke-linecap="round"
   stroke-linejoin="round"
   stroke-dasharray="4.0693, 4.0693"
   x1="191.82899"
   y1="370.32101"
   x2="191.82899"
   y2="250.27699"
   id="line818" />
			
				<line
   fill="none"
   stroke="#000000"
   stroke-width="0.5"
   stroke-linecap="round"
   stroke-linejoin="round"
   x1="191.82899"
   y1="248.242"
   x2="191.82899"
   y2="246.242"
   id="line820" />
		</g>
	</g>
</g>
<g
   id="g838"
   transform="translate(-84.831473,-245.742)">
	<g
   id="g836">
		<g
   id="g834">
			
				<line
   fill="none"
   stroke="#000000"
   stroke-width="0.5"
   stroke-linecap="round"
   stroke-linejoin="round"
   x1="147.786"
   y1="376.39099"
   x2="147.786"
   y2="374.39099"
   id="line828" />
			
				<line
   fill="none"
   stroke="#000000"
   stroke-width="0.5"
   stroke-linecap="round"
   stroke-linejoin="round"
   stroke-dasharray="4.0693, 4.0693"
   x1="147.786"
   y1="370.32101"
   x2="147.786"
   y2="250.27699"
   id="line830" />
			
				<line
   fill="none"
   stroke="#000000"
   stroke-width="0.5"
   stroke-linecap="round"
   stroke-linejoin="round"
   x1="147.786"
   y1="248.242"
   x2="147.786"
   y2="246.242"
   id="line832" />
		</g>
	</g>
</g>
<text
   transform="matrix(4.7999998e-4,-0.99999995,0.99999995,1.8999999e-4,0,0)"
   font-family="'Helvetica'"
   font-size="10px"
   id="text840"
   style="font-style:normal;font-variant:normal;font-weight:normal;font-stretch:normal;font-family:'CMU Serif';-inkscape-font-specification:'CMU Serif'"
   x="-98.931366"
   y="7.5270152">Intensity (arb. u)</text>
<text
   transform="matrix(4.7999998e-4,-0.99999995,0.99999995,1.8999999e-4,0,0)"
   font-family="'Helvetica'"
   font-size="10px"
   id="text842"
   style="font-style:normal;font-variant:normal;font-weight:normal;font-stretch:normal;font-family:'CMU Serif';-inkscape-font-specification:'CMU Serif'"
   x="-98.14299"
   y="230.03204">Intensity (arb. u)</text>







<text
   font-family="'Helvetica'"
   font-size="10px"
   id="text858"
   style="font-style:normal;font-variant:normal;font-weight:normal;font-stretch:normal;font-family:'CMU Serif';-inkscape-font-specification:'CMU Serif'"
   x="266.74274"
   y="142.1447">286</text>

<text
   font-family="'Helvetica'"
   font-size="10px"
   id="text862"
   style="font-style:normal;font-variant:normal;font-weight:normal;font-stretch:normal;font-family:'CMU Serif';-inkscape-font-specification:'CMU Serif'"
   x="226.80133"
   y="142.1447">288</text>
<text
   font-family="'Helvetica'"
   font-size="10px"
   id="text864"
   style="font-style:normal;font-variant:normal;font-weight:normal;font-stretch:normal;font-family:'CMU Serif';-inkscape-font-specification:'CMU Serif'"
   x="386.56693"
   y="142.1447">280</text>
<text
   font-family="'Helvetica'"
   font-size="10px"
   id="text866"
   style="font-style:normal;font-variant:normal;font-weight:normal;font-stretch:normal;font-family:'CMU Serif';-inkscape-font-specification:'CMU Serif'"
   x="306.68414"
   y="142.1447">284</text>

<text
   font-family="'Helvetica'"
   font-size="10px"
   id="text870"
   style="font-style:normal;font-variant:normal;font-weight:normal;font-stretch:normal;font-family:'CMU Serif';-inkscape-font-specification:'CMU Serif'"
   x="346.62552"
   y="142.1447">282</text>









































































































<g
   id="g1296"
   transform="translate(-84.831473,-245.742)">
	<g
   id="g1294">
		<g
   id="g1292">
			
				<line
   fill="none"
   stroke="#000000"
   stroke-width="0.5"
   stroke-linecap="round"
   stroke-linejoin="round"
   x1="217.327"
   y1="376.39099"
   x2="217.327"
   y2="374.39099"
   id="line1286" />
			
				<line
   fill="none"
   stroke="#000000"
   stroke-width="0.5"
   stroke-linecap="round"
   stroke-linejoin="round"
   stroke-dasharray="4.0693, 4.0693"
   x1="217.327"
   y1="370.32101"
   x2="217.327"
   y2="250.27699"
   id="line1288" />
			
				<line
   fill="none"
   stroke="#000000"
   stroke-width="0.5"
   stroke-linecap="round"
   stroke-linejoin="round"
   x1="217.327"
   y1="248.242"
   x2="217.327"
   y2="246.242"
   id="line1290" />
		</g>
	</g>
</g>
<g
   id="g1308"
   transform="translate(-84.831473,-245.742)">
	<g
   id="g1306">
		<g
   id="g1304">
			
				<line
   fill="none"
   stroke="#000000"
   stroke-width="0.5"
   stroke-linecap="round"
   stroke-linejoin="round"
   x1="426.02499"
   y1="376.39099"
   x2="426.02499"
   y2="374.39099"
   id="line1298" />
			
				<line
   fill="none"
   stroke="#000000"
   stroke-width="0.5"
   stroke-linecap="round"
   stroke-linejoin="round"
   stroke-dasharray="4.0693, 4.0693"
   x1="426.02499"
   y1="370.32199"
   x2="426.02499"
   y2="250.27699"
   id="line1300" />
			
				<line
   fill="none"
   stroke="#000000"
   stroke-width="0.5"
   stroke-linecap="round"
   stroke-linejoin="round"
   x1="426.02499"
   y1="248.242"
   x2="426.02499"
   y2="246.242"
   id="line1302" />
		<rect
   style="fill:#ffffff;fill-opacity:1;stroke:none;stroke-width:2.78557;stroke-linejoin:round;stroke-miterlimit:10;stroke-dasharray:none;stroke-opacity:1"
   id="rect2914"
   width="2.186873"
   height="6.5048852"
   x="425.13873"
   y="253.54425" /></g>
	</g>
</g>

<text
   font-family="'Helvetica'"
   font-size="9px"
   id="text1312"
   style="font-style:normal;font-variant:normal;font-weight:normal;font-stretch:normal;font-family:'CMU Serif';-inkscape-font-specification:'CMU Serif'"
   x="333.40469"
   y="10.796995">C-Ni</text>
<g
   id="g1324"
   transform="translate(-84.831473,-245.742)">
	<g
   id="g1322">
		<g
   id="g1320">
			
				<line
   fill="none"
   stroke="#000000"
   stroke-width="0.5"
   stroke-linecap="round"
   stroke-linejoin="round"
   x1="414.436"
   y1="376.39099"
   x2="414.436"
   y2="374.39099"
   id="line1314" />
			
				<line
   fill="none"
   stroke="#000000"
   stroke-width="0.5"
   stroke-linecap="round"
   stroke-linejoin="round"
   stroke-dasharray="4.0693, 4.0693"
   x1="414.436"
   y1="370.32199"
   x2="414.436"
   y2="250.27699"
   id="line1316" />
			
				<line
   fill="none"
   stroke="#000000"
   stroke-width="0.5"
   stroke-linecap="round"
   stroke-linejoin="round"
   x1="414.436"
   y1="248.242"
   x2="414.436"
   y2="246.242"
   id="line1318" />
		</g>
	</g>
</g>
<g
   id="g1336"
   transform="translate(-84.831473,-245.742)">
	<g
   id="g1334">
		<g
   id="g1332">
			
				<line
   fill="none"
   stroke="#000000"
   stroke-width="0.5"
   stroke-linecap="round"
   stroke-linejoin="round"
   x1="370.39301"
   y1="376.39099"
   x2="370.39301"
   y2="374.39099"
   id="line1326" />
			
				<line
   fill="none"
   stroke="#000000"
   stroke-width="0.5"
   stroke-linecap="round"
   stroke-linejoin="round"
   stroke-dasharray="4.0693, 4.0693"
   x1="370.39301"
   y1="370.32199"
   x2="370.39301"
   y2="250.27699"
   id="line1328" />
			
				<line
   fill="none"
   stroke="#000000"
   stroke-width="0.5"
   stroke-linecap="round"
   stroke-linejoin="round"
   x1="370.39301"
   y1="248.242"
   x2="370.39301"
   y2="246.242"
   id="line1330" />
		</g>
	</g>
</g>
<text
   font-family="'Helvetica'"
   font-size="9px"
   id="text1338"
   style="font-style:normal;font-variant:normal;font-weight:normal;font-stretch:normal;font-family:'CMU Serif';-inkscape-font-specification:'CMU Serif'"
   x="357.29297"
   y="10.796995">C-Ti</text>
<text
   font-family="'Helvetica'"
   font-size="9px"
   id="text1340"
   style="font-style:normal;font-variant:normal;font-weight:normal;font-stretch:normal;font-family:'CMU Serif';-inkscape-font-specification:'CMU Serif'"
   x="310.89218"
   y="10.796995">C-B</text>
<text
   font-family="'Helvetica'"
   font-size="9px"
   id="text1342"
   style="font-style:normal;font-variant:normal;font-weight:normal;font-stretch:normal;font-family:'CMU Serif';-inkscape-font-specification:'CMU Serif'"
   x="269.17831"
   y="10.796995">C-C</text>
<g
   id="g1354"
   transform="translate(-84.831473,-245.742)">
	<g
   id="g1352">
		<g
   id="g1350">
			
				<line
   fill="none"
   stroke="#000000"
   stroke-width="0.5"
   stroke-linecap="round"
   stroke-linejoin="round"
   x1="439.93399"
   y1="376.39099"
   x2="439.93399"
   y2="374.39099"
   id="line1344" />
			
				<line
   fill="none"
   stroke="#000000"
   stroke-width="0.5"
   stroke-linecap="round"
   stroke-linejoin="round"
   stroke-dasharray="4.0693, 4.0693"
   x1="439.93399"
   y1="370.32199"
   x2="439.93399"
   y2="250.27699"
   id="line1346" />
			
				<line
   fill="none"
   stroke="#000000"
   stroke-width="0.5"
   stroke-linecap="round"
   stroke-linejoin="round"
   x1="439.93399"
   y1="248.242"
   x2="439.93399"
   y2="246.242"
   id="line1348" />
		</g>
	</g>
</g>











<text
   font-family="Helvetica"
   font-size="9px"
   id="text1530"
   style="stroke-width:1;stroke-miterlimit:10;stroke-dasharray:none"
   x="368.44559"
   y="43.854"><tspan
     style="font-style:normal;font-variant:normal;font-weight:normal;font-stretch:normal;font-family:'CMU Serif';-inkscape-font-specification:'CMU Serif';stroke-width:1;stroke-miterlimit:10;stroke-dasharray:none"
     id="tspan2804">Depth ()</tspan></text><g
   id="g1534"
   style="stroke-width:1;stroke-miterlimit:10;stroke-dasharray:none"
   transform="translate(-92.831706,-246.8853)">
				
					<line
   fill="none"
   stroke="#000000"
   stroke-width="0.5"
   stroke-linecap="round"
   stroke-linejoin="round"
   stroke-miterlimit="10"
   x1="464.672"
   y1="299.72299"
   x2="479.00601"
   y2="299.72299"
   id="line1532"
   style="stroke-width:1;stroke-miterlimit:10;stroke-dasharray:none" />
			</g><text
   font-family="Helvetica"
   font-size="8px"
   id="text1536"
   style="stroke-width:1;stroke-miterlimit:10;stroke-dasharray:none"
   x="390.17419"
   y="55.7729"> <tspan
   style="font-style:normal;font-variant:normal;font-weight:normal;font-stretch:normal;font-family:'CMU Serif';-inkscape-font-specification:'CMU Serif';stroke-width:1;stroke-miterlimit:10;stroke-dasharray:none"
   id="tspan2806">10</tspan></text><g
   id="g1542"
   style="stroke-width:1;stroke-miterlimit:10;stroke-dasharray:none"
   transform="translate(-92.831706,-246.8853)">
				
					<line
   fill="none"
   stroke="#ed1c24"
   stroke-width="0.5"
   stroke-linecap="round"
   stroke-linejoin="round"
   stroke-miterlimit="10"
   x1="464.672"
   y1="308.18201"
   x2="479.00601"
   y2="308.18201"
   id="line1540"
   style="stroke-width:1;stroke-miterlimit:10;stroke-dasharray:none" />
			</g><text
   font-family="Helvetica"
   font-size="8px"
   id="text1544"
   style="stroke-width:1;stroke-miterlimit:10;stroke-dasharray:none"
   x="390.17419"
   y="64.230904"> <tspan
   style="font-style:normal;font-variant:normal;font-weight:normal;font-stretch:normal;font-family:'CMU Serif';-inkscape-font-specification:'CMU Serif';stroke-width:1;stroke-miterlimit:10;stroke-dasharray:none"
   id="tspan2808">19</tspan></text><g
   id="g1550"
   style="stroke-width:1;stroke-miterlimit:10;stroke-dasharray:none"
   transform="translate(-92.831706,-246.8853)">
				
					<line
   fill="none"
   stroke="#00a651"
   stroke-width="0.5"
   stroke-linecap="round"
   stroke-linejoin="round"
   stroke-miterlimit="10"
   x1="464.672"
   y1="316.63901"
   x2="479.00601"
   y2="316.63901"
   id="line1548"
   style="stroke-width:1;stroke-miterlimit:10;stroke-dasharray:none" />
			</g><text
   font-family="Helvetica"
   font-size="8px"
   id="text1552"
   style="stroke-width:1;stroke-miterlimit:10;stroke-dasharray:none"
   x="390.17419"
   y="72.688904"> <tspan
   style="font-style:normal;font-variant:normal;font-weight:normal;font-stretch:normal;font-family:'CMU Serif';-inkscape-font-specification:'CMU Serif';stroke-width:1;stroke-miterlimit:10;stroke-dasharray:none"
   id="tspan2810">29</tspan></text><g
   id="g1558"
   style="stroke-width:1;stroke-miterlimit:10;stroke-dasharray:none"
   transform="translate(-92.831706,-246.8853)">
				
					<line
   fill="none"
   stroke="#2e3192"
   stroke-width="0.5"
   stroke-linecap="round"
   stroke-linejoin="round"
   stroke-miterlimit="10"
   x1="464.672"
   y1="325.09799"
   x2="479.00601"
   y2="325.09799"
   id="line1556"
   style="stroke-width:1;stroke-miterlimit:10;stroke-dasharray:none" />
			</g><text
   font-family="Helvetica"
   font-size="8px"
   id="text1560"
   style="stroke-width:1;stroke-miterlimit:10;stroke-dasharray:none"
   x="390.17419"
   y="81.147903"> <tspan
   style="font-style:normal;font-variant:normal;font-weight:normal;font-stretch:normal;font-family:'CMU Serif';-inkscape-font-specification:'CMU Serif';stroke-width:1;stroke-miterlimit:10;stroke-dasharray:none"
   id="tspan2812">39</tspan></text><g
   id="g1566"
   style="stroke-width:1;stroke-miterlimit:10;stroke-dasharray:none"
   transform="translate(-92.831706,-246.8853)">
				
					<line
   fill="none"
   stroke="#00aeef"
   stroke-width="0.5"
   stroke-linecap="round"
   stroke-linejoin="round"
   stroke-miterlimit="10"
   x1="464.672"
   y1="333.55499"
   x2="479.00601"
   y2="333.55499"
   id="line1564"
   style="stroke-width:1;stroke-miterlimit:10;stroke-dasharray:none" />
			</g><text
   font-family="Helvetica"
   font-size="8px"
   id="text1568"
   style="stroke-width:1;stroke-miterlimit:10;stroke-dasharray:none"
   x="390.17419"
   y="89.605904"><tspan
     style="font-style:normal;font-variant:normal;font-weight:normal;font-stretch:normal;font-family:'CMU Serif';-inkscape-font-specification:'CMU Serif';stroke-width:1;stroke-miterlimit:10;stroke-dasharray:none"
     id="tspan2814"> 49</tspan></text><g
   id="g1574"
   style="stroke-width:1;stroke-miterlimit:10;stroke-dasharray:none"
   transform="translate(-92.831706,-246.8853)">
				
					<line
   fill="none"
   stroke="#ec008c"
   stroke-width="0.5"
   stroke-linecap="round"
   stroke-linejoin="round"
   stroke-miterlimit="10"
   x1="464.672"
   y1="342.01401"
   x2="479.00601"
   y2="342.01401"
   id="line1572"
   style="stroke-width:1;stroke-miterlimit:10;stroke-dasharray:none" />
			</g><text
   font-family="Helvetica"
   font-size="8px"
   id="text1576"
   style="stroke-width:1;stroke-miterlimit:10;stroke-dasharray:none"
   x="390.17419"
   y="98.063904"> <tspan
   style="font-style:normal;font-variant:normal;font-weight:normal;font-stretch:normal;font-family:'CMU Serif';-inkscape-font-specification:'CMU Serif';stroke-width:1;stroke-miterlimit:10;stroke-dasharray:none"
   id="tspan2816">59</tspan></text><g
   id="g1582"
   style="stroke-width:1;stroke-miterlimit:10;stroke-dasharray:none"
   transform="translate(-92.831706,-246.8853)">
				
					<line
   fill="none"
   stroke="#e9cb54"
   stroke-width="0.5"
   stroke-linecap="round"
   stroke-linejoin="round"
   stroke-miterlimit="10"
   x1="464.672"
   y1="350.47299"
   x2="479.00601"
   y2="350.47299"
   id="line1580"
   style="stroke-width:1;stroke-miterlimit:10;stroke-dasharray:none" />
			</g><text
   font-family="Helvetica"
   font-size="8px"
   id="text1584"
   style="stroke-width:1;stroke-miterlimit:10;stroke-dasharray:none"
   x="390.17419"
   y="106.5219"> <tspan
   style="font-style:normal;font-variant:normal;font-weight:normal;font-stretch:normal;font-family:'CMU Serif';-inkscape-font-specification:'CMU Serif';stroke-width:1;stroke-miterlimit:10;stroke-dasharray:none"
   id="tspan2818">68</tspan></text><g
   id="g1590"
   style="stroke-width:1;stroke-miterlimit:10;stroke-dasharray:none"
   transform="translate(-92.831706,-246.8853)">
				
					<line
   fill="none"
   stroke="#947f3a"
   stroke-width="0.5"
   stroke-linecap="round"
   stroke-linejoin="round"
   stroke-miterlimit="10"
   x1="464.672"
   y1="358.92999"
   x2="479.00601"
   y2="358.92999"
   id="line1588"
   style="stroke-width:1;stroke-miterlimit:10;stroke-dasharray:none" />
			</g><text
   font-family="Helvetica"
   font-size="8px"
   id="text1592"
   style="stroke-width:1;stroke-miterlimit:10;stroke-dasharray:none"
   x="390.17419"
   y="114.9809"> <tspan
   style="font-style:normal;font-variant:normal;font-weight:normal;font-stretch:normal;font-family:'CMU Serif';-inkscape-font-specification:'CMU Serif';stroke-width:1;stroke-miterlimit:10;stroke-dasharray:none"
   id="tspan2820">78</tspan></text><g
   id="g1598"
   style="stroke-width:1;stroke-miterlimit:10;stroke-dasharray:none"
   transform="translate(-92.831706,-246.8853)">
				
					<line
   fill="none"
   stroke="#343465"
   stroke-width="0.5"
   stroke-linecap="round"
   stroke-linejoin="round"
   stroke-miterlimit="10"
   x1="464.672"
   y1="367.38901"
   x2="479.00601"
   y2="367.38901"
   id="line1596"
   style="stroke-width:1;stroke-miterlimit:10;stroke-dasharray:none" />
			</g><text
   font-family="Helvetica"
   font-size="8px"
   id="text1600"
   style="stroke-width:1;stroke-miterlimit:10;stroke-dasharray:none"
   x="390.17419"
   y="123.4389"> <tspan
   style="font-style:normal;font-variant:normal;font-weight:normal;font-stretch:normal;font-family:'CMU Serif';-inkscape-font-specification:'CMU Serif';stroke-width:1;stroke-miterlimit:10;stroke-dasharray:none"
   id="tspan2822">88</tspan></text>




<text
   font-family="'Helvetica'"
   font-size="10px"
   id="text1692"
   style="font-style:normal;font-variant:normal;font-weight:normal;font-stretch:normal;font-family:'CMU Serif';-inkscape-font-specification:'CMU Serif'"
   x="240.11974"
   y="14.105691" />
<text
   font-family="'MyriadPro-Regular'"
   font-size="9px"
   id="text1694"
   style="font-style:normal;font-variant:normal;font-weight:normal;font-stretch:normal;font-family:'CMU Serif';-inkscape-font-specification:'CMU Serif'"
   x="376.30203"
   y="14.145747" />
<text
   font-family="'MyriadPro-Regular'"
   font-size="5.247px"
   id="text1696"
   style="font-style:normal;font-variant:normal;font-weight:normal;font-stretch:normal;font-family:'CMU Serif';-inkscape-font-specification:'CMU Serif';stroke-width:0.583"
   x="402.70462"
   y="17.265791" />
<text
   font-family="'MyriadPro-Regular'"
   font-size="9px"
   id="text1698"
   style="font-style:normal;font-variant:normal;font-weight:normal;font-stretch:normal;font-family:'CMU Serif';-inkscape-font-specification:'CMU Serif'"
   x="405.39603"
   y="14.268691" />
<text
   font-family="'Helvetica'"
   font-size="9px"
   id="text1700"
   style="font-style:normal;font-variant:normal;font-weight:normal;font-stretch:normal;font-family:'CMU Serif';-inkscape-font-specification:'CMU Serif'"
   x="135.38373"
   y="10.796995">C-Ti</text>
<text
   font-family="'Helvetica'"
   font-size="9px"
   id="text1702"
   style="font-style:normal;font-variant:normal;font-weight:normal;font-stretch:normal;font-family:'CMU Serif';-inkscape-font-specification:'CMU Serif'"
   x="89.303307"
   y="10.796995">C-B</text>
<text
   font-family="'Helvetica'"
   font-size="9px"
   id="text1704"
   style="font-style:normal;font-variant:normal;font-weight:normal;font-stretch:normal;font-family:'CMU Serif';-inkscape-font-specification:'CMU Serif'"
   x="46.220303"
   y="10.796995">C-C</text>

<text
   font-family="'MyriadPro-Regular'"
   font-size="9px"
   id="text1708"
   style="font-style:normal;font-variant:normal;font-weight:normal;font-stretch:normal;font-family:'CMU Serif';-inkscape-font-specification:'CMU Serif'"
   x="159.18022"
   y="14.268691" />

<text
   font-family="'MyriadPro-Regular'"
   font-size="9px"
   id="text1712"
   style="font-style:normal;font-variant:normal;font-weight:normal;font-stretch:normal;font-family:'CMU Serif';-inkscape-font-specification:'CMU Serif'"
   x="182.79643"
   y="14.268691" />










<text
   font-family="Helvetica"
   font-size="9px"
   id="text1814"
   style="stroke-width:1.09;stroke-miterlimit:10;stroke-dasharray:none"
   x="144.53259"
   y="43.853699"><tspan
     style="font-style:normal;font-variant:normal;font-weight:normal;font-stretch:normal;font-family:'CMU Serif';-inkscape-font-specification:'CMU Serif';stroke-width:1.09;stroke-miterlimit:10;stroke-dasharray:none"
     id="tspan2784">Depth ()</tspan></text><g
   id="g1818"
   style="stroke-width:1.09;stroke-miterlimit:10;stroke-dasharray:none"
   transform="translate(-94.831206,-245.742)">
			
				<line
   fill="none"
   stroke="#000000"
   stroke-width="0.5"
   stroke-linecap="round"
   stroke-linejoin="round"
   stroke-miterlimit="10"
   x1="242.05"
   y1="298.57999"
   x2="256.384"
   y2="298.57999"
   id="line1816"
   style="stroke-width:1.09;stroke-miterlimit:10;stroke-dasharray:none" />
		</g><text
   font-family="Helvetica"
   font-size="8px"
   id="text1820"
   style="stroke-width:1.09;stroke-miterlimit:10;stroke-dasharray:none"
   x="165.55209"
   y="55.772598"> <tspan
   style="font-style:normal;font-variant:normal;font-weight:normal;font-stretch:normal;font-family:'CMU Serif';-inkscape-font-specification:'CMU Serif';stroke-width:1.09;stroke-miterlimit:10;stroke-dasharray:none"
   id="tspan2786">13</tspan></text><g
   id="g1826"
   style="stroke-width:1.09;stroke-miterlimit:10;stroke-dasharray:none"
   transform="translate(-94.831206,-245.742)">
			
				<line
   fill="none"
   stroke="#ed1c24"
   stroke-width="0.5"
   stroke-linecap="round"
   stroke-linejoin="round"
   stroke-miterlimit="10"
   x1="242.05"
   y1="307.039"
   x2="256.384"
   y2="307.039"
   id="line1824"
   style="stroke-width:1.09;stroke-miterlimit:10;stroke-dasharray:none" />
		</g><text
   font-family="Helvetica"
   font-size="8px"
   id="text1828"
   style="stroke-width:1.09;stroke-miterlimit:10;stroke-dasharray:none"
   x="165.55209"
   y="64.231598"> <tspan
   style="font-style:normal;font-variant:normal;font-weight:normal;font-stretch:normal;font-family:'CMU Serif';-inkscape-font-specification:'CMU Serif';stroke-width:1.09;stroke-miterlimit:10;stroke-dasharray:none"
   id="tspan2788">26</tspan></text><g
   id="g1834"
   style="stroke-width:1.09;stroke-miterlimit:10;stroke-dasharray:none"
   transform="translate(-94.831206,-245.742)">
			
				<line
   fill="none"
   stroke="#00a651"
   stroke-width="0.5"
   stroke-linecap="round"
   stroke-linejoin="round"
   stroke-miterlimit="10"
   x1="242.05"
   y1="315.49701"
   x2="256.384"
   y2="315.49701"
   id="line1832"
   style="stroke-width:1.09;stroke-miterlimit:10;stroke-dasharray:none" />
		</g><text
   font-family="Helvetica"
   font-size="8px"
   id="text1836"
   style="stroke-width:1.09;stroke-miterlimit:10;stroke-dasharray:none"
   x="165.55209"
   y="72.689598"> <tspan
   style="font-style:normal;font-variant:normal;font-weight:normal;font-stretch:normal;font-family:'CMU Serif';-inkscape-font-specification:'CMU Serif';stroke-width:1.09;stroke-miterlimit:10;stroke-dasharray:none"
   id="tspan2790">39</tspan></text><g
   id="g1842"
   style="stroke-width:1.09;stroke-miterlimit:10;stroke-dasharray:none"
   transform="translate(-94.831206,-245.742)">
			
				<line
   fill="none"
   stroke="#2e3192"
   stroke-width="0.5"
   stroke-linecap="round"
   stroke-linejoin="round"
   stroke-miterlimit="10"
   x1="242.05"
   y1="323.95499"
   x2="256.384"
   y2="323.95499"
   id="line1840"
   style="stroke-width:1.09;stroke-miterlimit:10;stroke-dasharray:none" />
		</g><text
   font-family="Helvetica"
   font-size="8px"
   id="text1844"
   style="stroke-width:1.09;stroke-miterlimit:10;stroke-dasharray:none"
   x="165.55209"
   y="81.148598"> <tspan
   style="font-style:normal;font-variant:normal;font-weight:normal;font-stretch:normal;font-family:'CMU Serif';-inkscape-font-specification:'CMU Serif';stroke-width:1.09;stroke-miterlimit:10;stroke-dasharray:none"
   id="tspan2794">52</tspan></text><g
   id="g1850"
   style="stroke-width:1.09;stroke-miterlimit:10;stroke-dasharray:none"
   transform="translate(-94.831206,-245.742)">
			
				<line
   fill="none"
   stroke="#00aeef"
   stroke-width="0.5"
   stroke-linecap="round"
   stroke-linejoin="round"
   stroke-miterlimit="10"
   x1="242.05"
   y1="332.41299"
   x2="256.384"
   y2="332.41299"
   id="line1848"
   style="stroke-width:1.09;stroke-miterlimit:10;stroke-dasharray:none" />
		</g><text
   font-family="Helvetica"
   font-size="8px"
   id="text1852"
   style="stroke-width:1.09;stroke-miterlimit:10;stroke-dasharray:none"
   x="165.55209"
   y="89.606598"> <tspan
   style="font-style:normal;font-variant:normal;font-weight:normal;font-stretch:normal;font-family:'CMU Serif';-inkscape-font-specification:'CMU Serif';stroke-width:1.09;stroke-miterlimit:10;stroke-dasharray:none"
   id="tspan2792">65</tspan></text><g
   id="g1858"
   style="stroke-width:1.09;stroke-miterlimit:10;stroke-dasharray:none"
   transform="translate(-94.831206,-245.742)">
			
				<line
   fill="none"
   stroke="#ec008c"
   stroke-width="0.5"
   stroke-linecap="round"
   stroke-linejoin="round"
   stroke-miterlimit="10"
   x1="242.05"
   y1="340.871"
   x2="256.384"
   y2="340.871"
   id="line1856"
   style="stroke-width:1.09;stroke-miterlimit:10;stroke-dasharray:none" />
		</g><text
   font-family="Helvetica"
   font-size="8px"
   id="text1860"
   style="stroke-width:1.09;stroke-miterlimit:10;stroke-dasharray:none"
   x="165.55209"
   y="98.063698"> <tspan
   style="font-style:normal;font-variant:normal;font-weight:normal;font-stretch:normal;font-family:'CMU Serif';-inkscape-font-specification:'CMU Serif';stroke-width:1.09;stroke-miterlimit:10;stroke-dasharray:none"
   id="tspan2796">78</tspan></text><g
   id="g1866"
   style="stroke-width:1.09;stroke-miterlimit:10;stroke-dasharray:none"
   transform="translate(-94.831206,-245.742)">
			
				<line
   fill="none"
   stroke="#e9cb54"
   stroke-width="0.5"
   stroke-linecap="round"
   stroke-linejoin="round"
   stroke-miterlimit="10"
   x1="242.05"
   y1="349.32999"
   x2="256.384"
   y2="349.32999"
   id="line1864"
   style="stroke-width:1.09;stroke-miterlimit:10;stroke-dasharray:none" />
		</g><text
   font-family="Helvetica"
   font-size="8px"
   id="text1868"
   style="stroke-width:1.09;stroke-miterlimit:10;stroke-dasharray:none"
   x="165.55209"
   y="106.5226"> <tspan
   style="font-style:normal;font-variant:normal;font-weight:normal;font-stretch:normal;font-family:'CMU Serif';-inkscape-font-specification:'CMU Serif';stroke-width:1.09;stroke-miterlimit:10;stroke-dasharray:none"
   id="tspan2798">90</tspan></text><g
   id="g1874"
   style="stroke-width:1.09;stroke-miterlimit:10;stroke-dasharray:none"
   transform="translate(-94.831206,-245.742)">
			
				<line
   fill="none"
   stroke="#947f3a"
   stroke-width="0.5"
   stroke-linecap="round"
   stroke-linejoin="round"
   stroke-miterlimit="10"
   x1="242.05"
   y1="357.78799"
   x2="256.384"
   y2="357.78799"
   id="line1872"
   style="stroke-width:1.09;stroke-miterlimit:10;stroke-dasharray:none" />
		</g><text
   font-family="Helvetica"
   font-size="8px"
   id="text1876"
   style="stroke-width:1.09;stroke-miterlimit:10;stroke-dasharray:none"
   x="165.55209"
   y="114.9807"> <tspan
   style="font-style:normal;font-variant:normal;font-weight:normal;font-stretch:normal;font-family:'CMU Serif';-inkscape-font-specification:'CMU Serif';stroke-width:1.09;stroke-miterlimit:10;stroke-dasharray:none"
   id="tspan2800">103</tspan></text><g
   id="g1882"
   style="stroke-width:1.09;stroke-miterlimit:10;stroke-dasharray:none"
   transform="translate(-94.831206,-245.742)">
			
				<line
   fill="none"
   stroke="#343465"
   stroke-width="0.5"
   stroke-linecap="round"
   stroke-linejoin="round"
   stroke-miterlimit="10"
   x1="242.05"
   y1="366.246"
   x2="256.384"
   y2="366.246"
   id="line1880"
   style="stroke-width:1.09;stroke-miterlimit:10;stroke-dasharray:none" />
		</g><text
   font-family="Helvetica"
   font-size="8px"
   id="text1884"
   style="stroke-width:1.09;stroke-miterlimit:10;stroke-dasharray:none"
   x="165.55209"
   y="123.4396"> <tspan
   style="font-style:normal;font-variant:normal;font-weight:normal;font-stretch:normal;font-family:'CMU Serif';-inkscape-font-specification:'CMU Serif';stroke-width:1.09;stroke-miterlimit:10;stroke-dasharray:none"
   id="tspan2802">116</tspan></text>
<text
   font-family="'Helvetica'"
   font-size="9px"
   id="text1890"
   style="font-style:normal;font-variant:normal;font-weight:normal;font-stretch:normal;font-family:'CMU Serif';-inkscape-font-specification:'CMU Serif'"
   x="110.19424"
   y="10.797154">C-Ni</text>
<text
   xml:space="preserve"
   style="font-size:9px;line-height:1.25;font-family:'CMU Serif';-inkscape-font-specification:'CMU Serif'"
   x="16.150566"
   y="10.796995"
   id="text2742"><tspan
     sodipodi:role="line"
     id="tspan2740"
     x="16.150566"
     y="10.796995"
     style="font-size:9px">C1s</tspan></text><text
   xml:space="preserve"
   style="font-size:9px;line-height:1.25;font-family:'CMU Serif';-inkscape-font-specification:'CMU Serif'"
   x="239.46265"
   y="10.448176"
   id="text2742-6"><tspan
     sodipodi:role="line"
     id="tspan2740-2"
     x="239.46265"
     y="10.448176"
     style="font-size:9px">C1s</tspan></text><rect
   style="fill:#ffffff;fill-opacity:1;stroke:#000000;stroke-width:0.569152;stroke-linejoin:round;stroke-miterlimit:10;stroke-dasharray:none;stroke-opacity:1"
   id="rect2867"
   width="58.164284"
   height="13.692379"
   x="16.864464"
   y="113.63357" /><text
   xml:space="preserve"
   style="font-size:9px;line-height:1.25;font-family:'CMU Serif';-inkscape-font-specification:'CMU Serif'"
   x="18.161722"
   y="123.31493"
   id="text2764-7"><tspan
     sodipodi:role="line"
     id="tspan2762-8"
     x="18.161722"
     y="123.31493"
     style="font-size:9px">\natBC = 0 W</tspan></text><rect
   style="fill:#ffffff;fill-opacity:1;stroke:#000000;stroke-width:0.546655;stroke-linejoin:round;stroke-miterlimit:10;stroke-dasharray:none;stroke-opacity:1"
   id="rect2867-5"
   width="58.192696"
   height="13.698907"
   x="238.81085"
   y="113.6093" /><text
   xml:space="preserve"
   style="font-size:9px;line-height:1.25;font-family:'CMU Serif';-inkscape-font-specification:'CMU Serif'"
   x="240.11137"
   y="123.29395"
   id="text2764-7-3"><tspan
     sodipodi:role="line"
     id="tspan2762-8-8"
     x="240.11137"
     y="123.29395"
     style="font-size:9px">\natBC = 70 W</tspan></text><text
   xml:space="preserve"
   style="font-size:12px;line-height:1.25;font-family:'CMU Serif';-inkscape-font-specification:'CMU Serif';text-align:center;text-anchor:middle"
   x="103.28603"
   y="157.41296"
   id="text49522"><tspan
     sodipodi:role="line"
     id="tspan49520"
     x="103.28603"
     y="157.41296"
     style="font-size:12px">Binding energy E(eV)</tspan></text><text
   xml:space="preserve"
   style="font-size:12px;line-height:1.25;font-family:'CMU Serif';-inkscape-font-specification:'CMU Serif';text-align:center;text-anchor:middle"
   x="330.22952"
   y="155.94998"
   id="text49522-5"><tspan
     sodipodi:role="line"
     id="tspan49520-8"
     x="330.22952"
     y="155.94998"
     style="font-size:12px">Binding energy E(eV)</tspan></text></svg>
