<?xml version="1.0" encoding="UTF-8" standalone="no"?>
<svg
   width="456.83435pt"
   height="287.54749pt"
   viewBox="0 0 456.83434 287.54749"
   version="1.1"
   id="svg1054"
   sodipodi:docname="outlook.svg"
   inkscape:version="1.2.2 (732a01da63, 2022-12-09)"
   xmlns:inkscape="http://www.inkscape.org/namespaces/inkscape"
   xmlns:sodipodi="http://sodipodi.sourceforge.net/DTD/sodipodi-0.dtd"
   xmlns:xlink="http://www.w3.org/1999/xlink"
   xmlns="http://www.w3.org/2000/svg"
   xmlns:svg="http://www.w3.org/2000/svg"
   xmlns:rdf="http://www.w3.org/1999/02/22-rdf-syntax-ns#"
   xmlns:cc="http://creativecommons.org/ns#"
   xmlns:dc="http://purl.org/dc/elements/1.1/">
  <sodipodi:namedview
     id="namedview1056"
     pagecolor="#ffffff"
     bordercolor="#666666"
     borderopacity="1.0"
     inkscape:pageshadow="2"
     inkscape:pageopacity="0.0"
     inkscape:pagecheckerboard="0"
     inkscape:document-units="pt"
     showgrid="false"
     inkscape:zoom="4.0902544"
     inkscape:cx="404.0091"
     inkscape:cy="242.03873"
     inkscape:window-width="1920"
     inkscape:window-height="1009"
     inkscape:window-x="2552"
     inkscape:window-y="358"
     inkscape:window-maximized="1"
     inkscape:current-layer="axes_1"
     fit-margin-top="0"
     fit-margin-left="0"
     fit-margin-right="0"
     fit-margin-bottom="0"
     showguides="false"
     inkscape:showpageshadow="2"
     inkscape:deskcolor="#d1d1d1" />
  <metadata
     id="metadata2">
    <rdf:RDF>
      <cc:Work>
        <dc:type
           rdf:resource="http://purl.org/dc/dcmitype/StillImage" />
        <dc:date>2022-05-13T11:33:37.833588</dc:date>
        <dc:format>image/svg+xml</dc:format>
        <dc:creator>
          <cc:Agent>
            <dc:title>Matplotlib v3.5.1, https://matplotlib.org/</dc:title>
          </cc:Agent>
        </dc:creator>
      </cc:Work>
    </rdf:RDF>
  </metadata>
  <defs
     id="defs6">
    <marker
       style="overflow:visible"
       id="TriangleStart"
       refX="0"
       refY="0"
       orient="auto-start-reverse"
       inkscape:stockid="TriangleStart"
       markerWidth="5"
       markerHeight="7"
       viewBox="0 0 4.9916334 5.6666178"
       inkscape:isstock="true"
       inkscape:collect="always"
       preserveAspectRatio="none">
      <path
         transform="scale(0.5)"
         style="fill:context-stroke;fill-rule:evenodd;stroke:context-stroke;stroke-width:1pt"
         d="M 5.77,0 -2.88,5 V -5 Z"
         id="path135" />
    </marker>
    <style
       type="text/css"
       id="style4">*{stroke-linejoin: round; stroke-linecap: butt}</style>
    <marker
       style="overflow:visible"
       id="TriangleInM"
       refX="0"
       refY="0"
       orient="auto"
       inkscape:stockid="TriangleInM"
       inkscape:isstock="true">
      <path
         transform="scale(-0.4)"
         style="fill:context-stroke;fill-rule:evenodd;stroke:context-stroke;stroke-width:1pt"
         d="M 5.77,0 -2.88,5 V -5 Z"
         id="path151186" />
    </marker>
    <marker
       style="overflow:visible"
       id="TriangleOutM"
       refX="0"
       refY="0"
       orient="auto"
       inkscape:stockid="TriangleOutM"
       inkscape:isstock="true"
       viewBox="0 0 3.9933067 4.5332943"
       markerWidth="3.9933066"
       markerHeight="4.5332942"
       preserveAspectRatio="xMidYMid">
      <path
         transform="scale(0.4)"
         style="fill:context-stroke;fill-rule:evenodd;stroke:context-stroke;stroke-width:1pt"
         d="M 5.77,0 -2.88,5 V -5 Z"
         id="path151195" />
    </marker>
  </defs>
  <g
     id="figure_1"
     transform="translate(-5.357581,-38.101831)">
    <g
       fill="none"
       stroke="#000000"
       stroke-opacity="1"
       stroke-width="1"
       stroke-linecap="square"
       stroke-linejoin="bevel"
       transform="matrix(0.74999921,0,0,0.5838614,-4.8358241,288.25736)"
       font-family="Cantarell"
       font-size="24.7742px"
       font-weight="700"
       font-style="normal"
       id="g148" />
    <g
       id="axes_1"
       style="stroke-width:1.8;stroke-miterlimit:4;stroke-dasharray:none"
       transform="translate(-4.6105685,16.357956)">
      <g
         id="matplotlib.axis_1"
         style="stroke-width:1.8;stroke-miterlimit:4;stroke-dasharray:none"
         transform="matrix(1,0,0,0.77848269,0,1.854998)">
        <g
           id="xtick_1"
           style="stroke-width:1.8;stroke-miterlimit:4;stroke-dasharray:none">
          <g
             id="line2d_1"
             style="stroke-width:1.8;stroke-miterlimit:4;stroke-dasharray:none">
            <defs
               id="defs15">
              <path
                 id="m6579073822"
                 d="M 0,0 V 3.5"
                 style="stroke:#000000;stroke-width:0.8" />
            </defs>
            <g
               id="g19"
               style="stroke-width:1.8;stroke-miterlimit:4;stroke-dasharray:none">
              <use
                 xlink:href="#m6579073822"
                 x="115.07913"
                 y="351.96375"
                 style="stroke:#000000;stroke-width:1.8;stroke-miterlimit:4;stroke-dasharray:none"
                 id="use17"
                 width="100%"
                 height="100%" />
            </g>
          </g>
        </g>
        <g
           id="xtick_2"
           style="stroke-width:1.8;stroke-miterlimit:4;stroke-dasharray:none">
          <g
             id="line2d_2"
             style="stroke-width:1.8;stroke-miterlimit:4;stroke-dasharray:none">
            <g
               id="g39"
               style="stroke-width:1.8;stroke-miterlimit:4;stroke-dasharray:none">
              <use
                 xlink:href="#m6579073822"
                 x="185.32767"
                 y="351.96375"
                 style="stroke:#000000;stroke-width:1.8;stroke-miterlimit:4;stroke-dasharray:none"
                 id="use37"
                 width="100%"
                 height="100%" />
            </g>
          </g>
        </g>
        <g
           id="xtick_3"
           style="stroke-width:1.8;stroke-miterlimit:4;stroke-dasharray:none">
          <g
             id="line2d_3"
             style="stroke-width:1.8;stroke-miterlimit:4;stroke-dasharray:none">
            <g
               id="g57"
               style="stroke-width:1.8;stroke-miterlimit:4;stroke-dasharray:none">
              <use
                 xlink:href="#m6579073822"
                 x="255.57622"
                 y="351.96375"
                 style="stroke:#000000;stroke-width:1.8;stroke-miterlimit:4;stroke-dasharray:none"
                 id="use55"
                 width="100%"
                 height="100%" />
            </g>
          </g>
        </g>
        <g
           id="xtick_4"
           style="stroke-width:1.8;stroke-miterlimit:4;stroke-dasharray:none">
          <g
             id="line2d_4"
             style="stroke-width:1.8;stroke-miterlimit:4;stroke-dasharray:none">
            <g
               id="g72"
               style="stroke-width:1.8;stroke-miterlimit:4;stroke-dasharray:none">
              <use
                 xlink:href="#m6579073822"
                 x="325.82477"
                 y="351.96375"
                 style="stroke:#000000;stroke-width:1.8;stroke-miterlimit:4;stroke-dasharray:none"
                 id="use70"
                 width="100%"
                 height="100%" />
            </g>
          </g>
          <g
             id="text_4"
             style="stroke-width:1.8;stroke-miterlimit:4;stroke-dasharray:none">
            <!-- 2.0 -->
          </g>
        </g>
        <g
           id="xtick_5"
           style="stroke-width:1.8;stroke-miterlimit:4;stroke-dasharray:none">
          <g
             id="line2d_5"
             style="stroke-width:1.8;stroke-miterlimit:4;stroke-dasharray:none">
            <g
               id="g90"
               style="stroke-width:1.8;stroke-miterlimit:4;stroke-dasharray:none">
              <use
                 xlink:href="#m6579073822"
                 x="396.0733"
                 y="351.96375"
                 style="stroke:#000000;stroke-width:1.8;stroke-miterlimit:4;stroke-dasharray:none"
                 id="use88"
                 width="100%"
                 height="100%" />
            </g>
          </g>
        </g>
      </g>
      <g
         id="matplotlib.axis_2"
         style="stroke-width:1.8;stroke-miterlimit:4;stroke-dasharray:none"
         transform="matrix(1,0,0,0.77848269,0,4.1904462)">
        <g
           id="ytick_1"
           style="stroke-width:1.8;stroke-miterlimit:4;stroke-dasharray:none">
          <g
             id="line2d_6"
             style="stroke-width:1.8;stroke-miterlimit:4;stroke-dasharray:none">
            <defs
               id="defs131">
              <path
                 id="md86d3ca5e3"
                 d="M 0,0 H -3.5"
                 style="stroke:#000000;stroke-width:0.8" />
            </defs>
            <g
               id="g135"
               style="stroke-width:1.8;stroke-miterlimit:4;stroke-dasharray:none">
              <use
                 xlink:href="#md86d3ca5e3"
                 x="47.381248"
                 y="347.63864"
                 style="stroke:#000000;stroke-width:1.8;stroke-miterlimit:4;stroke-dasharray:none"
                 id="use133"
                 width="100%"
                 height="100%" />
            </g>
          </g>
        </g>
        <g
           id="ytick_2"
           style="stroke-width:1.8;stroke-miterlimit:4;stroke-dasharray:none">
          <g
             id="line2d_7"
             style="stroke-width:1.8;stroke-miterlimit:4;stroke-dasharray:none">
            <g
               id="g150"
               style="stroke-width:1.8;stroke-miterlimit:4;stroke-dasharray:none">
              <use
                 xlink:href="#md86d3ca5e3"
                 x="47.381248"
                 y="284.12018"
                 style="stroke:#000000;stroke-width:1.8;stroke-miterlimit:4;stroke-dasharray:none"
                 id="use148"
                 width="100%"
                 height="100%" />
            </g>
          </g>
        </g>
        <g
           id="ytick_3"
           style="stroke-width:1.8;stroke-miterlimit:4;stroke-dasharray:none">
          <g
             id="line2d_8"
             style="stroke-width:1.8;stroke-miterlimit:4;stroke-dasharray:none">
            <g
               id="g165"
               style="stroke-width:1.8;stroke-miterlimit:4;stroke-dasharray:none">
              <use
                 xlink:href="#md86d3ca5e3"
                 x="47.381248"
                 y="220.60172"
                 style="stroke:#000000;stroke-width:1.8;stroke-miterlimit:4;stroke-dasharray:none"
                 id="use163"
                 width="100%"
                 height="100%" />
            </g>
          </g>
        </g>
        <g
           id="ytick_4"
           style="stroke-width:1.8;stroke-miterlimit:4;stroke-dasharray:none">
          <g
             id="line2d_9"
             style="stroke-width:1.8;stroke-miterlimit:4;stroke-dasharray:none">
            <g
               id="g183"
               style="stroke-width:1.8;stroke-miterlimit:4;stroke-dasharray:none">
              <use
                 xlink:href="#md86d3ca5e3"
                 x="47.381248"
                 y="157.08324"
                 style="stroke:#000000;stroke-width:1.8;stroke-miterlimit:4;stroke-dasharray:none"
                 id="use181"
                 width="100%"
                 height="100%" />
            </g>
          </g>
        </g>
        <g
           id="ytick_5"
           style="stroke-width:1.8;stroke-miterlimit:4;stroke-dasharray:none">
          <g
             id="line2d_10"
             style="stroke-width:1.8;stroke-miterlimit:4;stroke-dasharray:none">
            <g
               id="g201"
               style="stroke-width:1.8;stroke-miterlimit:4;stroke-dasharray:none">
              <use
                 xlink:href="#md86d3ca5e3"
                 x="47.381248"
                 y="93.564774"
                 style="stroke:#000000;stroke-width:1.8;stroke-miterlimit:4;stroke-dasharray:none"
                 id="use199"
                 width="100%"
                 height="100%" />
            </g>
          </g>
        </g>
        <g
           id="ytick_6"
           style="stroke-width:1.8;stroke-miterlimit:4;stroke-dasharray:none">
          <g
             id="line2d_11"
             style="stroke-width:1.8;stroke-miterlimit:4;stroke-dasharray:none">
            <g
               id="g219"
               style="stroke-width:1.8;stroke-miterlimit:4;stroke-dasharray:none">
              <use
                 xlink:href="#md86d3ca5e3"
                 x="47.381248"
                 y="30.046309"
                 style="stroke:#000000;stroke-width:1.8;stroke-miterlimit:4;stroke-dasharray:none"
                 id="use217"
                 width="100%"
                 height="100%" />
            </g>
          </g>
          <g
             id="text_12"
             style="stroke-width:1.8;stroke-miterlimit:4;stroke-dasharray:none"
             transform="translate(0.12965699)">
            <!-- 1.0 -->
            <text
               xml:space="preserve"
               style="font-size:36.2682px;line-height:1.25;font-family:'CMU Serif';-inkscape-font-specification:'CMU Serif';text-align:center;text-anchor:middle;stroke-width:1.53006"
               x="7.6407309"
               y="179.46268"
               id="text9748"
               transform="scale(0.88231666,1.1333799)"><tspan
                 sodipodi:role="line"
                 id="tspan9746"
                 style="stroke-width:1.53006"
                 x="7.6407309"
                 y="179.46268" /></text>
            <text
               xml:space="preserve"
               style="font-size:15.8673px;line-height:1.25;font-family:'CMU Serif';-inkscape-font-specification:'CMU Serif';text-align:center;text-anchor:middle;stroke-width:1.53006"
               x="-167.04102"
               y="23.051226"
               id="text9752"
               transform="matrix(0,-1.13338,0.88231662,0,0,0)"><tspan
                 sodipodi:role="line"
                 id="tspan9750"
                 style="font-size:15.8673px;stroke-width:1.53006"
                 x="-167.04102"
                 y="23.051226">Reflectivity (arb. u)</tspan></text>
            <text
               xml:space="preserve"
               style="font-size:15.8673px;line-height:1.25;font-family:'CMU Serif';-inkscape-font-specification:'CMU Serif';text-align:end;text-anchor:end;stroke-width:1.53006"
               x="47.040787"
               y="309.9718"
               id="text35576"
               transform="scale(0.88231668,1.1333799)"><tspan
                 sodipodi:role="line"
                 id="tspan35574"
                 style="font-size:15.8673px;text-align:end;text-anchor:end;stroke-width:1.53006"
                 x="47.040787"
                 y="309.9718">0</tspan></text>
            <text
               xml:space="preserve"
               style="font-size:15.8673px;line-height:1.25;font-family:'CMU Serif';-inkscape-font-specification:'CMU Serif';stroke-width:1.53006"
               x="31.173468"
               y="252.82324"
               id="text35580"
               transform="scale(0.88231668,1.1333799)"><tspan
                 sodipodi:role="line"
                 id="tspan35578"
                 style="font-size:15.8673px;stroke-width:1.53006"
                 x="31.173468"
                 y="252.82324">20</tspan></text>
            <text
               xml:space="preserve"
               style="font-size:15.8673px;line-height:1.25;font-family:'CMU Serif';-inkscape-font-specification:'CMU Serif';stroke-width:1.53006"
               x="31.320417"
               y="196.53911"
               id="text35584"
               transform="scale(0.88231668,1.1333799)"><tspan
                 sodipodi:role="line"
                 id="tspan35582"
                 style="font-size:15.8673px;stroke-width:1.53006"
                 x="31.320417"
                 y="196.53911">40</tspan></text>
            <text
               xml:space="preserve"
               style="font-size:15.8673px;line-height:1.25;font-family:'CMU Serif';-inkscape-font-specification:'CMU Serif';stroke-width:1.53006"
               x="31.173468"
               y="142.48775"
               id="text35588"
               transform="scale(0.88231668,1.1333799)"><tspan
                 sodipodi:role="line"
                 id="tspan35586"
                 style="font-size:15.8673px;stroke-width:1.53006"
                 x="31.173468"
                 y="142.48775">60</tspan></text>
            <text
               xml:space="preserve"
               style="font-size:15.8673px;line-height:1.25;font-family:'CMU Serif';-inkscape-font-specification:'CMU Serif';stroke-width:1.53006"
               x="31.173468"
               y="86.514771"
               id="text35592"
               transform="scale(0.88231668,1.1333799)"><tspan
                 sodipodi:role="line"
                 id="tspan35590"
                 style="font-size:15.8673px;stroke-width:1.53006"
                 x="31.173468"
                 y="86.514771">80</tspan></text>
            <text
               xml:space="preserve"
               style="font-size:15.8673px;line-height:1.25;font-family:'CMU Serif';-inkscape-font-specification:'CMU Serif';stroke-width:1.53006"
               x="23.239809"
               y="30.462574"
               id="text35596"
               transform="scale(0.88231668,1.1333799)"><tspan
                 sodipodi:role="line"
                 id="tspan35594"
                 style="font-size:15.8673px;stroke-width:1.53006"
                 x="23.239809"
                 y="30.462574">100</tspan></text>
          </g>
        </g>
      </g>
      <g
         id="line2d_12"
         style="stroke:#dc0f1a;stroke-width:1.8;stroke-miterlimit:4;stroke-dasharray:none;stroke-opacity:1" />
      <g
         id="line2d_17"
         style="stroke-width:1.8;stroke-miterlimit:4;stroke-dasharray:none"
         transform="matrix(1,0,0,0.77848269,0,4.1904462)">
        <path
           d="m 44.830585,231.31933 0.421913,-94.10085 0.421913,-60.991005 0.421913,-30.930745 0.421913,-11.761881 0.421913,-3.048756 0.421914,-0.434811 5.062958,0.09981 1.265739,0.05012 2.953393,-0.130613 10.547829,0.05708 0.843827,0.235763 1.265739,0.521073 0.843827,-0.13241 0.843826,-0.175733 1.26574,0.02717 2.109565,0.249587 0.843827,0.281638 0.843826,0.484708 0.843827,0.745767 0.421912,0.596323 0.421913,0.934227 0.421914,1.570528 0.421913,2.700311 0.421913,4.502049 0.421914,6.894554 1.26574,29.116047 0.421913,5.422617 0.421912,-0.219489 0.421913,-5.61843 1.26574,-26.67307 0.421914,-5.964901 0.421913,-3.924489 0.421912,-2.478675 0.421915,-1.594603 0.421912,-1.09131 0.421913,-0.776755 0.421913,-0.539373 0.421914,-0.329297 0.421913,-0.150312 0.843827,0.06359 0.843825,0.388358 0.421914,0.351059 0.421913,0.504066 0.421913,0.701553 0.421913,0.945329 0.421914,1.248102 0.421913,1.62938 0.843827,4.781325 1.687652,11.975703 0.421913,0.963936 0.421913,-0.41573 0.421914,-1.485161 1.265739,-5.573709 0.421913,-1.019798 0.421913,-0.387964 0.421914,0.305716 0.421913,1.077054 0.421913,1.896369 0.843827,5.767236 0.843824,5.575062 0.42191,1.20649 0.42192,-0.364864 0.42191,-1.817411 1.26574,-8.299208 0.42191,-1.635523 0.42192,-0.413666 0.42191,0.949616 0.42191,2.272977 1.26574,9.521563 0.42192,0.927573 0.42191,-1.414749 0.42191,-3.479751 0.84383,-9.026816 0.42191,-3.423209 0.42191,-1.919663 0.42192,-0.248103 0.42191,1.514008 0.42191,3.280045 1.26574,13.686542 0.42192,1.442072 0.42191,-1.541169 1.68765,-14.655759 0.42192,-0.369342 0.42191,1.356638 0.84383,5.726201 0.42191,2.833385 0.42191,1.768501 0.42192,0.261262 0.42191,-1.199697 1.26574,-6.268698 0.42191,-0.49146 0.42192,1.040047 1.26573,6.395599 0.42192,-0.137609 0.42191,-1.748304 0.42191,-2.296801 0.42192,-1.48893 0.42191,0.127532 1.26574,4.42775 0.42191,-0.239622 0.84383,-2.021835 0.42191,-0.205061 0.42192,0.502201 0.42191,0.699587 0.42191,0.451241 0.42192,0.114678 0.84382,-0.247837 0.84383,-0.281819 0.42191,0.177944 0.84383,0.79909 0.42191,-0.01852 0.84383,-0.566809 0.42191,0.21337 0.42191,0.463298 0.42192,0.24946 0.84382,-0.34847 0.42192,0.06666 0.84382,0.574406 1.26574,0.01655 0.84383,0.387266 1.68765,0.292421 2.10957,0.457851 2.95339,0.583405 2.95339,0.810464 4.64105,1.097892 0.84382,0.204291 1.26574,0.12824 1.26574,0.524534 1.26574,0.0026 0.84383,0.463154 1.26574,0.696678 1.26574,0.556608 0.84382,0.05466 1.68766,-0.280839 2.10956,0.257737 1.26574,-0.333978 0.42191,0.05499 0.42192,0.258586 0.84382,0.998808 0.84383,0.97757 0.84383,0.638662 0.84382,0.338514 2.10957,0.139275 2.10957,0.875156 3.3753,1.139217 1.26574,0.44254 0.84383,0.288745 0.84382,0.52265 0.42192,0.06381 0.84382,-0.305952 0.42191,0.285974 0.84383,1.790024 0.42191,0.288987 0.42192,-0.820125 0.84382,-2.679592 0.42192,0.267037 0.42191,1.875252 0.84383,4.845475 0.42191,0.757429 0.42191,-0.79784 1.26574,-5.578873 0.42191,-0.947153 0.42192,-0.04051 0.42191,0.877431 0.84382,3.637808 0.84383,3.386121 0.42191,0.622217 0.42192,-0.276909 0.42191,-1.067868 1.68766,-6.586097 0.42192,-0.766278 0.42191,0.01208 0.42191,0.848121 0.42191,1.60468 1.26574,6.114362 0.42192,0.877474 0.42191,-0.232238 1.26574,-2.977603 0.42191,0.239624 1.26574,2.511754 1.26574,1.163884 0.42191,0.144623 0.84382,-0.151145 0.42192,0.161036 0.84382,0.818635 0.42191,0.215827 0.84383,-0.141928 0.42191,-0.06854 0.84384,0.188962 1.26574,0.5526 1.68765,0.983338 1.26574,0.476117 3.3753,2.280879 0.84383,0.621024 0.84382,0.355704 2.10957,0.674314 2.53149,1.524915 0.84382,0.424581 0.84383,0.705785 0.84382,0.444097 0.42192,0.545541 0.42191,0.798667 0.42191,0.519166 0.42192,-0.451109 0.42191,-1.671208 0.84382,-4.911606 0.42192,-1.671392 0.42191,-0.590085 0.42191,0.393503 0.42191,1.07515 1.26574,3.909014 0.42192,0.556469 0.42191,-0.0035 0.84382,-0.614257 0.42192,0.346967 0.42191,1.389456 1.26574,7.674136 0.42191,0.83716 0.42191,-0.64075 0.42192,-1.221828 0.42192,-0.721183 0.42192,0.231084 1.26573,2.410107 0.84383,0.84851 0.42191,0.23246 0.42192,0.0448 0.84382,-0.14365 0.84383,0.1894 0.84382,0.26971 1.26574,0.21277 0.84383,0.42471 0.84382,0.59698 2.10956,1.93195 0.84383,0.39199 1.68765,1.14175 0.84384,0.0731 0.42191,0.48156 0.84383,1.78272 0.42191,0.28492 0.84383,-0.68994 0.42191,0.612 0.42191,1.88155 0.84383,4.88739 0.42191,1.18976 0.42191,-0.0318 0.84383,-1.65624 0.42191,-0.39485 0.42192,0.31796 0.42191,0.96724 0.84382,2.40797 0.42192,0.27346 0.42191,-0.9989 1.26574,-6.02423 0.42191,-0.16905 1.26574,2.75074 0.84382,0.77632 0.84383,0.57431 1.68766,0.44214 0.42192,0.37146 0.84382,1.1794 0.84383,1.22605 0.84382,0.72816 1.68765,0.78428 0.84383,0.69504 1.26574,0.41208 0.84383,0.79759 0.42191,0.0996 0.42191,-0.0499 0.42191,0.39466 0.42192,1.33743 0.84382,4.26889 0.42191,1.45654 0.42192,0.56208 0.42191,-0.0443 0.84382,-0.39107 0.42193,0.19535 0.42191,0.72321 0.84383,2.15695 0.42191,0.0905 0.42192,-1.08169 0.42191,-1.63135 0.42191,-1.14767 0.42191,-0.10361 0.84383,1.26284 0.42191,0.20469 0.84383,-0.27869 0.42191,0.031 0.84383,0.48541 0.84382,0.45881 0.84383,0.34838 0.42191,0.33343 0.84382,1.14413 0.84383,1.26294 0.84383,0.9002 1.26574,1.10826 0.42191,0.19953 0.42191,-0.26559 0.42193,-0.94885 0.42191,-1.39037 0.42191,-1.00126 0.42191,0.37006 0.42192,2.23063 1.26574,11.53772 0.42191,1.91366 0.42191,-0.17091 0.42191,-2.06655 0.84383,-6.38545 0.42191,-2.10738 0.42192,-0.42706 0.42191,1.03095 0.84382,3.14502 0.42192,0.88756 0.42191,0.4291 2.10956,1.37335 2.53148,2.49019 1.26574,1.84492 0.42192,0.41035 0.42192,0.18848 0.42191,-0.1903 0.42191,-0.72405 0.84383,-1.93827 0.42191,0.44496 0.42191,2.21754 0.84383,7.09663 0.42191,2.36121 0.42191,0.51193 0.42192,-1.21022 1.26574,-6.67724 0.42191,-0.5645 0.42191,0.78044 0.84383,3.12492 0.42191,1.1091 0.84383,1.14733 1.26573,1.293 1.26574,0.86617 0.42192,0.21367 0.42191,0.0295 0.84382,-0.18672 0.42193,0.24207 0.42191,0.81561 0.84383,2.96102 0.42191,0.8244 0.42191,-0.68956 0.42192,-2.31484 0.84382,-5.82487 0.42191,-1.40049 0.42192,-0.10572 0.42191,0.6313 0.42191,0.93571 0.42192,1.30573 0.42191,1.98271 1.26574,7.72135 0.42191,1.37266 0.42191,0.64813 1.68765,1.39436 2.53148,2.89572 0.42191,0.16085 1.26575,-0.0459 0.42192,0.0263 0.42191,-0.32268 0.42191,-0.84118 0.84383,-2.17622 0.42191,-0.57419 1.68765,-0.84318 0.42192,0.89517 0.42191,2.32679 0.84382,6.44961 0.42192,2.01407 0.42191,0.77393 1.26574,0.31715 0.84382,0.6727 0.42192,0.60434 0.84382,1.97761 0.84383,2.08481 0.42191,0.52646 0.42191,-0.21531 0.42191,-0.89744 0.42192,-0.42658 0.42191,2.44098 0.42191,8.06715 0.42193,15.16826 2.10956,104.56226 0.42192,10.34074 0.42191,6.64899 0.42191,4.15177 0.42191,2.62144 0.42192,1.72855 0.42191,1.19875 0.84383,1.50212 0.84382,0.91724 1.26574,1.03068 0.84383,0.48356 1.26573,0.38402 0.84383,0.0837 0.84382,-0.10226 0.84383,-0.32272 2.10958,-1.00212 0.84382,-0.0175 0.84383,0.26712 1.68765,0.72173 0.84383,0.14277 0.84382,-0.0824 1.68765,-0.36096 0.84383,0.0302 2.10956,0.37271 1.26574,-0.22865 0.84383,-0.12712 1.26573,0.12991 0.84384,0.0771 2.53148,-0.0309 1.26574,0.10016 2.10956,-0.10159 1.68765,-0.0512 1.26574,0.0795 1.26574,0.0786 2.10956,-0.0145 24.89288,0.17455 2.95339,0.002 2.95341,0.0277 11.39164,0.0593 35.86263,0.23437 0.84382,0.17481 v 0"
           clip-path="url(#p18272b1ab2)"
           style="fill:none;stroke:#1970d7;stroke-width:2.26676;stroke-linecap:square;stroke-miterlimit:4;stroke-dasharray:none;stroke-opacity:1"
           id="path268" />
      </g>
      <g
         id="line2d_18"
         style="stroke:#0fdcd6;stroke-width:1.8;stroke-miterlimit:4;stroke-dasharray:none;stroke-opacity:1"
         transform="matrix(1,0,0,0.77848269,0,3.022722)">
        <path
           d="m 44.830585,171.19882 0.421913,-105.863571 0.421913,-35.287314 7.172524,0.09939 0.843826,0.179031 2.953393,-0.25558 13.923134,0.09351 0.421914,0.05335 2.109566,0.768601 0.421912,0.0993 1.26574,-0.139927 1.687654,1.128614 0.421913,0.469898 0.843825,1.647437 1.26574,2.217564 0.421914,2.850684 0.421913,5.15172 0.421913,10.178859 1.265739,44.124794 0.421913,0.841975 0.421914,-8.933916 0.843826,-28.542146 0.421914,-10.424372 0.421913,-5.415177 0.421912,-3.761208 0.843827,-3.479903 0.843826,-2.158065 0.843827,-1.003342 0.421913,-0.189787 0.843826,0.07029 0.843827,0.442912 0.843826,1.050127 0.843827,1.585404 0.421913,1.256154 0.421912,1.800279 0.421915,2.493357 0.843825,7.517016 0.421914,4.881827 0.421913,3.559356 0.421913,2.348409 0.421913,-0.615152 0.421914,-1.945251 0.843825,-5.586206 0.421914,-2.253122 0.421913,-1.444424 0.421913,-0.696198 0.843827,0.238624 0.421913,1.379604 0.421912,1.961295 0.843827,7.221472 1.265742,14.843094 0.42191,0.647815 0.42192,-3.166833 1.26573,-16.446253 0.42192,-2.767139 0.42191,-0.804863 0.42191,0.818903 0.42192,1.847225 0.42191,3.506099 1.26574,15.246501 0.42191,0.509214 0.42192,-4.508819 1.26573,-21.68853 0.42192,-3.001612 0.42191,-0.838609 0.42191,0.699162 0.42192,2.224142 0.42191,4.688951 1.26574,24.109645 0.42191,0.454617 0.42192,-6.017818 0.84382,-16.869666 0.42192,-4.77179 0.42191,-1.53369 0.42191,0.930851 0.42192,2.725149 0.84382,9.545043 0.42192,4.719505 0.42191,2.147035 0.42191,-0.8135 0.42192,-3.220249 0.84382,-8.078108 0.42192,-2.790233 0.42191,-0.629613 0.42191,1.357206 0.42191,4.143305 0.84383,9.746947 0.42191,-0.119197 1.26574,-14.853394 0.42192,0.554244 1.26574,13.643566 0.42191,-2.391381 0.42191,-4.962669 0.42192,-3.166732 0.42191,1.003229 0.42191,3.320358 0.42192,2.353822 0.42191,-0.408328 0.42191,-1.99539 0.42191,-0.939191 0.84383,1.225699 0.42191,-1.068287 0.42192,-1.529871 0.42191,0.781749 0.42191,2.678382 0.42192,1.79944 0.42191,-1.959977 0.42191,-3.2351 0.42192,0.204303 0.84382,7.484665 0.42192,-1.696135 0.42191,-3.998682 0.42191,-1.36896 0.84383,5.675894 0.42191,-0.838229 0.42191,-2.375647 0.42192,-0.537024 0.84382,3.218367 0.42192,-0.538493 0.42191,-1.121978 0.42191,-0.335596 0.84383,1.983093 0.42191,-0.296705 0.42192,-1.171893 0.42191,0.337847 0.42191,1.166299 0.42192,0.442898 0.42191,-1.258706 0.42191,-0.0037 0.42192,0.95642 0.42191,0.26874 0.42191,-0.650647 0.42192,0.0062 0.42191,1.089773 0.84383,-0.569631 0.42191,0.07327 0.42191,0.72085 0.42191,-0.231723 0.42192,-0.04841 0.84383,0.470356 0.84382,-0.03654 0.42191,0.446742 0.42192,-0.0811 1.26574,0.309068 0.42191,0.388951 0.42191,-0.281659 0.42192,-0.02155 0.42191,0.480642 0.42191,-0.174361 0.42192,0.688294 0.42191,-0.772699 0.42191,-0.242781 0.42191,1.198094 0.42192,-0.282137 0.42191,1.223029 0.42191,-1.66197 0.42192,-0.207299 0.42191,0.981089 0.42191,0.128347 0.42192,2.263385 0.42191,-1.646909 0.42191,0.729865 0.42192,-1.498379 0.42191,0.502445 0.42191,0.250647 0.84383,1.328751 0.42191,-0.1663 0.42192,0.252804 0.42191,-0.497163 0.42191,0.527748 0.42192,-0.668364 0.42191,0.670057 0.42191,-0.972639 0.42191,1.155534 0.42192,-0.977858 0.42191,1.730406 0.42191,-1.369675 0.42192,2.129378 0.42191,-1.776546 0.42191,2.648442 0.42192,-1.947055 0.42191,2.320519 0.42191,-2.073774 0.42192,1.13051 0.42191,-0.854357 0.42191,0.602398 0.42192,0.836164 0.42191,-0.18099 0.42191,0.348193 0.42192,-0.528287 0.42191,-0.333896 0.42191,0.73521 0.42192,-0.441331 0.42191,0.739748 0.42191,-0.0032 0.42192,0.259318 0.42191,0.53997 0.42191,-0.414939 0.42191,0.539074 0.42192,-0.05853 0.42191,0.130074 0.42191,0.326601 0.42192,-0.146099 0.42191,0.08561 0.84383,0.531538 0.84382,-0.200084 0.42192,0.523572 0.42191,0.714969 0.42191,0.09778 0.84383,0.01203 0.42191,0.270176 0.84383,1.244482 0.42191,-0.763041 0.42191,-1.780127 0.42192,-0.05522 0.84382,6.156581 0.42192,-0.01829 c 3.56511,-13.622718 1.34846,-8.225258 0.84382,-8.459767 l 0.42192,-0.982249 0.42191,4.182193 0.42191,6.648105 0.42191,3.861624 0.42192,-1.354968 0.84382,-9.148554 0.42192,-2.149939 0.42191,0.165936 0.42191,-0.499729 0.42191,2.70605 0.84383,7.271801 0.42191,2.381987 0.42192,0.130175 0.42191,-1.617764 0.84384,-3.93783 0.42191,-0.464929 0.42191,0.721769 0.42192,1.598571 1.26573,6.633701 0.42192,1.485365 0.42191,0.624011 0.42191,-0.317344 0.42192,-1.716492 1.68765,-9.990346 0.42191,-1.530629 0.42191,-0.339898 0.42191,1.711632 0.84383,7.527112 0.42191,1.279056 0.42192,-1.936583 0.42191,-2.844144 0.42191,-0.23533 0.84383,4.353109 0.42191,-1.521835 0.42191,-3.057245 0.42191,-0.402184 0.84383,4.243762 0.84384,-0.351336 0.42191,0.273323 0.84383,-0.743032 0.42191,0.415385 0.42191,0.861588 0.42192,-0.297305 0.42191,-0.57006 0.42191,0.499287 0.42191,0.800468 0.42192,0.08514 0.42191,0.557401 0.42191,-0.623134 0.42192,1.800256 0.42191,-1.475119 0.42191,1.016159 0.42191,-1.707878 0.42192,0.766551 0.42191,-0.113128 0.84383,1.542685 0.42191,0.28308 0.42191,0.669759 0.42191,-0.263213 0.42192,0.547877 0.42191,-0.488721 0.42191,0.178094 0.84383,-0.2833 0.42191,0.892716 0.42191,-0.02393 0.42192,0.540551 0.42191,0.108037 0.42191,0.362733 0.42193,1.059042 0.42191,-0.315615 0.42191,0.880225 0.42192,0.02529 0.42191,0.290074 0.42191,0.05082 0.42191,0.678152 0.42192,-0.200217 0.42191,-0.954633 0.42191,0.376335 0.42192,1.882448 0.42191,0.972563 0.42191,-1.539308 0.42191,-0.523196 0.42192,2.33404 0.42191,3.227064 0.42191,0.26136 0.42191,-3.738913 0.42192,-5.416577 0.42191,-3.730846 0.42191,-0.630546 0.42192,1.81344 0.84382,6.343341 0.84383,6.920543 0.42191,2.00128 0.84383,2.09339 0.42191,0.97894 0.42191,-0.22981 0.42191,-1.7218 1.26576,-12.805161 0.42191,-1.155389 0.42191,2.847275 0.84383,11.501835 0.42191,1.03063 0.84383,-5.56177 0.42191,0.53071 0.42191,2.8039 0.42191,1.16548 0.84383,-2.99549 0.42191,0.0267 0.42191,1.44531 0.42192,-0.32296 0.42191,-0.12201 0.42191,1.19685 0.42192,0.85351 0.42191,1.58479 0.84382,-0.62421 0.42192,0.82566 0.42191,-0.62375 0.42191,-0.28234 0.84383,1.62856 0.42191,2.89078 0.42191,1.52505 0.42192,2.30424 0.42191,1.59567 0.42191,0.6997 0.42193,1.53748 0.42191,-1.40825 0.42191,-0.1986 0.84383,-3.47924 0.42191,-2.24483 0.42191,-1.39955 0.42192,-0.19424 0.42191,-1.37579 0.42191,-0.0747 0.42192,1.93831 0.42191,2.56333 0.42191,-0.51493 0.42191,-2.66258 0.42192,-0.6294 0.84382,5.26763 0.42192,-1.5388 0.84382,-8.84951 0.42191,-1.74493 0.42192,0.92612 1.26573,6.34094 0.42192,1.0753 0.42191,0.0318 0.42191,-0.5846 0.84383,-2.82245 0.42191,-2.16032 0.42191,-1.40115 0.42192,1.37055 0.84384,9.43148 0.42191,0.88049 0.84382,-5.45855 0.42192,0.82156 0.42191,2.03134 0.42191,-0.0277 0.84383,-1.59146 0.42191,1.03258 0.42191,-0.24258 0.42192,-0.035 0.42191,0.40288 0.42191,-0.21615 0.42191,0.15774 0.42192,-1.05692 0.84382,-0.78152 0.42192,-0.0114 0.84382,0.90354 0.42192,-0.59783 0.42191,1.48445 0.42191,-0.25274 0.42191,0.57826 0.42192,-1.09561 0.84382,1.23987 0.42191,-0.62953 0.42192,0.12805 0.42191,1.08718 0.42191,0.54464 0.84384,-3.18395 0.42191,2.67201 0.84383,8.71761 0.42191,-0.3213 0.42192,-2.64982 0.84382,-6.55034 0.84383,-5.87886 0.42191,-1.64172 0.42191,0.90498 1.26574,12.24859 0.42191,0.60465 0.42192,-2.40674 0.42191,-3.98529 0.42191,-2.08158 0.42191,0.97622 0.42192,2.15152 0.42191,0.14728 0.42191,-0.56526 0.42191,0.1217 0.42192,0.78861 0.42191,0.0392 0.42191,-0.73285 0.42192,0.72963 0.42191,-0.53953 0.42191,1.51357 0.42192,-1.64237 0.42191,1.65509 0.42191,-2.12256 0.42193,1.64412 0.42191,-1.63103 0.42191,1.09334 0.42191,-0.5607 0.42192,0.52048 0.84382,0.38692 0.42192,1.1728 0.42191,-0.0239 0.42191,-2.38263 0.42191,-3.08655 0.42192,-0.0855 0.84382,7.20307 0.42192,0.11983 1.26573,-8.66715 0.42192,-0.26604 0.84382,0.33812 0.42191,1.1251 0.42192,3.48068 0.42191,4.45917 0.42191,2.70464 0.42192,-1.5201 0.42191,-3.79661 0.42191,-2.18584 0.42191,0.26646 0.42192,2.57219 0.42191,-0.36734 0.42191,0.25548 0.42191,-1.37283 0.42192,1.51426 0.42192,-1.13844 0.42192,1.27479 0.42191,-1.40665 0.42191,1.24003 0.42192,-1.27892 0.42191,1.50654 0.42191,-1.21373 0.42191,0.57926 0.42192,-1.33502 0.42191,0.95037 0.42191,0.4981 0.42191,1.86457 0.42192,1.13417 0.42191,-1.17126 0.42191,-2.42005 0.42192,-0.6181 0.84382,6.22582 0.42191,0.75641 0.42192,-1.82726 0.84382,-5.33513 0.42192,-1.94013 0.42191,-0.45703 0.42191,1.94918 0.84383,7.10052 0.42191,1.05582 0.42191,-1.93163 0.42192,-3.80697 0.42191,-1.38545 0.84382,2.4992 0.42193,0.33479 0.42191,-0.98757 0.42192,1.04451 0.42191,-0.40489 0.42191,0.14044 0.42191,-0.88645 0.42192,-0.1155 0.84382,0.33712 0.42191,-0.49939 0.42192,0.29643 0.42191,0.63108 0.42191,1.90454 0.42192,0.0453 0.42191,0.32596 0.42191,1.7212 0.42191,2.58051 0.42192,0.0468 0.42191,-3.65448 0.42191,-4.98582 0.42191,-3.49221 0.42192,-1.32453 0.42191,0.40968 0.42191,0.92386 0.42192,0.32771 0.42191,-0.53206 0.42191,0.59077 0.42191,2.67174 0.42192,4.47713 0.42191,1.74449 0.42191,-0.67192 0.42192,-2.17298 0.42191,-0.0721 0.42192,0.54645 0.42192,0.32031 0.42191,-0.52446 0.42191,0.54915 0.42192,-0.49221 0.42191,1.59744 0.42191,-0.72081 0.42192,0.91904 0.42191,-1.55444 0.42191,-0.92125 0.42191,-1.52096 0.42192,-0.6783 0.84382,2.30256 0.42191,-0.71966 0.42192,-2.34953 0.42191,-0.91952 0.42191,2.23261 0.84383,6.67029 0.42191,0.89111 0.42191,-0.84162 1.26574,-7.0931 0.42191,0.79188 0.42192,2.83792 0.42191,1.98332 0.42191,-0.14663 0.42191,-1.066 0.42192,-0.19861 0.42191,0.88932 0.42191,-0.41478 0.42193,1.71439 0.42191,-1.29436 0.42192,0.77572 0.42191,-2.66758 0.42191,0.40073 0.42191,-0.0212 0.42192,1.81942 0.42191,0.73654 0.42191,-1.03271 0.42191,-0.68349 0.42192,1.20531 0.42191,2.93668 0.42191,1.58153 0.42192,-0.57713 0.42191,-1.26047 0.42191,-0.59813 0.42192,0.69585 0.84382,2.86294 0.42191,-0.8005 0.84383,-5.66252 0.42191,0.0915 0.84383,2.2785 0.42191,-1.16554 0.42191,0.95575 0.42191,-0.708 0.42192,1.05466 0.42191,-2.05005 0.42191,1.06105 0.42192,-0.24118 0.42191,1.33997 0.42191,-0.68869 0.42193,0.77896 0.42191,1.5167 0.42191,1.02807 0.42192,-1.99298 0.42191,-4.11017 0.42191,-2.88064 0.42192,-0.73738 0.42191,0.60662 0.84382,-0.043 0.42192,1.69609 0.84382,6.66119 0.42191,0.16694 0.84383,-2.04468 0.42191,0.61467 1.26574,-0.94244 1.68765,4.39297 0.42192,0.81873 0.84382,-3.89808 0.42191,-0.72514 0.42192,2.47626 0.42191,3.46852 0.42191,2.02199 0.42191,0.19638 0.42192,-0.0301 0.42192,-0.17962 0.42192,-0.90741 0.84382,-6.12979 0.42191,-0.81492 0.42192,1.14522 0.42191,1.62034 0.42191,-0.79213 0.42192,-0.3496 0.42191,-0.0161 0.42191,1.05645 0.84383,0.11924 0.42191,-0.2578 0.42191,0.23287 0.42192,-0.70256 0.42191,0.85295 0.84382,3.99523 0.42192,0.34899 0.84382,-2.19994 0.42191,0.19434 0.84383,2.67763 0.42191,-0.85304 0.42191,-2.80621 0.42192,-2.01892 0.42191,-0.003 0.42191,2.32275 0.42192,0.37889 0.42191,0.0165 0.42191,-2.04816 0.42193,0.21786 0.42191,-0.39957 0.42191,0.93647 0.42192,-0.22682 0.42191,0.73381 0.42191,0.0943 0.42191,-1.00054 0.84383,-3.92604 0.42191,-0.53851 0.42192,0.39669 0.42191,-0.2435 0.42191,0.41624 0.42191,1.53102 0.42192,3.2296 0.42191,1.83054 0.42191,-0.002 0.42192,-1.5771 0.42191,-0.0446 0.42191,1.03623 0.42191,1.50971 0.42192,0.69983 0.42191,0.34863 0.42191,-0.38086 0.42192,-0.83701 0.42191,-1.91599 0.42191,0.18042 0.42191,2.13972 0.42192,3.06504 0.42191,1.16307 0.42191,-0.53639 0.42191,-0.0965 0.42192,0.43025 0.42191,0.24512 0.42193,-1.96004 0.84382,-5.13957 0.42191,0.0147 0.42192,2.13402 0.42191,0.87739 0.42191,1.62786 0.42192,-1.31162 0.42191,0.3612 0.42191,-0.64358 0.42191,1.42088 0.42192,-0.36163 0.84382,-4.011 0.42192,0.21095 0.42191,2.19099 0.42191,1.54582 0.42191,-0.0241 0.84383,-3.34985 0.42191,0.13742 0.84383,3.66051 0.42191,0.10223 0.42191,-0.99431 0.42192,-0.63877 0.42191,-0.90693 0.42191,0.11135 0.42191,0.72787 0.42192,2.11526 0.42191,1.47015 0.42191,-1.40462 0.84384,-4.90288 0.84383,0.23925 0.42191,0.22704 0.42191,-0.33453 0.42191,1.35002 0.84383,3.49521 0.42191,0.54709 0.42192,-0.47647 0.42191,0.88024 0.42191,-1.18807 0.42191,0.5059 0.42192,-0.54235 0.42191,1.14732 0.42191,-0.56699 0.42192,-1.26467 0.42191,0.70259 0.42191,1.49739 0.42191,3.28755 0.42192,0.76563 0.42191,0.13123 0.84383,-3.97454 0.42191,-1.23158 0.42191,-0.009 0.42191,1.48039 0.42192,0.69212 0.42191,1.66573 0.42191,-0.90446 0.42191,-0.14779 0.42192,-1.33763 0.42191,0.64297 0.84384,-1.63746 0.42191,-0.31109 0.84383,3.90929 0.42191,0.64192 1.26574,-6.48466 0.42191,-0.09 0.42191,0.81586 0.42192,-0.0167 0.42191,1.96267 0.42191,0.78982 0.42191,1.86366 0.42192,-0.008 0.42191,0.84206 0.84383,-2.42394 0.42191,-0.46581 0.84382,1.11555 0.42192,-0.19198 0.42191,0.51709 0.42191,1.76195 0.42192,2.2762 0.42191,0.74448 0.42191,-1.93577 0.42191,-3.66741 0.42192,-0.40956 0.42191,0.50573 0.42191,3.49889 0.42192,-1.98533 0.42191,2.57866 0.42193,-0.0535 0.42191,2.52334 0.42191,-5.24101 0.42191,-0.87589 0.42192,12.66325 0.42191,33.30592 0.84382,86.17075 0.42192,31.87194 0.42191,21.65153 0.42191,13.46175 0.42191,6.74129 0.42192,2.08936 0.42191,0.40069 0.42191,0.88896 0.42192,1.45043 0.42191,0.95103 0.42191,-0.0175 0.42191,-0.39265 0.42192,0.0536 0.84382,1.26502 0.42192,0.11829 0.84382,-0.59593 0.42191,0.12441 0.84383,0.72538 0.42191,-0.0553 0.84383,-0.54359 0.42191,0.0812 0.84384,0.56667 0.42191,0.0796 0.84383,-0.25804 0.84382,-0.2473 0.42192,0.05 1.26574,0.48265 1.68765,-0.39431 0.84382,0.12768 0.42191,0.17037 v 0"
           clip-path="url(#p18272b1ab2)"
           style="fill:none;stroke:#bf1926;stroke-width:2.48246;stroke-linecap:square;stroke-miterlimit:4;stroke-dasharray:none;stroke-opacity:1"
           id="path271"
           transform="matrix(1,0,0,0.9978884,0,0.73364753)"
           sodipodi:nodetypes="cccccccccccccccccccccccccccccccccccccccccccccccccccccccccccccccccccccccccccccccccccccccccccccccccccccccccccccccccccccccccccccccccccccccccccccccccccccccccccccccccccccccccccccccccccccccccccccccccccccccccccccccccccccccccccccccccccccccccccccccccccccccccccccccccccccccccccccccccccccccccccccccccccccccccccccccccccccccccccccccccccccccccccccccccccccccccccccccccccccccccccccccccccccccccccccccccccccccccccccccccccccccccccccccccccccccccccccccccccccccccccccccccccccccccccccccccccccccccccccccccccccccccccccccccccccccccccccccccccccccccccccccccccccccccccccccccccccccccccccccccccccccccccccccccccccccccccccccccccccccccccccccccccccccccccccccccccccccccccccccccccccccccccccccccccccccccccccccccccccccccccccccccccccccccccccccccccccccccccccccccccccccccccccccccccccccccccccccccccccccccccccccccccccccccccccc" />
        <text
           xml:space="preserve"
           style="font-size:14.7339px;line-height:1.25;font-family:'CMU Serif';-inkscape-font-specification:'CMU Serif';stroke-width:1.53006;stroke-dasharray:none;fill:#bf1926;fill-opacity:1"
           x="475.88193"
           y="105.79684"
           id="text35892"
           transform="scale(0.88231668,1.1333799)"><tspan
             sodipodi:role="line"
             id="tspan35890"
             style="font-size:14.7339px;fill:#bf1926;fill-opacity:1;stroke:none;stroke-width:1.53006;stroke-dasharray:none;stroke-opacity:1"
             x="475.88193"
             y="105.79684">m=10</tspan></text>
        <text
           xml:space="preserve"
           style="font-size:14.7339px;line-height:1.25;font-family:'CMU Serif';-inkscape-font-specification:'CMU Serif';fill:#1970d7;fill-opacity:1;stroke:#0fdcd6;stroke-width:1.53006;stroke-linecap:butt;stroke-linejoin:round;stroke-miterlimit:4;stroke-dasharray:none;stroke-opacity:1"
           x="401.81351"
           y="298.86694"
           id="text35892-3"
           transform="scale(0.88231668,1.1333799)"><tspan
             sodipodi:role="line"
             id="tspan35890-1"
             style="font-size:14.7339px;fill:#1970d7;fill-opacity:1;stroke:none;stroke-width:1.53006;stroke-dasharray:none;stroke-opacity:1"
             x="401.81351"
             y="298.86694">m=7</tspan></text>
      </g>
      <g
         id="patch_3"
         style="stroke-width:1.81052;stroke-miterlimit:4;stroke-dasharray:none"
         transform="matrix(1,0,0,0.76945912,0,4.4243203)">
        <path
           d="M 47.38125,351.96375 V 25.918125"
           style="fill:none;stroke:#000000;stroke-width:1.81052;stroke-linecap:square;stroke-linejoin:miter;stroke-miterlimit:4;stroke-dasharray:none"
           id="path274" />
      </g>
      <g
         id="patch_4"
         style="stroke-width:1.8;stroke-miterlimit:4;stroke-dasharray:none"
         transform="matrix(1,0,0,0.76615204,0,4.5100335)">
        <path
           d="M 465.84,351.96375 V 25.918125"
           style="fill:none;stroke:#000000;stroke-width:1.8;stroke-linecap:square;stroke-linejoin:miter;stroke-miterlimit:4;stroke-dasharray:none"
           id="path277" />
      </g>
      <g
         id="patch_5"
         style="stroke-width:1.8;stroke-miterlimit:4;stroke-dasharray:none"
         transform="matrix(0.99846014,0,0,0.77848269,0.78120984,1.1557944)">
        <path
           d="M 47.38125,351.96375 H 465.84"
           style="fill:none;stroke:#000000;stroke-width:1.8;stroke-linecap:square;stroke-linejoin:miter;stroke-miterlimit:4;stroke-dasharray:none"
           id="path280" />
      </g>
      <g
         id="patch_6"
         style="stroke-width:1.8;stroke-miterlimit:4;stroke-dasharray:none"
         transform="matrix(1,0,0,0.77848269,0,4.1904462)">
        <path
           d="M 47.38125,25.918125 H 465.84"
           style="fill:none;stroke:#000000;stroke-width:1.8;stroke-linecap:square;stroke-linejoin:miter;stroke-miterlimit:4;stroke-dasharray:none"
           id="path283" />
      </g>
      <g
         aria-label="λ = 0.3 nm N = 5000 d =2 → 40 nm"
         id="text166-6"
         style="font-size:16px;line-height:1;font-family:Cantarell;fill:#2e3436;stroke-width:1.35"
         transform="matrix(1,0,0,0.77848269,8.2980475,3.8551808)">
        <text
           xml:space="preserve"
           style="font-size:11.3338px;line-height:1.25;font-family:'CMU Serif';-inkscape-font-specification:'CMU Serif';fill:#000000;fill-opacity:1;stroke-width:1.14755"
           x="47.037533"
           y="300.92612"
           id="text28471"
           transform="scale(0.88231668,1.1333799)"><tspan
             sodipodi:role="line"
             style="font-size:11.3338px;fill:#000000;fill-opacity:1;stroke-width:1.14755"
             x="47.037533"
             y="300.92612"
             id="tspan28475">$\lambda$ = 0.3 nm</tspan></text>
        <text
           xml:space="preserve"
           style="font-size:11.3338px;line-height:1.25;font-family:'CMU Serif';-inkscape-font-specification:'CMU Serif';fill:#1970d7;fill-opacity:1;stroke-width:1.14755;stroke-linecap:butt;stroke-linejoin:round;stroke-miterlimit:4;stroke-dasharray:none"
           x="289.34253"
           y="267.10138"
           id="text28471-1"
           transform="scale(0.88231668,1.1333799)"><tspan
             sodipodi:role="line"
             id="tspan28469-8"
             style="font-size:11.3338px;fill:#1970d7;fill-opacity:1;stroke-width:1.14755"
             x="289.34253"
             y="267.10138" /><tspan
             sodipodi:role="line"
             style="font-size:11.3338px;fill:#1970d7;fill-opacity:1;stroke-width:1.14755"
             x="289.34253"
             y="281.26862"
             id="tspan28473-16">N = 5000</tspan><tspan
             sodipodi:role="line"
             style="font-size:11.3338px;fill:#1970d7;fill-opacity:1;stroke-width:1.14755"
             x="289.34253"
             y="295.43588"
             id="tspan28475-6">d = 2 $\rightarrow$ 40 nm</tspan></text>
        <text
           xml:space="preserve"
           style="font-size:11.3338px;line-height:1.25;font-family:'CMU Serif';-inkscape-font-specification:'CMU Serif';fill:#bf1926;fill-opacity:1;stroke-width:1.14755;stroke-linecap:butt;stroke-linejoin:round;stroke-miterlimit:4;stroke-dasharray:none"
           x="389.46515"
           y="38.877975"
           id="text28471-7"
           transform="scale(0.88231668,1.1333799)"><tspan
             sodipodi:role="line"
             style="font-size:11.3338px;fill:#bf1926;fill-opacity:1;stroke-width:1.14755"
             x="389.46515"
             y="38.877975"
             id="tspan28473-1">N = 15000</tspan><tspan
             sodipodi:role="line"
             style="font-size:11.3338px;fill:#bf1926;fill-opacity:1;stroke-width:1.14755"
             x="389.46515"
             y="53.045227"
             id="tspan28475-2">d = 1.5 $\rightarrow$ 40 nm</tspan></text>
        <text
           xml:space="preserve"
           style="font-size:13.6006px;line-height:1.25;font-family:'CMU Serif';-inkscape-font-specification:'CMU Serif';stroke-width:1.14755"
           x="38.316341"
           y="323.5928"
           id="text35600"
           transform="scale(0.88231668,1.1333799)"><tspan
             sodipodi:role="line"
             id="tspan35598"
             style="font-size:13.6006px;stroke-width:1.14755"
             x="38.316341"
             y="323.5928">0</tspan></text>
        <text
           xml:space="preserve"
           style="font-size:13.6006px;line-height:1.25;font-family:'CMU Serif';-inkscape-font-specification:'CMU Serif';stroke-width:1.14755"
           x="115.12849"
           y="323.5928"
           id="text35604"
           transform="scale(0.88231668,1.1333799)"><tspan
             sodipodi:role="line"
             id="tspan35602"
             style="font-size:13.6006px;stroke-width:1.14755"
             x="115.12849"
             y="323.5928">0.5</tspan></text>
        <text
           xml:space="preserve"
           style="font-size:13.6006px;line-height:1.25;font-family:'CMU Serif';-inkscape-font-specification:'CMU Serif';stroke-width:1.14755"
           x="191.92281"
           y="324.38971"
           id="text35608"
           transform="scale(0.88231668,1.1333799)"><tspan
             sodipodi:role="line"
             id="tspan35606"
             style="font-size:13.6006px;stroke-width:1.14755"
             x="191.92281"
             y="324.38971">1.0</tspan></text>
        <text
           xml:space="preserve"
           style="font-size:13.6006px;line-height:1.25;font-family:'CMU Serif';-inkscape-font-specification:'CMU Serif';stroke-width:1.14755"
           x="271.73727"
           y="323.5928"
           id="text35612"
           transform="scale(0.88231668,1.1333799)"><tspan
             sodipodi:role="line"
             id="tspan35610"
             style="font-size:13.6006px;stroke-width:1.14755"
             x="271.73727"
             y="323.5928">1.5</tspan></text>
        <text
           xml:space="preserve"
           style="font-size:13.6006px;line-height:1.25;font-family:'CMU Serif';-inkscape-font-specification:'CMU Serif';stroke-width:1.14755"
           x="352.85403"
           y="324.38971"
           id="text35616"
           transform="scale(0.88231668,1.1333799)"><tspan
             sodipodi:role="line"
             id="tspan35614"
             style="font-size:13.6006px;stroke-width:1.14755"
             x="352.85403"
             y="324.38971">2.0</tspan></text>
        <text
           xml:space="preserve"
           style="font-size:13.6006px;line-height:1.25;font-family:'CMU Serif';-inkscape-font-specification:'CMU Serif';stroke-width:1.14755"
           x="435.52142"
           y="323.5928"
           id="text35620"
           transform="scale(0.88231668,1.1333799)"><tspan
             sodipodi:role="line"
             id="tspan35618"
             style="font-size:13.6006px;stroke-width:1.14755"
             x="435.52142"
             y="323.5928">2.5</tspan></text>
      </g>
      <g
         aria-label="Ni/Ti  σ = 7.0 nm"
         id="text166-6-7-9-2-6"
         style="font-size:16px;line-height:1;font-family:Cantarell;fill:#0000b0;stroke-width:1.35"
         transform="matrix(1,0,0,0.77848269,0,4.1904462)">
        <text
           xml:space="preserve"
           style="font-size:36.2682px;line-height:1.25;font-family:'CMU Serif';-inkscape-font-specification:'CMU Serif';text-align:center;text-anchor:middle;stroke-width:1.14755"
           x="418.16321"
           y="158.79257"
           id="text9756"
           transform="scale(0.88231666,1.1333799)"><tspan
             sodipodi:role="line"
             style="stroke-width:1.14755"
             x="418.16321"
             y="158.79257"
             id="tspan9758" /></text>
        <text
           xml:space="preserve"
           style="font-size:13.6006px;line-height:1.25;font-family:'CMU Serif';-inkscape-font-specification:'CMU Serif';fill:#1970d7;fill-opacity:1;stroke-width:1.14755"
           x="398.76575"
           y="178.48395"
           id="text9764"
           transform="scale(0.88231667,1.1333799)"><tspan
             sodipodi:role="line"
             id="tspan9762"
             style="font-size:13.6006px;fill:#1970d7;fill-opacity:1;stroke:#1970d7;stroke-width:1.14755;stroke-opacity:1"
             x="398.76575"
             y="178.48395">Ni/Ti </tspan><tspan
             sodipodi:role="line"
             style="font-size:13.6006px;fill:#1970d7;fill-opacity:1;stroke:#1970d7;stroke-width:1.14755;stroke-opacity:1"
             x="398.76575"
             y="195.4847"
             id="tspan9766">$\sigma$ = 7 Å</tspan></text>
        <text
           xml:space="preserve"
           style="font-size:4.53352px;line-height:1.25;font-family:'CMU Serif';-inkscape-font-specification:'CMU Serif';fill:#bf1926;fill-opacity:1;stroke-width:1.14755;stroke-linecap:butt;stroke-linejoin:round;stroke-miterlimit:4;stroke-dasharray:none"
           x="285.79294"
           y="41.932217"
           id="text9764-0-2"
           transform="scale(0.88231668,1.1333799)"><tspan
             sodipodi:role="line"
             style="font-size:4.53352px;fill:#bf1926;fill-opacity:1;stroke-width:1.14755"
             x="285.79294"
             y="41.932217"
             id="tspan9897">Ni/Ti + \BC </tspan><tspan
             sodipodi:role="line"
             style="font-size:4.53352px;fill:#bf1926;fill-opacity:1;stroke-width:1.14755"
             x="285.79294"
             y="47.599117"
             id="tspan9766-2-5">$\sigma$ = 3 Å</tspan></text>
        <path
           style="fill:none;stroke:#000000;stroke-width:0.842946px;stroke-linecap:butt;stroke-linejoin:miter;stroke-dasharray:2.52883, 0.842946;stroke-dashoffset:0;stroke-opacity:1"
           d="M 248.11205,26.005391 V 347.02286"
           id="path9831" />
        <path
           style="fill:none;stroke:#000000;stroke-width:0.906704;stroke-linecap:butt;stroke-linejoin:miter;stroke-dasharray:none;stroke-opacity:1;marker-end:url(#TriangleStart)"
           d="m 220.69407,134.77231 19.57961,-16.72324"
           id="path21991"
           sodipodi:nodetypes="cc" />
        <text
           xml:space="preserve"
           style="font-size:4.53352px;line-height:1.25;font-family:'CMU Serif';-inkscape-font-specification:'CMU Serif';stroke-width:1.14755"
           x="217.19565"
           y="132.67531"
           id="text22255"
           transform="scale(0.88231668,1.1333799)"><tspan
             sodipodi:role="line"
             id="tspan22253"
             style="font-size:4.53352px;fill:#000000;fill-opacity:1;stroke-width:1.14755"
             x="217.19565"
             y="132.67531">$\Lambda$ = 60 Å</tspan></text>
        <text
           xml:space="preserve"
           style="font-size:4.53352px;line-height:1.25;font-family:'CMU Serif';-inkscape-font-specification:'CMU Serif';fill:#bf1926;fill-opacity:1;stroke-width:1.14755;stroke-linecap:butt;stroke-linejoin:round;stroke-miterlimit:4;stroke-dasharray:none"
           x="233.19814"
           y="41.932217"
           id="text9764-0-2-0"
           transform="scale(0.88231668,1.1333799)"><tspan
             sodipodi:role="line"
             style="font-size:4.53352px;fill:#bf1926;fill-opacity:1;stroke-width:1.14755"
             x="233.19814"
             y="41.932217"
             id="tspan9897-0">Ni/Ti </tspan><tspan
             sodipodi:role="line"
             style="font-size:4.53352px;fill:#bf1926;fill-opacity:1;stroke-width:1.14755"
             x="233.19814"
             y="47.599117"
             id="tspan9766-2-5-4">$\sigma$ = 7 Å</tspan></text>
      </g>
      <g
         aria-label="Ni/Ti +  Ni/Ti + 11B4C  N = 15000 σ = 0.7/0.30 nm d =1.5 → 40 nm"
         id="text166-6-7-9-2-2-9"
         style="font-size:16px;line-height:1;font-family:Cantarell;fill:#0fdcd6;stroke-width:1.35"
         transform="matrix(1,0,0,0.77848269,-116.38736,-26.071424)" />
      <text
         xml:space="preserve"
         style="font-size:32px;line-height:1.25;font-family:'CMU Serif';-inkscape-font-specification:'CMU Serif';stroke-width:1.35"
         x="407.81171"
         y="207.67201"
         id="text42064"><tspan
           sodipodi:role="line"
           id="tspan42062"
           style="stroke-width:1.35"
           x="407.81171"
           y="207.67201"></tspan><tspan
           sodipodi:role="line"
           style="stroke-width:1.35"
           id="tspan42066"
           x="407.81171"
           y="247.67201" /></text>
    </g>
    <text
       xml:space="preserve"
       style="font-size:11px;line-height:1.25;font-family:'CMU Serif';-inkscape-font-specification:'CMU Serif';text-align:center;text-anchor:middle;stroke-width:0.75"
       x="252.90372"
       y="322.89932"
       id="text9682"><tspan
         sodipodi:role="line"
         id="tspan9680"
         style="font-size:11px;stroke-width:0.75"
         x="252.90372"
         y="322.89932">Grazing incidence angle $\theta$ ($\degree$)</tspan></text>
  </g>
  <defs
     id="defs1052">
    <clipPath
       id="p18272b1ab2">
      <rect
         x="47.381248"
         y="25.918125"
         width="418.45874"
         height="326.04562"
         id="rect1049" />
    </clipPath>
  </defs>
</svg>
